<svg width="36" height="36" viewBox="0 0 36 36" fill="none" xmlns="http://www.w3.org/2000/svg">
<path fill-rule="evenodd" clip-rule="evenodd" d="M0 18C0 27.9411 8.05888 36 18 36C27.9411 36 36 27.9411 36 18C36 8.05888 27.9411 0 18 0C8.05888 0 0 8.05888 0 18ZM33.3134 18C33.3134 26.4574 26.4574 33.3134 18 33.3134C9.54261 33.3134 2.68655 26.4574 2.68655 18C2.68655 9.54262 9.54261 2.68657 18 2.68657C26.4574 2.68657 33.3134 9.54262 33.3134 18Z" fill="#EFF0F7"/>
<mask id="mask0_3243_44265" style="mask-type:alpha" maskUnits="userSpaceOnUse" x="0" y="0" width="36" height="36">
<path fill-rule="evenodd" clip-rule="evenodd" d="M0 18C0 27.9411 8.05888 36 18 36C27.9411 36 36 27.9411 36 18C36 8.05888 27.9411 0 18 0C8.05888 0 0 8.05888 0 18ZM33.3134 18C33.3134 26.4574 26.4574 33.3134 18 33.3134C9.54261 33.3134 2.68655 26.4574 2.68655 18C2.68655 9.54262 9.54261 2.68657 18 2.68657C26.4574 2.68657 33.3134 9.54262 33.3134 18Z" fill="white"/>
</mask>
<g mask="url(#mask0_3243_44265)">
<path fill-rule="evenodd" clip-rule="evenodd" d="M-2.95522 -4.56714H20.1493V19.0747L-6.44775 46.4776L-2.95522 -4.56714Z" fill="#EFF0F7"/>
</g>
</svg>
