<svg width="82" height="82" viewBox="0 0 82 82" fill="none" xmlns="http://www.w3.org/2000/svg">
<path fill-rule="evenodd" clip-rule="evenodd" d="M41 81C63.0914 81 81 63.0914 81 41C81 18.9086 63.0914 1 41 1C18.9086 1 1 18.9086 1 41C1 63.0914 18.9086 81 41 81Z" stroke="#FF6666" stroke-opacity="0.2"/>
<path fill-rule="evenodd" clip-rule="evenodd" d="M41 73C58.6731 73 73 58.6731 73 41C73 23.3269 58.6731 9 41 9C23.3269 9 9 23.3269 9 41C9 58.6731 23.3269 73 41 73Z" stroke="#FF4C4D" stroke-opacity="0.5"/>
<path fill-rule="evenodd" clip-rule="evenodd" d="M41 65C54.2548 65 65 54.2548 65 41C65 27.7452 54.2548 17 41 17C27.7452 17 17 27.7452 17 41C17 54.2548 27.7452 65 41 65Z" stroke="#FF0000" stroke-opacity="0.75"/>
<circle cx="41" cy="41" r="16.5" stroke="#FF0000" stroke-width="2"/>
<path d="M36.5 36.5L45.5 45.5" stroke="#FF0000" stroke-width="2" stroke-linecap="round" stroke-linejoin="round"/>
<path d="M36.5 45.5L45.5 36.5" stroke="#FF0000" stroke-width="2" stroke-linecap="round" stroke-linejoin="round"/>
</svg>
