<svg width="24" height="24" viewBox="0 0 24 24" fill="none" xmlns="http://www.w3.org/2000/svg">
<circle cx="12" cy="12" r="10" fill="#EFF0F7"/>
<path fill-rule="evenodd" clip-rule="evenodd" d="M16.295 9.60549L11.727 15.6055C11.539 15.8525 11.248 15.9985 10.938 16.0005H10.931C10.624 16.0005 10.334 15.8585 10.144 15.6165L7.712 12.5095C7.372 12.0755 7.448 11.4465 7.883 11.1065C8.317 10.7655 8.947 10.8415 9.287 11.2775L10.92 13.3635L14.704 8.39449C15.038 7.95549 15.665 7.86949 16.106 8.20449C16.545 8.53949 16.63 9.16649 16.295 9.60549ZM12 2.00049C6.477 2.00049 2 6.47749 2 12.0005C2 17.5225 6.477 22.0005 12 22.0005C17.523 22.0005 22 17.5225 22 12.0005C22 6.47749 17.523 2.00049 12 2.00049Z" fill="#FCFCFC"/>
<path fill-rule="evenodd" clip-rule="evenodd" d="M16.2955 9.60549L11.7275 15.6055C11.5395 15.8525 11.2485 15.9985 10.9385 16.0005H10.9315C10.6245 16.0005 10.3345 15.8585 10.1445 15.6165L7.71248 12.5095C7.37248 12.0755 7.44848 11.4465 7.88348 11.1065C8.31748 10.7655 8.94748 10.8415 9.28748 11.2775L10.9205 13.3635L14.7045 8.39449C15.0385 7.95549 15.6655 7.86949 16.1065 8.20449C16.5455 8.53949 16.6305 9.16649 16.2955 9.60549Z" fill="#00CC67"/>
<mask id="path-4-inside-1_3716_42181" fill="white">
<path fill-rule="evenodd" clip-rule="evenodd" d="M12 2.00049C6.477 2.00049 2 6.47749 2 12.0005C2 17.5225 6.477 22.0005 12 22.0005C17.523 22.0005 22 17.5225 22 12.0005C22 6.47749 17.523 2.00049 12 2.00049"/>
</mask>
<path d="M12 0.000488281C5.37243 0.000488281 0 5.37292 0 12.0005H4C4 7.58206 7.58157 4.00049 12 4.00049V0.000488281ZM0 12.0005C0 18.6269 5.3723 24.0005 12 24.0005V20.0005C7.5817 20.0005 4 16.418 4 12.0005H0ZM12 24.0005C18.6277 24.0005 24 18.6269 24 12.0005H20C20 16.418 16.4183 20.0005 12 20.0005V24.0005ZM24 12.0005C24 5.37292 18.6276 0.000488281 12 0.000488281V4.00049C16.4184 4.00049 20 7.58206 20 12.0005H24Z" fill="#00CC67" mask="url(#path-4-inside-1_3716_42181)"/>
</svg>
