<svg width="247" height="50" viewBox="0 0 247 50" fill="none" xmlns="http://www.w3.org/2000/svg">
<path d="M18.073 45.5793V39.0325L20.4684 37.498V49.9999L18.073 45.5793Z" fill="#FED900"/>
<path d="M2.39539 35.9638L18.073 45.5794L20.4684 50L0 37.4982V25.0037L2.39539 29.4242V35.9638Z" fill="#FED900"/>
<path d="M12.1699 32.4272L20.4685 37.4981L18.0731 39.0325L9.72998 33.9178L12.1699 32.4272Z" fill="#FED900"/>
<path d="M20.4684 25.0038L0 37.4983V25.0038L20.4684 12.502V25.0038Z" fill="#FED900"/>
<path d="M20.4684 25.0038H0L20.4684 12.502V25.0038Z" fill="#FED900"/>
<path d="M26.2529 4.42058V10.9674L23.8501 12.5018V0L26.2529 4.42058Z" fill="#FED900"/>
<path d="M41.9231 14.0362L26.2529 4.42058L23.8501 0L44.3259 12.5018V25.0037L41.9231 20.5758V14.0362Z" fill="#FED900"/>
<path d="M32.1561 17.5728L23.8501 12.5019L26.2529 10.9675L34.5886 16.0822L32.1561 17.5728Z" fill="#FED900"/>
<path d="M23.8501 25.0038L44.3259 12.502V25.0038L23.8501 37.4983V25.0038Z" fill="#FED900"/>
<path d="M23.8501 25.0037H44.3259L23.8501 37.4982V25.0037Z" fill="#FED900"/>
<path d="M72.1658 32.9679V33.6548C72.1658 37.1474 71.2067 39.7949 69.2884 41.5972C67.3701 43.3995 64.7448 44.3007 61.4125 44.3007C58.0753 44.3007 55.4475 43.3995 53.5292 41.5972C51.6109 39.7949 50.6543 37.1474 50.6592 33.6548V9.05298H56.9925V17.7042H70.5714V23.3815H56.9925V33.6548C56.9925 36.8697 58.4757 38.4772 61.4422 38.4772C64.4086 38.4772 65.8918 36.8697 65.8918 33.6548V32.9679H72.1658Z" fill="#231F20"/>
<path d="M101.763 32.8804H80.2048V32.9827C80.5437 34.635 81.4692 36.1142 82.8153 37.1548C84.2274 38.1861 85.9532 38.7142 87.7099 38.6527C90.5131 38.6527 92.5896 37.8295 93.9394 36.183H100.703C99.7654 38.638 98.0454 40.7275 95.8008 42.138C93.3817 43.6377 90.5671 44.4002 87.7099 44.33C83.5223 44.33 80.1158 43.0538 77.4905 40.5013C76.1893 39.2169 75.1686 37.6837 74.4914 35.9961C73.8141 34.3085 73.4947 32.5022 73.5526 30.6883C73.4992 28.8827 73.8209 27.0854 74.4981 25.4067C75.1753 23.728 76.1936 22.2034 77.4905 20.9265C78.8448 19.6405 80.4468 18.6347 82.2019 17.9684C83.9571 17.302 85.8299 16.9886 87.7099 17.0467C89.5753 16.9802 91.4349 17.29 93.1744 17.9572C94.9139 18.6244 96.4966 19.6349 97.8254 20.9265C99.1223 22.2034 100.141 23.728 100.818 25.4067C101.495 27.0854 101.817 28.8827 101.763 30.6883V32.8804ZM87.6728 22.7021C86.0329 22.6589 84.4203 23.1212 83.06 24.0246C81.7567 24.9335 80.8071 26.2531 80.368 27.7657V27.8679H95.0592V27.7657C94.6128 26.2605 93.6644 24.9477 92.3672 24.0392C90.9993 23.1139 89.3684 22.6406 87.7099 22.6875L87.6728 22.7021Z" fill="#231F20"/>
<path d="M124.501 27.4149C123.953 26.0556 122.986 24.9003 121.735 24.1122C120.408 23.2779 118.86 22.8483 117.285 22.8774C116.201 22.8606 115.125 23.0568 114.119 23.4546C113.204 23.8242 112.372 24.368 111.671 25.0548C110.969 25.7549 110.425 26.5943 110.077 27.5172C109.325 29.5689 109.325 31.815 110.077 33.8667C110.423 34.7906 110.967 35.6303 111.671 36.3291C112.368 37.0207 113.201 37.5652 114.119 37.9293C115.125 38.3271 116.201 38.5233 117.285 38.5065C118.858 38.5343 120.405 38.1076 121.735 37.279C122.987 36.48 123.955 35.3149 124.501 33.9471H130.886C130.319 36.9435 128.654 39.6299 126.207 41.495C123.641 43.4218 120.481 44.4226 117.256 44.33C113.073 44.33 109.674 43.0537 107.059 40.5013C105.766 39.2121 104.753 37.6774 104.081 35.9905C103.409 34.3035 103.092 32.4996 103.15 30.6883C103.097 28.8852 103.416 27.0903 104.088 25.4122C104.759 23.7342 105.77 22.2081 107.059 20.9265C108.407 19.6381 110.004 18.6305 111.756 17.9639C113.508 17.2973 115.379 16.9853 117.256 17.0466C120.491 16.9442 123.659 17.9658 126.207 19.9328C128.671 21.7632 130.343 24.4435 130.886 27.4368L124.501 27.4149Z" fill="#231F20"/>
<path d="M140.631 43.6213H134.298V17.7043H140.631V43.6213ZM140.631 6.23999H134.298V12.4873H140.631V6.23999Z" fill="#231F20"/>
<path d="M170.288 43.6212H163.955V30.1402C163.955 27.729 163.354 25.9096 162.168 24.6821C160.828 23.5005 159.093 22.8472 157.295 22.8472C155.497 22.8472 153.762 23.5005 152.423 24.6821C151.236 25.9096 150.643 27.729 150.643 30.1402V43.6212H144.31V30.1402C144.31 25.9072 145.479 22.663 147.817 20.4077C150.156 18.1523 153.315 17.0247 157.295 17.0247C161.25 17.0247 164.41 18.1353 166.773 20.3565C169.136 22.5778 170.308 25.839 170.288 30.1402V43.6212Z" fill="#231F20"/>
<path d="M193.263 17.7043H199.596V31.1853C199.596 35.4232 198.425 38.6674 196.081 40.9179C193.738 43.1683 190.578 44.296 186.603 44.3009C182.648 44.3009 179.491 43.1902 177.133 40.969C174.775 38.7478 173.603 35.4865 173.618 31.1853V17.7043H179.951V31.1853C179.951 33.6209 180.547 35.4402 181.738 36.6434C183.077 37.8245 184.81 38.4775 186.607 38.4775C188.404 38.4775 190.137 37.8245 191.476 36.6434C192.672 35.4208 193.268 33.6014 193.263 31.1853V17.7043Z" fill="#231F20"/>
<path d="M217.084 25.1571C217.052 24.7638 216.928 24.3832 216.721 24.0457C216.513 23.7082 216.229 23.4232 215.89 23.2135C214.963 22.7209 213.924 22.4697 212.872 22.4837C211.819 22.4978 210.788 22.7767 209.875 23.2938C209.524 23.5427 209.24 23.8727 209.049 24.2549C208.857 24.6371 208.764 25.0599 208.777 25.4859C208.765 25.8336 208.865 26.1762 209.062 26.4649C209.259 26.7535 209.544 26.9735 209.875 27.0933C210.782 27.4521 211.732 27.6975 212.701 27.824C213.835 27.9994 215.052 28.1747 216.342 28.3501C217.604 28.5165 218.834 28.8687 219.991 29.395C221.107 29.9066 222.078 30.6822 222.816 31.6527C223.644 32.8777 224.047 34.3336 223.966 35.803C223.986 36.986 223.725 38.1574 223.204 39.2232C222.682 40.289 221.914 41.2197 220.962 41.9406C218.955 43.514 216.302 44.3007 213.005 44.3007C211.48 44.3204 209.962 44.1085 208.503 43.6723C207.263 43.3014 206.1 42.7149 205.069 41.9406C204.134 41.2351 203.363 40.3407 202.808 39.3175C202.252 38.2825 201.95 37.1341 201.925 35.9637H208.318C208.355 37.8854 209.875 38.8864 212.893 38.8864C216.053 38.8864 217.632 37.8708 217.632 35.8395C217.649 35.4889 217.548 35.1427 217.346 34.8538C217.143 34.5648 216.851 34.349 216.512 34.2393C215.604 33.9025 214.658 33.6744 213.694 33.5598L210.046 33.0337C208.786 32.8526 207.559 32.501 206.397 31.9889C205.275 31.4887 204.305 30.7108 203.579 29.7311C202.75 28.4667 202.358 26.9729 202.459 25.4712C202.429 24.3089 202.671 23.1553 203.166 22.0999C203.661 21.0444 204.396 20.1154 205.314 19.3847C207.213 17.8114 209.739 17.0247 212.893 17.0247C216.048 17.0247 218.549 17.7943 220.399 19.3336C221.32 20.0142 222.067 20.8967 222.582 21.9113C223.097 22.9259 223.365 24.0446 223.365 25.179L217.084 25.1571Z" fill="#231F20"/>
<path d="M247 38.0608H227.993V44.3007H247V38.0608Z" fill="#FED900"/>
</svg>
