<svg width="24" height="30" viewBox="0 0 24 30" fill="none" xmlns="http://www.w3.org/2000/svg">
<path d="M11.9849 5.50005V1.31505C11.9849 0.640046 11.1749 0.310046 10.7099 0.790046L5.02491 6.47505C4.72491 6.77505 4.72491 7.24005 5.02491 7.54005L10.7099 13.225C10.8147 13.3278 10.9474 13.3976 11.0915 13.4257C11.2356 13.4537 11.3848 13.4389 11.5205 13.383C11.6563 13.3271 11.7727 13.2326 11.8552 13.1112C11.9377 12.9898 11.9828 12.8468 11.9849 12.7V8.50005C17.5799 8.50005 22.0049 13.63 20.7749 19.435C20.0699 22.84 17.3099 25.585 13.9199 26.29C8.56491 27.415 3.79491 23.74 3.07491 18.775C3.02616 18.4204 2.85019 18.0956 2.57976 17.861C2.30933 17.6264 1.96288 17.4982 1.60491 17.5C0.704905 17.5 -0.0150947 18.295 0.104905 19.195C1.03491 25.78 7.30491 30.655 14.3999 29.275C19.0799 28.36 22.8449 24.595 23.7599 19.915C25.2449 12.22 19.4099 5.50005 11.9849 5.50005ZM10.3349 22H9.05991V17.11L7.5449 17.575V16.54L10.1999 15.595H10.3349V22ZM16.7549 19.36C16.7549 19.84 16.7099 20.26 16.6049 20.59C16.4999 20.92 16.3499 21.22 16.1699 21.445C15.9899 21.67 15.7499 21.835 15.4949 21.94C15.2399 22.045 14.9399 22.09 14.6099 22.09C14.2799 22.09 13.9949 22.045 13.7249 21.94C13.4549 21.835 13.2299 21.67 13.0349 21.445C12.8399 21.22 12.6899 20.935 12.5849 20.59C12.4799 20.245 12.4199 19.84 12.4199 19.36V18.25C12.4199 17.77 12.4649 17.35 12.5699 17.02C12.6749 16.69 12.8249 16.39 13.0049 16.165C13.1849 15.94 13.4249 15.775 13.6799 15.67C13.9349 15.565 14.2349 15.52 14.5649 15.52C14.8949 15.52 15.1799 15.565 15.4499 15.67C15.7199 15.775 15.9449 15.94 16.1399 16.165C16.3349 16.39 16.4849 16.675 16.5899 17.02C16.6949 17.365 16.7549 17.77 16.7549 18.25V19.36ZM15.4799 18.07C15.4799 17.785 15.4649 17.545 15.4199 17.35C15.3749 17.155 15.3149 17.005 15.2399 16.885C15.1649 16.765 15.0749 16.675 14.9549 16.63C14.8349 16.585 14.7149 16.555 14.5799 16.555C14.4449 16.555 14.3099 16.585 14.2049 16.63C14.0999 16.675 13.9949 16.765 13.9199 16.885C13.8449 17.005 13.7849 17.155 13.7399 17.35C13.6949 17.545 13.6799 17.785 13.6799 18.07V19.525C13.6799 19.81 13.6949 20.05 13.7399 20.245C13.7849 20.44 13.8449 20.605 13.9199 20.725C13.9949 20.845 14.0849 20.935 14.2049 20.98C14.3249 21.025 14.4449 21.055 14.5799 21.055C14.7149 21.055 14.8499 21.025 14.9549 20.98C15.0599 20.935 15.1649 20.845 15.2399 20.725C15.3149 20.605 15.3749 20.44 15.4049 20.245C15.4349 20.05 15.4649 19.81 15.4649 19.525V18.07H15.4799Z" fill="#0095FF"/>
</svg>
