<svg width="16" height="16" viewBox="0 0 16 16" fill="none" xmlns="http://www.w3.org/2000/svg">
<path d="M14.0002 14H8.66683V4C8.66683 3.46957 8.87754 2.96086 9.25262 2.58579C9.62769 2.21071 10.1364 2 10.6668 2H14.0002C14.177 2 14.3465 2.07024 14.4716 2.19526C14.5966 2.32029 14.6668 2.48986 14.6668 2.66667V13.3333C14.6668 13.5101 14.5966 13.6797 14.4716 13.8047C14.3465 13.9298 14.177 14 14.0002 14ZM7.3335 14H2.00016C1.82335 14 1.65378 13.9298 1.52876 13.8047C1.40373 13.6797 1.3335 13.5101 1.3335 13.3333V2.66667C1.3335 2.48986 1.40373 2.32029 1.52876 2.19526C1.65378 2.07024 1.82335 2 2.00016 2H5.3335C5.86393 2 6.37264 2.21071 6.74771 2.58579C7.12278 2.96086 7.3335 3.46957 7.3335 4V14ZM7.3335 14H8.66683V15.3333H7.3335V14Z" fill="#FCFCFC"/>
</svg>
