<svg width="32" height="32" viewBox="0 0 32 32" fill="none" xmlns="http://www.w3.org/2000/svg">
<path fill-rule="evenodd" clip-rule="evenodd" d="M21.7272 12.8072L15.6365 20.8072C15.3858 21.1366 14.9978 21.3312 14.5845 21.3339H14.5752C14.1658 21.3339 13.7792 21.1446 13.5258 20.8219L10.2832 16.6792C9.82982 16.1006 9.93115 15.2619 10.5112 14.8086C11.0898 14.3539 11.9298 14.4552 12.3832 15.0366L14.5605 17.8179L19.6058 11.1926C20.0512 10.6072 20.8872 10.4926 21.4752 10.9392C22.0605 11.3859 22.1738 12.2219 21.7272 12.8072ZM16.0003 2.66724C8.63633 2.66724 2.66699 8.63657 2.66699 16.0006C2.66699 23.3632 8.63633 29.3339 16.0003 29.3339C23.3643 29.3339 29.3337 23.3632 29.3337 16.0006C29.3337 8.63657 23.3643 2.66724 16.0003 2.66724Z" fill="#00CC67"/>
<mask id="mask0" mask-type="alpha" maskUnits="userSpaceOnUse" x="2" y="2" width="28" height="28">
<path fill-rule="evenodd" clip-rule="evenodd" d="M21.7272 12.8072L15.6365 20.8072C15.3858 21.1366 14.9978 21.3312 14.5845 21.3339H14.5752C14.1658 21.3339 13.7792 21.1446 13.5258 20.8219L10.2832 16.6792C9.82982 16.1006 9.93115 15.2619 10.5112 14.8086C11.0898 14.3539 11.9298 14.4552 12.3832 15.0366L14.5605 17.8179L19.6058 11.1926C20.0512 10.6072 20.8872 10.4926 21.4752 10.9392C22.0605 11.3859 22.1738 12.2219 21.7272 12.8072ZM16.0003 2.66724C8.63633 2.66724 2.66699 8.63657 2.66699 16.0006C2.66699 23.3632 8.63633 29.3339 16.0003 29.3339C23.3643 29.3339 29.3337 23.3632 29.3337 16.0006C29.3337 8.63657 23.3643 2.66724 16.0003 2.66724Z" fill="white"/>
</mask>
<g mask="url(#mask0)">
</g>
</svg>
