<svg width="24" height="24" viewBox="0 0 24 24" fill="none" xmlns="http://www.w3.org/2000/svg">
<path d="M7.26713 11.1091C7.05706 10.8979 6.9393 10.6121 6.93966 10.3143C6.94002 10.0164 7.05848 9.7309 7.26905 9.52027C7.47962 9.30963 7.76513 9.19109 8.06297 9.19065C8.36081 9.1902 8.64667 9.30787 8.85787 9.51788L10.875 11.5344V3.75C10.875 3.45163 10.9935 3.16548 11.2045 2.9545C11.4155 2.74353 11.7016 2.625 12 2.625C12.2984 2.625 12.5845 2.74353 12.7955 2.9545C13.0065 3.16548 13.125 3.45163 13.125 3.75V11.5344L15.1421 9.51788C15.3533 9.30787 15.6392 9.1902 15.937 9.19065C16.2349 9.19109 16.5204 9.30963 16.731 9.52027C16.9415 9.7309 17.06 10.0164 17.0603 10.3143C17.0607 10.6121 16.9429 10.8979 16.7329 11.1091L12.7954 15.0457C12.5844 15.2566 12.2983 15.375 12 15.375C11.7017 15.375 11.4156 15.2566 11.2046 15.0457L7.26713 11.1091ZM20.25 13.125C19.9516 13.125 19.6655 13.2435 19.4545 13.4545C19.2435 13.6655 19.125 13.9516 19.125 14.25V19.125H4.875V14.25C4.875 13.9516 4.75647 13.6655 4.5455 13.4545C4.33452 13.2435 4.04837 13.125 3.75 13.125C3.45163 13.125 3.16548 13.2435 2.9545 13.4545C2.74353 13.6655 2.625 13.9516 2.625 14.25V19.5C2.62555 19.9971 2.82327 20.4737 3.17478 20.8252C3.52629 21.1767 4.00289 21.3745 4.5 21.375H19.5C19.9971 21.3745 20.4737 21.1767 20.8252 20.8252C21.1767 20.4737 21.3745 19.9971 21.375 19.5V14.25C21.375 13.9516 21.2565 13.6655 21.0455 13.4545C20.8345 13.2435 20.5484 13.125 20.25 13.125Z" fill="#00C7FF"/>
</svg>
