<svg width="24" height="30" viewBox="0 0 24 30" fill="none" xmlns="http://www.w3.org/2000/svg">
<path d="M22.3801 17.5C21.6301 17.5 21.0151 18.055 20.9101 18.79C20.7289 20.0391 20.2874 21.2363 19.6139 22.3039C18.9405 23.3714 18.0502 24.2856 17.0009 24.987C15.9515 25.6885 14.7665 26.1616 13.5225 26.3757C12.2786 26.5898 11.0036 26.5402 9.78005 26.23C6.40505 25.42 3.91505 22.825 3.19505 19.435C2.90941 18.1193 2.92186 16.7565 3.23147 15.4463C3.54108 14.1361 4.14002 12.9119 4.98435 11.8633C5.82868 10.8147 6.897 9.96838 8.11098 9.3864C9.32495 8.80442 10.6538 8.50154 12.0001 8.49995V12.685C12.0001 13.36 12.8101 13.69 13.2751 13.21L18.9601 7.52495C19.2601 7.22495 19.2601 6.75995 18.9601 6.45995L13.2751 0.774953C13.1693 0.671299 13.0352 0.601265 12.8898 0.573678C12.7443 0.546091 12.5939 0.562186 12.4575 0.619934C12.3212 0.677682 12.205 0.774498 12.1236 0.898182C12.0422 1.02187 11.9992 1.16688 12.0001 1.31495V5.49995C4.59005 5.49995 -1.25995 12.22 0.240054 19.9C1.14005 24.565 4.59005 28.15 9.22505 29.185C16.4701 30.805 22.9501 25.885 23.8801 19.18C24.0151 18.295 23.2801 17.5 22.3801 17.5ZM10.3501 22V15.595H10.2151L7.56005 16.54V17.575L9.07505 17.11V22H10.3501ZM15.4801 15.67C15.2101 15.565 14.9251 15.52 14.5951 15.52C14.2651 15.52 13.9801 15.565 13.7101 15.67C13.4401 15.775 13.2151 15.94 13.0351 16.165C12.8551 16.39 12.6901 16.675 12.6001 17.02C12.5101 17.365 12.4501 17.77 12.4501 18.25V19.36C12.4501 19.84 12.5101 20.26 12.6151 20.59C12.7201 20.92 12.8701 21.22 13.0651 21.445C13.2601 21.67 13.4851 21.835 13.7551 21.94C14.0251 22.045 14.3101 22.09 14.6401 22.09C14.9701 22.09 15.2551 22.045 15.5251 21.94C15.7951 21.835 16.0201 21.67 16.2001 21.445C16.3801 21.22 16.5301 20.935 16.6351 20.59C16.7401 20.245 16.7851 19.84 16.7851 19.36V18.25C16.7851 17.77 16.7251 17.35 16.6201 17.02C16.5151 16.69 16.3651 16.39 16.1701 16.165C15.9751 15.94 15.7351 15.775 15.4801 15.67ZM15.4951 19.525C15.4951 19.81 15.4801 20.05 15.4351 20.245C15.3901 20.44 15.3451 20.605 15.2701 20.725C15.1951 20.845 15.1051 20.935 14.9851 20.98C14.8651 21.025 14.7451 21.055 14.6101 21.055C14.4751 21.055 14.3401 21.025 14.2351 20.98C14.1301 20.935 14.0251 20.845 13.9501 20.725C13.8751 20.605 13.8151 20.44 13.7701 20.245C13.7251 20.05 13.7101 19.81 13.7101 19.525V18.07C13.7101 17.785 13.7251 17.545 13.7701 17.35C13.8151 17.155 13.8601 17.005 13.9501 16.885C14.0401 16.765 14.1151 16.675 14.2351 16.63C14.3551 16.585 14.4751 16.555 14.6101 16.555C14.7451 16.555 14.8801 16.585 14.9851 16.63C15.0901 16.675 15.1951 16.765 15.2701 16.885C15.3451 17.005 15.4051 17.155 15.4501 17.35C15.4951 17.545 15.5101 17.785 15.5101 18.07V19.525H15.4951Z" fill="#0095FF"/>
</svg>
