<svg width="38" height="38" viewBox="0 0 38 38" fill="none" xmlns="http://www.w3.org/2000/svg">
<path d="M19.0897 23.8855L21.5324 26.3283L28.8606 19.0001L21.5324 11.6719L19.0897 14.1146L22.2479 17.2728H9.22919V20.7273H22.2479L19.0897 23.8855Z" fill="#A0A3BD"/>
<path fill-rule="evenodd" clip-rule="evenodd" d="M32.435 32.435C39.855 25.0151 39.855 12.9849 32.435 5.56497C25.0151 -1.85499 12.9849 -1.85499 5.56497 5.56497C-1.85499 12.9849 -1.85499 25.0151 5.56497 32.435C12.9849 39.855 25.0151 39.855 32.435 32.435ZM29.9923 29.9923C36.0632 23.9214 36.0632 14.0786 29.9923 8.0077C23.9214 1.93683 14.0786 1.93683 8.0077 8.0077C1.93683 14.0786 1.93683 23.9214 8.0077 29.9923C14.0786 36.0632 23.9214 36.0632 29.9923 29.9923Z" fill="#A0A3BD"/>
</svg>
