<svg width="28" height="28" viewBox="0 0 28 28" fill="none" xmlns="http://www.w3.org/2000/svg">
<path d="M16.0696 21.2714L17.4416 22.6434C17.6542 22.8634 17.7718 23.1581 17.7691 23.464C17.7664 23.7699 17.6437 24.0625 17.4274 24.2789C17.2111 24.4952 16.9185 24.6179 16.6126 24.6205C16.3067 24.6232 16.012 24.5056 15.792 24.2931L12.4915 20.9937C12.2728 20.7749 12.1499 20.4783 12.1499 20.1689C12.1499 19.8595 12.2728 19.5628 12.4915 19.3441L15.792 16.0436C16.0109 15.8248 16.3077 15.702 16.6172 15.7021C16.9267 15.7022 17.2235 15.8252 17.4422 16.0441C17.661 16.2631 17.7838 16.5599 17.7837 16.8694C17.7836 17.1789 17.6606 17.4756 17.4416 17.6944L16.1968 18.9381H18.6666C19.9043 18.9381 21.0913 18.4464 21.9665 17.5712C22.8416 16.6961 23.3333 15.5091 23.3333 14.2714C23.3333 13.0337 22.8416 11.8467 21.9665 10.9716C21.0913 10.0964 19.9043 9.60473 18.6666 9.60473C18.3572 9.60473 18.0605 9.48182 17.8417 9.26302C17.6229 9.04423 17.5 8.74748 17.5 8.43807C17.5 8.12865 17.6229 7.8319 17.8417 7.61311C18.0605 7.39432 18.3572 7.2714 18.6666 7.2714C20.5232 7.2714 22.3036 8.0089 23.6164 9.32165C24.9292 10.6344 25.6666 12.4149 25.6666 14.2714C25.6666 16.1279 24.9292 17.9084 23.6164 19.2211C22.3036 20.5339 20.5232 21.2714 18.6666 21.2714H16.0696ZM11.9851 7.2714L10.7053 5.99273C10.4864 5.77382 10.3634 5.47691 10.3634 5.16732C10.3634 4.85772 10.4864 4.56081 10.7053 4.3419C10.9242 4.12298 11.2211 4 11.5307 4C11.8403 4 12.1372 4.12298 12.3561 4.3419L15.6555 7.6424C15.8742 7.86118 15.9971 8.15787 15.9971 8.46723C15.9971 8.77659 15.8742 9.07328 15.6555 9.29207L12.3561 12.5914C12.2478 12.6998 12.1192 12.7858 11.9777 12.8445C11.8361 12.9032 11.6844 12.9334 11.5311 12.9335C11.3779 12.9335 11.2262 12.9034 11.0846 12.8448C10.943 12.7862 10.8143 12.7003 10.7059 12.592C10.5975 12.4837 10.5115 12.3551 10.4528 12.2135C10.3941 12.0719 10.3639 11.9202 10.3638 11.767C10.3637 11.4575 10.4866 11.1606 10.7053 10.9417L12.0435 9.60473H9.33331C8.09564 9.60473 6.90865 10.0964 6.03348 10.9716C5.15831 11.8467 4.66665 13.0337 4.66665 14.2714C4.66665 15.5091 5.15831 16.6961 6.03348 17.5712C6.90865 18.4464 8.09564 18.9381 9.33331 18.9381C9.64273 18.9381 9.93948 19.061 10.1583 19.2798C10.3771 19.4986 10.5 19.7953 10.5 20.1047C10.5 20.4142 10.3771 20.7109 10.1583 20.9297C9.93948 21.1485 9.64273 21.2714 9.33331 21.2714C7.4768 21.2714 5.69632 20.5339 4.38357 19.2211C3.07081 17.9084 2.33331 16.1279 2.33331 14.2714C2.33331 12.4149 3.07081 10.6344 4.38357 9.32165C5.69632 8.0089 7.4768 7.2714 9.33331 7.2714H11.9851Z" fill="#A0A3BD"/>
</svg>
