<svg width="24" height="24" viewBox="0 0 24 24" fill="none" xmlns="http://www.w3.org/2000/svg">
<path d="M14.5566 5.96387C15.063 5.34961 15.4199 4.51123 15.4199 3.66455C15.4199 3.54834 15.4116 3.43213 15.395 3.34082C14.5649 3.37402 13.5688 3.88867 12.9795 4.58594C12.5063 5.11719 12.0747 5.96387 12.0747 6.81055C12.0747 6.94336 12.0996 7.06787 12.1079 7.10938C12.1577 7.11768 12.2407 7.13428 12.332 7.13428C13.0708 7.13428 14.0005 6.63623 14.5566 5.96387ZM15.1377 7.30859C13.9009 7.30859 12.8882 8.06396 12.2407 8.06396C11.5518 8.06396 10.6553 7.3584 9.57617 7.3584C7.52588 7.3584 5.45068 9.05176 5.45068 12.2393C5.45068 14.2314 6.21436 16.3315 7.16895 17.6846C7.98242 18.8301 8.69629 19.7681 9.72559 19.7681C10.7383 19.7681 11.1865 19.0957 12.4482 19.0957C13.7266 19.0957 14.0171 19.7515 15.1377 19.7515C16.25 19.7515 16.9888 18.7305 17.6943 17.7261C18.4746 16.5723 18.8066 15.4517 18.8149 15.3936C18.7485 15.377 16.6235 14.5054 16.6235 12.0732C16.6235 9.96484 18.292 9.01855 18.3916 8.94385C17.2876 7.3584 15.6025 7.30859 15.1377 7.30859Z" fill="black"/>
</svg>
