<svg width="28" height="28" viewBox="0 0 28 28" fill="none" xmlns="http://www.w3.org/2000/svg">
<path d="M13.9883 5.83329V2.57829C13.9883 2.05329 13.3583 1.79662 12.9967 2.16995L8.57499 6.59162C8.34166 6.82495 8.34166 7.18662 8.57499 7.41995L12.9967 11.8416C13.0782 11.9216 13.1814 11.9758 13.2935 11.9977C13.4055 12.0195 13.5216 12.008 13.6272 11.9645C13.7327 11.921 13.8232 11.8475 13.8874 11.7531C13.9516 11.6587 13.9867 11.5475 13.9883 11.4333V8.16662C18.34 8.16662 21.7817 12.1566 20.825 16.6716C20.2767 19.32 18.13 21.455 15.4933 22.0033C11.3283 22.8783 7.61832 20.02 7.05832 16.1583C7.02041 15.8825 6.88355 15.6298 6.67321 15.4474C6.46288 15.2649 6.19341 15.1652 5.91499 15.1666C5.21499 15.1666 4.65499 15.785 4.74832 16.485C5.47166 21.6066 10.3483 25.3983 15.8667 24.325C19.5067 23.6133 22.435 20.685 23.1467 17.045C24.3017 11.06 19.7633 5.83329 13.9883 5.83329ZM12.705 18.6666H11.7133V14.8633L10.535 15.225V14.42L12.6 13.685H12.705V18.6666ZM17.6983 16.6133C17.6983 16.9866 17.6633 17.3133 17.5817 17.57C17.5 17.8266 17.3833 18.06 17.2433 18.235C17.1033 18.41 16.9167 18.5383 16.7183 18.62C16.52 18.7016 16.2867 18.7366 16.03 18.7366C15.7733 18.7366 15.5517 18.7016 15.3417 18.62C15.1317 18.5383 14.9567 18.41 14.805 18.235C14.6533 18.06 14.5367 17.8383 14.455 17.57C14.3733 17.3016 14.3267 16.9866 14.3267 16.6133V15.75C14.3267 15.3766 14.3617 15.05 14.4433 14.7933C14.525 14.5366 14.6417 14.3033 14.7817 14.1283C14.9217 13.9533 15.1083 13.825 15.3067 13.7433C15.505 13.6616 15.7383 13.6266 15.995 13.6266C16.2517 13.6266 16.4733 13.6616 16.6833 13.7433C16.8933 13.825 17.0683 13.9533 17.22 14.1283C17.3717 14.3033 17.4883 14.525 17.57 14.7933C17.6517 15.0616 17.6983 15.3766 17.6983 15.75V16.6133ZM16.7067 15.61C16.7067 15.3883 16.695 15.2016 16.66 15.05C16.625 14.8983 16.5783 14.7816 16.52 14.6883C16.4617 14.595 16.3917 14.525 16.2983 14.49C16.205 14.455 16.1117 14.4316 16.0067 14.4316C15.9017 14.4316 15.7967 14.455 15.715 14.49C15.6333 14.525 15.5517 14.595 15.4933 14.6883C15.435 14.7816 15.3883 14.8983 15.3533 15.05C15.3183 15.2016 15.3067 15.3883 15.3067 15.61V16.7416C15.3067 16.9633 15.3183 17.15 15.3533 17.3016C15.3883 17.4533 15.435 17.5816 15.4933 17.675C15.5517 17.7683 15.6217 17.8383 15.715 17.8733C15.8083 17.9083 15.9017 17.9316 16.0067 17.9316C16.1117 17.9316 16.2167 17.9083 16.2983 17.8733C16.38 17.8383 16.4617 17.7683 16.52 17.675C16.5783 17.5816 16.625 17.4533 16.6483 17.3016C16.6717 17.15 16.695 16.9633 16.695 16.7416V15.61H16.7067Z" fill="#0095FF"/>
</svg>
