<svg width="29" height="28" viewBox="0 0 29 28" fill="none" xmlns="http://www.w3.org/2000/svg">
<path d="M22.6448 15.1667C22.0614 15.1667 21.5831 15.5983 21.5014 16.17C21.3606 17.1416 21.0171 18.0727 20.4933 18.903C19.9695 19.7334 19.2771 20.4444 18.461 20.9899C17.6448 21.5355 16.7231 21.9035 15.7556 22.0701C14.7881 22.2366 13.7964 22.198 12.8448 21.9567C10.2198 21.3267 8.28309 19.3083 7.72309 16.6717C7.50093 15.6484 7.51061 14.5884 7.75142 13.5694C7.99223 12.5504 8.45806 11.5981 9.11477 10.7826C9.77147 9.96702 10.6024 9.30878 11.5466 8.85613C12.4908 8.40348 13.5243 8.1679 14.5714 8.16667V11.4217C14.5714 11.9467 15.2014 12.2033 15.5631 11.83L19.9848 7.40834C20.2181 7.175 20.2181 6.81334 19.9848 6.58L15.5631 2.15834C15.4808 2.07772 15.3766 2.02325 15.2634 2.00179C15.1503 1.98033 15.0333 1.99285 14.9273 2.03777C14.8212 2.08268 14.7308 2.15798 14.6675 2.25418C14.6042 2.35038 14.5707 2.46317 14.5714 2.57834V5.83334C8.80809 5.83334 4.25809 11.06 5.42476 17.0333C6.12476 20.6617 8.80809 23.45 12.4131 24.255C18.0481 25.515 23.0881 21.6883 23.8114 16.4733C23.9164 15.785 23.3448 15.1667 22.6448 15.1667ZM13.2881 18.6667V13.685H13.1831L11.1181 14.42V15.225L12.2964 14.8633V18.6667H13.2881ZM17.2781 13.7433C17.0681 13.6617 16.8464 13.6267 16.5898 13.6267C16.3331 13.6267 16.1114 13.6617 15.9014 13.7433C15.6914 13.825 15.5164 13.9533 15.3764 14.1283C15.2364 14.3033 15.1081 14.525 15.0381 14.7933C14.9681 15.0617 14.9214 15.3767 14.9214 15.75V16.6133C14.9214 16.9867 14.9681 17.3133 15.0498 17.57C15.1314 17.8267 15.2481 18.06 15.3998 18.235C15.5514 18.41 15.7264 18.5383 15.9364 18.62C16.1464 18.7017 16.3681 18.7367 16.6248 18.7367C16.8814 18.7367 17.1031 18.7017 17.3131 18.62C17.5231 18.5383 17.6981 18.41 17.8381 18.235C17.9781 18.06 18.0948 17.8383 18.1764 17.57C18.2581 17.3017 18.2931 16.9867 18.2931 16.6133V15.75C18.2931 15.3767 18.2464 15.05 18.1648 14.7933C18.0831 14.5367 17.9664 14.3033 17.8148 14.1283C17.6631 13.9533 17.4764 13.825 17.2781 13.7433ZM17.2898 16.7417C17.2898 16.9633 17.2781 17.15 17.2431 17.3017C17.2081 17.4533 17.1731 17.5817 17.1148 17.675C17.0564 17.7683 16.9864 17.8383 16.8931 17.8733C16.7998 17.9083 16.7064 17.9317 16.6014 17.9317C16.4964 17.9317 16.3914 17.9083 16.3098 17.8733C16.2281 17.8383 16.1464 17.7683 16.0881 17.675C16.0298 17.5817 15.9831 17.4533 15.9481 17.3017C15.9131 17.15 15.9014 16.9633 15.9014 16.7417V15.61C15.9014 15.3883 15.9131 15.2017 15.9481 15.05C15.9831 14.8983 16.0181 14.7817 16.0881 14.6883C16.1581 14.595 16.2164 14.525 16.3098 14.49C16.4031 14.455 16.4964 14.4317 16.6014 14.4317C16.7064 14.4317 16.8114 14.455 16.8931 14.49C16.9748 14.525 17.0564 14.595 17.1148 14.6883C17.1731 14.7817 17.2198 14.8983 17.2548 15.05C17.2898 15.2017 17.3014 15.3883 17.3014 15.61V16.7417H17.2898Z" fill="#0095FF"/>
</svg>
