<svg width="20" height="20" viewBox="0 0 20 20" fill="none" xmlns="http://www.w3.org/2000/svg">
<path d="M3.33334 13.3334V3.33341H1.66667V1.66675H4.16667C4.38769 1.66675 4.59965 1.75455 4.75593 1.91083C4.91221 2.06711 5.00001 2.27907 5.00001 2.50008V12.5001H15.365L17.0317 5.83341H6.66667V4.16675H18.1C18.2267 4.16675 18.3517 4.19563 18.4655 4.25119C18.5794 4.30676 18.679 4.38754 18.757 4.4874C18.8349 4.58727 18.889 4.70358 18.9153 4.82751C18.9415 4.95143 18.9391 5.07971 18.9083 5.20258L16.825 13.5359C16.7799 13.7161 16.6758 13.8761 16.5293 13.9904C16.3829 14.1047 16.2024 14.1667 16.0167 14.1667H4.16667C3.94566 14.1667 3.7337 14.079 3.57742 13.9227C3.42114 13.7664 3.33334 13.5544 3.33334 13.3334ZM5.00001 19.1667C4.55798 19.1667 4.13405 18.9912 3.82149 18.6786C3.50893 18.366 3.33334 17.9421 3.33334 17.5001C3.33334 17.0581 3.50893 16.6341 3.82149 16.3216C4.13405 16.009 4.55798 15.8334 5.00001 15.8334C5.44203 15.8334 5.86596 16.009 6.17852 16.3216C6.49108 16.6341 6.66667 17.0581 6.66667 17.5001C6.66667 17.9421 6.49108 18.366 6.17852 18.6786C5.86596 18.9912 5.44203 19.1667 5.00001 19.1667ZM15 19.1667C14.558 19.1667 14.1341 18.9912 13.8215 18.6786C13.5089 18.366 13.3333 17.9421 13.3333 17.5001C13.3333 17.0581 13.5089 16.6341 13.8215 16.3216C14.1341 16.009 14.558 15.8334 15 15.8334C15.442 15.8334 15.866 16.009 16.1785 16.3216C16.4911 16.6341 16.6667 17.0581 16.6667 17.5001C16.6667 17.9421 16.4911 18.366 16.1785 18.6786C15.866 18.9912 15.442 19.1667 15 19.1667Z" fill="#F7F7FC"/>
</svg>
