<svg width="38" height="38" viewBox="0 0 38 38" fill="none" xmlns="http://www.w3.org/2000/svg">
<path d="M18.9103 23.8855L16.4676 26.3283L9.13938 19.0001L16.4676 11.6719L18.9103 14.1146L15.7521 17.2728H28.7708V20.7273H15.7521L18.9103 23.8855Z" fill="#A0A3BD"/>
<path fill-rule="evenodd" clip-rule="evenodd" d="M5.56497 32.435C-1.85499 25.0151 -1.85499 12.9849 5.56497 5.56497C12.9849 -1.85499 25.0151 -1.85499 32.435 5.56497C39.855 12.9849 39.855 25.0151 32.435 32.435C25.0151 39.855 12.9849 39.855 5.56497 32.435ZM8.0077 29.9923C1.93682 23.9214 1.93682 14.0786 8.0077 8.0077C14.0786 1.93683 23.9214 1.93683 29.9923 8.0077C36.0632 14.0786 36.0632 23.9214 29.9923 29.9923C23.9214 36.0632 14.0786 36.0632 8.0077 29.9923Z" fill="#A0A3BD"/>
</svg>
