<svg width="23" height="23" viewBox="0 0 23 23" fill="none" xmlns="http://www.w3.org/2000/svg">
<path d="M20.55 23H4.45C3.535 23 2.65748 22.6365 2.01048 21.9895C1.36348 21.3425 1 20.465 1 19.55V3.45C1 2.535 1.36348 1.65748 2.01048 1.01048C2.65748 0.363481 3.535 0 4.45 0H20.55C20.855 0 21.1475 0.12116 21.3632 0.336827C21.5788 0.552494 21.7 0.845001 21.7 1.15V21.85C21.7 22.155 21.5788 22.4475 21.3632 22.6632C21.1475 22.8788 20.855 23 20.55 23ZM19.4 20.7V18.4H4.45C4.145 18.4 3.85249 18.5212 3.63683 18.7368C3.42116 18.9525 3.3 19.245 3.3 19.55C3.3 19.855 3.42116 20.1475 3.63683 20.3632C3.85249 20.5788 4.145 20.7 4.45 20.7H19.4ZM3.3 16.2955C3.65995 16.169 4.0475 16.1 4.45 16.1H19.4V2.3H4.45C4.145 2.3 3.85249 2.42116 3.63683 2.63683C3.42116 2.85249 3.3 3.145 3.3 3.45V16.2955ZM11.35 9.2C10.74 9.2 10.155 8.95768 9.72365 8.52634C9.29232 8.09501 9.05 7.51 9.05 6.9C9.05 6.29 9.29232 5.70499 9.72365 5.27365C10.155 4.84232 10.74 4.6 11.35 4.6C11.96 4.6 12.545 4.84232 12.9763 5.27365C13.4077 5.70499 13.65 6.29 13.65 6.9C13.65 7.51 13.4077 8.09501 12.9763 8.52634C12.545 8.95768 11.96 9.2 11.35 9.2ZM7.9 13.8C7.9 12.885 8.26348 12.0075 8.91048 11.3605C9.55748 10.7135 10.435 10.35 11.35 10.35C12.265 10.35 13.1425 10.7135 13.7895 11.3605C14.4365 12.0075 14.8 12.885 14.8 13.8H7.9Z" fill="#0095FF"/>
</svg>
