<svg width="24" height="24" viewBox="0 0 24 24" fill="none" xmlns="http://www.w3.org/2000/svg">
<path d="M19.1166 10.5333C18.9 10.5333 18.6923 10.6194 18.5392 10.7725C18.386 10.9257 18.3 11.1334 18.3 11.35V17.0667C18.3 17.2833 18.2139 17.491 18.0608 17.6441C17.9076 17.7973 17.6999 17.8833 17.4833 17.8833H6.04998C5.83338 17.8833 5.62566 17.7973 5.4725 17.6441C5.31935 17.491 5.23331 17.2833 5.23331 17.0667V10.5333C5.23331 10.3167 5.31935 10.109 5.4725 9.95586C5.62566 9.80271 5.83338 9.71667 6.04998 9.71667H7.68331C7.8614 9.72596 8.03763 9.67671 8.1851 9.57643C8.33256 9.47616 8.44315 9.33037 8.49998 9.16133L8.94098 7.822C8.99576 7.65979 9.10014 7.51891 9.23936 7.41925C9.37858 7.3196 9.5456 7.26622 9.71681 7.26667H14.2166C14.4332 7.26667 14.641 7.18062 14.7941 7.02747C14.9473 6.87432 15.0333 6.66659 15.0333 6.45C15.0333 6.23341 14.9473 6.02568 14.7941 5.87253C14.641 5.71937 14.4332 5.63333 14.2166 5.63333H9.67597C9.16274 5.63429 8.66277 5.79641 8.24662 6.0968C7.83047 6.39718 7.51917 6.82068 7.35664 7.3075L7.09531 8.12417H6.04998C5.4002 8.12417 4.77703 8.38229 4.31756 8.84175C3.8581 9.30122 3.59998 9.92439 3.59998 10.5742V17.1075C3.59998 17.7573 3.8581 18.3804 4.31756 18.8399C4.77703 19.2994 5.4002 19.5575 6.04998 19.5575H17.4833C18.1331 19.5575 18.7563 19.2994 19.2157 18.8399C19.6752 18.3804 19.9333 17.7573 19.9333 17.1075V11.3908C19.9388 11.2802 19.9218 11.1696 19.8833 11.0658C19.8447 10.9619 19.7854 10.867 19.709 10.7868C19.6326 10.7066 19.5407 10.6427 19.4389 10.5992C19.3371 10.5556 19.2274 10.5332 19.1166 10.5333ZM11.7666 9.71667C11.1206 9.71667 10.489 9.90825 9.95178 10.2672C9.41458 10.6261 8.99588 11.1363 8.74864 11.7332C8.50139 12.3301 8.4367 12.987 8.56274 13.6206C8.68879 14.2543 8.99991 14.8364 9.45676 15.2932C9.91361 15.7501 10.4957 16.0612 11.1293 16.1872C11.763 16.3133 12.4198 16.2486 13.0167 16.0013C13.6136 15.7541 14.1238 15.3354 14.4828 14.7982C14.8417 14.261 15.0333 13.6294 15.0333 12.9833C15.0333 12.117 14.6891 11.2861 14.0765 10.6734C13.4639 10.0608 12.633 9.71667 11.7666 9.71667ZM11.7666 14.6167C11.4436 14.6167 11.1278 14.5209 10.8592 14.3414C10.5906 14.1619 10.3813 13.9068 10.2576 13.6084C10.134 13.3099 10.1017 12.9815 10.1647 12.6647C10.2277 12.3478 10.3833 12.0568 10.6117 11.8284C10.8401 11.6 11.1312 11.4444 11.448 11.3814C11.7648 11.3184 12.0932 11.3507 12.3917 11.4743C12.6901 11.598 12.9452 11.8073 13.1247 12.0759C13.3042 12.3445 13.4 12.6603 13.4 12.9833C13.4 13.4165 13.2279 13.832 12.9216 14.1383C12.6153 14.4446 12.1998 14.6167 11.7666 14.6167ZM20.75 5.63333H19.9333V4.81667C19.9333 4.60007 19.8473 4.39235 19.6941 4.2392C19.541 4.08604 19.3332 4 19.1166 4C18.9 4 18.6923 4.08604 18.5392 4.2392C18.386 4.39235 18.3 4.60007 18.3 4.81667V5.63333H17.4833C17.2667 5.63333 17.059 5.71937 16.9058 5.87253C16.7527 6.02568 16.6666 6.23341 16.6666 6.45C16.6666 6.66659 16.7527 6.87432 16.9058 7.02747C17.059 7.18062 17.2667 7.26667 17.4833 7.26667H18.3V8.08333C18.3 8.29993 18.386 8.50765 18.5392 8.6608C18.6923 8.81396 18.9 8.9 19.1166 8.9C19.3332 8.9 19.541 8.81396 19.6941 8.6608C19.8473 8.50765 19.9333 8.29993 19.9333 8.08333V7.26667H20.75C20.9666 7.26667 21.1743 7.18062 21.3274 7.02747C21.4806 6.87432 21.5666 6.66659 21.5666 6.45C21.5666 6.23341 21.4806 6.02568 21.3274 5.87253C21.1743 5.71937 20.9666 5.63333 20.75 5.63333Z" fill="#0095FF"/>
</svg>
