<svg width="20" height="20" viewBox="0 0 20 20" fill="none" xmlns="http://www.w3.org/2000/svg">
<path fill-rule="evenodd" clip-rule="evenodd" d="M15 12.5004C14.3192 12.5004 13.7025 12.7754 13.2508 13.2179L6.63834 10.2795C6.64917 10.187 6.66667 10.0954 6.66667 10.0004C6.66667 9.90537 6.64917 9.8137 6.63834 9.7212L13.2508 6.78287C13.7025 7.22537 14.3192 7.50037 15 7.50037C16.3783 7.50037 17.5 6.3787 17.5 5.00037C17.5 3.62203 16.3783 2.50037 15 2.50037C13.6217 2.50037 12.5 3.62203 12.5 5.00037C12.5 5.09537 12.5175 5.18703 12.5283 5.27953L5.91584 8.21787C5.46417 7.77537 4.84751 7.50037 4.16667 7.50037C2.78834 7.50037 1.66667 8.62203 1.66667 10.0004C1.66667 11.3787 2.78834 12.5004 4.16667 12.5004C4.84751 12.5004 5.46417 12.2254 5.91584 11.7829L12.5283 14.7212C12.5175 14.8137 12.5 14.9054 12.5 15.0004C12.5 16.3787 13.6217 17.5004 15 17.5004C16.3783 17.5004 17.5 16.3787 17.5 15.0004C17.5 13.622 16.3783 12.5004 15 12.5004Z" fill="white"/>
<mask id="mask0" mask-type="alpha" maskUnits="userSpaceOnUse" x="1" y="2" width="17" height="16">
<path fill-rule="evenodd" clip-rule="evenodd" d="M15 12.5004C14.3192 12.5004 13.7025 12.7754 13.2508 13.2179L6.63834 10.2795C6.64917 10.187 6.66667 10.0954 6.66667 10.0004C6.66667 9.90537 6.64917 9.8137 6.63834 9.7212L13.2508 6.78287C13.7025 7.22537 14.3192 7.50037 15 7.50037C16.3783 7.50037 17.5 6.3787 17.5 5.00037C17.5 3.62203 16.3783 2.50037 15 2.50037C13.6217 2.50037 12.5 3.62203 12.5 5.00037C12.5 5.09537 12.5175 5.18703 12.5283 5.27953L5.91584 8.21787C5.46417 7.77537 4.84751 7.50037 4.16667 7.50037C2.78834 7.50037 1.66667 8.62203 1.66667 10.0004C1.66667 11.3787 2.78834 12.5004 4.16667 12.5004C4.84751 12.5004 5.46417 12.2254 5.91584 11.7829L12.5283 14.7212C12.5175 14.8137 12.5 14.9054 12.5 15.0004C12.5 16.3787 13.6217 17.5004 15 17.5004C16.3783 17.5004 17.5 16.3787 17.5 15.0004C17.5 13.622 16.3783 12.5004 15 12.5004Z" fill="white"/>
</mask>
<g mask="url(#mask0)">
</g>
</svg>
