<svg width="40" height="40" viewBox="0 0 40 40" fill="none" xmlns="http://www.w3.org/2000/svg">
<g clip-path="url(#clip0)">
<path d="M20 8.88889L12.2222 0H0L15.5556 18.8889L28.3567 13.6111L20 8.88889Z" fill="#55ACEE"/>
<path d="M27.7778 0L20 8.88889L25.9889 17.0133L27.3522 15.3589L40 0H27.7778Z" fill="#3B88C3"/>
<path d="M25.7833 17.8067C25.8722 17.5656 25.9289 17.3089 25.9289 17.0367C25.9289 16.4473 25.6948 15.8821 25.278 15.4653C24.8613 15.0486 24.296 14.8145 23.7067 14.8145H16.2989C15.7095 14.8145 15.1443 15.0486 14.7276 15.4653C14.3108 15.8821 14.0767 16.4473 14.0767 17.0367C14.0767 17.3089 14.1322 17.5656 14.2222 17.8067C10.6022 19.8356 8.15112 23.7033 8.15112 28.1478C8.15001 34.6933 13.4567 40 20.0022 40C26.5478 40 31.8545 34.6933 31.8545 28.1478C31.8545 23.7033 29.4033 19.8356 25.7833 17.8067Z" fill="#FFCC01"/>
<path d="M21.56 20.6664H19.6478L16.6144 23.0353C16.5436 23.1247 16.5003 23.2328 16.49 23.3464V24.6553C16.49 24.862 16.6567 25.0487 16.8644 25.0487H18.8589V34.3976C18.8589 34.6064 19.0255 34.792 19.2533 34.792H21.56C21.7667 34.792 21.9333 34.6053 21.9333 34.3976V21.0598C21.9333 20.8531 21.7678 20.6664 21.56 20.6664Z" fill="#9E5200"/>
</g>
<defs>
<clipPath id="clip0">
<rect width="40" height="40" fill="white"/>
</clipPath>
</defs>
</svg>
