<svg width="24" height="24" viewBox="0 0 24 24" fill="none" xmlns="http://www.w3.org/2000/svg">
<g clip-path="url(#clip0)">
<path d="M1.875 22.125L22.125 22.125V14.625H20.625V20.625L3.375 20.625L3.375 14.625H1.875L1.875 22.125Z" fill="#FF4C4D"/>
<path d="M1.875 12.4573L4.18936 13.6496L6.71217 11.4545L9.34463 13.823L12 11.5806L14.6554 13.823L17.2878 11.4545L19.8106 13.6496L22.125 12.4573V1.875L1.875 1.875L1.875 12.4573ZM3.375 3.375L20.625 3.375V11.5427L20.0279 11.8504L17.2712 9.45173L14.6242 11.8333L12 9.6172L9.37584 11.8333L6.72877 9.45173L3.97209 11.8504L3.375 11.5427L3.375 3.375Z" fill="#FF4C4D"/>
</g>
<defs>
<clipPath id="clip0">
<rect width="24" height="24" fill="white"/>
</clipPath>
</defs>
</svg>
