<svg width="24" height="24" viewBox="0 0 24 24" fill="none" xmlns="http://www.w3.org/2000/svg">
<path d="M4.5 12H9V13.5H4.5V12Z" fill="#D9DBE9"/>
<path d="M4.5 9H12V10.5H4.5V9Z" fill="#D9DBE9"/>
<path d="M4.5 6H12V7.5H4.5V6Z" fill="#D9DBE9"/>
<path d="M10.5 19.5H3V4.5H21V12H22.5V4.5C22.5 4.10218 22.342 3.72064 22.0607 3.43934C21.7794 3.15804 21.3978 3 21 3H3C2.60218 3 2.22064 3.15804 1.93934 3.43934C1.65804 3.72064 1.5 4.10218 1.5 4.5V19.5C1.5 19.8978 1.65804 20.2794 1.93934 20.5607C2.22064 20.842 2.60218 21 3 21H10.5V19.5Z" fill="#D9DBE9"/>
<path d="M16.5 19.1925L14.5575 17.25L13.5 18.3075L16.5 21.3075L22.5 15.3075L21.4425 14.25L16.5 19.1925Z" fill="#D9DBE9"/>
</svg>
