<svg width="78" height="78" viewBox="0 0 78 78" fill="none" xmlns="http://www.w3.org/2000/svg">
<path d="M29.25 65.0001C29.25 68.6076 26.3575 71.5001 22.75 71.5001C19.1425 71.5001 16.25 68.6076 16.25 65.0001C16.25 61.3926 19.175 58.5001 22.75 58.5001C26.325 58.5001 29.25 61.4251 29.25 65.0001ZM55.25 58.5001C51.675 58.5001 48.75 61.4251 48.75 65.0001C48.75 68.5751 51.675 71.5001 55.25 71.5001C58.825 71.5001 61.75 68.6076 61.75 65.0001C61.75 61.3926 58.8575 58.5001 55.25 58.5001ZM23.3025 47.9376L23.4 47.5476L26.325 42.2501H50.5375C52.975 42.2501 55.12 40.9176 56.225 38.9026L68.77 16.1201L63.115 13.0001H63.0825L59.5075 19.5001L50.5375 35.7501H27.7225L27.3 34.8726L20.02 19.5001L16.9325 13.0001L13.8775 6.5001H3.25V13.0001H9.75L21.45 37.6676L17.0625 45.6301C16.5425 46.5401 16.25 47.6126 16.25 48.7501C16.25 50.474 16.9348 52.1273 18.1538 53.3463C19.3728 54.5653 21.0261 55.2501 22.75 55.2501H61.75V48.7501H24.115C23.6925 48.7501 23.3025 48.3926 23.3025 47.9376ZM58.5 8.9701L53.9175 4.3551L38.1875 20.0851L29.77 11.6676L25.1875 16.2501L38.1875 29.2501L58.5 8.9701Z" fill="#00CC67"/>
</svg>
