<svg width="280" height="280" viewBox="0 0 280 280" fill="none" xmlns="http://www.w3.org/2000/svg">
<path d="M96.1244 49.1406C97.8448 50.8444 99.6573 52.448 101.673 53.7886C111.957 60.6284 142.553 77.086 191.08 70.36C251.713 61.9561 242.818 122.919 234.093 139.166C225.368 155.414 193.281 185.198 190.586 200.121C187.891 215.044 199.424 255.804 172.402 243.573C145.381 231.342 129.771 202.695 94.3042 206.025C58.8369 209.354 33.7748 193.638 49.4748 165.558C65.1748 137.478 83.9454 119.358 59.987 88.0801C36.6936 57.6723 75.9289 29.1396 96.1244 49.1406Z" fill="#DEE9FF"/>
<path d="M157.648 80.6429C157.198 80.1902 156.941 79.5812 156.93 78.9432C156.919 78.3053 157.155 77.6877 157.589 77.2197L173.587 59.9521C173.814 59.7075 174.087 59.5112 174.392 59.3752C174.696 59.2391 175.025 59.1659 175.358 59.1602C175.692 59.1544 176.023 59.2161 176.332 59.3415C176.641 59.467 176.921 59.6536 177.156 59.8902L178.537 61.2809C178.772 61.5175 178.957 61.7992 179.08 62.109C179.203 62.4188 179.262 62.7504 179.254 63.0837C179.246 63.417 179.171 63.7453 179.033 64.0487C178.894 64.3522 178.696 64.6245 178.45 64.8494L161.071 80.7262C160.6 81.1567 159.981 81.3884 159.343 81.3729C158.705 81.3573 158.098 81.0958 157.648 80.6429Z" fill="#418DF9"/>
<path d="M147.521 74.757C147.139 74.5875 146.836 74.2767 146.678 73.8896C146.519 73.5025 146.516 73.0691 146.67 72.6799L152.331 58.3208C152.412 58.1174 152.532 57.9323 152.686 57.7767C152.839 57.6211 153.023 57.4981 153.225 57.4152C153.427 57.3323 153.644 57.2911 153.863 57.2942C154.081 57.2973 154.297 57.3446 154.497 57.4332L155.672 57.954C155.872 58.0426 156.052 58.1706 156.201 58.3305C156.35 58.4904 156.465 58.6788 156.54 58.8844C156.614 59.09 156.646 59.3085 156.634 59.5268C156.622 59.745 156.566 59.9586 156.469 60.1546L149.633 73.9929C149.447 74.3681 149.124 74.6572 148.73 74.7996C148.337 74.942 147.904 74.9267 147.521 74.757Z" fill="#418DF9"/>
<path d="M137.218 77.104C135.914 77.3389 134.605 76.2193 134.25 74.5661L127.971 45.2103C127.596 43.456 128.436 41.7874 129.821 41.538L131.75 41.1908C133.134 40.9416 134.504 42.2128 134.764 43.9873L139.115 73.6901C139.36 75.3635 138.523 76.869 137.218 77.104Z" fill="#418DF9"/>
<path d="M238.713 104.731L211.019 101.161C210.553 101.111 210.082 101.204 209.671 101.429C209.259 101.653 208.925 101.998 208.714 102.417L201.35 116.957L170.525 178.608C170.197 179.259 169.648 179.772 168.977 180.055C168.305 180.338 167.554 180.373 166.859 180.152L83.1889 153.445C82.9582 153.372 82.7132 153.354 82.4742 153.393C82.2352 153.433 82.0089 153.528 81.8141 153.672C81.6193 153.816 81.4615 154.005 81.3536 154.221C81.2457 154.438 81.1908 154.678 81.1935 154.92L81.2319 158.394C81.2366 158.878 81.3936 159.347 81.6805 159.735C81.9674 160.124 82.3697 160.412 82.83 160.559L171.355 188.815C172.342 189.13 173.228 189.7 173.924 190.468C174.619 191.236 175.099 192.174 175.316 193.187L175.345 193.325C176.115 197.555 171.947 201.027 167.839 199.78L70.7683 168.756C70.2703 168.598 69.8414 168.274 69.5525 167.839C69.2636 167.404 69.1319 166.883 69.1794 166.362L76.7764 83.4028C76.8146 82.9751 76.9423 82.5601 77.1512 82.185C77.3602 81.8098 77.6457 81.4828 77.9893 81.2251C78.3328 80.9674 78.7267 80.7849 79.1454 80.6893C79.564 80.5938 79.9981 80.5873 80.4195 80.6704L196.709 103.419L204.199 88.5341C204.415 88.1134 204.755 87.7692 205.173 87.5479C205.591 87.3267 206.067 87.239 206.537 87.2968L240.45 91.6396C240.75 91.6774 241.041 91.7745 241.304 91.9252C241.567 92.076 241.797 92.2774 241.982 92.5179C242.167 92.7583 242.302 93.033 242.38 93.3261C242.458 93.6191 242.477 93.9247 242.435 94.2251L241.279 102.755C241.199 103.356 240.884 103.902 240.403 104.272C239.922 104.642 239.315 104.807 238.713 104.731Z" fill="#699CFF"/>
<path d="M81.4658 139.242L90.9416 142.266L100.031 96.1744L85.484 93.9407L81.4658 139.242Z" fill="#DEE9FF"/>
<path d="M155.813 162.972L165.289 165.997L189.795 114.384L179.357 111.856L155.813 162.972Z" fill="#DEE9FF"/>
<path d="M119.368 151.34L128.115 154.131L146.851 105.497L132.537 102.534L119.368 151.34Z" fill="#DEE9FF"/>
<path d="M108.281 98.0046L122.596 100.967L109.893 148.315L100.417 145.29L108.281 98.0046Z" fill="#DEE9FF"/>
<path d="M170.378 109.793L156.064 106.83L138.32 157.388L147.067 160.18L170.378 109.793Z" fill="#DEE9FF"/>
<path d="M83.2946 198.708C89.4219 198.708 94.3891 193.741 94.3891 187.613C94.3891 181.486 89.4219 176.519 83.2946 176.519C77.1673 176.519 72.2002 181.486 72.2002 187.613C72.2002 193.741 77.1673 198.708 83.2946 198.708Z" fill="#A2BDFF"/>
<path d="M152.54 220.81C158.667 220.81 163.634 215.843 163.634 209.716C163.634 203.588 158.667 198.621 152.54 198.621C146.412 198.621 141.445 203.588 141.445 209.716C141.445 215.843 146.412 220.81 152.54 220.81Z" fill="#A2BDFF"/>
<path d="M243.695 91.1807L214.467 87.5216C214.305 87.5013 214.157 87.6162 214.137 87.7783L212.366 101.929C212.345 102.091 212.46 102.239 212.622 102.259L241.85 105.918C242.012 105.938 242.16 105.823 242.18 105.661L243.951 91.5108C243.972 91.3488 243.857 91.201 243.695 91.1807Z" fill="#A2BDFF"/>
</svg>
