<svg width="26" height="26" viewBox="0 0 26 26" fill="none" xmlns="http://www.w3.org/2000/svg">
<g clip-path="url(#clip0)">
<path d="M13 5.77778L7.94444 0H0L10.1111 12.2778L18.4318 8.84722L13 5.77778Z" fill="#55ACEE"/>
<path d="M18.0556 0L13 5.77778L16.8928 11.0587L17.7789 9.98328L26 0H18.0556Z" fill="#3B88C3"/>
<path d="M16.759 11.5743C16.8168 11.4176 16.8537 11.2508 16.8537 11.0738C16.8537 10.6907 16.7015 10.3233 16.4306 10.0525C16.1597 9.78158 15.7923 9.62939 15.4092 9.62939H10.5942C10.2111 9.62939 9.84366 9.78158 9.57277 10.0525C9.30189 10.3233 9.14971 10.6907 9.14971 11.0738C9.14971 11.2508 9.18582 11.4176 9.24432 11.5743C6.89132 12.8931 5.2981 15.4072 5.2981 18.2961C5.29737 22.5507 8.74671 26 13.0013 26C17.2559 26 20.7053 22.5507 20.7053 18.2961C20.7053 15.4072 19.112 12.8931 16.759 11.5743Z" fill="#FF8A3B"/>
<path d="M10.1986 21.1971L11.0494 20.3463C11.0918 20.3001 11.1501 20.2716 11.2127 20.2665C11.2752 20.2615 11.3373 20.2801 11.3867 20.3189C11.3867 20.3189 12.2237 20.9407 12.8716 20.9407C13.453 20.9407 14.0473 20.4546 14.0473 19.8603C14.0473 19.2659 13.4392 18.7668 12.4404 18.7668H11.9789C11.9117 18.7645 11.8479 18.7367 11.8005 18.6891C11.753 18.6415 11.7254 18.5776 11.7232 18.5104V17.3895C11.7232 17.2408 11.8446 17.1331 11.9789 17.1331H12.4404C13.3858 17.1331 13.8848 16.6745 13.8848 16.0939C13.8848 15.5125 13.3858 15.0813 12.8044 15.0813C12.21 15.0813 11.8323 15.3919 11.6301 15.6208C11.5347 15.7291 11.3737 15.7291 11.2661 15.6353L10.442 14.8249C10.333 14.7296 10.3467 14.5685 10.442 14.4739C10.442 14.4739 11.5492 13.2851 13.0203 13.2851C14.5868 13.2851 15.9374 14.2443 15.9374 15.7566C15.9374 16.7959 15.1538 17.5658 14.5464 17.8489V17.89C15.1812 18.1601 16.1801 18.9972 16.1801 20.1585C16.1801 21.6304 14.8974 22.7383 13.0333 22.7383C11.3332 22.7383 10.468 21.9005 10.1849 21.5365C10.1033 21.4398 10.1177 21.291 10.1986 21.1971Z" fill="#7C4119"/>
</g>
<defs>
<clipPath id="clip0">
<rect width="26" height="26" fill="white"/>
</clipPath>
</defs>
</svg>
