<svg width="34" height="34" viewBox="0 0 34 34" fill="none" xmlns="http://www.w3.org/2000/svg">
<g clip-path="url(#clip0)">
<path d="M17 7.55556L10.3889 0H0L13.2222 16.0556L24.1032 11.5694L17 7.55556Z" fill="#55ACEE"/>
<path d="M23.6111 0L17 7.55556L22.0906 14.4613L23.2494 13.0551L34 0H23.6111Z" fill="#3B88C3"/>
<path d="M21.9159 15.1357C21.9914 14.9307 22.0396 14.7126 22.0396 14.4812C22.0396 13.9802 21.8406 13.4998 21.4863 13.1455C21.1321 12.7913 20.6517 12.5923 20.1507 12.5923H13.8541C13.3531 12.5923 12.8727 12.7913 12.5184 13.1455C12.1642 13.4998 11.9652 13.9802 11.9652 14.4812C11.9652 14.7126 12.0124 14.9307 12.0889 15.1357C9.01191 16.8602 6.92847 20.1478 6.92847 23.9256C6.92752 29.4893 11.4382 34 17.0019 34C22.5656 34 27.0763 29.4893 27.0763 23.9256C27.0763 20.1478 24.9929 16.8602 21.9159 15.1357Z" fill="#CCD6DD"/>
<path d="M20.7796 27.3143H17.4334C18.2626 26.1489 19.7114 24.26 20.2762 23.2523C20.7002 22.4221 20.9647 21.8932 20.9647 20.9573C20.9647 18.9966 19.4819 17.3901 16.9565 17.3901C14.8551 17.3901 13.4242 19.1203 13.4242 19.1203C13.3005 19.262 13.3185 19.4735 13.4422 19.5803L14.5198 20.6749C14.5516 20.7085 14.5899 20.7352 14.6323 20.7535C14.6748 20.7718 14.7205 20.7812 14.7668 20.7812C14.813 20.7812 14.8587 20.7718 14.9012 20.7535C14.9437 20.7352 14.982 20.7085 15.0137 20.6749C15.349 20.3037 16.0026 19.7918 16.726 19.7918C17.7148 19.7918 18.2806 20.3915 18.2806 21.063C18.2806 21.557 18.0511 22.0519 17.8216 22.4051C16.7789 23.9936 14.1656 27.5438 13.1418 28.8859V29.2391C13.1418 29.4166 13.2826 29.5744 13.4771 29.5744H20.7796C20.8675 29.5713 20.951 29.535 21.0133 29.4728C21.0755 29.4106 21.1118 29.327 21.1148 29.2391V27.6505C21.1123 27.5623 21.0761 27.4785 21.0138 27.416C20.9515 27.3535 20.8678 27.3172 20.7796 27.3143Z" fill="#627077"/>
</g>
<defs>
<clipPath id="clip0">
<rect width="34" height="34" fill="white"/>
</clipPath>
</defs>
</svg>
