<svg width="20" height="20" viewBox="0 0 20 20" fill="none" xmlns="http://www.w3.org/2000/svg">
<path fill-rule="evenodd" clip-rule="evenodd" d="M2.08838 5.75874L3.28422 15.6846H16.7157L17.9115 5.75874L14.1826 8.18507L9.99994 2.46918L5.81726 8.18507L2.08838 5.75874ZM1.44582 3.15807L5.35045 5.69968L9.243 0.380456C9.41753 0.141714 9.69948 0 9.99994 0C10.3004 0 10.5823 0.141714 10.7569 0.380456L14.6494 5.69968L18.555 3.15807C18.8568 2.96206 19.2478 2.95513 19.5567 3.1403C19.8656 3.32547 20.0361 3.66899 19.9935 4.0204L18.4657 16.6985C18.4106 17.1555 18.0138 17.4999 17.5423 17.5H2.45754C1.98611 17.4999 1.58931 17.1555 1.53416 16.6985L0.00633555 4.01949C-0.0358152 3.66824 0.134859 3.32508 0.443676 3.14015C0.752493 2.95523 1.14322 2.96222 1.44489 3.15807H1.44582ZM9.99994 12.0537C8.9728 12.0537 8.14014 11.2409 8.14014 10.2383C8.14014 9.23565 8.9728 8.42285 9.99994 8.42285C11.0271 8.42285 11.8597 9.23565 11.8597 10.2383C11.8597 11.2409 11.0271 12.0537 9.99994 12.0537Z" fill="#0095FF"/>
</svg>
