<svg width="22" height="20" viewBox="0 0 22 20" fill="none" xmlns="http://www.w3.org/2000/svg">
<path d="M17.1111 6.84541C17.1111 5.29511 16.4673 3.80831 15.3212 2.71208C14.1752 1.61585 12.6208 1 11 1C9.37923 1 7.82485 1.61585 6.67879 2.71208C5.53274 3.80831 4.88889 5.29511 4.88889 6.84541C4.88889 11.6005 2.99823 13.9873 1.85347 14.9967C1.65568 15.1711 1.79337 15.6135 2.05706 15.6135H7.2351C7.35207 15.6135 7.45419 15.6943 7.48974 15.8057C7.6956 16.4511 8.54266 18.5 11 18.5C13.4573 18.5 14.3044 16.4511 14.5103 15.8057C14.5458 15.6943 14.6479 15.6135 14.7649 15.6135H19.9429C20.2066 15.6135 20.3443 15.1711 20.1465 14.9967C19.0018 13.9873 17.1111 11.6005 17.1111 6.84541Z" stroke="#0095FF" stroke-width="2" stroke-linecap="round" stroke-linejoin="round"/>
</svg>
