<svg width="20" height="22" viewBox="0 0 20 22" fill="none" xmlns="http://www.w3.org/2000/svg">
<path d="M18.6667 21.8333H3.5C2.63805 21.8333 1.8114 21.4909 1.2019 20.8814C0.59241 20.2719 0.25 19.4452 0.25 18.5833V3.41663C0.25 2.55467 0.59241 1.72802 1.2019 1.11853C1.8114 0.509036 2.63805 0.166626 3.5 0.166626H18.6667C18.954 0.166626 19.2295 0.280763 19.4327 0.483927C19.6359 0.687091 19.75 0.962641 19.75 1.24996V20.75C19.75 21.0373 19.6359 21.3128 19.4327 21.516C19.2295 21.7192 18.954 21.8333 18.6667 21.8333ZM17.5833 19.6666V17.5H3.5C3.21268 17.5 2.93713 17.6141 2.73397 17.8173C2.5308 18.0204 2.41667 18.296 2.41667 18.5833C2.41667 18.8706 2.5308 19.1462 2.73397 19.3493C2.93713 19.5525 3.21268 19.6666 3.5 19.6666H17.5833ZM2.41667 15.5175C2.75575 15.3983 3.12083 15.3333 3.5 15.3333H17.5833V2.33329H3.5C3.21268 2.33329 2.93713 2.44743 2.73397 2.65059C2.5308 2.85376 2.41667 3.12931 2.41667 3.41663V15.5175ZM10 8.83329C9.42536 8.83329 8.87426 8.60502 8.46794 8.19869C8.06161 7.79236 7.83333 7.24126 7.83333 6.66663C7.83333 6.09199 8.06161 5.54089 8.46794 5.13456C8.87426 4.72823 9.42536 4.49996 10 4.49996C10.5746 4.49996 11.1257 4.72823 11.5321 5.13456C11.9384 5.54089 12.1667 6.09199 12.1667 6.66663C12.1667 7.24126 11.9384 7.79236 11.5321 8.19869C11.1257 8.60502 10.5746 8.83329 10 8.83329ZM6.75 13.1666C6.75 12.3047 7.09241 11.478 7.7019 10.8685C8.3114 10.259 9.13805 9.91663 10 9.91663C10.862 9.91663 11.6886 10.259 12.2981 10.8685C12.9076 11.478 13.25 12.3047 13.25 13.1666H6.75Z" fill="#0095FF"/>
</svg>
