<svg width="28" height="28" viewBox="0 0 28 28" fill="none" xmlns="http://www.w3.org/2000/svg">
<path d="M14 0.666626C6.65335 0.666626 0.666687 6.65329 0.666687 14C0.666687 21.3466 6.65335 27.3333 14 27.3333C21.3467 27.3333 27.3334 21.3466 27.3334 14C27.3334 6.65329 21.3467 0.666626 14 0.666626ZM12.6667 11.3333V7.33329C12.6667 6.59996 13.2667 5.99996 14 5.99996C14.7334 5.99996 15.3334 6.59996 15.3334 7.33329V11.3333H17.72C18.32 11.3333 18.6134 12.0533 18.1867 12.4666L14.4667 16.1866C14.2 16.4533 13.7867 16.4533 13.52 16.1866L9.80002 12.4666C9.70788 12.3726 9.64563 12.2535 9.62111 12.1242C9.59659 11.9948 9.6109 11.8612 9.66223 11.74C9.71356 11.6188 9.79962 11.5155 9.90956 11.4431C10.0195 11.3707 10.1484 11.3325 10.28 11.3333H12.6667ZM19.3334 20.6666H8.66669C7.93335 20.6666 7.33335 20.0666 7.33335 19.3333C7.33335 18.6 7.93335 18 8.66669 18H19.3334C20.0667 18 20.6667 18.6 20.6667 19.3333C20.6667 20.0666 20.0667 20.6666 19.3334 20.6666Z" fill="#0095FF"/>
</svg>
