<svg width="20" height="20" viewBox="0 0 20 20" fill="none" xmlns="http://www.w3.org/2000/svg">
<path d="M13.9999 2.75C13.9999 2.55109 14.0789 2.36032 14.2196 2.21967C14.3602 2.07902 14.551 2 14.7499 2H17.2499C17.4488 2 17.6396 2.07902 17.7802 2.21967C17.9209 2.36032 17.9999 2.55109 17.9999 2.75V5.25C17.9999 5.44891 17.9209 5.63968 17.7802 5.78033C17.6396 5.92098 17.4488 6 17.2499 6C17.051 6 16.8602 5.92098 16.7196 5.78033C16.5789 5.63968 16.4999 5.44891 16.4999 5.25V4.56L12.0299 9.03C11.8893 9.17045 11.6987 9.24934 11.4999 9.24934C11.3012 9.24934 11.1105 9.17045 10.9699 9.03L8.49991 6.56L4.27991 10.78C4.21125 10.8537 4.12845 10.9128 4.03645 10.9538C3.94445 10.9948 3.84513 11.0168 3.74443 11.0186C3.64373 11.0204 3.5437 11.0018 3.45031 10.9641C3.35692 10.9264 3.27209 10.8703 3.20087 10.799C3.12965 10.7278 3.07351 10.643 3.03579 10.5496C2.99807 10.4562 2.97954 10.3562 2.98132 10.2555C2.98309 10.1548 3.00514 10.0555 3.04613 9.96346C3.08712 9.87146 3.14622 9.78866 3.21991 9.72L7.96991 4.97C8.11053 4.82955 8.30116 4.75066 8.49991 4.75066C8.69866 4.75066 8.88928 4.82955 9.02991 4.97L11.4999 7.44L15.4399 3.5H14.7499C14.551 3.5 14.3602 3.42098 14.2196 3.28033C14.0789 3.13968 13.9999 2.94891 13.9999 2.75ZM3.74991 14C3.94882 14 4.13959 14.079 4.28024 14.2197C4.42089 14.3603 4.49991 14.5511 4.49991 14.75V17.25C4.49991 17.4489 4.42089 17.6397 4.28024 17.7803C4.13959 17.921 3.94882 18 3.74991 18C3.551 18 3.36023 17.921 3.21958 17.7803C3.07893 17.6397 2.99991 17.4489 2.99991 17.25V14.75C2.99991 14.5511 3.07893 14.3603 3.21958 14.2197C3.36023 14.079 3.551 14 3.74991 14ZM8.49991 11.75C8.49991 11.5511 8.42089 11.3603 8.28024 11.2197C8.13959 11.079 7.94882 11 7.74991 11C7.551 11 7.36023 11.079 7.21958 11.2197C7.07893 11.3603 6.99991 11.5511 6.99991 11.75V17.25C6.99991 17.4489 7.07893 17.6397 7.21958 17.7803C7.36023 17.921 7.551 18 7.74991 18C7.94882 18 8.13959 17.921 8.28024 17.7803C8.42089 17.6397 8.49991 17.4489 8.49991 17.25V11.75ZM11.7499 13C11.9488 13 12.1396 13.079 12.2802 13.2197C12.4209 13.3603 12.4999 13.5511 12.4999 13.75V17.25C12.4999 17.4489 12.4209 17.6397 12.2802 17.7803C12.1396 17.921 11.9488 18 11.7499 18C11.551 18 11.3602 17.921 11.2196 17.7803C11.0789 17.6397 10.9999 17.4489 10.9999 17.25V13.75C10.9999 13.5511 11.0789 13.3603 11.2196 13.2197C11.3602 13.079 11.551 13 11.7499 13ZM16.4999 9.75C16.4999 9.55109 16.4209 9.36032 16.2802 9.21967C16.1396 9.07902 15.9488 9 15.7499 9C15.551 9 15.3602 9.07902 15.2196 9.21967C15.0789 9.36032 14.9999 9.55109 14.9999 9.75V17.25C14.9999 17.4489 15.0789 17.6397 15.2196 17.7803C15.3602 17.921 15.551 18 15.7499 18C15.9488 18 16.1396 17.921 16.2802 17.7803C16.4209 17.6397 16.4999 17.4489 16.4999 17.25V9.75Z" fill="#0095FF"/>
</svg>
