<svg width="24" height="23" viewBox="0 0 24 23" fill="none" xmlns="http://www.w3.org/2000/svg">
<path fill-rule="evenodd" clip-rule="evenodd" d="M10.5505 0.146287C14.6176 -0.664317 18.5718 1.9755 19.3824 6.04261C22.0063 6.36378 23.9834 8.58374 23.9999 11.2272C24.0178 14.13 21.6792 16.4979 18.7765 16.516H15.0219C14.6072 16.516 14.271 16.1798 14.271 15.7651C14.271 15.3504 14.6072 15.0142 15.0219 15.0142L18.7763 15.0142C20.85 15.0142 22.5309 13.3333 22.5309 11.2598C22.5309 9.18615 20.85 7.50525 18.7763 7.50525C18.3841 7.50782 18.0486 7.22419 17.9857 6.83692C17.6652 4.06619 15.4795 1.88047 12.7088 1.56004C9.41307 1.17881 6.43231 3.54141 6.05109 6.83692C6.00897 7.21741 5.68744 7.50525 5.30476 7.50525C3.2311 7.49298 1.54031 9.164 1.52804 11.2377C1.51596 13.3111 3.18679 15.0019 5.26044 15.0142H9.01482C9.42955 15.0142 9.76573 15.3504 9.76573 15.7651C9.76573 16.1798 9.42955 16.516 9.01482 16.516H5.26044C2.58877 16.5178 0.340795 14.5154 0.0350104 11.8613C-0.297141 8.97741 1.77139 6.37037 4.6551 6.03804C5.24982 3.06369 7.5758 0.739179 10.5505 0.146287ZM12.7692 19.9595L14.6727 18.0554C14.6788 18.0489 14.685 18.0429 14.6912 18.0369C14.9895 17.7488 15.4648 17.7571 15.753 18.0554C16.0411 18.3536 16.0328 18.829 15.7346 19.117L12.55 22.3023C12.4806 22.3717 12.3982 22.4268 12.3076 22.4645C12.1226 22.5427 11.9141 22.5427 11.7293 22.4645C11.6387 22.4268 11.5563 22.3717 11.4867 22.3023L8.30217 19.117C8.29799 19.1129 8.2939 19.1089 8.28979 19.1047C8.28776 19.1027 8.28573 19.1006 8.28367 19.0985C7.99565 18.8002 8.00389 18.3249 8.30217 18.0369C8.60044 17.7487 9.07596 17.7569 9.36399 18.0554L11.2675 19.9595L11.2675 10.5089C11.2675 10.0942 11.6037 9.75798 12.0185 9.75798C12.433 9.75798 12.7692 10.0942 12.7692 10.5089L12.7692 19.9595Z" fill="#0095FF"/>
</svg>
