<svg width="21" height="21" viewBox="0 0 21 21" fill="none" xmlns="http://www.w3.org/2000/svg">
<path fill-rule="evenodd" clip-rule="evenodd" d="M15.75 13.1255C15.0351 13.1255 14.3876 13.4142 13.9134 13.8789L6.97025 10.7936C6.98163 10.6965 7 10.6002 7 10.5005C7 10.4007 6.98163 10.3045 6.97025 10.2074L13.9134 7.12211C14.3876 7.58674 15.0351 7.87549 15.75 7.87549C17.1973 7.87549 18.375 6.69774 18.375 5.25049C18.375 3.80324 17.1973 2.62549 15.75 2.62549C14.3027 2.62549 13.125 3.80324 13.125 5.25049C13.125 5.35024 13.1434 5.44649 13.1548 5.54361L6.21163 8.62886C5.73738 8.16424 5.08987 7.87549 4.375 7.87549C2.92775 7.87549 1.75 9.05324 1.75 10.5005C1.75 11.9477 2.92775 13.1255 4.375 13.1255C5.08987 13.1255 5.73738 12.8367 6.21163 12.3721L13.1548 15.4574C13.1434 15.5545 13.125 15.6507 13.125 15.7505C13.125 17.1977 14.3027 18.3755 15.75 18.3755C17.1973 18.3755 18.375 17.1977 18.375 15.7505C18.375 14.3032 17.1973 13.1255 15.75 13.1255Z" fill="#0095FF"/>
<mask id="mask0" mask-type="alpha" maskUnits="userSpaceOnUse" x="1" y="2" width="18" height="17">
<path fill-rule="evenodd" clip-rule="evenodd" d="M15.75 13.1255C15.0351 13.1255 14.3876 13.4142 13.9134 13.8789L6.97025 10.7936C6.98163 10.6965 7 10.6002 7 10.5005C7 10.4007 6.98163 10.3045 6.97025 10.2074L13.9134 7.12211C14.3876 7.58674 15.0351 7.87549 15.75 7.87549C17.1973 7.87549 18.375 6.69774 18.375 5.25049C18.375 3.80324 17.1973 2.62549 15.75 2.62549C14.3027 2.62549 13.125 3.80324 13.125 5.25049C13.125 5.35024 13.1434 5.44649 13.1548 5.54361L6.21163 8.62886C5.73738 8.16424 5.08987 7.87549 4.375 7.87549C2.92775 7.87549 1.75 9.05324 1.75 10.5005C1.75 11.9477 2.92775 13.1255 4.375 13.1255C5.08987 13.1255 5.73738 12.8367 6.21163 12.3721L13.1548 15.4574C13.1434 15.5545 13.125 15.6507 13.125 15.7505C13.125 17.1977 14.3027 18.3755 15.75 18.3755C17.1973 18.3755 18.375 17.1977 18.375 15.7505C18.375 14.3032 17.1973 13.1255 15.75 13.1255Z" fill="white"/>
</mask>
<g mask="url(#mask0)">
</g>
</svg>
