<svg width="24" height="24" viewBox="0 0 24 24" fill="none" xmlns="http://www.w3.org/2000/svg">
<path d="M11.4088 10.946C12.2302 11.7676 12.7348 12.8529 12.8336 14.0104C12.9324 15.1679 12.6191 16.3231 11.9488 17.272L11.8078 17.462L16.0248 21.68L16.0998 21.767C16.2097 21.9159 16.2626 22.0993 16.2488 22.2838C16.235 22.4684 16.1554 22.6418 16.0245 22.7727C15.8937 22.9036 15.7202 22.9831 15.5357 22.997C15.3511 23.0108 15.1677 22.9579 15.0188 22.848L14.9318 22.773L10.6748 18.517C9.65893 19.1961 8.42692 19.4734 7.21802 19.2952C6.00913 19.1169 4.9096 18.4958 4.13295 17.5524C3.35629 16.609 2.95792 15.4106 3.01518 14.19C3.07245 12.9693 3.58126 11.8135 4.44283 10.947C5.36662 10.0233 6.61947 9.50442 7.92583 9.50442C9.23218 9.50442 10.485 10.0233 11.4088 10.947V10.946ZM13.1288 2C13.7252 2.00026 14.2971 2.23729 14.7188 2.659L17.5308 5.469L20.3388 8.281C20.7598 8.703 20.9968 9.275 20.9968 9.871V19.75C20.9968 20.3467 20.7598 20.919 20.3378 21.341C19.9159 21.7629 19.3436 22 18.7468 22H17.2368C17.1986 21.6992 17.0836 21.4134 16.9028 21.17L16.7828 21.027L16.2558 20.499L18.7458 20.5C18.9447 20.5 19.1355 20.421 19.2762 20.2803C19.4168 20.1397 19.4958 19.9489 19.4958 19.75V10.003H15.2498C14.6799 10.0031 14.1311 9.78686 13.7144 9.398C13.2977 9.00913 13.0441 8.47661 13.0048 7.908L12.9998 7.754V3.5H7.24983C7.05092 3.5 6.86015 3.57902 6.7195 3.71967C6.57885 3.86032 6.49983 4.05109 6.49983 4.25V8.671C5.97523 8.79543 5.47019 8.99126 4.99883 9.253L4.99983 4.25C4.99983 3.65326 5.23688 3.08097 5.65884 2.65901C6.0808 2.23705 6.65309 2 7.24983 2H13.1288ZM5.53583 12.04C5.21424 12.3521 4.95792 12.7251 4.7818 13.1372C4.60568 13.5493 4.51327 13.9923 4.50994 14.4404C4.50661 14.8885 4.59244 15.3329 4.76242 15.7475C4.93241 16.1622 5.18315 16.5389 5.50008 16.8558C5.817 17.1726 6.19377 17.4233 6.60847 17.5932C7.02317 17.7631 7.46751 17.8488 7.91565 17.8454C8.36378 17.842 8.80677 17.7495 9.21882 17.5733C9.63088 17.397 10.0038 17.1407 10.3158 16.819C10.9453 16.1842 11.2977 15.3259 11.2958 14.4319C11.294 13.5379 10.938 12.6811 10.3058 12.049C9.67371 11.4168 8.81688 11.0609 7.9229 11.059C7.02892 11.0571 6.17061 11.4095 5.53583 12.039V12.04ZM14.4998 4.56V7.754C14.4998 8.134 14.7818 8.447 15.1478 8.497L15.2498 8.504L18.4408 8.503L14.4998 4.56Z" fill="#262338"/>
</svg>
