<svg width="24" height="24" viewBox="0 0 24 24" fill="none" xmlns="http://www.w3.org/2000/svg">
<path fill-rule="evenodd" clip-rule="evenodd" d="M16.5113 14.1549C17.1629 14.8065 17.1629 15.8598 16.5113 16.5114C16.1863 16.8364 15.7597 16.9998 15.3331 16.9998C14.9064 16.9998 14.4798 16.8364 14.1548 16.5114L12 14.3565L9.84518 16.5114C9.52021 16.8364 9.09358 16.9998 8.66694 16.9998C8.24031 16.9998 7.81368 16.8364 7.48871 16.5114C6.8371 15.8598 6.8371 14.8065 7.48871 14.1549L9.64353 12L7.48871 9.84505C6.8371 9.19341 6.8371 8.14012 7.48871 7.48848C8.14032 6.83684 9.19357 6.83684 9.84518 7.48848L12 9.64339L14.1548 7.48848C14.8064 6.83684 15.8597 6.83684 16.5113 7.48848C17.1629 8.14012 17.1629 9.19341 16.5113 9.84505L14.3565 12L16.5113 14.1549ZM12 1.99988C6.486 1.99988 2 6.48588 2 11.9999C2 17.5139 6.486 21.9999 12 21.9999C17.514 21.9999 22 17.5139 22 11.9999C22 6.48588 17.514 1.99988 12 1.99988Z" fill="white"/>
<mask id="mask0" mask-type="alpha" maskUnits="userSpaceOnUse" x="2" y="1" width="20" height="21">
<path fill-rule="evenodd" clip-rule="evenodd" d="M16.5113 14.1549C17.1629 14.8065 17.1629 15.8598 16.5113 16.5114C16.1863 16.8364 15.7597 16.9998 15.3331 16.9998C14.9064 16.9998 14.4798 16.8364 14.1548 16.5114L12 14.3565L9.84518 16.5114C9.52021 16.8364 9.09358 16.9998 8.66694 16.9998C8.24031 16.9998 7.81368 16.8364 7.48871 16.5114C6.8371 15.8598 6.8371 14.8065 7.48871 14.1549L9.64353 12L7.48871 9.84505C6.8371 9.19341 6.8371 8.14012 7.48871 7.48848C8.14032 6.83684 9.19357 6.83684 9.84518 7.48848L12 9.64339L14.1548 7.48848C14.8064 6.83684 15.8597 6.83684 16.5113 7.48848C17.1629 8.14012 17.1629 9.19341 16.5113 9.84505L14.3565 12L16.5113 14.1549ZM12 1.99988C6.486 1.99988 2 6.48588 2 11.9999C2 17.5139 6.486 21.9999 12 21.9999C17.514 21.9999 22 17.5139 22 11.9999C22 6.48588 17.514 1.99988 12 1.99988Z" fill="white"/>
</mask>
<g mask="url(#mask0)">
</g>
</svg>
