<svg width="17" height="17" viewBox="0 0 17 17" fill="none" xmlns="http://www.w3.org/2000/svg">
<path d="M15.057 7.76474C15.3928 8.20391 15.3928 8.79678 15.057 9.23524C13.9995 10.6158 11.4622 13.4583 8.49999 13.4583C5.53774 13.4583 3.00049 10.6158 1.94295 9.23524C1.77959 9.02496 1.69092 8.76627 1.69092 8.49999C1.69092 8.23371 1.77959 7.97502 1.94295 7.76474C3.00049 6.3842 5.53774 3.54166 8.49999 3.54166C11.4622 3.54166 13.9995 6.3842 15.057 7.76474V7.76474Z" stroke="#A0A3BD" stroke-width="2" stroke-linecap="round" stroke-linejoin="round"/>
<path d="M8.5 10.625C9.6736 10.625 10.625 9.6736 10.625 8.5C10.625 7.32639 9.6736 6.375 8.5 6.375C7.32639 6.375 6.375 7.32639 6.375 8.5C6.375 9.6736 7.32639 10.625 8.5 10.625Z" stroke="#A0A3BD" stroke-width="2" stroke-linecap="round" stroke-linejoin="round"/>
</svg>
