<svg width="24" height="24" viewBox="0 0 24 24" fill="none" xmlns="http://www.w3.org/2000/svg">
<g clip-path="url(#clip0)">
<path d="M5.26623 9.765C5.73412 8.34945 6.63709 7.11781 7.84635 6.2458C9.0556 5.37378 10.5094 4.90594 12.0002 4.909C13.6902 4.909 15.2182 5.509 16.4182 6.491L19.9102 3C17.7822 1.145 15.0552 0 12.0002 0C7.27023 0 3.19823 2.698 1.24023 6.65L5.26623 9.765Z" fill="#EA4335"/>
<path d="M16.0398 18.0129C14.9498 18.7159 13.5658 19.0909 11.9998 19.0909C10.5149 19.094 9.06662 18.6299 7.86005 17.7643C6.65349 16.8987 5.74976 15.6755 5.27682 14.2679L1.23682 17.3349C2.22806 19.3412 3.76208 21.0293 5.66464 22.2075C7.56719 23.3857 9.76202 24.0066 11.9998 23.9999C14.9328 23.9999 17.7348 22.9569 19.8338 20.9999L16.0408 18.0129H16.0398Z" fill="#34A853"/>
<path d="M19.834 21C22.029 18.952 23.454 15.904 23.454 12C23.454 11.29 23.345 10.527 23.182 9.81799H12V14.455H18.436C18.119 16.014 17.266 17.221 16.041 18.013L19.834 21Z" fill="#4A90E2"/>
<path d="M5.27712 14.268C5.03247 13.5369 4.90819 12.771 4.90912 12C4.90912 11.218 5.03412 10.467 5.26612 9.76502L1.24012 6.65002C0.416494 8.31271 -0.00807994 10.1445 0.000116455 12C0.000116455 13.92 0.445116 15.73 1.23712 17.335L5.27712 14.268Z" fill="#FBBC05"/>
</g>
<defs>
<clipPath id="clip0">
<rect width="24" height="24" fill="white"/>
</clipPath>
</defs>
</svg>
