<svg width="32" height="32" viewBox="0 0 32 32" fill="none" xmlns="http://www.w3.org/2000/svg">
<path d="M15.4668 12.7027C15.402 12.834 15.3063 12.9477 15.1878 13.0339C15.0694 13.12 14.9318 13.1761 14.7868 13.1973L12.8481 13.48L14.2508 14.8467C14.4641 15.0547 14.5601 15.3533 14.5108 15.6467L14.1788 17.5773L15.9121 16.6653C16.042 16.5969 16.1867 16.5611 16.3335 16.5611C16.4803 16.5611 16.6249 16.5969 16.7548 16.6653L18.4881 17.5773L18.1561 15.6467C18.1314 15.5022 18.1421 15.3539 18.1874 15.2146C18.2327 15.0752 18.3112 14.9489 18.4161 14.8467L19.8188 13.48L17.8815 13.1973C17.7367 13.1763 17.5991 13.1204 17.4807 13.0344C17.3622 12.9485 17.2664 12.8351 17.2015 12.704L16.3335 10.9467L15.4668 12.7027Z" fill="#0095FF"/>
<path d="M5.3335 5.99999C5.3335 5.11593 5.68469 4.26809 6.30981 3.64297C6.93493 3.01785 7.78277 2.66666 8.66683 2.66666H24.0002C24.4379 2.66666 24.8714 2.75288 25.2758 2.92039C25.6802 3.08791 26.0477 3.33344 26.3572 3.64297C26.6667 3.9525 26.9122 4.31996 27.0798 4.72438C27.2473 5.1288 27.3335 5.56225 27.3335 5.99999V25C27.3335 25.2652 27.2281 25.5196 27.0406 25.7071C26.8531 25.8946 26.5987 26 26.3335 26H7.3335C7.3335 26.3536 7.47397 26.6928 7.72402 26.9428C7.97407 27.1928 8.31321 27.3333 8.66683 27.3333H26.3335C26.5987 27.3333 26.8531 27.4387 27.0406 27.6262C27.2281 27.8138 27.3335 28.0681 27.3335 28.3333C27.3335 28.5985 27.2281 28.8529 27.0406 29.0404C26.8531 29.228 26.5987 29.3333 26.3335 29.3333H8.66683C7.78277 29.3333 6.93493 28.9821 6.30981 28.357C5.68469 27.7319 5.3335 26.884 5.3335 26V5.99999ZM14.0562 11.4773L10.7762 11.9533C10.609 11.9772 10.4518 12.0475 10.3225 12.1562C10.1932 12.2648 10.0969 12.4076 10.0445 12.5682C9.99222 12.7288 9.98593 12.9008 10.0264 13.0648C10.0669 13.2288 10.1525 13.3782 10.2735 13.496L12.6468 15.8093L12.0868 19.076C12.0579 19.2424 12.0762 19.4136 12.1396 19.5702C12.203 19.7268 12.309 19.8624 12.4456 19.9618C12.5822 20.0612 12.7439 20.1204 12.9124 20.1325C13.0809 20.1447 13.2494 20.1094 13.3988 20.0307L16.3335 18.488L19.2668 20.0307C19.4162 20.1096 19.5847 20.1452 19.7533 20.1332C19.9219 20.1213 20.0837 20.0624 20.2205 19.9631C20.3572 19.8638 20.4634 19.7282 20.527 19.5716C20.5906 19.4151 20.609 19.2438 20.5802 19.0773L20.0202 15.8107L22.3935 13.496C22.5145 13.3783 22.6001 13.229 22.6407 13.0651C22.6812 12.9012 22.675 12.7292 22.6228 12.5687C22.5707 12.4081 22.4746 12.2654 22.3454 12.1566C22.2163 12.0478 22.0593 11.9774 21.8922 11.9533L18.6122 11.4773L17.1455 8.50399C17.071 8.35236 16.9555 8.22465 16.8121 8.13534C16.6687 8.04602 16.5031 7.99868 16.3342 7.99868C16.1652 7.99868 15.9997 8.04602 15.8563 8.13534C15.7128 8.22465 15.5973 8.35236 15.5228 8.50399L14.0562 11.4773Z" fill="#0095FF"/>
</svg>
