<svg width="17" height="17" viewBox="0 0 17 17" fill="none" xmlns="http://www.w3.org/2000/svg">
<path fill-rule="evenodd" clip-rule="evenodd" d="M14.957 8.33333C14.957 7.8731 15.3301 7.5 15.7903 7.5C16.2505 7.5 16.6236 7.8731 16.6236 8.33333C16.6236 12.9357 12.8927 16.6667 8.29029 16.6667C6.10167 16.6616 4.0042 15.7896 2.45696 14.2417C0.0698968 11.8675 -0.654048 8.29013 0.622057 5.17461C1.89816 2.05909 4.9236 0.0174899 8.29029 0C8.95534 0.00275619 9.61791 0.0810356 10.2653 0.233333C10.5707 0.287449 10.8207 0.506656 10.9143 0.802307C11.0079 1.09796 10.9297 1.42114 10.7111 1.64116C10.4925 1.86118 10.1699 1.94164 9.87362 1.85C9.35409 1.73148 8.82317 1.67 8.29029 1.66667C6.51507 1.66096 4.8122 2.36974 3.56529 3.63333C1.66725 5.5427 1.10395 8.40629 2.13736 10.8923C3.17077 13.3783 5.59804 14.9988 8.29029 15C11.9722 15 14.957 12.0152 14.957 8.33333ZM5.19863 7.74167C5.5254 7.4149 6.0552 7.4149 6.38196 7.74167L8.2903 9.61667L13.4736 3.61667C13.7827 3.29493 14.2903 3.27363 14.6252 3.56834C14.9601 3.86305 15.0035 4.36924 14.7236 4.71667L8.8903 11.3833C8.73814 11.5568 8.5209 11.6594 8.2903 11.6667C8.0688 11.6679 7.8559 11.581 7.69863 11.425L5.19863 8.925C4.87186 8.59823 4.87186 8.06844 5.19863 7.74167Z" fill="#00CC67"/>
</svg>
