<svg width="31" height="31" viewBox="0 0 31 31" fill="none" xmlns="http://www.w3.org/2000/svg">
<path fill-rule="evenodd" clip-rule="evenodd" d="M20.8573 16.3216L13.1072 21.1654C12.9504 21.2633 12.7721 21.3125 12.5938 21.3125C12.4323 21.3125 12.2705 21.2723 12.1241 21.1909C11.8161 21.0202 11.6251 20.6961 11.6251 20.3437V10.6562C11.6251 10.3039 11.8161 9.97981 12.1241 9.80901C12.432 9.63735 12.8085 9.64771 13.1072 9.83462L20.8573 14.6784C21.1404 14.8558 21.3126 15.1661 21.3126 15.5C21.3126 15.8338 21.1404 16.1442 20.8573 16.3216ZM15.5001 0C6.93976 0 6.10352e-05 6.93958 6.10352e-05 15.5C6.10352e-05 24.0604 6.93976 31 15.5001 31C24.0603 31 31.0001 24.0604 31.0001 15.5C31.0001 6.93958 24.0603 0 15.5001 0Z" fill="#0095FF"/>
</svg>
