<svg width="32" height="32" viewBox="0 0 32 32" fill="none" xmlns="http://www.w3.org/2000/svg">
<path d="M9 18.006C8.73478 18.006 8.48043 18.1114 8.29289 18.2989C8.10536 18.4865 8 18.7408 8 19.006V23.006C8 23.2713 8.10536 23.5256 8.29289 23.7131C8.48043 23.9007 8.73478 24.006 9 24.006C9.26522 24.006 9.51957 23.9007 9.70711 23.7131C9.89464 23.5256 10 23.2713 10 23.006V22.674H10.666C11.285 22.674 11.8787 22.4281 12.3164 21.9904C12.7541 21.5527 13 20.9591 13 20.34C13 19.721 12.7541 19.1274 12.3164 18.6897C11.8787 18.2519 11.285 18.006 10.666 18.006H9ZM10.666 20.674H10V20.006H10.666C10.7546 20.006 10.8395 20.0412 10.9022 20.1039C10.9648 20.1665 11 20.2515 11 20.34C11 20.4286 10.9648 20.5136 10.9022 20.5762C10.8395 20.6389 10.7546 20.674 10.666 20.674Z" fill="#0095FF"/>
<path d="M20 19.004C20.0005 18.7392 20.1061 18.4853 20.2936 18.2982C20.4811 18.1111 20.7351 18.006 21 18.006H22.998C23.2632 18.006 23.5176 18.1114 23.7051 18.2989C23.8926 18.4865 23.998 18.7408 23.998 19.006C23.998 19.2713 23.8926 19.5256 23.7051 19.7131C23.5176 19.9007 23.2632 20.006 22.998 20.006H21.998V20.676H22.998C23.2632 20.676 23.5176 20.7814 23.7051 20.9689C23.8926 21.1565 23.998 21.4108 23.998 21.676C23.998 21.9413 23.8926 22.1956 23.7051 22.3831C23.5176 22.5707 23.2632 22.676 22.998 22.676H22V23.004C22.0003 23.1354 21.9747 23.2655 21.9246 23.3869C21.8746 23.5083 21.8012 23.6187 21.7085 23.7117C21.5214 23.8996 21.2672 24.0055 21.002 24.006C20.7368 24.0066 20.4822 23.9017 20.2943 23.7146C20.1064 23.5274 20.0005 23.2733 20 23.008V21.674V19.004Z" fill="#0095FF"/>
<path d="M14.996 18.006C14.7308 18.006 14.4765 18.1114 14.2889 18.2989C14.1014 18.4865 13.996 18.7408 13.996 19.006V23.006C13.996 23.2713 14.1014 23.5256 14.2889 23.7131C14.4765 23.9007 14.7308 24.006 14.996 24.006H16C16.7957 24.006 17.5587 23.69 18.1214 23.1274C18.684 22.5648 19 21.8017 19 21.006C19 20.2104 18.684 19.4473 18.1214 18.8847C17.5587 18.3221 16.7957 18.006 16 18.006H14.996ZM15.996 22.006V20.006H16C16.2652 20.006 16.5196 20.1114 16.7071 20.2989C16.8947 20.4865 17 20.7408 17 21.006C17 21.2713 16.8947 21.5256 16.7071 21.7131C16.5196 21.9007 16.2652 22.006 16 22.006H15.996Z" fill="#0095FF"/>
<path d="M6 7.00403V14.168C5.41452 14.375 4.90771 14.7586 4.54948 15.2659C4.19125 15.7731 3.99926 16.379 4 17V25.006C4 25.8017 4.31607 26.5647 4.87868 27.1274C5.44129 27.69 6.20435 28.006 7 28.006H25C25.7957 28.006 26.5587 27.69 27.1213 27.1274C27.6839 26.5647 28 25.8017 28 25.006V16.998C28.0003 16.3774 27.8081 15.7719 27.4499 15.265C27.0917 14.7582 26.5852 14.3749 26 14.168V10.828C26.0004 10.4332 25.9229 10.0421 25.7719 9.67731C25.6209 9.31248 25.3994 8.98105 25.12 8.70203L21.288 4.88203C20.7256 4.31999 19.9631 4.0042 19.168 4.00403H9C8.20435 4.00403 7.44129 4.3201 6.87868 4.88271C6.31607 5.44532 6 6.20838 6 7.00403ZM9 6.00403H18V9.00003C18 9.79568 18.3161 10.5587 18.8787 11.1213C19.4413 11.684 20.2044 12 21 12H24V13.998H8V7.00403C8 6.73881 8.10536 6.48446 8.29289 6.29692C8.48043 6.10939 8.73479 6.00403 9 6.00403ZM20 6.42003L23.588 10H21C20.7348 10 20.4804 9.89467 20.2929 9.70714C20.1054 9.5196 20 9.26525 20 9.00003V6.42003ZM7 16H25C25.2652 16 25.5196 16.1054 25.7071 16.2929C25.8946 16.4805 26 16.7348 26 17V25.006C26 25.2712 25.8946 25.5256 25.7071 25.7131C25.5196 25.9007 25.2652 26.006 25 26.006H7C6.73479 26.006 6.48043 25.9007 6.2929 25.7131C6.10536 25.5256 6 25.2712 6 25.006V16.998C6 16.7328 6.10536 16.4785 6.2929 16.2909C6.48043 16.1034 6.73479 15.998 7 15.998V16Z" fill="#0095FF"/>
</svg>
