<svg width="20" height="16" viewBox="0 0 20 16" fill="none" xmlns="http://www.w3.org/2000/svg">
<path d="M1.74545 0C0.785455 0 0 0.757895 0 1.68421V11.7895C0 12.7158 0.785455 13.4737 1.74545 13.4737H10.9091C10.6717 12.9383 10.5244 12.3697 10.4727 11.7895H1.74545V3.36842L8.72727 7.57895L15.7091 3.36842V5.89474C15.8545 5.88934 16.0001 5.88934 16.1455 5.89474C16.5864 5.89599 17.0258 5.94686 17.4545 6.04632V1.68421C17.4545 0.757895 16.6691 0 15.7091 0H1.74545ZM1.74545 1.68421H15.7091L8.72727 5.89474L1.74545 1.68421ZM15.7091 6.73684L13.7455 8.63158L15.7091 10.5263V9.26316C16.2877 9.26316 16.8427 9.48496 17.2519 9.87978C17.661 10.2746 17.8909 10.8101 17.8909 11.3684C17.8909 11.7053 17.8124 12.0253 17.664 12.3116L18.6153 13.2295C18.9818 12.6989 19.2 12.0589 19.2 11.3684C19.2 9.50737 17.6378 8 15.7091 8V6.73684ZM12.8029 9.50737C12.4364 10.0379 12.2182 10.6779 12.2182 11.3684C12.2182 13.2295 13.7804 14.7368 15.7091 14.7368V16L17.6727 14.1053L15.7091 12.2105V13.4737C15.1304 13.4737 14.5755 13.2519 14.1663 12.8571C13.7571 12.4623 13.5273 11.9268 13.5273 11.3684C13.5273 11.0316 13.6058 10.7116 13.7542 10.4253L12.8029 9.50737Z" fill="#00CC67"/>
</svg>
