<svg width="20" height="20" viewBox="0 0 20 20" fill="none" xmlns="http://www.w3.org/2000/svg">
<path d="M10 10.8333C9.77903 10.8333 9.56706 10.9211 9.41078 11.0774C9.2545 11.2337 9.16671 11.4456 9.16671 11.6666V14.1666C9.16671 14.3876 9.2545 14.5996 9.41078 14.7559C9.56706 14.9122 9.77903 15 10 15C10.2211 15 10.433 14.9122 10.5893 14.7559C10.7456 14.5996 10.8334 14.3876 10.8334 14.1666V11.6666C10.8334 11.4456 10.7456 11.2337 10.5893 11.0774C10.433 10.9211 10.2211 10.8333 10 10.8333ZM14.1667 7.49996V5.83329C14.1667 4.72822 13.7277 3.66842 12.9463 2.88701C12.1649 2.10561 11.1051 1.66663 10 1.66663C8.89497 1.66663 7.83516 2.10561 7.05376 2.88701C6.27236 3.66842 5.83337 4.72822 5.83337 5.83329V7.49996C5.17033 7.49996 4.53445 7.76335 4.06561 8.23219C3.59677 8.70103 3.33337 9.33692 3.33337 9.99996V15.8333C3.33337 16.4963 3.59677 17.1322 4.06561 17.6011C4.53445 18.0699 5.17033 18.3333 5.83337 18.3333H14.1667C14.8297 18.3333 15.4656 18.0699 15.9345 17.6011C16.4033 17.1322 16.6667 16.4963 16.6667 15.8333V9.99996C16.6667 9.33692 16.4033 8.70103 15.9345 8.23219C15.4656 7.76335 14.8297 7.49996 14.1667 7.49996ZM7.50004 5.83329C7.50004 5.17025 7.76343 4.53437 8.23227 4.06553C8.70111 3.59668 9.337 3.33329 10 3.33329C10.6631 3.33329 11.299 3.59668 11.7678 4.06553C12.2366 4.53437 12.5 5.17025 12.5 5.83329V7.49996H7.50004V5.83329ZM15 15.8333C15 16.0543 14.9122 16.2663 14.756 16.4225C14.5997 16.5788 14.3877 16.6666 14.1667 16.6666H5.83337C5.61236 16.6666 5.4004 16.5788 5.24412 16.4225C5.08784 16.2663 5.00004 16.0543 5.00004 15.8333V9.99996C5.00004 9.77895 5.08784 9.56698 5.24412 9.4107C5.4004 9.25442 5.61236 9.16663 5.83337 9.16663H14.1667C14.3877 9.16663 14.5997 9.25442 14.756 9.4107C14.9122 9.56698 15 9.77895 15 9.99996V15.8333Z" fill="#FF4C4D"/>
</svg>
