<svg width="22" height="24" viewBox="0 0 22 24" fill="none" xmlns="http://www.w3.org/2000/svg">
<path d="M1.83337 10.1832C1.83337 9.22963 2.28669 8.33287 3.05453 7.76746L11 1.91667L18.9456 7.76746C19.7134 8.33287 20.1667 9.22963 20.1667 10.1832V19.5833C20.1667 20.964 19.0474 22.0833 17.6667 22.0833H14.75C14.1978 22.0833 13.75 21.6356 13.75 21.0833V15.7083C13.75 15.4322 13.5262 15.2083 13.25 15.2083H8.75004C8.4739 15.2083 8.25004 15.4322 8.25004 15.7083V21.0833C8.25004 21.6356 7.80233 22.0833 7.25004 22.0833H4.33337C2.95266 22.0833 1.83337 20.964 1.83337 19.5833V10.1832Z" stroke="#D9DBE9" stroke-width="2" stroke-linecap="round" stroke-linejoin="round"/>
</svg>
