<svg width="15" height="15" viewBox="0 0 15 15" fill="none" xmlns="http://www.w3.org/2000/svg">
<path fill-rule="evenodd" clip-rule="evenodd" d="M7.5 14.1211C3.84911 14.1211 0.878906 11.1509 0.878906 7.5C0.878906 3.84911 3.84911 0.878906 7.5 0.878906C11.1509 0.878906 14.1211 3.84911 14.1211 7.5C14.1211 11.1509 11.1509 14.1211 7.5 14.1211ZM12.8033 2.19668C11.3867 0.780146 9.50332 0 7.5 0C5.49665 0 3.61321 0.780146 2.19668 2.19668C0.780117 3.61324 0 5.49668 0 7.5C0 9.50332 0.780117 11.3867 2.19668 12.8033C3.61324 14.2199 5.49665 15 7.5 15C9.50332 15 11.3867 14.2199 12.8033 12.8033C14.2199 11.3867 15 9.50332 15 7.5C15 5.49668 14.2199 3.61327 12.8033 2.19668Z" fill="#0095FF"/>
<path fill-rule="evenodd" clip-rule="evenodd" d="M11.0831 5.09351C10.9116 4.92195 10.6333 4.92195 10.4617 5.09354L6.58106 8.97418L4.53831 6.93139C4.36668 6.7598 4.08845 6.7598 3.9168 6.93139C3.74518 7.10298 3.74518 7.38125 3.9168 7.55287L6.27031 9.90637C6.35612 9.99218 6.46859 10.0351 6.58103 10.0351C6.6935 10.0351 6.80597 9.99218 6.89178 9.90637L11.0831 5.71499C11.2548 5.54339 11.2548 5.26513 11.0831 5.09351Z" fill="#0095FF"/>
</svg>
