<svg width="18" height="18" viewBox="0 0 18 18" fill="none" xmlns="http://www.w3.org/2000/svg">
<path fill-rule="evenodd" clip-rule="evenodd" d="M9 16.8866C4.65131 16.8866 1.1134 13.3487 1.1134 9C1.1134 4.65131 4.65131 1.1134 9 1.1134C13.3487 1.1134 16.8866 4.65131 16.8866 9C16.8866 13.3487 13.3487 16.8866 9 16.8866ZM15.364 2.63602C13.6641 0.936186 11.404 0 9 0C6.59602 0 4.33592 0.936186 2.63602 2.63602C0.936186 4.33592 0 6.59602 0 9C0 11.404 0.936186 13.6641 2.63602 15.364C4.33592 17.0638 6.59602 18 9 18C11.404 18 13.6641 17.0638 15.364 15.364C17.0638 13.6641 18 11.404 18 9C18 6.59602 17.0638 4.33592 15.364 2.63602Z" fill="#0095FF"/>
<path fill-rule="evenodd" clip-rule="evenodd" d="M6.71982 12.4914L12.7647 8.99999L6.71982 5.50854V12.4914Z" fill="#0095FF"/>
</svg>
