<svg width="16" height="18" viewBox="0 0 16 18" fill="none" xmlns="http://www.w3.org/2000/svg">
<path fill-rule="evenodd" clip-rule="evenodd" d="M7.8866 16.8866C4.15184 16.8866 1.1134 13.8482 1.1134 10.1134C1.1134 6.37864 4.15184 3.34021 7.8866 3.34021C11.6214 3.34021 14.6598 6.37864 14.6598 10.1134C14.6598 13.8482 11.6214 16.8866 7.8866 16.8866ZM12.0313 3.4066L12.5254 2.46411L11.5393 1.94712L11.046 2.88805C10.2395 2.53403 9.36297 2.31116 8.44334 2.2467V1.1134H10.2348V0H5.53847V1.1134H7.3299V2.24673C6.41026 2.31116 5.53376 2.53407 4.72725 2.88809L4.23397 1.94715L3.24787 2.46414L3.74196 3.40664C1.49786 4.79847 0 7.28414 0 10.1134C0 14.4621 3.53791 18 7.8866 18C12.2353 18 15.7732 14.4621 15.7732 10.1134C15.7732 7.28414 14.2753 4.79847 12.0313 3.4066Z" fill="#0095FF"/>
<path fill-rule="evenodd" clip-rule="evenodd" d="M8.4433 5.38147H7.3299V10.6701H12.6186V9.55673H8.4433V5.38147Z" fill="#0095FF"/>
</svg>
