<svg width="15" height="17" viewBox="0 0 15 17" fill="none" xmlns="http://www.w3.org/2000/svg">
<path fill-rule="evenodd" clip-rule="evenodd" d="M2.92188 7.37109C3.0092 7.37109 3.09486 7.33557 3.15662 7.27381C3.21838 7.21205 3.25391 7.12639 3.25391 7.03906C3.25391 6.95174 3.21838 6.86607 3.15662 6.80432C3.09486 6.74256 3.0092 6.70703 2.92188 6.70703C2.83455 6.70703 2.74889 6.74256 2.68713 6.80432C2.62537 6.86607 2.58984 6.95174 2.58984 7.03906C2.58984 7.12639 2.62537 7.21205 2.68713 7.27381C2.74889 7.33557 2.83455 7.37109 2.92188 7.37109Z" fill="#0095FF"/>
<mask id="mask0" mask-type="alpha" maskUnits="userSpaceOnUse" x="0" y="0" width="15" height="17">
<path fill-rule="evenodd" clip-rule="evenodd" d="M0 17H14.3438V0H0V17Z" fill="white"/>
</mask>
<g mask="url(#mask0)">
<path fill-rule="evenodd" clip-rule="evenodd" d="M5.47852 8.5H11.4551V6.10938H5.47852V8.5ZM5.14648 9.16406H11.7871C11.9705 9.16406 12.1191 9.01541 12.1191 8.83203V5.77734C12.1191 5.59396 11.9705 5.44531 11.7871 5.44531H5.14648C4.9631 5.44531 4.81445 5.59396 4.81445 5.77734V8.83203C4.81445 9.01541 4.9631 9.16406 5.14648 9.16406Z" fill="#0095FF"/>
<path fill-rule="evenodd" clip-rule="evenodd" d="M1.52734 16.3359C1.05134 16.3359 0.664062 15.9487 0.664062 15.4727C0.664062 14.9967 1.05134 14.6094 1.52734 14.6094H13.3782C13.1216 15.1544 13.1218 15.791 13.3783 16.3359H1.52734ZM0.664062 1.52734C0.664062 1.05134 1.05134 0.664062 1.52734 0.664062H2.58984V5.54492C2.58984 5.7283 2.73849 5.87695 2.92188 5.87695C3.10526 5.87695 3.25391 5.7283 3.25391 5.54492V0.664062H8.84531V4.25C8.84531 4.38431 8.92626 4.5054 9.05034 4.5568C9.17442 4.6081 9.3173 4.57971 9.41222 4.48468L10.4822 3.41378L11.5522 4.48468C11.6157 4.54826 11.7007 4.58206 11.7872 4.58206C11.8299 4.58206 11.873 4.5738 11.9141 4.5568C12.0382 4.50543 12.1191 4.38434 12.1191 4.25V0.664062H13.6797V13.9453H3.25391V8.5332C3.25391 8.34982 3.10526 8.20117 2.92188 8.20117C2.73849 8.20117 2.58984 8.34982 2.58984 8.5332V13.9453H1.52734C1.20717 13.9453 0.909832 14.0445 0.664062 14.2136V1.52734ZM9.50937 0.664062H11.4551V3.44791L10.7171 2.70931C10.6548 2.64699 10.5703 2.61196 10.4822 2.61196C10.3941 2.61196 10.3096 2.64699 10.2473 2.70931L9.50937 3.44791V0.664062ZM14.0117 0H1.52734C0.68518 0 0 0.68518 0 1.52734V15.4727C0 16.3148 0.68518 17 1.52734 17H14.0117C14.1951 17 14.3438 16.8513 14.3438 16.668C14.3438 16.5763 14.3066 16.4933 14.2465 16.4332C13.7169 15.9035 13.7169 15.0417 14.2465 14.5121C14.3066 14.452 14.3438 14.369 14.3438 14.2773V0.332031C14.3438 0.14865 14.1951 0 14.0117 0Z" fill="#0095FF"/>
</g>
</svg>
