<svg width="14" height="13" viewBox="0 0 14 13" fill="none" xmlns="http://www.w3.org/2000/svg">
<path d="M1.02302 0.0701705L13.063 5.82903C13.1846 5.8872 13.2872 5.97857 13.359 6.09257C13.4308 6.20658 13.4689 6.33857 13.4689 6.47331C13.4689 6.60806 13.4308 6.74005 13.359 6.85406C13.2872 6.96806 13.1846 7.05943 13.063 7.1176L1.02302 12.8765C0.899545 12.9356 0.761658 12.9581 0.625783 12.9411C0.489908 12.9242 0.361774 12.8685 0.256641 12.7808C0.151507 12.693 0.0738068 12.5769 0.0327933 12.4463C-0.00822017 12.3156 -0.010818 12.176 0.0253093 12.0439L1.22988 7.62789C1.24463 7.57376 1.27498 7.52518 1.31715 7.48819C1.35932 7.45121 1.41144 7.42745 1.46702 7.41989L7.30131 6.62731C7.32564 6.6239 7.34867 6.61427 7.36819 6.59936C7.38771 6.58444 7.40305 6.56475 7.41274 6.54217L7.42302 6.50617C7.42753 6.47427 7.42112 6.44178 7.40483 6.41398C7.38855 6.38618 7.36334 6.3647 7.33331 6.35303L7.30188 6.34446L1.47331 5.55246C1.41783 5.54479 1.36583 5.52099 1.32377 5.484C1.28171 5.44702 1.25144 5.3985 1.23674 5.34446L0.0253093 0.902742C-0.010818 0.770664 -0.00822017 0.630985 0.0327933 0.500342C0.0738068 0.369699 0.151507 0.253597 0.256641 0.165866C0.361774 0.0781344 0.489908 0.0224707 0.625783 0.00550457C0.761658 -0.0114616 0.899545 0.0109849 1.02302 0.0701705Z" fill="#00CC67"/>
</svg>
