<svg width="34" height="34" viewBox="0 0 34 34" fill="none" xmlns="http://www.w3.org/2000/svg">
<rect x="1" y="1" width="32" height="32" rx="16" stroke="white" stroke-width="1.4"/>
<path d="M17 16.8333C16.779 16.8333 16.567 16.9211 16.4107 17.0774C16.2545 17.2337 16.1667 17.4456 16.1667 17.6666V20.1666C16.1667 20.3876 16.2545 20.5996 16.4107 20.7559C16.567 20.9122 16.779 21 17 21C17.221 21 17.433 20.9122 17.5892 20.7559C17.7455 20.5996 17.8333 20.3876 17.8333 20.1666V17.6666C17.8333 17.4456 17.7455 17.2337 17.5892 17.0774C17.433 16.9211 17.221 16.8333 17 16.8333ZM21.1667 13.5V11.8333C21.1667 10.7282 20.7277 9.66842 19.9463 8.88701C19.1649 8.10561 18.1051 7.66663 17 7.66663C15.8949 7.66663 14.8351 8.10561 14.0537 8.88701C13.2723 9.66842 12.8333 10.7282 12.8333 11.8333V13.5C12.1703 13.5 11.5344 13.7634 11.0656 14.2322C10.5967 14.701 10.3333 15.3369 10.3333 16V21.8333C10.3333 22.4963 10.5967 23.1322 11.0656 23.6011C11.5344 24.0699 12.1703 24.3333 12.8333 24.3333H21.1667C21.8297 24.3333 22.4656 24.0699 22.9344 23.6011C23.4033 23.1322 23.6667 22.4963 23.6667 21.8333V16C23.6667 15.3369 23.4033 14.701 22.9344 14.2322C22.4656 13.7634 21.8297 13.5 21.1667 13.5ZM14.5 11.8333C14.5 11.1703 14.7634 10.5344 15.2322 10.0655C15.7011 9.59668 16.337 9.33329 17 9.33329C17.663 9.33329 18.2989 9.59668 18.7678 10.0655C19.2366 10.5344 19.5 11.1703 19.5 11.8333V13.5H14.5V11.8333ZM22 21.8333C22 22.0543 21.9122 22.2663 21.7559 22.4225C21.5996 22.5788 21.3877 22.6666 21.1667 22.6666H12.8333C12.6123 22.6666 12.4004 22.5788 12.2441 22.4225C12.0878 22.2663 12 22.0543 12 21.8333V16C12 15.7789 12.0878 15.567 12.2441 15.4107C12.4004 15.2544 12.6123 15.1666 12.8333 15.1666H21.1667C21.3877 15.1666 21.5996 15.2544 21.7559 15.4107C21.9122 15.567 22 15.7789 22 16V21.8333Z" fill="#FCFCFC"/>
</svg>
