<svg width="20" height="20" viewBox="0 0 20 20" fill="none" xmlns="http://www.w3.org/2000/svg">
<path d="M5.83333 8.33333H16.6667C16.8877 8.33333 17.0996 8.42112 17.2559 8.5774C17.4122 8.73368 17.5 8.94565 17.5 9.16666V17.5C17.5 17.721 17.4122 17.933 17.2559 18.0892C17.0996 18.2455 16.8877 18.3333 16.6667 18.3333H3.33333C3.11232 18.3333 2.90036 18.2455 2.74408 18.0892C2.5878 17.933 2.5 17.721 2.5 17.5V9.16666C2.5 8.94565 2.5878 8.73368 2.74408 8.5774C2.90036 8.42112 3.11232 8.33333 3.33333 8.33333H4.16667V7.49999C4.16619 6.18558 4.60965 4.90953 5.42516 3.87869C6.24067 2.84785 7.38042 2.12264 8.65967 1.82063C9.93891 1.51861 11.2827 1.65749 12.4731 2.21475C13.6635 2.77201 14.6309 3.71499 15.2183 4.89083L13.7275 5.63583C13.3079 4.79584 12.6169 4.1222 11.7665 3.72412C10.9161 3.32603 9.95622 3.22685 9.0424 3.44264C8.12858 3.65843 7.31444 4.17655 6.73196 4.913C6.14949 5.64945 5.83283 6.56104 5.83333 7.49999V8.33333ZM4.16667 9.99999V16.6667H15.8333V9.99999H4.16667ZM8.33333 12.5H11.6667V14.1667H8.33333V12.5Z" fill="#FCFCFC"/>
</svg>
