<svg width="94" height="94" viewBox="0 0 94 94" fill="none" xmlns="http://www.w3.org/2000/svg">
<path fill-rule="evenodd" clip-rule="evenodd" d="M31.3333 19.5834C31.3333 21.7376 29.5708 23.5001 27.4166 23.5001H23.5V70.5001H27.4166C29.5708 70.5001 31.3333 72.2626 31.3333 74.4167C31.3333 76.5709 29.5708 78.3334 27.4166 78.3334H19.5833C17.4291 78.3334 15.6666 76.5709 15.6666 74.4167V19.5834C15.6666 17.4292 17.4291 15.6667 19.5833 15.6667H27.4166C29.5708 15.6667 31.3333 17.4292 31.3333 19.5834ZM70.5152 29.0805L81.5367 44.7472C82.5159 46.1337 82.4845 47.9941 81.4662 49.3493L69.7162 65.0159C68.9485 66.0421 67.7696 66.5826 66.5789 66.5826C65.7643 66.5826 64.9379 66.328 64.2329 65.7993C62.5017 64.5028 62.1531 62.0471 63.4495 60.3198L70.5034 50.9159H70.4995H39.1662C37.0042 50.9159 35.2495 49.1652 35.2495 46.9993C35.2495 44.8334 37.0042 43.0826 39.1662 43.0826H70.4995C70.5643 43.0826 70.6243 43.1005 70.6847 43.1184C70.734 43.1331 70.7836 43.1478 70.8364 43.1531L64.1075 33.5847C62.862 31.8183 63.2889 29.3743 65.0593 28.1288C66.8257 26.8794 69.2697 27.3102 70.5152 29.0805Z" fill="#FF4C4D"/>
<mask id="mask0" mask-type="alpha" maskUnits="userSpaceOnUse" x="15" y="15" width="68" height="64">
<path fill-rule="evenodd" clip-rule="evenodd" d="M31.3333 19.5834C31.3333 21.7376 29.5708 23.5001 27.4166 23.5001H23.5V70.5001H27.4166C29.5708 70.5001 31.3333 72.2626 31.3333 74.4167C31.3333 76.5709 29.5708 78.3334 27.4166 78.3334H19.5833C17.4291 78.3334 15.6666 76.5709 15.6666 74.4167V19.5834C15.6666 17.4292 17.4291 15.6667 19.5833 15.6667H27.4166C29.5708 15.6667 31.3333 17.4292 31.3333 19.5834ZM70.5152 29.0805L81.5367 44.7472C82.5159 46.1337 82.4845 47.9941 81.4662 49.3493L69.7162 65.0159C68.9485 66.0421 67.7696 66.5826 66.5789 66.5826C65.7643 66.5826 64.9379 66.328 64.2329 65.7993C62.5017 64.5028 62.1531 62.0471 63.4495 60.3198L70.5034 50.9159H70.4995H39.1662C37.0042 50.9159 35.2495 49.1652 35.2495 46.9993C35.2495 44.8334 37.0042 43.0826 39.1662 43.0826H70.4995C70.5643 43.0826 70.6243 43.1005 70.6847 43.1184C70.734 43.1331 70.7836 43.1478 70.8364 43.1531L64.1075 33.5847C62.862 31.8183 63.2889 29.3743 65.0593 28.1288C66.8257 26.8794 69.2697 27.3102 70.5152 29.0805Z" fill="white"/>
</mask>
<g mask="url(#mask0)">
</g>
</svg>
