<svg width="30" height="28" viewBox="0 0 30 28" fill="none" xmlns="http://www.w3.org/2000/svg">
<path d="M17.661 23L19.425 24.764C19.6982 25.0469 19.8494 25.4258 19.846 25.8191C19.8426 26.2124 19.6848 26.5886 19.4067 26.8668C19.1286 27.1449 18.7524 27.3026 18.3591 27.306C17.9658 27.3095 17.5869 27.1583 17.304 26.885L13.0605 22.643C12.7793 22.3617 12.6213 21.9803 12.6213 21.5825C12.6213 21.1848 12.7793 20.8033 13.0605 20.522L17.304 16.2785C17.5855 15.9973 17.9671 15.8393 18.365 15.8395C18.7629 15.8396 19.1445 15.9978 19.4257 16.2793C19.707 16.5607 19.8649 16.9424 19.8648 17.3403C19.8647 17.7382 19.7065 18.1198 19.425 18.401L17.8245 20H21C22.5913 20 24.1174 19.3679 25.2426 18.2427C26.3679 17.1175 27 15.5913 27 14C27 12.4087 26.3679 10.8826 25.2426 9.75739C24.1174 8.63217 22.5913 8.00003 21 8.00003C20.6022 8.00003 20.2206 7.84199 19.9393 7.56069C19.658 7.27939 19.5 6.89785 19.5 6.50003C19.5 6.1022 19.658 5.72067 19.9393 5.43937C20.2206 5.15807 20.6022 5.00003 21 5.00003C23.3869 5.00003 25.6761 5.94824 27.364 7.63607C29.0518 9.3239 30 11.6131 30 14C30 16.387 29.0518 18.6762 27.364 20.364C25.6761 22.0518 23.3869 23 21 23H17.661ZM12.4095 5.00003L10.764 3.35603C10.4825 3.07457 10.3244 2.69283 10.3244 2.29478C10.3244 1.89673 10.4825 1.51499 10.764 1.23353C11.0455 0.952069 11.4272 0.793945 11.8253 0.793945C12.2233 0.793945 12.605 0.952069 12.8865 1.23353L17.1285 5.47703C17.4097 5.75832 17.5677 6.13978 17.5677 6.53753C17.5677 6.93528 17.4097 7.31674 17.1285 7.59803L12.8865 11.84C12.7472 11.9794 12.5819 12.09 12.3999 12.1654C12.2179 12.2409 12.0228 12.2798 11.8258 12.2798C11.6288 12.2799 11.4337 12.2412 11.2516 12.1658C11.0695 12.0905 10.9041 11.98 10.7648 11.8408C10.6254 11.7015 10.5148 11.5362 10.4394 11.3542C10.3639 11.1722 10.325 10.9771 10.3249 10.7801C10.3248 10.3822 10.4827 10.0005 10.764 9.71903L12.4845 8.00003H9C7.4087 8.00003 5.88258 8.63217 4.75736 9.75739C3.63214 10.8826 3 12.4087 3 14C3 15.5913 3.63214 17.1175 4.75736 18.2427C5.88258 19.3679 7.4087 20 9 20C9.39782 20 9.77936 20.1581 10.0607 20.4394C10.342 20.7207 10.5 21.1022 10.5 21.5C10.5 21.8979 10.342 22.2794 10.0607 22.5607C9.77936 22.842 9.39782 23 9 23C6.61305 23 4.32387 22.0518 2.63604 20.364C0.948211 18.6762 0 16.387 0 14C0 11.6131 0.948211 9.3239 2.63604 7.63607C4.32387 5.94824 6.61305 5.00003 9 5.00003H12.4095Z" fill="#A0A3BD"/>
</svg>
