<svg width="60" height="60" viewBox="0 0 60 60" fill="none" xmlns="http://www.w3.org/2000/svg">
<path d="M42.5001 22.5H22.5001V17.5C22.4964 16.0155 22.9334 14.5632 23.7557 13.3272C24.578 12.0913 25.7486 11.1271 27.1193 10.5569C28.4899 9.98667 29.999 9.83605 31.4553 10.1241C32.9116 10.4121 34.2497 11.1259 35.3001 12.175C36.2399 13.1352 36.9122 14.3245 37.2501 15.625C37.3321 15.9434 37.4761 16.2426 37.6738 16.5054C37.8715 16.7682 38.119 16.9895 38.4023 17.1567C38.6855 17.3238 38.9989 17.4335 39.3245 17.4796C39.6501 17.5256 39.9816 17.5071 40.3001 17.425C40.6185 17.3429 40.9177 17.1989 41.1805 17.0012C41.4433 16.8035 41.6646 16.556 41.8317 16.2728C41.9989 15.9896 42.1086 15.6762 42.1546 15.3506C42.2007 15.0249 42.1821 14.6934 42.1001 14.375C41.5305 12.212 40.4009 10.2373 38.8251 8.64998C37.0755 6.9059 34.8484 5.71932 32.425 5.24009C30.0015 4.76086 27.4904 5.01046 25.2087 5.95737C22.927 6.90429 20.9771 8.50605 19.6051 10.5604C18.2331 12.6148 17.5006 15.0296 17.5001 17.5V22.5C15.5109 22.5 13.6033 23.2902 12.1968 24.6967C10.7902 26.1032 10.0001 28.0109 10.0001 30V47.5C10.0001 49.4891 10.7902 51.3968 12.1968 52.8033C13.6033 54.2098 15.5109 55 17.5001 55H42.5001C44.4892 55 46.3968 54.2098 47.8034 52.8033C49.2099 51.3968 50.0001 49.4891 50.0001 47.5V30C50.0001 28.0109 49.2099 26.1032 47.8034 24.6967C46.3968 23.2902 44.4892 22.5 42.5001 22.5ZM45.0001 47.5C45.0001 48.163 44.7367 48.7989 44.2678 49.2678C43.799 49.7366 43.1631 50 42.5001 50H17.5001C16.837 50 16.2011 49.7366 15.7323 49.2678C15.2635 48.7989 15.0001 48.163 15.0001 47.5V30C15.0001 29.3369 15.2635 28.7011 15.7323 28.2322C16.2011 27.7634 16.837 27.5 17.5001 27.5H42.5001C43.1631 27.5 43.799 27.7634 44.2678 28.2322C44.7367 28.7011 45.0001 29.3369 45.0001 30V47.5Z" fill="#FF4C4D"/>
</svg>
