<svg width="76" height="76" viewBox="0 0 76 76" fill="none" xmlns="http://www.w3.org/2000/svg">
<g filter="url(#filter0_d)">
<circle cx="38" cy="34" r="30" fill="#0095FF"/>
</g>
<path d="M38 37C40.49 37 42.5 34.99 42.5 32.5V23.5C42.5 21.01 40.49 19 38 19C35.51 19 33.5 21.01 33.5 23.5V32.5C33.5 34.99 35.51 37 38 37ZM46.865 32.5C46.13 32.5 45.515 33.04 45.395 33.775C44.78 37.3 41.705 40 38 40C34.295 40 31.22 37.3 30.605 33.775C30.5521 33.4222 30.3749 33.0998 30.1054 32.8661C29.8359 32.6323 29.4917 32.5025 29.135 32.5C28.22 32.5 27.5 33.31 27.635 34.21C28.37 38.71 31.97 42.235 36.5 42.88V46C36.5 46.825 37.175 47.5 38 47.5C38.825 47.5 39.5 46.825 39.5 46V42.88C41.7073 42.5647 43.7567 41.5542 45.3507 39.9952C46.9448 38.4361 48.0006 36.4097 48.365 34.21C48.515 33.31 47.78 32.5 46.865 32.5Z" fill="#FCFCFC"/>
<defs>
<filter id="filter0_d" x="0" y="0" width="76" height="76" filterUnits="userSpaceOnUse" color-interpolation-filters="sRGB">
<feFlood flood-opacity="0" result="BackgroundImageFix"/>
<feColorMatrix in="SourceAlpha" type="matrix" values="0 0 0 0 0 0 0 0 0 0 0 0 0 0 0 0 0 0 127 0"/>
<feOffset dy="4"/>
<feGaussianBlur stdDeviation="4"/>
<feColorMatrix type="matrix" values="0 0 0 0 0.793632 0 0 0 0 0.419151 0 0 0 0 0.892578 0 0 0 0.26 0"/>
<feBlend mode="normal" in2="BackgroundImageFix" result="effect1_dropShadow"/>
<feBlend mode="normal" in="SourceGraphic" in2="effect1_dropShadow" result="shape"/>
</filter>
</defs>
</svg>
