<svg width="20" height="20" viewBox="0 0 20 20" fill="none" xmlns="http://www.w3.org/2000/svg">
<path fill-rule="evenodd" clip-rule="evenodd" d="M6.01647 5.00004C5.29647 5.00004 4.62147 5.27837 4.11647 5.78421C3.06813 6.83421 3.06813 8.54337 4.1173 9.59504L9.9998 15.4875L15.8831 9.59504C16.9323 8.54337 16.9323 6.83421 15.8831 5.78421C14.8731 4.77171 13.0931 4.77337 12.0831 5.78421L10.5898 7.28004C10.2765 7.59421 9.72313 7.59421 9.4098 7.28004L7.91647 5.78337C7.41147 5.27837 6.7373 5.00004 6.01647 5.00004ZM9.99979 17.5C9.77896 17.5 9.56646 17.4125 9.41063 17.255L2.93729 10.7717C1.24063 9.07171 1.24063 6.30587 2.93729 4.60587C3.75729 3.78587 4.85063 3.33337 6.01646 3.33337C7.18229 3.33337 8.27646 3.78587 9.09563 4.60587L9.99979 5.51171L10.904 4.60671C11.724 3.78587 12.8173 3.33337 13.984 3.33337C15.149 3.33337 16.2431 3.78587 17.0623 4.60587C18.7598 6.30587 18.7598 9.07171 17.0631 10.7717L10.5898 17.2559C10.4331 17.4125 10.2215 17.5 9.99979 17.5Z" fill="#C5CEE0"/>
<mask id="mask0" mask-type="alpha" maskUnits="userSpaceOnUse" x="1" y="3" width="18" height="15">
<path fill-rule="evenodd" clip-rule="evenodd" d="M6.01647 5.00004C5.29647 5.00004 4.62147 5.27837 4.11647 5.78421C3.06813 6.83421 3.06813 8.54337 4.1173 9.59504L9.9998 15.4875L15.8831 9.59504C16.9323 8.54337 16.9323 6.83421 15.8831 5.78421C14.8731 4.77171 13.0931 4.77337 12.0831 5.78421L10.5898 7.28004C10.2765 7.59421 9.72313 7.59421 9.4098 7.28004L7.91647 5.78337C7.41147 5.27837 6.7373 5.00004 6.01647 5.00004ZM9.99979 17.5C9.77896 17.5 9.56646 17.4125 9.41063 17.255L2.93729 10.7717C1.24063 9.07171 1.24063 6.30587 2.93729 4.60587C3.75729 3.78587 4.85063 3.33337 6.01646 3.33337C7.18229 3.33337 8.27646 3.78587 9.09563 4.60587L9.99979 5.51171L10.904 4.60671C11.724 3.78587 12.8173 3.33337 13.984 3.33337C15.149 3.33337 16.2431 3.78587 17.0623 4.60587C18.7598 6.30587 18.7598 9.07171 17.0631 10.7717L10.5898 17.2559C10.4331 17.4125 10.2215 17.5 9.99979 17.5Z" fill="white"/>
</mask>
<g mask="url(#mask0)">
</g>
</svg>
