<svg width="16" height="15" viewBox="0 0 16 15" fill="none" xmlns="http://www.w3.org/2000/svg">
<path fill-rule="evenodd" clip-rule="evenodd" d="M2.72925 0.239517C2.52268 0.0329459 2.2216 -0.0477292 1.93941 0.027881C1.65723 0.103491 1.43682 0.3239 1.36121 0.606081C1.2856 0.888262 1.36628 1.18935 1.57285 1.39592L6.15773 5.9808C5.56211 7.08882 5.7633 8.45629 6.65282 9.34581C7.54234 10.2353 8.90981 10.4365 10.0178 9.8409L14.6027 14.4258C14.7556 14.5799 14.9638 14.6667 15.1809 14.6667C15.3981 14.6667 15.6062 14.5799 15.7591 14.4258C15.9133 14.2729 16 14.0647 16 13.8476C16 13.6304 15.9133 13.4223 15.7591 13.2694L2.72925 0.239517ZM8.66598 8.5542C7.99134 8.5542 7.44443 8.00729 7.44443 7.33265V7.27564L8.71484 8.54605L8.66598 8.5542ZM15.8778 6.78555C15.3731 5.85509 12.5891 1.18602 7.88073 1.33691C7.00725 1.36445 6.14506 1.55454 5.33333 1.89854L6.57943 3.22298C7.01764 3.10045 7.46732 3.03016 7.92017 3.01342C11.3036 2.92121 13.5276 6.02274 14.2295 7.20468C13.7232 8.04486 13.1161 8.81133 12.4235 9.48473L13.6144 10.6667C14.5157 9.77755 15.289 8.75228 15.9094 7.62381C16.0406 7.35849 16.0286 7.03888 15.8778 6.78555ZM1.7567 7.46331C2.4518 8.6457 4.67929 11.74 8.07582 11.6562C8.52937 11.6394 8.97975 11.5691 9.41864 11.4465L10.6667 12.7715C9.85368 13.1156 8.99016 13.3058 8.11532 13.3333H7.91785C3.26539 13.3333 0.603457 8.79665 0.105825 7.8826C-0.0352751 7.62314 -0.0352751 7.30348 0.105825 7.04403C0.717524 5.91735 1.48128 4.8918 2.37281 4L3.52605 5.18239C2.84624 5.85867 2.25154 6.62532 1.7567 7.46331Z" fill="#A0A3BD"/>
</svg>
