<svg width="29" height="29" viewBox="0 0 29 29" fill="none" xmlns="http://www.w3.org/2000/svg">
<path d="M20.2383 2.41663C20.9593 2.41663 21.6509 2.70306 22.1607 3.21293C22.6706 3.72279 22.957 4.41432 22.957 5.13538V23.8645C22.957 24.5856 22.6706 25.2771 22.1607 25.787C21.6509 26.2969 20.9593 26.5833 20.2383 26.5833H13.5212C14.0371 26.0468 14.4757 25.4366 14.8238 24.7708H20.2371C20.4774 24.7708 20.7079 24.6753 20.8779 24.5054C21.0479 24.3354 21.1433 24.1049 21.1433 23.8645V5.13538C21.1433 4.89502 21.0479 4.66452 20.8779 4.49456C20.7079 4.32461 20.4774 4.22913 20.2371 4.22913H7.552C7.31165 4.22913 7.08114 4.32461 6.91119 4.49456C6.74123 4.66452 6.64575 4.89502 6.64575 5.13538V13.3835C6.0232 13.4796 5.4146 13.6508 4.83325 13.8934V5.13538C4.83325 4.41432 5.11969 3.72279 5.62956 3.21293C6.13942 2.70306 6.83094 2.41663 7.552 2.41663H20.2383ZM18.4258 6.04163C18.6661 6.04163 18.8967 6.13711 19.0666 6.30706C19.2366 6.47702 19.332 6.70752 19.332 6.94788V9.96629C19.332 10.2066 19.2366 10.4372 19.0666 10.6071C18.8967 10.7771 18.6661 10.8725 18.4258 10.8725H9.3645C9.12415 10.8725 8.89364 10.7771 8.72369 10.6071C8.55373 10.4372 8.45825 10.2066 8.45825 9.96629V6.94788C8.45825 6.70752 8.55373 6.47702 8.72369 6.30706C8.89364 6.13711 9.12415 6.04163 9.3645 6.04163H18.4258ZM17.5195 7.85413H10.2708V9.06004H17.5195V7.85413ZM1.20825 21.1458C1.20825 22.0185 1.38015 22.8827 1.71414 23.689C2.04812 24.4954 2.53765 25.228 3.15477 25.8451C3.77189 26.4622 4.50453 26.9518 5.31083 27.2857C6.11714 27.6197 6.98134 27.7916 7.85408 27.7916C8.72683 27.7916 9.59103 27.6197 10.3973 27.2857C11.2036 26.9518 11.9363 26.4622 12.5534 25.8451C13.1705 25.228 13.66 24.4954 13.994 23.689C14.328 22.8827 14.4999 22.0185 14.4999 21.1458C14.4999 19.3832 13.7997 17.6928 12.5534 16.4465C11.3071 15.2001 9.61667 14.5 7.85408 14.5C6.0915 14.5 4.40111 15.2001 3.15477 16.4465C1.90844 17.6928 1.20825 19.3832 1.20825 21.1458ZM11.4791 16.9166C11.6393 16.9166 11.793 16.9803 11.9063 17.0936C12.0196 17.2069 12.0833 17.3606 12.0833 17.5208V19.9375C12.0833 20.0977 12.0196 20.2514 11.9063 20.3647C11.793 20.478 11.6393 20.5416 11.4791 20.5416H9.06242C8.90218 20.5416 8.74851 20.478 8.63521 20.3647C8.5219 20.2514 8.45825 20.0977 8.45825 19.9375C8.45825 19.7772 8.5219 19.6236 8.63521 19.5102C8.74851 19.3969 8.90218 19.3333 9.06242 19.3333H10.2708C9.98963 18.9578 9.62482 18.6531 9.2053 18.4434C8.78578 18.2336 8.32312 18.1246 7.85408 18.125C6.84754 18.125 5.95459 18.6167 5.40479 19.3768C5.35909 19.443 5.30062 19.4995 5.2328 19.5428C5.16499 19.5862 5.0892 19.6155 5.00988 19.6292C4.93056 19.6428 4.84932 19.6405 4.77092 19.6223C4.69252 19.6041 4.61854 19.5704 4.55334 19.5232C4.48813 19.4761 4.43301 19.4163 4.3912 19.3476C4.3494 19.2788 4.32175 19.2024 4.3099 19.1228C4.29804 19.0432 4.3022 18.962 4.32215 18.884C4.34209 18.806 4.37742 18.7328 4.42604 18.6687C4.81777 18.126 5.33286 17.6841 5.92887 17.3795C6.52488 17.0748 7.18474 16.9162 7.85408 16.9166C9.03825 16.9166 10.1076 17.4036 10.8749 18.1854V17.5208C10.8749 17.3606 10.9386 17.2069 11.0519 17.0936C11.1652 16.9803 11.3188 16.9166 11.4791 16.9166ZM4.83325 24.1062V24.7708C4.83325 24.931 4.7696 25.0847 4.6563 25.198C4.54299 25.3113 4.38932 25.375 4.22909 25.375C4.06885 25.375 3.91518 25.3113 3.80187 25.198C3.68857 25.0847 3.62492 24.931 3.62492 24.7708V22.3541C3.62492 22.1939 3.68857 22.0402 3.80187 21.9269C3.91518 21.8136 4.06885 21.75 4.22909 21.75H6.64575C6.80599 21.75 6.95966 21.8136 7.07296 21.9269C7.18626 22.0402 7.24992 22.1939 7.24992 22.3541C7.24992 22.5144 7.18626 22.668 7.07296 22.7813C6.95966 22.8946 6.80599 22.9583 6.64575 22.9583H5.43742C5.98842 23.693 6.86688 24.1666 7.85408 24.1666C8.77967 24.1666 9.60859 23.751 10.1632 23.0936C10.2675 22.9742 10.4144 22.9006 10.5725 22.8886C10.7305 22.8766 10.8869 22.9271 11.008 23.0294C11.1291 23.1316 11.2052 23.2773 11.2199 23.4352C11.2345 23.593 11.1866 23.7502 11.0864 23.873C10.6898 24.344 10.1949 24.7224 9.63655 24.9819C9.07818 25.2414 8.4698 25.3755 7.85408 25.375C7.29138 25.3757 6.73422 25.2638 6.21541 25.046C5.69661 24.8281 5.22666 24.5085 4.83325 24.1062Z" fill="#FCFCFC"/>
</svg>
