<svg width="24" height="23" viewBox="0 0 24 23" fill="none" xmlns="http://www.w3.org/2000/svg">
<path d="M18.7222 8.26328C18.7222 6.55795 18.014 4.92247 16.7533 3.71662C15.4927 2.51077 13.7828 1.83333 12 1.83333C10.2172 1.83333 8.50733 2.51077 7.24667 3.71662C5.98601 4.92247 5.27778 6.55795 5.27778 8.26328C5.27778 13.6055 3.10835 16.2302 1.85935 17.2987C1.65898 17.4701 1.79337 17.9082 2.05706 17.9082H7.87862C7.99558 17.9082 8.09742 17.988 8.13239 18.0996C8.34744 18.7861 9.271 21.0833 12 21.0833C14.729 21.0833 15.6526 18.7861 15.8676 18.0996C15.9026 17.988 16.0044 17.9082 16.1214 17.9082H21.9429C22.2066 17.9082 22.341 17.4701 22.1406 17.2987C20.8917 16.2302 18.7222 13.6055 18.7222 8.26328Z" stroke="#D9DBE9" stroke-width="2" stroke-linecap="round" stroke-linejoin="round"/>
</svg>
