<svg width="246" height="246" viewBox="0 0 246 246" fill="none" xmlns="http://www.w3.org/2000/svg">
<path d="M36.4614 186.607C43.1526 202.935 54.0627 206.333 61.7334 202.935C76.5682 196.362 115.104 189.018 154.681 206.28C207.099 229.144 218.252 194.649 201.523 159.757C184.794 124.865 179.123 89.5794 198.409 70.1391C217.694 50.6989 192.457 20.2872 147.639 51.9436C118.676 72.4011 97.4199 67.8458 86.0056 62.0626C75.248 56.6121 63.2843 50.9139 52.0754 55.363C38.4747 60.7619 33.1156 72.4668 53.8085 98.6157C83.1321 135.671 21.4622 150.007 36.4614 186.607Z" fill="#DEE9FF"/>
<path d="M63.7061 107.066H167.842V187.153C167.842 187.316 167.777 187.472 167.661 187.588C167.546 187.703 167.39 187.768 167.227 187.768H64.3211C64.1579 187.768 64.0015 187.703 63.8862 187.588C63.7708 187.472 63.7061 187.316 63.7061 187.153V107.066Z" fill="#A2BDFF"/>
<path d="M141.717 75.6826H93.2965L63.7061 107.066H167.842L141.717 75.6826Z" fill="#418DF9"/>
<path d="M73.5697 63.1289L93.2966 75.6826L63.7062 107.066L41.2891 90.0294L73.5697 63.1289Z" fill="#699CFF"/>
<path d="M161.445 63.1289L141.718 75.6826L167.842 107.066L193.725 90.0294L161.445 63.1289Z" fill="#699CFF"/>
<path d="M106.018 63.7708C106.575 63.5069 107.008 63.038 107.227 62.4622C107.446 61.8864 107.434 61.2482 107.194 60.681L98.3193 39.7552C98.1937 39.4588 98.0093 39.1909 97.7774 38.9676C97.5455 38.7442 97.2709 38.5701 96.9699 38.4556C96.669 38.3412 96.3481 38.2887 96.0264 38.3015C95.7047 38.3143 95.3889 38.3919 95.098 38.5299L93.3883 39.3406C93.0974 39.4785 92.8374 39.6739 92.6239 39.9148C92.4104 40.1558 92.2479 40.4375 92.146 40.7429C92.0442 41.0483 92.0052 41.3712 92.0313 41.6921C92.0575 42.013 92.1482 42.3253 92.2981 42.6102L102.882 62.7251C103.169 63.2703 103.655 63.6836 104.24 63.8785C104.824 64.0734 105.462 64.0348 106.018 63.7708Z" fill="#418DF9"/>
<path d="M117.144 61.7422C117.547 61.7135 117.923 61.5302 118.194 61.2307C118.465 60.9311 118.61 60.5384 118.598 60.1347L118.159 45.2374C118.153 45.0264 118.104 44.8188 118.016 44.6272C117.927 44.4355 117.801 44.2637 117.645 44.1221C117.488 43.9805 117.304 43.872 117.105 43.8032C116.905 43.7344 116.694 43.7066 116.483 43.7216L115.245 43.8098C115.035 43.8247 114.83 43.8821 114.642 43.9785C114.454 44.0748 114.288 44.2081 114.153 44.3704C114.018 44.5326 113.917 44.7205 113.857 44.9227C113.796 45.1249 113.777 45.3372 113.801 45.5469L115.477 60.3561C115.522 60.7576 115.721 61.126 116.032 61.3843C116.342 61.6426 116.741 61.7709 117.144 61.7422Z" fill="#418DF9"/>
<path d="M125.734 67.2492C126.842 67.8899 128.397 67.302 129.26 65.9161L144.582 41.3096C145.497 39.8396 145.28 38.048 144.105 37.3684L142.466 36.4214C141.291 35.7417 139.63 36.4474 138.813 37.974L125.129 63.5275C124.359 64.9667 124.625 66.6084 125.734 67.2492Z" fill="#418DF9"/>
</svg>
