<svg width="29" height="29" viewBox="0 0 29 29" fill="none" xmlns="http://www.w3.org/2000/svg">
<path d="M11.4169 6.18469H9.67283C9.21028 6.18469 8.76667 6.36844 8.4396 6.69552C8.11252 7.02259 7.92877 7.4662 7.92877 7.92876V21.8813C7.92877 22.3438 8.11252 22.7874 8.4396 23.1145C8.76667 23.4416 9.21028 23.6253 9.67283 23.6253H11.4169C11.8795 23.6253 12.3231 23.4416 12.6501 23.1145C12.9772 22.7874 13.161 22.3438 13.161 21.8813V7.92876C13.161 7.4662 12.9772 7.02259 12.6501 6.69552C12.3231 6.36844 11.8795 6.18469 11.4169 6.18469Z" fill="#FCFCFC"/>
<path d="M20.1372 6.18469H18.3931C17.9306 6.18469 17.4869 6.36844 17.1599 6.69552C16.8328 7.02259 16.649 7.4662 16.649 7.92876V21.8813C16.649 22.3438 16.8328 22.7874 17.1599 23.1145C17.4869 23.4416 17.9306 23.6253 18.3931 23.6253H20.1372C20.5997 23.6253 21.0433 23.4416 21.3704 23.1145C21.6975 22.7874 21.8812 22.3438 21.8812 21.8813V7.92876C21.8812 7.4662 21.6975 7.02259 21.3704 6.69552C21.0433 6.36844 20.5997 6.18469 20.1372 6.18469Z" fill="#FCFCFC"/>
</svg>
