<svg width="8" height="8" viewBox="0 0 8 8" fill="none" xmlns="http://www.w3.org/2000/svg">
<path d="M4.82836 1.28809C4.82836 0.913656 4.52482 0.61012 4.15039 0.61012C3.77596 0.61012 3.47242 0.913656 3.47242 1.28809L4.82836 1.28809ZM3.47242 6.71181C3.47242 7.08625 3.77596 7.38978 4.15039 7.38978C4.52482 7.38978 4.82836 7.08625 4.82836 6.71181L3.47242 6.71181ZM3.47242 1.28809L3.47242 6.71181L4.82836 6.71181L4.82836 1.28809L3.47242 1.28809Z" fill="#14142B"/>
<path d="M1.43945 3.32203C1.06502 3.32203 0.761487 3.62557 0.761487 4C0.761487 4.37443 1.06502 4.67797 1.43945 4.67797V3.32203ZM6.86318 4.67797C7.23761 4.67797 7.54115 4.37443 7.54115 4C7.54115 3.62557 7.23761 3.32203 6.86318 3.32203V4.67797ZM1.43945 4.67797H6.86318V3.32203H1.43945V4.67797Z" fill="#14142B"/>
</svg>
