<svg width="28" height="28" viewBox="0 0 28 28" fill="none" xmlns="http://www.w3.org/2000/svg">
<path fill-rule="evenodd" clip-rule="evenodd" d="M14.875 3.5C15.1071 3.5 15.3296 3.59219 15.4937 3.75628C15.6578 3.92038 15.75 4.14294 15.75 4.375V23.625C15.75 23.8571 15.6578 24.0796 15.4937 24.2437C15.3296 24.4078 15.1071 24.5 14.875 24.5C14.6429 24.5 14.4204 24.4078 14.2563 24.2437C14.0922 24.0796 14 23.8571 14 23.625V4.375C14 4.14294 14.0922 3.92038 14.2563 3.75628C14.4204 3.59219 14.6429 3.5 14.875 3.5ZM11.375 7C11.6071 7 11.8296 7.09219 11.9937 7.25628C12.1578 7.42038 12.25 7.64294 12.25 7.875V20.125C12.25 20.3571 12.1578 20.5796 11.9937 20.7437C11.8296 20.9078 11.6071 21 11.375 21C11.1429 21 10.9204 20.9078 10.7563 20.7437C10.5922 20.5796 10.5 20.3571 10.5 20.125V7.875C10.5 7.64294 10.5922 7.42038 10.7563 7.25628C10.9204 7.09219 11.1429 7 11.375 7ZM18.375 7C18.6071 7 18.8296 7.09219 18.9937 7.25628C19.1578 7.42038 19.25 7.64294 19.25 7.875V20.125C19.25 20.3571 19.1578 20.5796 18.9937 20.7437C18.8296 20.9078 18.6071 21 18.375 21C18.1429 21 17.9204 20.9078 17.7563 20.7437C17.5922 20.5796 17.5 20.3571 17.5 20.125V7.875C17.5 7.64294 17.5922 7.42038 17.7563 7.25628C17.9204 7.09219 18.1429 7 18.375 7ZM7.875 9.625C8.10706 9.625 8.32962 9.71719 8.49372 9.88128C8.65781 10.0454 8.75 10.2679 8.75 10.5V17.5C8.75 17.7321 8.65781 17.9546 8.49372 18.1187C8.32962 18.2828 8.10706 18.375 7.875 18.375C7.64294 18.375 7.42038 18.2828 7.25628 18.1187C7.09219 17.9546 7 17.7321 7 17.5V10.5C7 10.2679 7.09219 10.0454 7.25628 9.88128C7.42038 9.71719 7.64294 9.625 7.875 9.625ZM21.875 9.625C22.1071 9.625 22.3296 9.71719 22.4937 9.88128C22.6578 10.0454 22.75 10.2679 22.75 10.5V17.5C22.75 17.7321 22.6578 17.9546 22.4937 18.1187C22.3296 18.2828 22.1071 18.375 21.875 18.375C21.6429 18.375 21.4204 18.2828 21.2563 18.1187C21.0922 17.9546 21 17.7321 21 17.5V10.5C21 10.2679 21.0922 10.0454 21.2563 9.88128C21.4204 9.71719 21.6429 9.625 21.875 9.625ZM4.375 11.375C4.60706 11.375 4.82962 11.4672 4.99372 11.6313C5.15781 11.7954 5.25 12.0179 5.25 12.25V15.75C5.25 15.9821 5.15781 16.2046 4.99372 16.3687C4.82962 16.5328 4.60706 16.625 4.375 16.625C4.14294 16.625 3.92038 16.5328 3.75628 16.3687C3.59219 16.2046 3.5 15.9821 3.5 15.75V12.25C3.5 12.0179 3.59219 11.7954 3.75628 11.6313C3.92038 11.4672 4.14294 11.375 4.375 11.375ZM25.375 11.375C25.6071 11.375 25.8296 11.4672 25.9937 11.6313C26.1578 11.7954 26.25 12.0179 26.25 12.25V15.75C26.25 15.9821 26.1578 16.2046 25.9937 16.3687C25.8296 16.5328 25.6071 16.625 25.375 16.625C25.1429 16.625 24.9204 16.5328 24.7563 16.3687C24.5922 16.2046 24.5 15.9821 24.5 15.75V12.25C24.5 12.0179 24.5922 11.7954 24.7563 11.6313C24.9204 11.4672 25.1429 11.375 25.375 11.375Z" fill="url(#paint0_linear_4267_42036)"/>
<defs>
<linearGradient id="paint0_linear_4267_42036" x1="3.5" y1="9.905" x2="26.7421" y2="12.1416" gradientUnits="userSpaceOnUse">
<stop stop-color="#0F5EF9"/>
<stop offset="1" stop-color="#2FECE6"/>
</linearGradient>
</defs>
</svg>
