<svg width="20" height="18" viewBox="0 0 20 18" fill="none" xmlns="http://www.w3.org/2000/svg">
<path d="M12.4966 0.673218C13.4148 0.682674 14.1626 1.15547 14.5981 2.0065C14.7105 2.23108 14.8673 2.55908 15.0315 2.90509L15.2297 3.32347L15.327 3.5289L15.4217 3.73693C15.4595 3.80312 15.5258 3.8504 15.611 3.8504C17.8829 3.8504 19.7383 5.70376 19.7383 7.97317V13.59C19.7383 15.8594 17.8829 17.7127 15.611 17.7127H4.93289C2.65149 17.7127 0.805542 15.8594 0.805542 13.59V7.97317C0.805542 5.70376 2.65149 3.8504 4.93289 3.8504C5.00863 3.8504 5.08436 3.81258 5.11276 3.73693L5.16955 3.62346C5.43461 3.06556 5.75647 2.38474 5.9458 2.0065C6.38125 1.15547 7.11963 0.682674 8.03787 0.673218H12.4966ZM10.2719 6.73445C9.27797 6.73445 8.3408 7.12214 7.63082 7.83133C6.93031 8.54053 6.54218 9.46721 6.55165 10.4506C6.55165 11.4435 6.93977 12.3702 7.64029 13.0794C8.35027 13.7791 9.27797 14.1668 10.2719 14.1668C11.2943 14.1668 12.222 13.7507 12.8941 13.0794C13.5663 12.408 13.9828 11.4813 13.9922 10.4506C13.9922 9.46721 13.6041 8.53107 12.9036 7.82188C12.2031 7.12214 11.2659 6.73445 10.2719 6.73445ZM10.2719 8.15283C10.8873 8.15283 11.4647 8.38923 11.9002 8.8242C12.3356 9.25918 12.5723 9.83599 12.5723 10.4506C12.5628 11.7177 11.5404 12.7484 10.2719 12.7484C9.65663 12.7484 9.07918 12.512 8.64372 12.077C8.20827 11.6421 7.97161 11.0653 7.97161 10.4506V10.4412C7.96214 9.84544 8.1988 9.26863 8.63426 8.83366C9.07918 8.38923 9.65663 8.15283 10.2719 8.15283ZM15.5826 6.50751C15.1093 6.50751 14.7306 6.8952 14.7306 7.368C14.7306 7.84079 15.1093 8.21903 15.5826 8.21903C16.0559 8.21903 16.444 7.84079 16.444 7.368C16.444 6.8952 16.0559 6.50751 15.5826 6.50751Z" fill="#6E7191"/>
</svg>
