<svg width="31" height="31" viewBox="0 0 31 31" fill="none" xmlns="http://www.w3.org/2000/svg">
<path fill-rule="evenodd" clip-rule="evenodd" d="M20.8572 16.3216L13.1072 21.1654C12.9504 21.2633 12.772 21.3125 12.5938 21.3125C12.4322 21.3125 12.2704 21.2723 12.124 21.1909C11.8161 21.0202 11.625 20.6961 11.625 20.3437V10.6562C11.625 10.3039 11.8161 9.97981 12.124 9.80901C12.432 9.63735 12.8084 9.64771 13.1072 9.83462L20.8572 14.6784C21.1403 14.8558 21.3125 15.1661 21.3125 15.5C21.3125 15.8338 21.1403 16.1442 20.8572 16.3216ZM15.5 0C6.9397 0 0 6.93958 0 15.5C0 24.0604 6.9397 31 15.5 31C24.0602 31 31 24.0604 31 15.5C31 6.93958 24.0602 0 15.5 0Z" fill="#0095FF"/>
</svg>
