<svg width="48" height="48" viewBox="0 0 48 48" fill="none" xmlns="http://www.w3.org/2000/svg">
<path d="M10.4375 27.8867C9.92364 27.8867 9.43083 28.0908 9.06748 28.4541C8.70413 28.8175 8.5 29.3103 8.5 29.8242V37.5742C8.5 38.088 8.70413 38.5808 9.06748 38.9442C9.43083 39.3075 9.92364 39.5117 10.4375 39.5117C10.9514 39.5117 11.4442 39.3075 11.8075 38.9442C12.1709 38.5808 12.375 38.088 12.375 37.5742V36.9309H13.6654C14.8647 36.9309 16.0149 36.4545 16.863 35.6064C17.7111 34.7583 18.1875 33.6081 18.1875 32.4088C18.1875 31.2094 17.7111 30.0592 16.863 29.2112C16.0149 28.3631 14.8647 27.8867 13.6654 27.8867H10.4375ZM13.6654 33.0559H12.375V31.7617H13.6654C13.837 31.7617 14.0016 31.8298 14.123 31.9512C14.2443 32.0726 14.3125 32.2372 14.3125 32.4088C14.3125 32.5804 14.2443 32.745 14.123 32.8664C14.0016 32.9877 13.837 33.0559 13.6654 33.0559Z" fill="#0095FF"/>
<path d="M31.75 29.8203C31.751 29.3071 31.9556 28.8153 32.3189 28.4528C32.6821 28.0903 33.1743 27.8867 33.6875 27.8867H37.5586C38.0725 27.8867 38.5653 28.0908 38.9286 28.4541C39.292 28.8175 39.4961 29.3103 39.4961 29.8242C39.4961 30.338 39.292 30.8308 38.9286 31.1942C38.5653 31.5575 38.0725 31.7617 37.5586 31.7617H35.6211V33.0598H37.5586C38.0725 33.0598 38.5653 33.2639 38.9286 33.6273C39.292 33.9906 39.4961 34.4834 39.4961 34.9973C39.4961 35.5111 39.292 36.0039 38.9286 36.3673C38.5653 36.7306 38.0725 36.9348 37.5586 36.9348H35.625V37.5703C35.6255 37.8247 35.5759 38.0768 35.479 38.312C35.3821 38.5473 35.2398 38.7612 35.0603 38.9414C34.6976 39.3055 34.2052 39.5106 33.6914 39.5117C33.1775 39.5127 32.6843 39.3095 32.3202 38.9469C31.9561 38.5843 31.751 38.0919 31.75 37.578V34.9934V29.8203Z" fill="#0095FF"/>
<path d="M22.0548 27.8867C21.541 27.8867 21.0482 28.0908 20.6848 28.4541C20.3215 28.8175 20.1173 29.3103 20.1173 29.8242V37.5742C20.1173 38.088 20.3215 38.5808 20.6848 38.9442C21.0482 39.3075 21.541 39.5117 22.0548 39.5117H24.0001C25.5417 39.5117 27.0201 38.8993 28.1101 37.8092C29.2002 36.7192 29.8126 35.2407 29.8126 33.6992C29.8126 32.1576 29.2002 30.6792 28.1101 29.5891C27.0201 28.499 25.5417 27.8867 24.0001 27.8867H22.0548ZM23.9923 35.6367V31.7617H24.0001C24.5139 31.7617 25.0068 31.9658 25.3701 32.3291C25.7335 32.6925 25.9376 33.1853 25.9376 33.6992C25.9376 34.213 25.7335 34.7058 25.3701 35.0692C25.0068 35.4325 24.5139 35.6367 24.0001 35.6367H23.9923Z" fill="#0095FF"/>
<path d="M4.625 6.57025V20.4505C3.49064 20.8516 2.50869 21.5948 1.81462 22.5776C1.12055 23.5604 0.748571 24.7343 0.750004 25.9375V41.4491C0.750004 42.9907 1.36239 44.4691 2.45245 45.5592C3.5425 46.6492 5.02093 47.2616 6.5625 47.2616H41.4375C42.9791 47.2616 44.4575 46.6492 45.5476 45.5592C46.6376 44.4691 47.25 42.9907 47.25 41.4491V25.9336C47.2506 24.7311 46.8783 23.558 46.1843 22.576C45.4903 21.5939 44.5087 20.8513 43.375 20.4505V13.9793C43.3759 13.2142 43.2257 12.4566 42.9331 11.7497C42.6405 11.0429 42.2113 10.4007 41.67 9.86013L34.2455 2.45888C33.1559 1.36993 31.6785 0.75808 30.138 0.757751H10.4375C8.89593 0.757751 7.4175 1.37014 6.32745 2.46019C5.23739 3.55025 4.625 5.02868 4.625 6.57025ZM10.4375 4.63275H27.875V10.4375C27.875 11.9791 28.4874 13.4575 29.5774 14.5476C30.6675 15.6376 32.1459 16.25 33.6875 16.25H39.5V20.1211H8.5V6.57025C8.5 6.0564 8.70413 5.56358 9.06748 5.20023C9.43084 4.83688 9.92365 4.63275 10.4375 4.63275ZM31.75 5.43875L38.7018 12.375H33.6875C33.1736 12.375 32.6808 12.1709 32.3175 11.8075C31.9541 11.4442 31.75 10.9514 31.75 10.4375V5.43875ZM6.5625 24H41.4375C41.9514 24 42.4442 24.2041 42.8075 24.5675C43.1709 24.9308 43.375 25.4236 43.375 25.9375V41.4491C43.375 41.963 43.1709 42.4558 42.8075 42.8191C42.4442 43.1825 41.9514 43.3866 41.4375 43.3866H6.5625C6.04865 43.3866 5.55584 43.1825 5.19248 42.8191C4.82913 42.4558 4.625 41.963 4.625 41.4491V25.9336C4.625 25.4198 4.82913 24.927 5.19248 24.5636C5.55584 24.2003 6.04865 23.9961 6.5625 23.9961V24Z" fill="#0095FF"/>
</svg>
