<svg width="29" height="26" viewBox="0 0 29 26" fill="none" xmlns="http://www.w3.org/2000/svg">
<path d="M8.80273 14.75H7.92773C5.99453 14.75 4.42773 16.3195 4.42773 18.2566V21.7434C4.42773 23.6799 5.99453 25.25 7.92773 25.25H8.80273C9.76906 25.25 10.5527 24.4647 10.5527 23.4967V16.5033C10.5527 15.5348 9.76906 14.75 8.80273 14.75ZM20.1777 14.75H19.3027C18.3364 14.75 17.5527 15.5348 17.5527 16.5033V23.4967C17.5527 24.4647 18.3364 25.25 19.3027 25.25H20.1777C22.1109 25.25 23.6777 23.6799 23.6777 21.7434V18.2566C23.6777 16.3201 22.1109 14.75 20.1777 14.75ZM14.0527 0.75C6.2275 0.75 0.302656 7.26492 0.0527344 14.75V20.875C0.0527344 21.3584 0.444297 21.75 0.927734 21.75H1.80273C2.28617 21.75 2.67773 21.3584 2.67773 20.875V14.75C2.67773 8.47898 7.78172 3.38594 14.0527 3.38484C20.3237 3.38594 25.4277 8.47898 25.4277 14.75V20.875C25.4277 21.3584 25.8193 21.75 26.3027 21.75H27.1777C27.6612 21.75 28.0527 21.3584 28.0527 20.875V14.75C27.8028 7.26492 21.878 0.75 14.0527 0.75Z" fill="#0095FF"/>
</svg>
