<svg width="40" height="40" viewBox="0 0 40 40" fill="none" xmlns="http://www.w3.org/2000/svg">
<mask id="mask0_5170_42272" style="mask-type:alpha" maskUnits="userSpaceOnUse" x="0" y="0" width="40" height="40">
<path fill-rule="evenodd" clip-rule="evenodd" d="M0 0H40V40H0V0Z" fill="white"/>
</mask>
<g mask="url(#mask0_5170_42272)">
<path fill-rule="evenodd" clip-rule="evenodd" d="M19.9993 8.33338V1.66672L11.666 10.0001L19.9993 18.3334V11.6667C25.4993 11.6667 29.9993 16.1667 29.9993 21.6667C29.9993 27.1667 25.4993 31.6667 19.9993 31.6667C14.4993 31.6667 9.99935 27.1667 9.99935 21.6667H6.66602C6.66602 29.0001 12.666 35 19.9993 35C27.3327 35 33.3327 29.0001 33.3327 21.6667C33.3327 14.3334 27.3327 8.33338 19.9993 8.33338ZM16.0852 22.487H16.8372C17.1952 22.487 17.4605 22.3975 17.6331 22.2184C17.8056 22.0394 17.8918 21.8018 17.8918 21.5056C17.8918 21.2191 17.8064 20.9961 17.6355 20.8366C17.4646 20.6771 17.2294 20.5974 16.9299 20.5974C16.6597 20.5974 16.4335 20.6714 16.2512 20.8195C16.0689 20.9676 15.9778 21.1605 15.9778 21.3981H14.5667C14.5667 21.027 14.6667 20.6942 14.8669 20.3996C15.0671 20.105 15.3471 19.8747 15.7068 19.7087C16.0665 19.5427 16.4628 19.4597 16.8958 19.4597C17.6477 19.4597 18.2369 19.6395 18.6633 19.9992C19.0898 20.3589 19.303 20.8545 19.303 21.486C19.303 21.8115 19.2037 22.111 19.0051 22.3845C18.8066 22.6579 18.5461 22.8679 18.2239 23.0143C18.6243 23.1576 18.9229 23.3724 19.1199 23.6589C19.3168 23.9453 19.4153 24.2839 19.4153 24.6745C19.4153 25.306 19.185 25.8122 18.7244 26.1931C18.2638 26.5739 17.6542 26.7643 16.8958 26.7643C16.1861 26.7643 15.6059 26.5772 15.155 26.2028C14.7042 25.8285 14.4788 25.3337 14.4788 24.7184H15.8899C15.8899 24.9854 15.99 25.2035 16.1902 25.3727C16.3904 25.542 16.637 25.6266 16.9299 25.6266C17.2652 25.6266 17.5281 25.5379 17.7185 25.3605C17.9089 25.1831 18.0042 24.9479 18.0042 24.655C18.0042 23.9453 17.6135 23.5905 16.8323 23.5905H16.0852V22.487ZM25.1721 23.7272C25.1721 24.7103 24.9687 25.4623 24.5618 25.9831C24.1549 26.5039 23.5592 26.7643 22.7747 26.7643C21.9999 26.7643 21.4075 26.5088 20.9973 25.9977C20.5872 25.4867 20.3772 24.7543 20.3674 23.8005V22.4919C20.3674 21.499 20.5733 20.7455 20.9851 20.2311C21.3969 19.7168 21.9901 19.4597 22.7649 19.4597C23.5396 19.4597 24.1321 19.7144 24.5422 20.2238C24.9524 20.7333 25.1624 21.4649 25.1721 22.4186V23.7272ZM23.761 22.2917C23.761 21.7025 23.6804 21.2736 23.5193 21.0051C23.3582 20.7365 23.1067 20.6022 22.7649 20.6022C22.4329 20.6022 22.1879 20.73 22.03 20.9855C21.8722 21.2411 21.7883 21.6406 21.7786 22.1843V23.9128C21.7786 24.4922 21.8575 24.9227 22.0154 25.2043C22.1733 25.4859 22.4263 25.6266 22.7747 25.6266C23.1197 25.6266 23.3687 25.4916 23.5217 25.2214C23.6747 24.9512 23.7545 24.5378 23.761 23.9811V22.2917Z" fill="#6E7191"/>
</g>
</svg>
