<svg width="24" height="24" viewBox="0 0 24 24" fill="none" xmlns="http://www.w3.org/2000/svg">
<path d="M22.1528 10.32L19.68 7.84729C19.457 7.62489 19.1549 7.5 18.84 7.5C18.5251 7.5 18.223 7.62489 18 7.84729L7.5 18.3503V22.5H11.6497L22.1528 12C22.3752 11.7771 22.5 11.475 22.5 11.16C22.5 10.8451 22.3752 10.543 22.1528 10.32ZM11.028 21H9V18.972L16.08 11.8913L18.1088 13.9193L11.028 21ZM19.17 12.8588L17.142 10.8308L18.8422 9.13054L20.8702 11.1585L19.17 12.8588Z" fill="#A0A3BD"/>
<path d="M8.25 12.75H9.75V7.5H12V6H6V7.5H8.25V12.75Z" fill="#A0A3BD"/>
<path d="M6 15H3V3H15V6H16.5V3C16.5 2.60218 16.342 2.22064 16.0607 1.93934C15.7794 1.65804 15.3978 1.5 15 1.5H3C2.60218 1.5 2.22064 1.65804 1.93934 1.93934C1.65804 2.22064 1.5 2.60218 1.5 3V15C1.5 15.3978 1.65804 15.7794 1.93934 16.0607C2.22064 16.342 2.60218 16.5 3 16.5H6V15Z" fill="#A0A3BD"/>
</svg>
