<svg width="16" height="16" viewBox="0 0 16 16" fill="none" xmlns="http://www.w3.org/2000/svg">
<path fill-rule="evenodd" clip-rule="evenodd" d="M6.66633 3.33328C6.51566 3.33328 6.36433 3.38395 6.23966 3.48795C5.957 3.72328 5.919 4.14395 6.15433 4.42662L9.13833 8.00728L6.26166 11.582C6.031 11.8686 6.07633 12.2886 6.363 12.5193C6.65033 12.75 7.06966 12.7046 7.301 12.418L10.5197 8.41795C10.7183 8.17062 10.7157 7.81728 10.5123 7.57328L7.179 3.57328C7.047 3.41528 6.85766 3.33328 6.66633 3.33328Z" fill="#A0A3BD"/>
<mask id="mask0" mask-type="alpha" maskUnits="userSpaceOnUse" x="6" y="3" width="5" height="10">
<path fill-rule="evenodd" clip-rule="evenodd" d="M6.66633 3.33328C6.51566 3.33328 6.36433 3.38395 6.23966 3.48795C5.957 3.72328 5.919 4.14395 6.15433 4.42662L9.13833 8.00728L6.26166 11.582C6.031 11.8686 6.07633 12.2886 6.363 12.5193C6.65033 12.75 7.06966 12.7046 7.301 12.418L10.5197 8.41795C10.7183 8.17062 10.7157 7.81728 10.5123 7.57328L7.179 3.57328C7.047 3.41528 6.85766 3.33328 6.66633 3.33328Z" fill="white"/>
</mask>
<g mask="url(#mask0)">
</g>
</svg>
