<svg width="24" height="24" viewBox="0 0 24 24" fill="none" xmlns="http://www.w3.org/2000/svg">
<path d="M2.00001 10.4998C2.00037 8.88066 2.5247 7.30511 3.49463 6.00864C4.46457 4.71217 5.82802 3.7644 7.3812 3.30698C8.93439 2.84956 10.5939 2.90706 12.1117 3.47088C13.6295 4.03471 14.9241 5.07458 15.8019 6.43507C16.6798 7.79557 17.0938 9.40363 16.9821 11.0189C16.8704 12.6342 16.239 14.1699 15.1822 15.3966C14.1254 16.6233 12.7 17.4751 11.119 17.8246C9.53806 18.1742 7.88644 18.0027 6.41101 17.3358C5.15301 17.6258 3.79801 17.8758 3.17501 17.9878C3.01579 18.0162 2.85205 18.0055 2.69792 17.9565C2.54379 17.9075 2.40392 17.8216 2.29039 17.7064C2.17687 17.5912 2.09311 17.4501 2.04635 17.2953C1.99958 17.1405 1.99123 16.9766 2.02201 16.8178C2.14001 16.2078 2.40201 14.8998 2.70301 13.6748C2.23849 12.6809 1.99847 11.5969 2.00001 10.4998ZM8.14401 6.3068C7.70201 6.5428 7.35401 6.9098 7.09101 7.3968C7.00493 7.57077 6.98965 7.77135 7.04839 7.95636C7.10713 8.14136 7.23531 8.29639 7.40598 8.38885C7.57665 8.48131 7.77653 8.504 7.96358 8.45214C8.15063 8.40029 8.3103 8.27793 8.40901 8.1108C8.55601 7.8408 8.70701 7.7068 8.85101 7.6308C9.00101 7.5498 9.20501 7.5008 9.50001 7.5008C9.72401 7.5008 9.98701 7.5798 10.18 7.7388C10.351 7.8788 10.5 8.1028 10.5 8.4998C10.5 8.6948 10.425 8.7848 9.91201 9.1878C9.46201 9.5418 8.75001 10.1158 8.75001 11.2498C8.75001 11.4487 8.82903 11.6395 8.96968 11.7801C9.11033 11.9208 9.3011 11.9998 9.50001 11.9998C9.69892 11.9998 9.88969 11.9208 10.0303 11.7801C10.171 11.6395 10.25 11.4487 10.25 11.2498C10.25 10.8798 10.414 10.7008 10.838 10.3668L10.923 10.3018C11.31 10.0038 12 9.4748 12 8.4998C12 7.6518 11.649 7.0018 11.132 6.5778C10.6693 6.2057 10.0938 6.0022 9.50001 6.0008C9.04501 6.0008 8.57801 6.0748 8.14401 6.3068ZM10.5 13.9998C10.5 13.7346 10.3947 13.4802 10.2071 13.2927C10.0196 13.1052 9.76522 12.9998 9.50001 12.9998C9.23479 12.9998 8.98044 13.1052 8.7929 13.2927C8.60536 13.4802 8.50001 13.7346 8.50001 13.9998C8.50001 14.265 8.60536 14.5194 8.7929 14.7069C8.98044 14.8944 9.23479 14.9998 9.50001 14.9998C9.76522 14.9998 10.0196 14.8944 10.2071 14.7069C10.3947 14.5194 10.5 14.265 10.5 13.9998Z" fill="#0095FF"/>
<path d="M9.3999 18.9997C10.7855 20.2878 12.608 21.0025 14.4999 20.9997C15.5999 20.9997 16.6459 20.7627 17.5889 20.3357C18.8489 20.6257 20.2099 20.8757 20.8369 20.9857C20.9964 21.0138 21.1603 21.0026 21.3145 20.9531C21.4687 20.9036 21.6085 20.8172 21.7218 20.7015C21.8351 20.5857 21.9185 20.4441 21.9646 20.2889C22.0108 20.1337 22.0185 19.9695 21.9869 19.8107C21.7795 18.7605 21.5494 17.7149 21.2969 16.6747C21.7415 15.7226 21.9813 14.6878 22.0005 13.6373C22.0198 12.5867 21.8182 11.5438 21.4088 10.5761C20.9994 9.60839 20.3913 8.73748 19.6238 8.01975C18.8564 7.30202 17.9468 6.75349 16.9539 6.40967C17.6687 7.71165 18.0299 9.17821 18.0014 10.6632C17.9729 12.1482 17.5558 13.5999 16.7916 14.8735C16.0275 16.1471 14.9429 17.1983 13.646 17.9222C12.3491 18.6462 10.8851 19.0177 9.3999 18.9997Z" fill="#0095FF"/>
</svg>
