<svg width="28" height="28" viewBox="0 0 28 28" fill="none" xmlns="http://www.w3.org/2000/svg">
<path d="M5.54159 4.66675C4.69068 4.66675 3.87463 5.00477 3.27295 5.60645C2.67127 6.20813 2.33325 7.02418 2.33325 7.87508V20.1251C2.33325 20.5464 2.41624 20.9636 2.57747 21.3529C2.73871 21.7421 2.97503 22.0958 3.27295 22.3937C3.57087 22.6916 3.92456 22.928 4.31381 23.0892C4.70306 23.2504 5.12026 23.3334 5.54159 23.3334H16.0451C15.6948 22.7988 15.442 22.2063 15.2984 21.5834H5.54159C4.73659 21.5834 4.08325 20.9301 4.08325 20.1251V7.87508C4.08325 7.07008 4.73659 6.41675 5.54159 6.41675H22.4583C23.2633 6.41675 23.9166 7.07008 23.9166 7.87508V13.5614C25.0191 14.3407 25.6666 15.6381 25.6666 16.9167V7.87508C25.6666 7.02418 25.3286 6.20813 24.7269 5.60645C24.1252 5.00477 23.3092 4.66675 22.4583 4.66675H5.54159Z" fill="#4E4B66"/>
<path d="M19.2744 23.3335C18.5546 22.9252 18.0016 22.3197 17.7158 21.5835C17.5719 21.2114 17.4987 20.8158 17.4999 20.4168C17.4999 20.2621 17.4385 20.1137 17.3291 20.0044C17.2197 19.895 17.0713 19.8335 16.9166 19.8335C16.7619 19.8335 16.6135 19.895 16.5041 20.0044C16.3947 20.1137 16.3333 20.2621 16.3333 20.4168C16.3333 20.817 16.3939 21.209 16.5071 21.5835C16.7008 22.2275 17.0519 22.8237 17.5221 23.3335C18.3679 24.254 19.6011 24.8968 20.9999 25.052V26.2502C20.9999 26.4049 21.0614 26.5532 21.1708 26.6626C21.2802 26.772 21.4285 26.8335 21.5833 26.8335C21.738 26.8335 21.8863 26.772 21.9957 26.6626C22.1051 26.5532 22.1666 26.4049 22.1666 26.2502V25.052C24.7916 24.7603 26.8333 22.7502 26.8333 20.4168C26.8333 20.2621 26.7718 20.1137 26.6624 20.0044C26.553 19.895 26.4046 19.8335 26.2499 19.8335C26.0952 19.8335 25.9468 19.895 25.8374 20.0044C25.728 20.1137 25.6666 20.2621 25.6666 20.4168C25.6666 22.4585 23.8384 23.9168 21.5833 23.9168C20.7269 23.9168 19.9313 23.7068 19.2744 23.3335Z" fill="#4E4B66"/>
<path d="M21.5832 22.75C21.1306 22.7537 20.6835 22.6499 20.2789 22.4471C19.8742 22.2442 19.5235 21.9482 19.2557 21.5833C18.8776 21.0778 18.6712 20.4646 18.6665 19.8333V16.9167C18.6665 15.4537 19.8332 14 21.5832 14C22.5923 14 23.4067 14.4865 23.9165 15.1772C24.2898 15.6835 24.4998 16.3007 24.4998 16.9167V19.8333C24.4998 21.287 23.3332 22.75 21.5832 22.75Z" fill="#4E4B66"/>
<path d="M7.875 9.3335C7.64294 9.3335 7.42038 9.42568 7.25628 9.58978C7.09219 9.75387 7 9.97643 7 10.2085C7 10.4406 7.09219 10.6631 7.25628 10.8272C7.42038 10.9913 7.64294 11.0835 7.875 11.0835H13.125C13.3571 11.0835 13.5796 10.9913 13.7437 10.8272C13.9078 10.6631 14 10.4406 14 10.2085C14 9.97643 13.9078 9.75387 13.7437 9.58978C13.5796 9.42568 13.3571 9.3335 13.125 9.3335H7.875Z" fill="#4E4B66"/>
<path d="M7 13.7085C7 13.4764 7.09219 13.2539 7.25628 13.0898C7.42038 12.9257 7.64294 12.8335 7.875 12.8335H15.4583C15.6904 12.8335 15.913 12.9257 16.0771 13.0898C16.2411 13.2539 16.3333 13.4764 16.3333 13.7085C16.3333 13.9406 16.2411 14.1631 16.0771 14.3272C15.913 14.4913 15.6904 14.5835 15.4583 14.5835H7.875C7.64294 14.5835 7.42038 14.4913 7.25628 14.3272C7.09219 14.1631 7 13.9406 7 13.7085Z" fill="#4E4B66"/>
<path d="M7 17.2085C7 16.9764 7.09219 16.7539 7.25628 16.5898C7.42038 16.4257 7.64294 16.3335 7.875 16.3335H14.2917C14.5237 16.3335 14.7463 16.4257 14.9104 16.5898C15.0745 16.7539 15.1667 16.9764 15.1667 17.2085C15.1667 17.4406 15.0745 17.6631 14.9104 17.8272C14.7463 17.9913 14.5237 18.0835 14.2917 18.0835H7.875C7.64294 18.0835 7.42038 17.9913 7.25628 17.8272C7.09219 17.6631 7 17.4406 7 17.2085Z" fill="#4E4B66"/>
</svg>
