<svg width="35" height="35" viewBox="0 0 35 35" fill="none" xmlns="http://www.w3.org/2000/svg">
<path fill-rule="evenodd" clip-rule="evenodd" d="M25.6107 30.626C25.3803 30.626 25.1484 30.5721 24.9355 30.4613L17.4994 26.5763L10.0648 30.4613C9.57192 30.7165 8.97692 30.6727 8.53067 30.346C8.0815 30.0194 7.85838 29.4667 7.95317 28.9198L9.36921 20.7123L3.36088 14.9008C2.96129 14.5144 2.81692 13.934 2.98754 13.4031C3.15817 12.8752 3.61463 12.4888 4.16588 12.41L12.4784 11.2025L16.1942 3.72709C16.6871 2.73542 18.3132 2.73542 18.8061 3.72709L22.5219 11.2025L30.8344 12.41C31.3857 12.4888 31.8421 12.8752 32.0128 13.4031C32.1834 13.934 32.039 14.5144 31.6394 14.9008L25.6311 20.7123L27.0471 28.9198C27.1419 29.4667 26.9173 30.0194 26.4696 30.346C26.2159 30.5327 25.914 30.626 25.6107 30.626Z" fill="#D9DBE9"/>
</svg>
