<svg width="24" height="24" viewBox="0 0 24 24" fill="none" xmlns="http://www.w3.org/2000/svg">
<path d="M18.875 10.125C19.0947 10.125 19.3063 10.2077 19.4679 10.3565C19.6294 10.5054 19.729 10.7095 19.747 10.9285L19.75 11V18.125C19.75 18.8685 19.462 19.583 18.9465 20.1187C18.4309 20.6544 17.7279 20.9695 16.985 20.998L16.875 21H7.125C6.38153 21 5.66696 20.712 5.13127 20.1965C4.59559 19.6809 4.28045 18.9779 4.252 18.235L4.25 18.125V11C4.25023 10.7743 4.33767 10.5574 4.49407 10.3946C4.65046 10.2319 4.86369 10.1358 5.08922 10.1266C5.31474 10.1174 5.53511 10.1957 5.70428 10.3451C5.87345 10.4945 5.97833 10.7035 5.997 10.9285L6 11V18.125C5.99996 18.4101 6.10815 18.6845 6.30268 18.8929C6.49722 19.1012 6.76361 19.228 7.048 19.2475L7.125 19.25H16.875C17.1601 19.25 17.4345 19.1418 17.6429 18.9473C17.8512 18.7528 17.978 18.4864 17.9975 18.202L18 18.125V11C18 10.517 18.3915 10.125 18.875 10.125ZM11.7495 3.13399L11.824 3.12649L11.9115 3.12549L11.9885 3.13199L12.0775 3.14849L12.112 3.15749C12.2095 3.18449 12.3035 3.22899 12.3885 3.29049L12.4485 3.33799L12.495 3.38149L16.384 7.27049C16.5426 7.42949 16.6341 7.64339 16.6393 7.86793C16.6446 8.09247 16.5633 8.31044 16.4124 8.47671C16.2614 8.64299 16.0522 8.74484 15.8282 8.76118C15.6042 8.77752 15.3825 8.7071 15.209 8.56449L15.1465 8.50799L12.75 6.11099V15.75C12.75 15.9697 12.6673 16.1813 12.5185 16.3428C12.3696 16.5044 12.1654 16.604 11.9465 16.622L11.875 16.625C11.6554 16.625 11.4438 16.5424 11.2823 16.3936C11.1208 16.2449 11.0211 16.0408 11.003 15.822L11 15.75V6.11299L8.606 8.50799C8.45219 8.66174 8.24664 8.75271 8.02941 8.76316C7.81218 8.7736 7.59885 8.70278 7.431 8.56449L7.3685 8.50799C7.21467 8.35425 7.12361 8.14873 7.11308 7.9315C7.10254 7.71427 7.17328 7.5009 7.3115 7.33299L7.3685 7.27049L11.2445 3.39349C11.2725 3.36449 11.3025 3.33749 11.334 3.31249L11.3905 3.27199C11.4095 3.2588 11.4292 3.24662 11.4495 3.23549L11.459 3.23049C11.5475 3.18199 11.6455 3.14899 11.749 3.13399H11.7495Z" fill="#262338"/>
</svg>
