<svg width="80" height="80" viewBox="0 0 80 80" fill="none" xmlns="http://www.w3.org/2000/svg">
<path fill-rule="evenodd" clip-rule="evenodd" d="M54.3182 32.018L39.0915 52.018C38.4648 52.8413 37.4948 53.328 36.4615 53.3346H36.4382C35.4148 53.3346 34.4482 52.8613 33.8148 52.0546L25.7082 41.698C24.5748 40.2513 24.8282 38.1546 26.2782 37.0213C27.7248 35.8846 29.8248 36.138 30.9582 37.5913L36.4015 44.5446L49.0148 27.9813C50.1282 26.518 52.2182 26.2313 53.6882 27.348C55.1515 28.4646 55.4348 30.5546 54.3182 32.018ZM40.0008 6.66699C21.5908 6.66699 6.66748 21.5903 6.66748 40.0003C6.66748 58.407 21.5908 73.3337 40.0008 73.3337C58.4108 73.3337 73.3341 58.407 73.3341 40.0003C73.3341 21.5903 58.4108 6.66699 40.0008 6.66699Z" fill="#0095FF"/>
<mask id="mask0_7188_43227" style="mask-type:alpha" maskUnits="userSpaceOnUse" x="6" y="6" width="68" height="68">
<path fill-rule="evenodd" clip-rule="evenodd" d="M54.3182 32.018L39.0915 52.018C38.4648 52.8413 37.4948 53.328 36.4615 53.3346H36.4382C35.4148 53.3346 34.4482 52.8613 33.8148 52.0546L25.7082 41.698C24.5748 40.2513 24.8282 38.1546 26.2782 37.0213C27.7248 35.8846 29.8248 36.138 30.9582 37.5913L36.4015 44.5446L49.0148 27.9813C50.1282 26.518 52.2182 26.2313 53.6882 27.348C55.1515 28.4646 55.4348 30.5546 54.3182 32.018ZM40.0008 6.66699C21.5908 6.66699 6.66748 21.5903 6.66748 40.0003C6.66748 58.407 21.5908 73.3337 40.0008 73.3337C58.4108 73.3337 73.3341 58.407 73.3341 40.0003C73.3341 21.5903 58.4108 6.66699 40.0008 6.66699Z" fill="white"/>
</mask>
<g mask="url(#mask0_7188_43227)">
</g>
</svg>
