<svg width="24" height="24" viewBox="0 0 24 24" fill="none" xmlns="http://www.w3.org/2000/svg">
<path fill-rule="evenodd" clip-rule="evenodd" d="M9.9995 5.00017C9.7735 5.00017 9.5465 5.07617 9.3595 5.23217C8.9355 5.58517 8.8785 6.21617 9.2315 6.64017L13.7075 12.0112L9.3925 17.3732C9.0465 17.8032 9.1145 18.4332 9.5445 18.7792C9.9755 19.1252 10.6045 19.0572 10.9515 18.6272L15.7795 12.6272C16.0775 12.2562 16.0735 11.7262 15.7685 11.3602L10.7685 5.36017C10.5705 5.12317 10.2865 5.00017 9.9995 5.00017Z" fill="#262338"/>
<mask id="mask0" mask-type="alpha" maskUnits="userSpaceOnUse" x="9" y="5" width="8" height="14">
<path fill-rule="evenodd" clip-rule="evenodd" d="M9.9995 5.00017C9.7735 5.00017 9.5465 5.07617 9.3595 5.23217C8.9355 5.58517 8.8785 6.21617 9.2315 6.64017L13.7075 12.0112L9.3925 17.3732C9.0465 17.8032 9.1145 18.4332 9.5445 18.7792C9.9755 19.1252 10.6045 19.0572 10.9515 18.6272L15.7795 12.6272C16.0775 12.2562 16.0735 11.7262 15.7685 11.3602L10.7685 5.36017C10.5705 5.12317 10.2865 5.00017 9.9995 5.00017Z" fill="white"/>
</mask>
<g mask="url(#mask0)">
</g>
</svg>
