<svg width="20" height="20" viewBox="0 0 20 20" fill="none" xmlns="http://www.w3.org/2000/svg">
<path d="M2.70712 1.97999L17.7571 9.17856C17.909 9.25128 18.0373 9.36548 18.1271 9.50799C18.2169 9.65049 18.2645 9.81549 18.2645 9.98392C18.2645 10.1523 18.2169 10.3173 18.1271 10.4598C18.0373 10.6024 17.909 10.7166 17.7571 10.7893L2.70712 17.9878C2.55278 18.0618 2.38042 18.0899 2.21057 18.0687C2.04073 18.0475 1.88056 17.9779 1.74915 17.8682C1.61773 17.7586 1.5206 17.6134 1.46934 17.4501C1.41807 17.2868 1.41482 17.1122 1.45998 16.9471L2.9657 11.4271C2.98413 11.3595 3.02206 11.2987 3.07478 11.2525C3.12749 11.2063 3.19265 11.1766 3.26212 11.1671L10.555 10.1764C10.5854 10.1721 10.6142 10.1601 10.6386 10.1415C10.663 10.1228 10.6822 10.0982 10.6943 10.07L10.7071 10.025C10.7128 9.98511 10.7047 9.9445 10.6844 9.90974C10.664 9.87499 10.6325 9.84815 10.595 9.83356L10.5557 9.82284L3.26998 8.83284C3.20063 8.82326 3.13563 8.79351 3.08306 8.74728C3.03048 8.70105 2.99265 8.64039 2.97427 8.57284L1.45998 3.0207C1.41482 2.8556 1.41807 2.681 1.46934 2.5177C1.5206 2.3544 1.61773 2.20927 1.74915 2.09961C1.88056 1.98994 2.04073 1.92036 2.21057 1.89915C2.38042 1.87795 2.55278 1.906 2.70712 1.97999Z" fill="#A0A3BD"/>
</svg>
