<svg width="24" height="24" viewBox="0 0 24 24" fill="none" xmlns="http://www.w3.org/2000/svg">
<path fill-rule="evenodd" clip-rule="evenodd" d="M19.0001 14.0005C19.0001 14.2265 18.9241 14.4535 18.7681 14.6405C18.4151 15.0645 17.7841 15.1215 17.3601 14.7685L11.9891 10.2925L6.62707 14.6075C6.19707 14.9535 5.56707 14.8855 5.22107 14.4555C4.87507 14.0245 4.94307 13.3955 5.37307 13.0485L11.3731 8.2205C11.7441 7.9225 12.2741 7.9265 12.6401 8.2315L18.6401 13.2315C18.8771 13.4295 19.0001 13.7135 19.0001 14.0005Z" fill="#FCFCFC"/>
<mask id="mask0_3801_958" style="mask-type:alpha" maskUnits="userSpaceOnUse" x="5" y="7" width="14" height="8">
<path fill-rule="evenodd" clip-rule="evenodd" d="M19.0001 14.0005C19.0001 14.2265 18.9241 14.4535 18.7681 14.6405C18.4151 15.0645 17.7841 15.1215 17.3601 14.7685L11.9891 10.2925L6.62707 14.6075C6.19707 14.9535 5.56707 14.8855 5.22107 14.4555C4.87507 14.0245 4.94307 13.3955 5.37307 13.0485L11.3731 8.2205C11.7441 7.9225 12.2741 7.9265 12.6401 8.2315L18.6401 13.2315C18.8771 13.4295 19.0001 13.7135 19.0001 14.0005Z" fill="white"/>
</mask>
<g mask="url(#mask0_3801_958)">
</g>
</svg>
