<svg width="25" height="24" viewBox="0 0 25 24" fill="none" xmlns="http://www.w3.org/2000/svg">
    <path fill-rule="evenodd" clip-rule="evenodd"
        d="M21.083 7.14539C20.4549 6.87339 19.7264 6.99139 19.2257 7.45139L17.0574 9.45139V7.99939C17.0574 6.34539 15.7078 4.99939 14.0472 4.99939H5.01655C3.35693 4.99939 2.00635 6.34539 2.00635 7.99939V15.9994C2.00635 17.6544 3.35693 18.9994 5.01655 18.9994H14.0472C15.7078 18.9994 17.0574 17.6544 17.0574 15.9994V14.5484L19.2257 16.5474C19.5478 16.8444 19.9642 16.9994 20.3887 16.9994C20.6225 16.9994 20.8583 16.9524 21.083 16.8544C21.6941 16.5884 22.0744 16.0194 22.0744 15.3704V8.62939C22.0744 7.98039 21.6941 7.41139 21.083 7.14539Z"
        fill="#0095FF" />
    <mask id="mask0" mask-type="alpha" maskUnits="userSpaceOnUse" x="2" y="4" width="21"
        height="15">
        <path fill-rule="evenodd" clip-rule="evenodd"
            d="M21.083 7.14539C20.4549 6.87339 19.7264 6.99139 19.2257 7.45139L17.0574 9.45139V7.99939C17.0574 6.34539 15.7078 4.99939 14.0472 4.99939H5.01655C3.35693 4.99939 2.00635 6.34539 2.00635 7.99939V15.9994C2.00635 17.6544 3.35693 18.9994 5.01655 18.9994H14.0472C15.7078 18.9994 17.0574 17.6544 17.0574 15.9994V14.5484L19.2257 16.5474C19.5478 16.8444 19.9642 16.9994 20.3887 16.9994C20.6225 16.9994 20.8583 16.9524 21.083 16.8544C21.6941 16.5884 22.0744 16.0194 22.0744 15.3704V8.62939C22.0744 7.98039 21.6941 7.41139 21.083 7.14539Z"
            fill="white" />
    </mask>
</svg>
