<svg width="20" height="20" viewBox="0 0 20 20" fill="none" xmlns="http://www.w3.org/2000/svg">
    <path
        d="M7 9C7.55228 9 8 8.55228 8 8C8 7.44772 7.55228 7 7 7C6.44772 7 6 7.44772 6 8C6 8.55228 6.44772 9 7 9Z"
        fill="#FF4C4D" />
    <path
        d="M12 15C12 13.8954 11.1046 13 10 13C8.89543 13 8 13.8954 8 15H6C6 12.7909 7.79086 11 10 11C12.2091 11 14 12.7909 14 15H12Z"
        fill="#FF4C4D" />
    <path
        d="M14 8C14 8.55228 13.5523 9 13 9C12.4477 9 12 8.55228 12 8C12 7.44772 12.4477 7 13 7C13.5523 7 14 7.44772 14 8Z"
        fill="#FF4C4D" />
    <path fill-rule="evenodd" clip-rule="evenodd"
        d="M20 10C20 15.5228 15.5228 20 10 20C4.47715 20 0 15.5228 0 10C0 4.47715 4.47715 0 10 0C15.5228 0 20 4.47715 20 10ZM18 10C18 14.4183 14.4183 18 10 18C5.58172 18 2 14.4183 2 10C2 5.58172 5.58172 2 10 2C14.4183 2 18 5.58172 18 10Z"
        fill="#FF4C4D" />
</svg>
