<svg width="20" height="20" viewBox="0 0 20 20" fill="none" xmlns="http://www.w3.org/2000/svg">
<path fill-rule="evenodd" clip-rule="evenodd" d="M10 17.5C9.77837 17.5 9.5667 17.4125 9.41004 17.255L2.93754 10.7717C1.24087 9.07171 1.24087 6.30587 2.93754 4.60587C3.75671 3.78587 4.85087 3.33337 6.01671 3.33337C7.18254 3.33337 8.2767 3.78587 9.09587 4.60587L10 5.51171L10.9034 4.60671C11.7234 3.78587 12.8175 3.33337 13.9834 3.33337C15.1492 3.33337 16.2434 3.78587 17.0625 4.60587C18.7592 6.30587 18.7592 9.07171 17.0634 10.7717L10.59 17.2559C10.4334 17.4125 10.2217 17.5 10 17.5Z" fill="#FF4C4D"/>
<mask id="mask0" mask-type="alpha" maskUnits="userSpaceOnUse" x="1" y="3" width="18" height="15">
<path fill-rule="evenodd" clip-rule="evenodd" d="M10 17.5C9.77837 17.5 9.5667 17.4125 9.41004 17.255L2.93754 10.7717C1.24087 9.07171 1.24087 6.30587 2.93754 4.60587C3.75671 3.78587 4.85087 3.33337 6.01671 3.33337C7.18254 3.33337 8.2767 3.78587 9.09587 4.60587L10 5.51171L10.9034 4.60671C11.7234 3.78587 12.8175 3.33337 13.9834 3.33337C15.1492 3.33337 16.2434 3.78587 17.0625 4.60587C18.7592 6.30587 18.7592 9.07171 17.0634 10.7717L10.59 17.2559C10.4334 17.4125 10.2217 17.5 10 17.5Z" fill="white"/>
</mask>
<g mask="url(#mask0)">
</g>
</svg>
