<svg width="21" height="21" viewBox="0 0 21 21" fill="none" xmlns="http://www.w3.org/2000/svg">
<path d="M13.9603 7.56713L19.429 2.21696L19.4091 5.2546C19.4091 5.37218 19.4555 5.47997 19.5483 5.57796C19.6411 5.67595 19.7472 5.72494 19.8665 5.72494H20.2046C20.3372 5.71188 20.4465 5.66942 20.5327 5.59756C20.6189 5.5257 20.6686 5.43098 20.6819 5.31339V0.786327L20.6719 0.776528L20.662 0.766729L20.7017 0.531557C20.7017 0.400906 20.662 0.296385 20.5824 0.217994C20.4896 0.126538 20.3836 0.0808105 20.2642 0.0808105L20.0256 0.100408H20.0057L15.4517 0.0808105C15.3855 0.0808105 15.3225 0.0938757 15.2628 0.120006C15.2032 0.146136 15.1535 0.178799 15.1137 0.217994C15.0739 0.25719 15.0408 0.306184 15.0142 0.364977C14.9877 0.42377 14.9745 0.485829 14.9745 0.551155V0.864718C14.9877 1.00843 15.0474 1.12275 15.1535 1.20768C15.2595 1.2926 15.3788 1.33506 15.5114 1.33506H18.5142L13.0654 6.68523C12.9328 6.80282 12.8665 6.9498 12.8665 7.12618C12.8665 7.30256 12.9328 7.44954 13.0654 7.56713C13.2908 7.8023 13.5493 7.83496 13.841 7.66511C13.8807 7.62592 13.9205 7.59326 13.9603 7.56713ZM7.0597 12.6233L1.59095 17.9735L1.61084 14.9359C1.61084 14.8183 1.56444 14.7105 1.47164 14.6125C1.37883 14.5145 1.27277 14.4655 1.15345 14.4655H0.795499C0.742469 14.4786 0.686124 14.4949 0.626465 14.5145C0.566806 14.5341 0.513775 14.5602 0.467374 14.5929C0.420972 14.6256 0.387828 14.668 0.367942 14.7203C0.348056 14.7725 0.331484 14.8248 0.318226 14.8771V19.4041L0.328169 19.4139L0.338113 19.4237L0.29834 19.6589C0.29834 19.7242 0.308283 19.783 0.328169 19.8353C0.348056 19.8875 0.377885 19.9333 0.417658 19.9725C0.510461 20.0639 0.616522 20.1096 0.73584 20.1096L0.974476 20.09H0.994363L5.56823 20.1096C5.7008 20.1096 5.81349 20.0639 5.90629 19.9725C5.9991 19.881 6.0455 19.7699 6.0455 19.6393V19.3257C6.03224 19.182 5.97258 19.0677 5.86652 18.9828C5.76046 18.8979 5.64114 18.8554 5.50857 18.8554H2.50573L7.95459 13.5052C8.02088 13.4399 8.07059 13.3713 8.10374 13.2994C8.13688 13.2276 8.15345 13.1492 8.15345 13.0643C8.15345 12.9794 8.13688 12.8977 8.10374 12.8193C8.07059 12.7409 8.02088 12.6756 7.95459 12.6233C7.87504 12.5449 7.78224 12.4894 7.67618 12.4567C7.57012 12.4241 7.46074 12.4241 7.34806 12.4567C7.23537 12.4894 7.13925 12.5449 7.0597 12.6233ZM20.6819 19.4041V14.8771C20.6686 14.7595 20.6189 14.6648 20.5327 14.5929C20.4465 14.521 20.3372 14.4786 20.2046 14.4655H19.8665C19.7472 14.4655 19.6411 14.5112 19.5483 14.6027C19.4555 14.6941 19.4091 14.8052 19.4091 14.9359L19.429 17.9735L13.9603 12.6233C13.8807 12.5449 13.7846 12.4894 13.6719 12.4567C13.5592 12.4241 13.4499 12.4241 13.3438 12.4567C13.2377 12.4894 13.1449 12.5449 13.0654 12.6233C12.9328 12.7409 12.8665 12.8879 12.8665 13.0643C12.8665 13.2407 12.9328 13.3876 13.0654 13.5052L18.5142 18.8554H15.5114C15.4186 18.8554 15.3357 18.8717 15.2628 18.9044C15.1899 18.937 15.1269 18.9926 15.0739 19.071C15.0209 19.1494 14.9877 19.2343 14.9745 19.3257V19.6393C14.9745 19.7308 14.9977 19.8124 15.0441 19.8843C15.0905 19.9561 15.1468 20.0117 15.2131 20.0508C15.2794 20.09 15.3589 20.1096 15.4517 20.1096L20.0057 20.09H20.0256L20.2642 20.1096C20.3836 20.1096 20.4896 20.0639 20.5824 19.9725C20.662 19.8941 20.7017 19.7895 20.7017 19.6589L20.662 19.4237H20.6819V19.4041ZM2.50573 1.33506H5.50857C5.64114 1.33506 5.76046 1.2926 5.86652 1.20768C5.97258 1.12275 6.03224 1.00843 6.0455 0.864718V0.551155C6.0455 0.420504 5.9991 0.30945 5.90629 0.217994C5.81349 0.126538 5.7008 0.0808105 5.56823 0.0808105L0.994363 0.100408H0.974476L0.73584 0.0808105C0.616522 0.0808105 0.510461 0.126538 0.417658 0.217994C0.377885 0.25719 0.348056 0.302918 0.328169 0.355178C0.308283 0.407439 0.29834 0.466232 0.29834 0.531557L0.338113 0.766729H0.328169L0.318226 0.786327V5.31339C0.331484 5.43098 0.3812 5.5257 0.467374 5.59756C0.553548 5.66942 0.662923 5.71188 0.795499 5.72494H1.15345C1.233 5.72494 1.30923 5.70208 1.38215 5.65635C1.45506 5.61062 1.51141 5.55183 1.55118 5.47997C1.59095 5.40811 1.61084 5.33299 1.61084 5.2546L1.59095 2.21696L7.0597 7.56713C7.17902 7.69778 7.32817 7.7631 7.50715 7.7631C7.68612 7.7631 7.83859 7.70104 7.96453 7.57692C8.09048 7.45281 8.15345 7.30256 8.15345 7.12618C8.15345 6.9498 8.08717 6.80282 7.95459 6.68523L2.50573 1.33506Z" fill="#FCFCFC"/>
</svg>
