<svg width="37" height="40" viewBox="0 0 37 40" fill="none" xmlns="http://www.w3.org/2000/svg">
<path d="M21.5591 3.33331C24.339 3.33186 27.0354 4.37609 29.1984 6.29186C31.3615 8.20762 32.8606 10.8791 33.4456 13.8608C34.0306 16.8424 33.6662 19.954 32.4132 22.6765C31.1601 25.3991 29.0942 27.568 26.56 28.8216C25.75 30.7865 24.5176 32.5065 22.9686 33.834C21.4197 35.1616 19.6003 36.0571 17.6666 36.4439C15.733 36.8306 13.7426 36.697 11.8663 36.0545C9.99004 35.4119 8.2838 34.2797 6.89394 32.7548C5.50408 31.2299 4.47207 29.3579 3.88644 27.2994C3.3008 25.2408 3.179 23.0571 3.53149 20.9356C3.88398 18.8141 4.70024 16.818 5.91026 15.1185C7.12028 13.4191 8.68796 12.0671 10.4788 11.1783C11.4422 8.8398 12.9999 6.85582 14.9653 5.46433C16.9306 4.07284 19.2201 3.33292 21.5591 3.33331V3.33331ZM17.0018 15H13.9636V16.6666C12.9764 16.664 12.027 17.0833 11.3167 17.8356C10.6065 18.5878 10.1911 19.614 10.1587 20.6966C10.1263 21.7791 10.4794 22.833 11.1432 23.6348C11.807 24.4366 12.7292 24.9232 13.7145 24.9916L13.9636 25H17.0018L17.1386 25.0133C17.3137 25.0481 17.4721 25.1493 17.5862 25.2991C17.7003 25.449 17.7628 25.6381 17.7628 25.8333C17.7628 26.0286 17.7003 26.2176 17.5862 26.3675C17.4721 26.5174 17.3137 26.6185 17.1386 26.6533L17.0018 26.6666H10.9255V30H13.9636V31.6666H17.0018V30C17.9891 30.0026 18.9385 29.5834 19.6487 28.8311C20.359 28.0788 20.7744 27.0526 20.8068 25.9701C20.8392 24.8875 20.4861 23.8336 19.8223 23.0319C19.1585 22.2301 18.2362 21.7434 17.251 21.675L17.0018 21.6666H13.9636L13.8269 21.6533C13.6518 21.6185 13.4934 21.5174 13.3793 21.3675C13.2652 21.2176 13.2027 21.0286 13.2027 20.8333C13.2027 20.6381 13.2652 20.449 13.3793 20.2991C13.4934 20.1493 13.6518 20.0481 13.8269 20.0133L13.9636 20H20.04V16.6666H17.0018V15ZM21.5591 6.66665C20.272 6.66499 18.9992 6.96322 17.8249 7.54158C16.6507 8.11995 15.6017 8.96528 14.7475 10.0216C16.4645 9.90729 18.184 10.1941 19.7924 10.8632C21.4008 11.5323 22.8615 12.5684 24.0777 13.9029C25.294 15.2375 26.2381 16.8401 26.8478 18.6049C27.4574 20.3696 27.7187 22.2562 27.6143 24.14C28.9954 22.7927 29.9707 21.0166 30.4106 19.0472C30.8506 17.0778 30.7345 15.0082 30.0777 13.1129C29.4209 11.2175 28.2544 9.58605 26.7331 8.43478C25.2117 7.28352 23.4073 6.66688 21.5591 6.66665V6.66665Z" fill="#3D40C6"/>
</svg>
