<svg width="37" height="40" viewBox="0 0 37 40" fill="none" xmlns="http://www.w3.org/2000/svg">
<path d="M21.9934 7.33002L16.7008 17.3883L19.3319 19.055L24.6244 8.99668C30.9591 13.6167 34.2039 20.7967 31.5515 25.8333C28.726 31.2033 20.6307 31.425 13.4591 26.8833C6.28743 22.3367 2.41525 14.535 5.24077 9.16668C7.89159 4.12835 15.1802 3.62168 21.9934 7.33002ZM24.2963 2.95502L26.9274 4.62168L24.6488 8.95168L22.0177 7.28502L24.2963 2.95502ZM10.3935 33.3333H25.9916V36.6667H7.78829C7.51713 36.6726 7.24952 36.5983 7.01351 36.4517C6.7775 36.3051 6.5818 36.0915 6.44693 35.8333C6.31434 35.5797 6.24458 35.2924 6.24458 35C6.24458 34.7076 6.31434 34.4203 6.44693 34.1667L9.8649 27.6717L12.496 29.3384L10.3935 33.3333Z" fill="#3D40C6"/>
</svg>
