<svg width="37" height="40" viewBox="0 0 37 40" fill="none" xmlns="http://www.w3.org/2000/svg">
<path d="M3.28076 21.6667H11.6009C11.8608 26.9447 13.3942 32.0523 16.0442 36.4667C12.7249 35.8946 9.6719 34.1319 7.3626 31.4541C5.0533 28.7764 3.61788 25.3345 3.28076 21.6667V21.6667ZM3.28076 18.3333C3.61788 14.6655 5.0533 11.2236 7.3626 8.54585C9.6719 5.86807 12.7249 4.10536 16.0442 3.53333C13.3942 7.94768 11.8608 13.0552 11.6009 18.3333H3.28076ZM33.5108 18.3333H25.1907C24.9308 13.0552 23.3973 7.94768 20.7473 3.53333C24.0667 4.10536 27.1197 5.86807 29.429 8.54585C31.7383 11.2236 33.1737 14.6655 33.5108 18.3333V18.3333ZM33.5108 21.6667C33.1737 25.3345 31.7383 28.7764 29.429 31.4541C27.1197 34.1319 24.0667 35.8946 20.7473 36.4667C23.3973 32.0523 24.9308 26.9447 25.1907 21.6667H33.5123H33.5108ZM14.6436 21.6667H22.1479C21.8979 26.1658 20.6065 30.5207 18.3958 34.32C16.185 30.5207 14.8936 26.1658 14.6436 21.6667V21.6667ZM14.6436 18.3333C14.8936 13.8342 16.185 9.47926 18.3958 5.67999C20.6065 9.47926 21.8979 13.8342 22.1479 18.3333H14.6436Z" fill="#3D40C6"/>
</svg>
