<svg width="32" height="32" viewBox="0 0 32 32" fill="none" xmlns="http://www.w3.org/2000/svg">
    <path fill-rule="evenodd" clip-rule="evenodd"
        d="M6.77333 12H6.66667C5.95942 12 5.28115 12.2809 4.78105 12.781C4.28095 13.2811 4 13.9594 4 14.6667V17.3333C4 18.0406 4.28095 18.7188 4.78105 19.2189C5.28115 19.719 5.95942 20 6.66667 20H6.77333C7.15808 19.9998 7.5383 20.0829 7.8879 20.2436C8.2375 20.4042 8.5482 20.6386 8.79867 20.9307L13.6547 26.5973C14.46 27.536 16 26.9667 16 25.7293V6.27066C16 5.03332 14.46 4.46399 13.6533 5.40399L8.8 11.068C8.54951 11.3605 8.23865 11.5952 7.8888 11.7561C7.53895 11.917 7.1584 12.0002 6.77333 12ZM24.848 5.69999C24.7218 5.57563 24.5721 5.47766 24.4076 5.41182C24.2431 5.34598 24.0672 5.31357 23.89 5.31651C23.7129 5.31944 23.5381 5.35765 23.3759 5.42891C23.2137 5.50016 23.0673 5.60303 22.9453 5.7315C22.8233 5.85997 22.7281 6.01147 22.6653 6.17715C22.6025 6.34282 22.5734 6.51935 22.5796 6.69641C22.5858 6.87348 22.6272 7.04753 22.7015 7.20839C22.7757 7.36926 22.8813 7.51372 23.012 7.63332C27.8853 12.2627 27.8853 19.7373 23.012 24.3667C22.8813 24.4863 22.7757 24.6307 22.7015 24.7916C22.6272 24.9524 22.5858 25.1265 22.5796 25.3036C22.5734 25.4806 22.6025 25.6572 22.6653 25.8228C22.7281 25.9885 22.8233 26.14 22.9453 26.2685C23.0673 26.3969 23.2137 26.4998 23.3759 26.5711C23.5381 26.6423 23.7129 26.6805 23.89 26.6835C24.0672 26.6864 24.2431 26.654 24.4076 26.5882C24.5721 26.5223 24.7218 26.4244 24.848 26.3C30.828 20.62 30.828 11.38 24.848 5.69999ZM20.9187 9.43332C20.6623 9.18968 20.3196 9.05786 19.9661 9.06686C19.6125 9.07586 19.277 9.22495 19.0333 9.48132C18.7897 9.7377 18.6579 10.0804 18.6669 10.4339C18.6759 10.7875 18.825 11.123 19.0813 11.3667C21.784 13.9333 21.784 18.0667 19.0813 20.6333C18.9544 20.754 18.8524 20.8984 18.7813 21.0585C18.7102 21.2185 18.6713 21.391 18.6669 21.566C18.6624 21.7411 18.6925 21.9153 18.7554 22.0788C18.8182 22.2422 18.9127 22.3917 19.0333 22.5187C19.277 22.775 19.6125 22.9241 19.9661 22.9331C20.1411 22.9376 20.3154 22.9075 20.4788 22.8446C20.6423 22.7818 20.7917 22.6873 20.9187 22.5667C24.728 18.948 24.728 13.052 20.9187 9.43332Z"
        fill="#0095FF" />
</svg>
