<svg width="52" height="52" viewBox="0 0 52 52" fill="none" xmlns="http://www.w3.org/2000/svg">
<path d="M19.4999 28.1667V34.6667H32.4999V28.1667H47.6666V43.3333C47.6666 43.908 47.4383 44.4591 47.032 44.8654C46.6257 45.2717 46.0746 45.5 45.4999 45.5H6.49992C5.92528 45.5 5.37418 45.2717 4.96785 44.8654C4.56153 44.4591 4.33325 43.908 4.33325 43.3333V28.1667H19.4999ZM23.8333 23.8333H28.1666V30.3333H23.8333V23.8333ZM15.1666 10.8333V4.33333C15.1666 3.75869 15.3949 3.20759 15.8012 2.80127C16.2075 2.39494 16.7586 2.16666 17.3333 2.16666H34.6666C35.2412 2.16666 35.7923 2.39494 36.1987 2.80127C36.605 3.20759 36.8333 3.75869 36.8333 4.33333V10.8333H45.4999C46.0746 10.8333 46.6257 11.0616 47.032 11.4679C47.4383 11.8743 47.6666 12.4254 47.6666 13V23.8333H32.4999V19.5H19.4999V23.8333H4.33325V13C4.33325 12.4254 4.56153 11.8743 4.96785 11.4679C5.37418 11.0616 5.92528 10.8333 6.49992 10.8333H15.1666ZM19.4999 6.5V10.8333H32.4999V6.5H19.4999Z" fill="#3D40C6"/>
</svg>
