<svg width="37" height="40" viewBox="0 0 37 40" fill="none" xmlns="http://www.w3.org/2000/svg">
<path d="M7.65453 31.785C6.24182 30.2391 5.12149 28.4021 4.3579 26.3796C3.59432 24.3572 3.20255 22.1891 3.20509 20C3.20509 10.795 10.0061 3.33331 18.3961 3.33331C26.786 3.33331 33.587 10.795 33.587 20C33.587 29.205 26.786 36.6666 18.3961 36.6666H3.20509L7.65453 31.785ZM12.3197 21.6666C12.3197 23.4348 12.9599 25.1305 14.0994 26.3807C15.2389 27.6309 16.7845 28.3333 18.3961 28.3333C20.0076 28.3333 21.5532 27.6309 22.6927 26.3807C23.8323 25.1305 24.4724 23.4348 24.4724 21.6666H12.3197Z" fill="#3D40C6"/>
</svg>
