<svg width="37" height="40" viewBox="0 0 37 40" fill="none" xmlns="http://www.w3.org/2000/svg">
<path d="M29.1547 23.3334V28.3334H33.712V31.6667H29.1547V36.6667H26.1165V31.6667H21.5593V28.3334H26.1165V23.3334H29.1547ZM31.043 7.92836C34.3242 11.5384 34.581 17.19 31.8132 21.1117C30.5614 20.4 29.1395 20 27.6356 20C22.6014 20 18.5211 24.4767 18.5211 30C18.5211 31.6817 18.8993 33.2667 19.5677 34.6567L18.5195 35.8084L5.64063 21.655C2.44445 17.7284 2.56446 11.6984 5.99914 7.92836C9.4399 4.15503 14.9436 4.02836 18.5226 7.54836C22.0909 4.03336 27.6053 4.15003 31.043 7.92836Z" fill="#3D40C6"/>
</svg>
