<svg width="37" height="40" viewBox="0 0 37 40" fill="none" xmlns="http://www.w3.org/2000/svg">
<path d="M29.0042 16.6667C29.6043 17.8093 30.5917 18.6454 31.7512 18.9928C32.9107 19.3403 34.1483 19.1709 35.1945 18.5217C35.3176 19.7277 35.0947 20.9459 34.5569 22.0064C34.0191 23.067 33.1932 23.9171 32.1943 24.4383L32.1928 35H23.0782V31.6667C23.0793 30.3652 22.6179 29.1145 21.7919 28.1803C20.9659 27.2462 19.8404 26.7022 18.6546 26.664C17.4689 26.6258 16.3163 27.0964 15.4417 27.9758C14.5672 28.8551 14.0397 30.074 13.9712 31.3733L13.9636 31.6667V35H4.84904V24.44C3.84818 23.9195 3.02047 23.069 2.4815 22.0074C1.94253 20.9458 1.71922 19.726 1.84274 18.5183C2.88885 19.1689 4.12697 19.3394 5.28715 18.9925C6.44733 18.6456 7.43547 17.8096 8.0361 16.6667H29.0042ZM26.1711 5C26.2797 5.82683 26.549 6.61842 26.9606 7.32119C27.3723 8.02397 27.9167 8.62155 28.5571 9.07349C29.1974 9.52544 29.9188 9.82122 30.6724 9.9408C31.4259 10.0604 32.1941 10.001 32.925 9.76667C32.7949 11.1476 32.2202 12.4324 31.3041 13.3901C30.388 14.3479 29.1907 14.9157 27.9272 14.9917L27.6355 15H9.40633C8.09075 15.0002 6.82181 14.4653 5.84481 13.4987C4.86781 12.5321 4.25215 11.2024 4.11683 9.76667C4.84767 10.001 5.61587 10.0604 6.36944 9.9408C7.12302 9.82122 7.84439 9.52544 8.48476 9.07349C9.12512 8.62155 9.66954 8.02397 10.0812 7.32119C10.4928 6.61842 10.7621 5.82683 10.8707 5H26.1711Z" fill="#3D40C6"/>
</svg>
