<svg width="314" height="290" viewBox="0 0 314 290" fill="none" xmlns="http://www.w3.org/2000/svg">
<mask id="mask0" mask-type="alpha" maskUnits="userSpaceOnUse" x="23" y="0" width="291" height="290">
<path fill-rule="evenodd" clip-rule="evenodd" d="M23.9224 0.000488281H313.922V290H23.9224V0.000488281Z" fill="white"/>
</mask>
<g mask="url(#mask0)">
<path fill-rule="evenodd" clip-rule="evenodd" d="M313.922 145C313.922 149.92 313.682 154.779 313.192 159.569C313.122 160.369 313.032 161.18 312.932 161.979V162C312.842 162.76 312.752 163.529 312.642 164.29C312.542 165.06 312.442 165.83 312.322 166.6C312.172 167.59 312.022 168.56 311.852 169.54C311.792 169.909 311.722 170.279 311.652 170.64C311.582 171.08 311.502 171.52 311.422 171.96C311.352 172.33 311.282 172.699 311.202 173.06C311.092 173.649 310.972 174.239 310.852 174.83C310.772 175.199 310.692 175.569 310.622 175.93C310.522 176.369 310.422 176.81 310.322 177.25C310.242 177.619 310.152 177.99 310.062 178.35C309.922 178.949 309.782 179.54 309.632 180.13C309.542 180.5 309.452 180.859 309.352 181.22C309.242 181.659 309.132 182.1 309.022 182.54C308.912 182.909 308.812 183.279 308.712 183.64C308.552 184.239 308.382 184.83 308.212 185.42C308.102 185.79 308.002 186.149 307.892 186.51C307.462 187.939 307.022 189.35 306.552 190.76C306.282 191.56 306.012 192.369 305.732 193.17C295.692 221.659 277.012 246.081 252.832 263.26C249.942 265.319 246.972 267.271 243.932 269.1C243.712 269.24 243.482 269.38 243.252 269.51C241.752 270.421 240.222 271.289 238.682 272.141C235.302 274 231.842 275.729 228.302 277.31C226.152 278.279 223.972 279.199 221.762 280.06C221.172 280.289 220.592 280.52 220.002 280.729C218.942 281.141 217.872 281.52 216.802 281.899C216.612 281.97 216.412 282.039 216.212 282.109C215.942 282.199 215.682 282.289 215.412 282.38C211.402 283.74 207.312 284.93 203.152 285.939C198.322 287.109 193.392 288.029 188.382 288.699C182.012 289.56 175.522 290 168.922 290C156.392 290 144.252 288.41 132.662 285.421C129.762 284.681 126.892 283.85 124.062 282.93C65.9424 264.039 23.9224 209.42 23.9224 145C23.9224 64.9205 88.8424 0.000488281 168.922 0.000488281C249.002 0.000488281 313.922 64.9205 313.922 145Z" fill="#F2F8FF"/>
</g>
<path fill-rule="evenodd" clip-rule="evenodd" d="M252.833 263.26C249.943 265.32 246.972 267.27 243.932 269.1C243.932 269.13 243.922 269.16 243.912 269.19C243.812 269.46 243.522 269.6 243.252 269.51C241.752 270.42 240.222 271.289 238.682 272.14C235.302 274 231.843 275.73 228.303 277.31C226.153 278.28 223.972 279.199 221.763 280.06C221.173 280.289 220.593 280.52 220.003 280.73C218.943 281.14 217.872 281.52 216.802 281.9C216.612 281.97 216.413 282.039 216.212 282.11C215.942 282.199 215.683 282.289 215.413 282.38H189.312C197.993 269.06 206.673 258.57 214.733 251.05C219.022 247.04 223.123 243.88 226.963 241.57C236.132 236.05 243.753 235.42 248.553 239.949C254.452 245.51 255.482 253.659 252.833 263.26Z" fill="#A9D6F3"/>
<path fill-rule="evenodd" clip-rule="evenodd" d="M244.852 260.77C237.472 259.51 231.432 259.39 227.732 259.5C226.942 259.53 226.262 259.56 225.692 259.6C226.362 259.01 227.012 258.45 227.652 257.91C237.362 249.71 243.712 246.8 243.772 246.77C244.152 246.581 244.322 246.12 244.132 245.73C243.952 245.34 243.482 245.18 243.092 245.36C243.052 245.38 239.882 246.84 234.612 250.56C235.792 248.24 237.482 245.03 238.002 244.55C238.222 244.35 238.232 244.03 238.032 243.82C237.842 243.6 237.512 243.59 237.302 243.791C236.502 244.53 233.712 250 232.762 251.89C231.182 253.06 229.442 254.42 227.562 255.98C226.922 256.51 226.272 257.06 225.612 257.63L227.342 251.331L228.642 246.61C228.722 246.34 228.562 246.06 228.282 245.98C228.002 245.9 227.722 246.07 227.652 246.34L227.192 248.01L224.202 258.87C222.412 260.46 220.532 262.22 218.562 264.15L221.612 251.21C221.672 250.94 221.502 250.66 221.222 250.59C220.952 250.52 220.672 250.69 220.602 250.98L217.172 265.55C214.242 268.51 211.162 271.84 207.972 275.62L208.142 274.64L210.212 262.38C210.252 262.1 210.072 261.84 209.782 261.79C209.502 261.74 209.232 261.93 209.182 262.22L206.642 277.2C205.282 278.85 203.902 280.581 202.492 282.38H204.442C204.722 282.02 205.002 281.67 205.292 281.32C206.042 280.37 206.792 279.45 207.532 278.54C209.092 278.75 213.922 279.42 220.002 280.73C220.592 280.52 221.172 280.29 221.762 280.06C215.632 278.67 210.532 277.911 208.312 277.6C212.142 273.01 215.812 269.04 219.262 265.63C220.512 265.67 223.852 265.82 228.052 266.31C232.652 266.86 238.282 267.82 243.252 269.51C243.522 269.6 243.812 269.46 243.912 269.19C243.922 269.161 243.932 269.13 243.932 269.1C243.972 268.85 243.832 268.61 243.592 268.53C238.482 266.79 232.692 265.81 228.002 265.26C224.672 264.88 221.892 264.7 220.272 264.63C221.692 263.24 223.072 261.95 224.412 260.75C225.042 260.69 226.192 260.59 227.782 260.541C231.422 260.44 237.372 260.55 244.672 261.79C244.952 261.84 245.222 261.65 245.272 261.37C245.322 261.081 245.132 260.81 244.852 260.77ZM203.572 270.26C203.282 270.22 203.022 270.411 202.972 270.69L201.232 282.38H202.292L204.002 270.85C204.042 270.57 203.852 270.3 203.572 270.26Z" fill="white"/>
<path fill-rule="evenodd" clip-rule="evenodd" d="M306.744 81.7827H256.621C252.981 81.7827 250.002 84.7627 250.002 88.4027V120.021V122.041V139.418C250.002 139.722 250.176 139.984 250.458 140.101C250.741 140.218 251.047 140.157 251.264 139.94L262.543 128.66H306.744C310.384 128.66 313.363 125.681 313.363 122.041V88.4027C313.363 84.7617 310.384 81.7827 306.744 81.7827Z" fill="#EEECF7"/>
<path fill-rule="evenodd" clip-rule="evenodd" d="M304.235 78.189H254.112C250.472 78.189 247.494 81.168 247.494 84.808V116.427V118.446V135.823C247.494 136.128 247.668 136.389 247.95 136.506C248.232 136.623 248.539 136.562 248.755 136.345L260.034 125.066H304.235C307.875 125.066 310.854 122.086 310.854 118.446V84.808C310.854 81.168 307.875 78.189 304.235 78.189Z" fill="#363638"/>
<path fill-rule="evenodd" clip-rule="evenodd" d="M256.725 116.548H282.996C284.193 116.548 285.172 115.569 285.172 114.372V94.4273C285.172 93.2313 284.193 92.2513 282.996 92.2513H281.928V91.2383C281.928 90.9093 281.659 90.6403 281.329 90.6403H273.392C273.063 90.6403 272.793 90.9093 272.793 91.2383V92.2513H256.725C255.528 92.2513 254.55 93.2313 254.55 94.4273V114.372C254.55 115.569 255.528 116.548 256.725 116.548Z" fill="#F8B432"/>
<path fill-rule="evenodd" clip-rule="evenodd" d="M275.058 116.548H258.458C257.482 116.548 256.684 115.75 256.684 114.776V97.8313C256.684 96.8573 257.482 96.0593 258.458 96.0593H275.058C276.034 96.0593 276.831 96.8573 276.831 97.8313V114.776C276.831 115.75 276.034 116.548 275.058 116.548Z" fill="white"/>
<path fill-rule="evenodd" clip-rule="evenodd" d="M281.879 116.548H301.381C302.711 116.548 303.798 115.46 303.798 114.131V87.5172C303.798 86.1882 302.711 85.0992 301.381 85.0992H281.879C280.549 85.0992 279.462 86.1882 279.462 87.5172V114.131C279.462 115.46 280.549 116.548 281.879 116.548Z" fill="white"/>
<path fill-rule="evenodd" clip-rule="evenodd" d="M281.879 116.548H285.776C286.973 116.548 288.389 115.569 288.921 114.372L296.567 97.2073C297.101 96.0113 296.558 95.0313 295.361 95.0313H294.086L294.567 93.9543C294.761 93.5183 294.562 93.1603 294.126 93.1603H285.272C284.836 93.1603 284.319 93.5183 284.124 93.9543L283.644 95.0313H279.462V114.131C279.462 115.46 280.549 116.548 281.879 116.548Z" fill="#EEECF7"/>
<path fill-rule="evenodd" clip-rule="evenodd" d="M259.344 116.548H283.6C284.797 116.548 286.213 115.569 286.745 114.372L294.391 97.2073C294.925 96.0113 294.382 95.0313 293.185 95.0313H291.91L292.39 93.9543C292.585 93.5183 292.386 93.1603 291.949 93.1603H283.095C282.659 93.1603 282.143 93.5183 281.948 93.9543L281.468 95.0313H268.928C267.732 95.0313 266.317 96.0113 265.783 97.2073L258.137 114.372C257.604 115.569 258.147 116.548 259.344 116.548Z" fill="#FBC649"/>
<path fill-rule="evenodd" clip-rule="evenodd" d="M277.624 98.8726C275.771 98.8726 273.918 99.5796 272.504 100.994C271.091 102.407 270.384 104.261 270.384 106.113C270.384 107.966 271.091 109.819 272.504 111.232C273.918 112.646 275.771 113.353 277.624 113.353C279.477 113.353 281.33 112.646 282.743 111.232C284.157 109.819 284.864 107.966 284.864 106.113C284.864 104.261 284.157 102.407 282.743 100.994C281.33 99.5796 279.477 98.8726 277.624 98.8726ZM271.649 100.138C273.299 98.4876 275.461 97.6626 277.624 97.6626C279.787 97.6626 281.949 98.4876 283.599 100.138C285.249 101.788 286.074 103.951 286.074 106.113C286.074 108.275 285.249 110.438 283.599 112.089C281.949 113.738 279.787 114.563 277.624 114.563C275.461 114.563 273.299 113.738 271.649 112.089C269.999 110.438 269.174 108.275 269.174 106.113C269.174 103.951 269.999 101.788 271.649 100.138Z" fill="#150D39"/>
<path fill-rule="evenodd" clip-rule="evenodd" d="M282.743 112.088C282.507 111.852 282.507 111.468 282.743 111.232C282.98 110.996 283.363 110.996 283.599 111.232L285.598 113.232C285.835 113.468 285.835 113.852 285.598 114.087C285.363 114.324 284.98 114.324 284.743 114.087L282.743 112.088Z" fill="#150D39"/>
<path fill-rule="evenodd" clip-rule="evenodd" d="M284.825 115.025C284.353 114.552 284.353 113.787 284.825 113.314C285.298 112.841 286.064 112.841 286.537 113.314L295.763 122.541C296.236 123.012 296.236 123.779 295.763 124.252C295.291 124.724 294.524 124.724 294.052 124.252L284.825 115.025Z" fill="#150D39"/>
<path fill-rule="evenodd" clip-rule="evenodd" d="M272.828 102.662C272.7 102.841 272.451 102.882 272.272 102.753C272.094 102.625 272.053 102.376 272.182 102.197C272.288 102.049 272.4 101.907 272.516 101.77L272.535 101.75C272.655 101.609 272.771 101.483 272.882 101.372C273.038 101.217 273.291 101.217 273.448 101.372C273.604 101.528 273.604 101.781 273.448 101.937C273.33 102.056 273.227 102.165 273.139 102.267L273.121 102.289C273.016 102.413 272.918 102.538 272.828 102.662ZM273.448 110.289C273.604 110.445 273.604 110.698 273.448 110.854C273.291 111.011 273.038 111.011 272.882 110.854C272.242 110.214 271.758 109.474 271.43 108.681C271.089 107.859 270.919 106.985 270.919 106.113C270.919 105.707 270.956 105.296 271.033 104.887C271.107 104.486 271.219 104.09 271.368 103.703C271.446 103.497 271.676 103.394 271.881 103.474C272.086 103.552 272.189 103.781 272.111 103.987C271.98 104.325 271.882 104.675 271.817 105.03C271.75 105.384 271.718 105.746 271.718 106.113C271.718 106.886 271.868 107.656 272.166 108.378C272.453 109.071 272.88 109.722 273.448 110.289ZM282.594 109.305C282.714 109.119 282.96 109.065 283.146 109.184C283.331 109.304 283.385 109.551 283.266 109.735C283.138 109.934 282.998 110.128 282.846 110.317C282.693 110.508 282.532 110.686 282.365 110.854C282.208 111.011 281.955 111.011 281.799 110.854C281.643 110.698 281.643 110.445 281.799 110.289C281.955 110.133 282.097 109.975 282.224 109.818C282.358 109.652 282.481 109.481 282.594 109.305ZM281.799 101.937C281.643 101.781 281.643 101.528 281.799 101.372C281.955 101.217 282.208 101.217 282.365 101.372C283.005 102.013 283.489 102.754 283.818 103.546C284.157 104.365 284.327 105.239 284.327 106.113H284.328C284.328 106.738 284.241 107.363 284.067 107.97C284.006 108.182 283.785 108.305 283.573 108.245C283.361 108.184 283.238 107.964 283.298 107.751C283.452 107.218 283.529 106.666 283.529 106.113H283.53C283.53 105.344 283.38 104.572 283.081 103.849C282.794 103.156 282.367 102.505 281.799 101.937Z" fill="white"/>
<path fill-rule="evenodd" clip-rule="evenodd" d="M282.08 87.477H301.18C301.424 87.477 301.623 87.676 301.623 87.92C301.623 88.164 301.424 88.364 301.18 88.364H282.08C281.837 88.364 281.637 88.164 281.637 87.92C281.637 87.676 281.837 87.477 282.08 87.477Z" fill="#2C2070"/>
<path fill-rule="evenodd" clip-rule="evenodd" d="M282.08 90.2573H301.18C301.424 90.2573 301.623 90.4563 301.623 90.6993V90.7003C301.623 90.9443 301.424 91.1433 301.18 91.1433H282.08C281.837 91.1433 281.637 90.9443 281.637 90.7003V90.6993C281.637 90.4563 281.837 90.2573 282.08 90.2573Z" fill="#2C2070"/>
<path fill-rule="evenodd" clip-rule="evenodd" d="M297.573 93.3198H301.18C301.424 93.3198 301.623 93.5188 301.623 93.7618C301.623 94.0068 301.424 94.2058 301.18 94.2058H297.573C297.33 94.2058 297.131 94.0068 297.131 93.7618C297.131 93.5188 297.33 93.3198 297.573 93.3198Z" fill="#2C2070"/>
<path fill-rule="evenodd" clip-rule="evenodd" d="M297.573 96.4614H301.18C301.424 96.4614 301.623 96.6614 301.623 96.9054C301.623 97.1484 301.424 97.3484 301.18 97.3484H297.573C297.33 97.3484 297.131 97.1484 297.131 96.9054C297.131 96.6614 297.33 96.4614 297.573 96.4614Z" fill="#2C2070"/>
<path fill-rule="evenodd" clip-rule="evenodd" d="M297.573 99.605H301.18C301.424 99.605 301.623 99.804 301.623 100.048C301.623 100.292 301.424 100.492 301.18 100.492H297.573C297.33 100.492 297.131 100.292 297.131 100.048C297.131 99.804 297.33 99.605 297.573 99.605Z" fill="#2C2070"/>
<path fill-rule="evenodd" clip-rule="evenodd" d="M297.573 102.748H301.18C301.424 102.748 301.623 102.948 301.623 103.191C301.623 103.435 301.424 103.635 301.18 103.635H297.573C297.33 103.635 297.131 103.435 297.131 103.191C297.131 102.948 297.33 102.748 297.573 102.748Z" fill="#2C2070"/>
<path fill-rule="evenodd" clip-rule="evenodd" d="M297.573 105.89H301.18C301.424 105.89 301.623 106.09 301.623 106.334C301.623 106.577 301.424 106.777 301.18 106.777H297.573C297.33 106.777 297.131 106.577 297.131 106.334C297.131 106.09 297.33 105.89 297.573 105.89Z" fill="#2C2070"/>
<path fill-rule="evenodd" clip-rule="evenodd" d="M297.573 109.034H301.18C301.424 109.034 301.623 109.233 301.623 109.477C301.623 109.721 301.424 109.921 301.18 109.921H297.573C297.33 109.921 297.131 109.721 297.131 109.477C297.131 109.233 297.33 109.034 297.573 109.034Z" fill="#2C2070"/>
<path fill-rule="evenodd" clip-rule="evenodd" d="M292.032 112.176H301.179C301.423 112.176 301.623 112.375 301.623 112.619C301.623 112.863 301.423 113.063 301.179 113.063H292.032C291.788 113.063 291.589 112.863 291.589 112.619C291.589 112.375 291.788 112.176 292.032 112.176Z" fill="#2C2070"/>
<path fill-rule="evenodd" clip-rule="evenodd" d="M292.939 109.034H295.639C295.883 109.034 296.082 109.233 296.082 109.477C296.082 109.721 295.883 109.921 295.639 109.921H292.939C292.695 109.921 292.496 109.721 292.496 109.477C292.496 109.233 292.695 109.034 292.939 109.034Z" fill="#2C2070"/>
<path fill-rule="evenodd" clip-rule="evenodd" d="M294.149 105.89H295.509C295.753 105.89 295.952 106.09 295.952 106.334C295.952 106.577 295.753 106.777 295.509 106.777H294.149C293.905 106.777 293.706 106.577 293.706 106.334C293.706 106.09 293.905 105.89 294.149 105.89Z" fill="#2C2070"/>
<path fill-rule="evenodd" clip-rule="evenodd" d="M295.096 102.748H296.091C296.335 102.748 296.534 102.948 296.534 103.191C296.534 103.435 296.335 103.635 296.091 103.635H295.096C294.852 103.635 294.652 103.435 294.652 103.191C294.652 102.948 294.852 102.748 295.096 102.748Z" fill="#2C2070"/>
<path fill-rule="evenodd" clip-rule="evenodd" d="M312.933 161.98V162.001C312.843 162.76 312.753 163.53 312.643 164.291C312.543 165.06 312.443 165.831 312.323 166.6C312.173 167.59 312.023 168.56 311.853 169.541C311.793 169.91 311.723 170.28 311.653 170.64C311.583 171.081 311.503 171.52 311.423 171.96C311.353 172.331 311.283 172.7 311.203 173.06C311.093 173.65 310.973 174.24 310.853 174.831C310.773 175.2 310.693 175.57 310.623 175.93C310.523 176.37 310.423 176.81 310.323 177.251C310.243 177.62 310.153 177.99 310.063 178.35C309.923 178.95 309.783 179.541 309.633 180.13C309.543 180.501 309.453 180.86 309.353 181.22C309.243 181.66 309.133 182.1 309.023 182.541C308.913 182.91 308.813 183.28 308.713 183.64C308.553 184.24 308.383 184.831 308.213 185.42C308.103 185.791 308.003 186.15 307.893 186.51C307.463 187.94 307.023 189.35 306.553 190.76C306.283 191.56 306.013 192.37 305.733 193.17H265.903C264.533 193.17 263.393 192.1 263.273 190.76C263.263 190.68 263.263 190.61 263.263 190.53V164.63C263.263 163.17 264.453 161.98 265.903 161.98H312.933Z" fill="#EEECF7"/>
<path fill-rule="evenodd" clip-rule="evenodd" d="M313.192 159.57C313.122 160.37 313.032 161.18 312.932 161.98V162.001C312.842 162.76 312.752 163.53 312.642 164.291C312.542 165.06 312.442 165.831 312.322 166.6C312.172 167.591 312.022 168.56 311.852 169.541C311.792 169.91 311.722 170.28 311.652 170.64C311.582 171.081 311.502 171.52 311.422 171.961C311.352 172.331 311.282 172.7 311.202 173.06C311.092 173.65 310.972 174.24 310.852 174.831C310.772 175.2 310.692 175.57 310.622 175.93C310.522 176.37 310.422 176.81 310.322 177.251C310.242 177.62 310.152 177.99 310.062 178.35C309.922 178.95 309.782 179.541 309.632 180.131C309.542 180.501 309.452 180.86 309.352 181.22C309.242 181.66 309.132 182.1 309.022 182.541C308.912 182.91 308.812 183.28 308.712 183.64C308.552 184.24 308.382 184.831 308.212 185.421C308.102 185.791 308.002 186.15 307.892 186.51C307.462 187.94 307.022 189.35 306.552 190.76H263.142C261.682 190.76 260.502 189.57 260.502 188.12V162.211C260.502 160.76 261.682 159.57 263.142 159.57H313.192Z" fill="white"/>
<path fill-rule="evenodd" clip-rule="evenodd" d="M313.192 159.57C313.122 160.37 313.032 161.18 312.932 161.98V162.001C312.842 162.76 312.752 163.53 312.642 164.291C312.542 165.06 312.442 165.831 312.322 166.6H261.232C260.832 166.6 260.502 166.27 260.502 165.86V162.211C260.502 160.76 261.682 159.57 263.142 159.57H313.192Z" fill="#0076FB"/>
<path fill-rule="evenodd" clip-rule="evenodd" d="M279.043 171.96H272.673C272.363 171.96 272.123 172.21 272.123 172.51C272.123 172.81 272.363 173.06 272.673 173.06H279.043C279.343 173.06 279.593 172.81 279.593 172.51C279.593 172.21 279.343 171.96 279.043 171.96ZM270.393 171.96H269.883C269.583 171.96 269.343 172.21 269.343 172.51C269.343 172.81 269.583 173.06 269.883 173.06H270.393C270.693 173.06 270.943 172.81 270.943 172.51C270.943 172.21 270.693 171.96 270.393 171.96ZM267.963 171.96H264.773C264.473 171.96 264.223 172.21 264.223 172.51C264.223 172.81 264.473 173.06 264.773 173.06H267.963C268.263 173.06 268.513 172.81 268.513 172.51C268.513 172.21 268.263 171.96 267.963 171.96ZM279.043 174.83H264.773C264.473 174.83 264.223 175.08 264.223 175.38C264.223 175.68 264.473 175.93 264.773 175.93H279.043C279.343 175.93 279.593 175.68 279.593 175.38C279.593 175.08 279.343 174.83 279.043 174.83ZM271.143 177.25H264.773C264.473 177.25 264.223 177.5 264.223 177.8C264.223 178.1 264.473 178.35 264.773 178.35H271.143C271.453 178.35 271.693 178.1 271.693 177.8C271.693 177.5 271.453 177.25 271.143 177.25ZM273.933 177.25H273.423C273.123 177.25 272.873 177.5 272.873 177.8C272.873 178.1 273.123 178.35 273.423 178.35H273.933C274.233 178.35 274.473 178.1 274.473 177.8C274.473 177.5 274.233 177.25 273.933 177.25ZM279.043 177.25H275.853C275.553 177.25 275.303 177.5 275.303 177.8C275.303 178.1 275.553 178.35 275.853 178.35H279.043C279.343 178.35 279.593 178.1 279.593 177.8C279.593 177.5 279.343 177.25 279.043 177.25ZM279.043 180.13H264.773C264.473 180.13 264.223 180.369 264.223 180.67C264.223 180.97 264.473 181.22 264.773 181.22H279.043C279.343 181.22 279.593 180.97 279.593 180.67C279.593 180.369 279.343 180.13 279.043 180.13ZM279.043 182.54H272.673C272.363 182.54 272.123 182.79 272.123 183.09C272.123 183.39 272.363 183.64 272.673 183.64H279.043C279.343 183.64 279.593 183.39 279.593 183.09C279.593 182.79 279.343 182.54 279.043 182.54ZM270.393 182.54H269.883C269.583 182.54 269.343 182.79 269.343 183.09C269.343 183.39 269.583 183.64 269.883 183.64H270.393C270.693 183.64 270.943 183.39 270.943 183.09C270.943 182.79 270.693 182.54 270.393 182.54ZM267.963 182.54H264.773C264.473 182.54 264.223 182.79 264.223 183.09C264.223 183.39 264.473 183.64 264.773 183.64H267.963C268.263 183.64 268.513 183.39 268.513 183.09C268.513 182.79 268.263 182.54 267.963 182.54ZM279.043 185.42H264.773C264.473 185.42 264.223 185.659 264.223 185.96C264.223 186.27 264.473 186.51 264.773 186.51H279.043C279.343 186.51 279.593 186.27 279.593 185.96C279.593 185.659 279.343 185.42 279.043 185.42ZM279.043 169.54H264.773C264.473 169.54 264.223 169.79 264.223 170.09C264.223 170.39 264.473 170.64 264.773 170.64H279.043C279.343 170.64 279.593 170.39 279.593 170.09C279.593 169.79 279.343 169.54 279.043 169.54Z" fill="#0076FB"/>
<path fill-rule="evenodd" clip-rule="evenodd" d="M301.152 171.96C300.852 171.96 300.602 172.21 300.602 172.51C300.602 172.81 300.852 173.06 301.152 173.06H311.202C311.282 172.699 311.352 172.33 311.422 171.96H301.152ZM298.112 171.96H296.582C296.282 171.96 296.032 172.21 296.032 172.51C296.032 172.81 296.282 173.06 296.582 173.06H298.112C298.422 173.06 298.662 172.81 298.662 172.51C298.662 172.21 298.422 171.96 298.112 171.96ZM294.132 171.96H288.182C287.872 171.96 287.632 172.21 287.632 172.51C287.632 172.81 287.872 173.06 288.182 173.06H294.132C294.432 173.06 294.672 172.81 294.672 172.51C294.672 172.21 294.432 171.96 294.132 171.96ZM288.182 174.83C287.872 174.83 287.632 175.08 287.632 175.38C287.632 175.68 287.872 175.93 288.182 175.93H310.622C310.692 175.569 310.772 175.199 310.852 174.83H288.182ZM299.352 177.25H288.182C287.872 177.25 287.632 177.5 287.632 177.8C287.632 178.1 287.872 178.35 288.182 178.35H299.352C299.652 178.35 299.902 178.1 299.902 177.8C299.902 177.5 299.652 177.25 299.352 177.25ZM303.922 177.25H302.392C302.082 177.25 301.842 177.5 301.842 177.8C301.842 178.1 302.082 178.35 302.392 178.35H303.922C304.222 178.35 304.472 178.1 304.472 177.8C304.472 177.5 304.222 177.25 303.922 177.25ZM306.372 177.25C306.072 177.25 305.832 177.5 305.832 177.8C305.832 178.1 306.072 178.35 306.372 178.35H310.062C310.152 177.989 310.242 177.619 310.322 177.25H306.372ZM288.182 180.13C287.872 180.13 287.632 180.369 287.632 180.67C287.632 180.97 287.872 181.22 288.182 181.22H309.352C309.452 180.859 309.542 180.5 309.632 180.13H288.182ZM301.152 182.54C300.852 182.54 300.602 182.79 300.602 183.09C300.602 183.39 300.852 183.64 301.152 183.64H308.712C308.812 183.279 308.912 182.909 309.022 182.54H301.152ZM298.112 182.54H296.582C296.282 182.54 296.032 182.79 296.032 183.09C296.032 183.39 296.282 183.64 296.582 183.64H298.112C298.422 183.64 298.662 183.39 298.662 183.09C298.662 182.79 298.422 182.54 298.112 182.54ZM294.132 182.54H288.182C287.872 182.54 287.632 182.79 287.632 183.09C287.632 183.39 287.872 183.64 288.182 183.64H294.132C294.432 183.64 294.672 183.39 294.672 183.09C294.672 182.79 294.432 182.54 294.132 182.54ZM288.182 185.42C287.872 185.42 287.632 185.659 287.632 185.96C287.632 186.27 287.872 186.51 288.182 186.51H307.892C308.002 186.149 308.102 185.79 308.212 185.42H288.182ZM288.182 169.54C287.872 169.54 287.632 169.79 287.632 170.09C287.632 170.39 287.872 170.64 288.182 170.64H311.652C311.722 170.279 311.792 169.909 311.852 169.54H288.182Z" fill="#DAD4EB"/>
<path fill-rule="evenodd" clip-rule="evenodd" d="M303.147 164.354C303.845 164.354 304.415 163.785 304.415 163.086C304.415 162.388 303.845 161.818 303.147 161.818C302.449 161.818 301.879 162.388 301.879 163.086C301.879 163.785 302.449 164.354 303.147 164.354Z" fill="white"/>
<path fill-rule="evenodd" clip-rule="evenodd" d="M307.719 164.354C308.417 164.354 308.987 163.785 308.987 163.086C308.987 162.388 308.417 161.818 307.719 161.818C307.021 161.818 306.451 162.388 306.451 163.086C306.451 163.785 307.021 164.354 307.719 164.354Z" fill="white"/>
<path fill-rule="evenodd" clip-rule="evenodd" d="M312.932 162C312.842 162.76 312.752 163.529 312.642 164.29C312.532 164.33 312.412 164.35 312.292 164.35C311.592 164.35 311.022 163.779 311.022 163.09C311.022 162.609 311.292 162.189 311.692 161.979C311.872 161.88 312.072 161.819 312.292 161.819C312.512 161.819 312.712 161.88 312.892 161.979C312.912 161.979 312.922 161.989 312.932 162Z" fill="white"/>
<path fill-rule="evenodd" clip-rule="evenodd" d="M159.278 62.7113C159.432 62.5573 159.682 62.5573 159.836 62.7113C159.99 62.8653 159.99 63.1153 159.836 63.2703L158.581 64.5243C158.427 64.6793 158.177 64.6793 158.023 64.5243C157.869 64.3713 157.869 64.1213 158.023 63.9673L159.278 62.7113ZM160.719 65.4013C160.937 65.4013 161.114 65.5783 161.114 65.7963C161.114 66.0143 160.937 66.1903 160.719 66.1903H158.944C158.726 66.1903 158.549 66.0143 158.549 65.7963C158.549 65.5783 158.726 65.4013 158.944 65.4013H160.719ZM159.836 68.3223C159.99 68.4773 159.99 68.7273 159.836 68.8813C159.682 69.0343 159.432 69.0343 159.278 68.8813L158.023 67.6253C157.869 67.4723 157.869 67.2213 158.023 67.0673C158.177 66.9133 158.427 66.9133 158.581 67.0673L159.836 68.3223ZM157.146 69.7643C157.146 69.9823 156.969 70.1583 156.751 70.1583C156.534 70.1583 156.357 69.9823 156.357 69.7643V67.9883C156.357 67.7713 156.534 67.5943 156.751 67.5943C156.969 67.5943 157.146 67.7713 157.146 67.9883V69.7643ZM154.225 68.8813C154.071 69.0343 153.821 69.0343 153.667 68.8813C153.513 68.7273 153.513 68.4773 153.667 68.3223L154.922 67.0673C155.076 66.9133 155.326 66.9133 155.48 67.0673C155.634 67.2213 155.634 67.4723 155.48 67.6253L154.225 68.8813ZM152.784 66.1903C152.566 66.1903 152.389 66.0143 152.389 65.7963C152.389 65.5783 152.566 65.4013 152.784 65.4013H154.559C154.778 65.4013 154.954 65.5783 154.954 65.7963C154.954 66.0143 154.778 66.1903 154.559 66.1903H152.784ZM153.667 63.2703C153.513 63.1153 153.513 62.8653 153.667 62.7113C153.821 62.5573 154.071 62.5573 154.225 62.7113L155.48 63.9673C155.634 64.1213 155.634 64.3713 155.48 64.5243C155.326 64.6793 155.076 64.6793 154.922 64.5243L153.667 63.2703ZM156.357 61.8283C156.357 61.6103 156.534 61.4343 156.751 61.4343C156.969 61.4343 157.146 61.6103 157.146 61.8283V63.6043C157.146 63.8213 156.969 63.9983 156.751 63.9983C156.534 63.9983 156.357 63.8213 156.357 63.6043V61.8283Z" fill="#00B770"/>
<path fill-rule="evenodd" clip-rule="evenodd" d="M209.028 52.9956C209.389 52.9956 209.681 53.4136 209.681 53.9296C209.681 54.4436 209.389 54.8616 209.028 54.8616H206.479C206.118 54.8616 205.826 54.4436 205.826 53.9296C205.826 53.4136 206.118 52.9956 206.479 52.9956H209.028ZM213.176 54.8616C212.816 54.8616 212.523 54.4436 212.523 53.9296C212.523 53.4136 212.816 52.9956 213.176 52.9956H243.776C244.137 52.9956 244.43 53.4136 244.43 53.9296C244.43 54.4436 244.137 54.8616 243.776 54.8616H213.176Z" fill="#0076FB"/>
<path fill-rule="evenodd" clip-rule="evenodd" d="M86.0863 212.596H88.9453C89.4693 212.596 89.8983 213.025 89.8983 213.548V216.407C89.8983 216.93 89.4693 217.359 88.9453 217.359H86.0863C85.5623 217.359 85.1343 216.93 85.1343 216.407V213.548C85.1343 213.025 85.5623 212.596 86.0863 212.596Z" fill="#A9D6F3"/>
<path fill-rule="evenodd" clip-rule="evenodd" d="M95.8524 212.596H98.7114C99.2344 212.596 99.6644 213.025 99.6644 213.548V216.407C99.6644 216.93 99.2344 217.359 98.7114 217.359H95.8524C95.3284 217.359 94.9004 216.93 94.9004 216.407V213.548C94.9004 213.025 95.3284 212.596 95.8524 212.596Z" fill="#A9D6F3"/>
<path fill-rule="evenodd" clip-rule="evenodd" d="M105.618 212.596H108.477C109.001 212.596 109.429 213.025 109.429 213.548V216.407C109.429 216.93 109.001 217.359 108.477 217.359H105.618C105.094 217.359 104.665 216.93 104.665 216.407V213.548C104.665 213.025 105.094 212.596 105.618 212.596Z" fill="#A9D6F3"/>
<path fill-rule="evenodd" clip-rule="evenodd" d="M115.384 212.596H118.243C118.767 212.596 119.195 213.025 119.195 213.548V216.407C119.195 216.93 118.767 217.359 118.243 217.359H115.384C114.86 217.359 114.432 216.93 114.432 216.407V213.548C114.432 213.025 114.86 212.596 115.384 212.596Z" fill="#A9D6F3"/>
<path fill-rule="evenodd" clip-rule="evenodd" d="M46.4071 172.044H49.2671C49.7901 172.044 50.2191 172.472 50.2191 172.995V175.856C50.2191 176.378 49.7901 176.808 49.2671 176.808H46.4071C45.8841 176.808 45.4551 176.378 45.4551 175.856V172.995C45.4551 172.472 45.8841 172.044 46.4071 172.044Z" fill="#A9D6F3"/>
<path fill-rule="evenodd" clip-rule="evenodd" d="M56.1732 172.044H59.0322C59.5552 172.044 59.9852 172.472 59.9852 172.995V175.856C59.9852 176.378 59.5552 176.808 59.0322 176.808H56.1732C55.6492 176.808 55.2202 176.378 55.2202 175.856V172.995C55.2202 172.472 55.6492 172.044 56.1732 172.044Z" fill="#A9D6F3"/>
<path fill-rule="evenodd" clip-rule="evenodd" d="M65.9388 172.044H68.7978C69.3218 172.044 69.7498 172.472 69.7498 172.995V175.856C69.7498 176.378 69.3218 176.808 68.7978 176.808H65.9388C65.4148 176.808 64.9858 176.378 64.9858 175.856V172.995C64.9858 172.472 65.4148 172.044 65.9388 172.044Z" fill="#A9D6F3"/>
<path fill-rule="evenodd" clip-rule="evenodd" d="M75.704 172.044H78.564C79.087 172.044 79.516 172.472 79.516 172.995V175.856C79.516 176.378 79.087 176.808 78.564 176.808H75.704C75.18 176.808 74.752 176.378 74.752 175.856V172.995C74.752 172.472 75.18 172.044 75.704 172.044Z" fill="#A9D6F3"/>
<path fill-rule="evenodd" clip-rule="evenodd" d="M89.0607 188.322C88.6997 188.322 88.4077 188.74 88.4077 189.255C88.4077 189.77 88.6997 190.188 89.0607 190.188H91.6097C91.9707 190.188 92.2627 189.77 92.2627 189.255C92.2627 188.74 91.9707 188.322 91.6097 188.322H89.0607ZM84.9127 190.188C85.2727 190.188 85.5657 189.77 85.5657 189.255C85.5657 188.74 85.2727 188.322 84.9127 188.322H54.3117C53.9517 188.322 53.6587 188.74 53.6587 189.255C53.6587 189.77 53.9517 190.188 54.3117 190.188H84.9127Z" fill="#A9D6F3"/>
<path fill-rule="evenodd" clip-rule="evenodd" d="M218.206 150.316C215.97 149.6 206.851 146.472 207.704 151.341C210.723 154.032 211.725 156.738 214.185 159.418C215.211 160.535 217.613 161.38 218.73 162.644L223.067 169.177C225.619 168.153 228.171 167.128 230.723 166.104C230.695 165.643 230.668 165.182 230.642 164.72C229.873 159.12 229.105 153.52 228.336 147.919C224.959 148.718 221.583 149.517 218.206 150.316Z" fill="#E97584"/>
<path fill-rule="evenodd" clip-rule="evenodd" d="M169.03 166.936C169.03 166.936 119.408 156.622 110.372 150.898C101.337 145.173 95.0882 135.345 75.9142 107.612C75.9142 107.612 75.1362 106.29 72.9562 107.073C70.7772 107.854 65.1752 111.818 64.6172 113.11C64.0602 114.402 63.8932 115.605 64.6102 116.969C65.3262 118.332 91.2342 162.629 96.7592 168.784C102.285 174.939 145.767 196.386 154.294 201.374C162.821 206.362 169.03 166.936 169.03 166.936Z" fill="#0076FB"/>
<path fill-rule="evenodd" clip-rule="evenodd" d="M70.5402 108.329C68.0622 109.844 65.0202 112.175 64.6182 113.11C64.0602 114.402 63.8942 115.605 64.6102 116.97C65.3272 118.333 91.2342 162.63 96.7602 168.784C101.513 174.08 134.358 190.692 148.872 198.407C149.236 191.038 149.149 185.198 148.035 184.53C144.8 182.589 104.367 169.434 101.347 166.739C98.3282 164.043 76.3322 129.108 71.5882 120.697C66.8502 112.299 70.5292 108.34 70.5402 108.329Z" fill="#004ECB"/>
<path fill-rule="evenodd" clip-rule="evenodd" d="M220.247 218.053L227.709 216.359C227.709 216.359 246.565 234.474 248.426 236.081C250.287 237.689 257.533 233.014 257.533 233.014L247.773 211.858L229.904 179.154L222.059 193.507L220.247 218.053Z" fill="#004ECB"/>
<path fill-rule="evenodd" clip-rule="evenodd" d="M158.267 114.779C161.469 105.954 171.057 82.8328 185.204 71.2258C185.204 71.2258 188.478 68.3618 193.534 71.6828C198.59 75.0058 204.875 78.4988 209.549 81.6878C214.223 84.8758 214.077 89.2228 214.518 94.0358C214.96 98.8478 215.405 107.284 215.63 113.315C215.854 119.344 214.817 120.146 212.77 121.37C210.771 122.565 181.914 131.008 160.777 121.719C156.717 119.937 157.264 117.544 158.267 114.779Z" fill="#27266C"/>
<path fill-rule="evenodd" clip-rule="evenodd" d="M207.703 80.4634C208.341 80.8754 208.957 81.2834 209.549 81.6884C214.223 84.8754 214.077 89.2234 214.518 94.0354C214.858 97.7454 215.201 103.607 215.443 108.86C211.112 108.895 203.554 108.743 201.259 107.286C198.51 105.54 189.828 97.4334 189.828 97.4334C189.828 97.4334 206.435 91.9754 207.405 85.6134C207.678 83.8214 207.746 82.0644 207.703 80.4634Z" fill="#211758"/>
<path fill-rule="evenodd" clip-rule="evenodd" d="M164.883 99.3324C167.219 94.5994 170.047 89.5064 173.321 84.7114C182.591 86.9644 201.492 92.5684 212.049 102.764C226.408 116.632 179.409 107.047 177.043 105.349C175.488 104.231 168.867 101.823 164.883 99.3324Z" fill="#F8B432"/>
<path fill-rule="evenodd" clip-rule="evenodd" d="M198.671 93.6958C203.638 96.1918 208.355 99.1968 212.049 102.764C215.226 105.833 215.396 107.752 213.714 108.863C209.332 108.838 203.271 108.565 201.259 107.287C198.51 105.541 189.828 97.4328 189.828 97.4328C189.828 97.4328 194.254 95.9778 198.671 93.6958Z" fill="#EF833F"/>
<path fill-rule="evenodd" clip-rule="evenodd" d="M183.468 134.295C158.774 127.2 139.985 112.139 141.5 100.655C143.016 89.1714 164.263 85.6134 188.957 92.7084C213.651 99.8034 232.441 114.863 230.925 126.348C229.409 137.831 208.162 141.39 183.468 134.295Z" fill="#27266C"/>
<path fill-rule="evenodd" clip-rule="evenodd" d="M183.468 134.295C168.976 130.132 156.521 123.224 149.007 115.906C148.049 112.388 148.011 107.863 151.768 103.943C159.208 96.1804 194.359 97.5814 211.287 110.089C228.159 122.556 219.558 136.405 219.5 136.498C210.677 138.929 197.64 138.367 183.468 134.295Z" fill="#221655"/>
<path fill-rule="evenodd" clip-rule="evenodd" d="M141.534 103.56C141.391 102.572 141.376 101.602 141.501 100.656C143.016 89.171 164.263 85.614 188.958 92.708C213.652 99.803 232.442 114.864 230.926 126.348C230.761 127.598 230.361 128.755 229.749 129.814C232.786 122.587 224.763 113.539 214.199 106.423C203.632 99.307 180.621 90.683 161.041 92.407C141.924 94.089 141.542 103.133 141.534 103.56Z" fill="#4A4192"/>
<mask id="mask1" mask-type="alpha" maskUnits="userSpaceOnUse" x="132" y="165" width="98" height="125">
<path fill-rule="evenodd" clip-rule="evenodd" d="M132.663 165.75H229.903V290H132.663V165.75Z" fill="white"/>
</mask>
<g mask="url(#mask1)">
<path fill-rule="evenodd" clip-rule="evenodd" d="M228.053 266.31C228.223 270.52 228.333 274.31 228.303 277.31C226.153 278.28 223.973 279.2 221.763 280.06C221.173 280.289 220.593 280.52 220.003 280.73C218.943 281.14 217.873 281.52 216.803 281.9C216.613 281.97 216.413 282.039 216.213 282.11C215.943 282.2 215.683 282.289 215.413 282.38C211.403 283.74 207.313 284.93 203.153 285.94C198.323 287.11 193.393 288.03 188.383 288.7C182.013 289.56 175.523 290 168.923 290C156.393 290 144.253 288.411 132.663 285.42C136.933 267.1 146.333 237.89 145.683 227.831L142.823 179.15L170.253 165.75L182.883 177.71L185.033 178.02H187.693L189.823 177.71L202.473 165.75L204.303 166.65L229.903 179.15L227.023 227.831C226.783 231.54 226.813 236.34 226.963 241.57C227.023 243.66 227.103 245.82 227.193 248.01C227.243 249.11 227.293 250.22 227.343 251.331C227.413 252.88 227.493 254.44 227.563 255.98C227.593 256.63 227.623 257.27 227.653 257.91C227.683 258.44 227.713 258.97 227.733 259.5C227.753 259.85 227.773 260.19 227.783 260.54C227.863 262.15 227.933 263.73 228.003 265.26C228.023 265.61 228.033 265.96 228.053 266.31Z" fill="#0076FB"/>
</g>
<path fill-rule="evenodd" clip-rule="evenodd" d="M228.002 265.26C227.932 263.73 227.862 262.15 227.782 260.54C227.772 260.19 227.752 259.85 227.732 259.5C227.712 258.97 227.682 258.44 227.652 257.909C227.622 257.27 227.592 256.63 227.562 255.98C227.492 254.44 227.412 252.88 227.342 251.33C227.292 250.22 227.242 249.11 227.192 248.01C227.102 245.82 227.022 243.659 226.962 241.57C226.812 236.34 226.782 231.54 227.022 227.83L229.902 179.15L204.302 166.65L203.612 168.54L204.412 170.22C204.412 170.22 205.452 169.01 206.072 169.489C206.692 169.97 218.552 180.65 218.122 185.39C217.682 190.14 215.532 220.54 214.882 248.58C214.862 249.38 214.812 250.199 214.732 251.05C214.072 258.14 211.342 266.69 208.142 274.64C207.222 276.94 206.252 279.18 205.292 281.32C205.132 281.68 204.972 282.03 204.812 282.38C204.252 283.61 203.692 284.8 203.152 285.94C207.312 284.93 211.402 283.739 215.412 282.38C215.682 282.289 215.942 282.199 216.212 282.11C216.412 282.039 216.612 281.97 216.802 281.9C217.872 281.52 218.942 281.14 220.002 280.73C220.592 280.52 221.172 280.289 221.762 280.06C223.972 279.199 226.152 278.28 228.302 277.31C228.332 274.31 228.222 270.52 228.052 266.31C228.032 265.96 228.022 265.61 228.002 265.26ZM143.013 182.483L145.688 227.831C145.77 229.098 145.821 230.493 145.847 231.987L145.848 231.988C145.848 231.988 151.269 186.471 148.035 184.53C147.446 184.176 145.619 183.449 143.013 182.483Z" fill="#004ECB"/>
<path fill-rule="evenodd" clip-rule="evenodd" d="M201.131 162.685C191.175 158.381 181.545 158.381 171.589 162.685L173.314 167.284H199.406L201.131 162.685Z" fill="#F0BAC8"/>
<path fill-rule="evenodd" clip-rule="evenodd" d="M189.831 177.71L187.688 178.02H185.032L182.889 177.71L174.404 169.681L173.137 170.073L170.419 173.648C170.419 173.648 176.607 187.994 176.971 188.479C177.334 188.962 177.98 189.204 178.908 188.074C179.836 186.944 182.763 183.25 182.763 183.25C182.763 183.25 183.608 182.357 184.006 183.364C184.403 184.371 188.777 181.606 188.777 181.606L189.088 182.575C189.088 182.575 189.756 181.768 190.412 182.816C191.068 183.866 194.308 188.377 194.53 188.579C194.751 188.78 195.74 189.446 196.426 188.033C197.053 186.743 204.415 170.217 205.7 167.335L202.465 165.754L189.831 177.71Z" fill="#004ECB"/>
<path fill-rule="evenodd" clip-rule="evenodd" d="M189.831 177.71L187.688 178.02H185.032L182.889 177.71L182.045 176.91L180.262 179.993C180.262 179.993 184.244 181.285 184.244 184.783V211.85C184.244 213.014 185.196 213.966 186.36 213.966C187.524 213.966 188.476 213.014 188.476 211.85V184.783C188.476 181.285 192.458 179.993 192.458 179.993L190.676 176.91L189.831 177.71Z" fill="#004ECB"/>
<path fill-rule="evenodd" clip-rule="evenodd" d="M186.36 141.738C192.521 141.738 197.563 146.78 197.563 152.941V167.759C197.563 173.919 192.521 178.961 186.36 178.961C180.199 178.961 175.158 173.919 175.158 167.759V152.941C175.158 146.78 180.199 141.738 186.36 141.738Z" fill="#E97584"/>
<path fill-rule="evenodd" clip-rule="evenodd" d="M183.749 176.677L185.032 176.461C185.032 176.461 185.286 176.733 185.323 177.196C185.359 177.658 185.388 179.018 185.388 179.018C184.917 179.187 182.401 179.7 182.481 179.343C182.499 179.259 183.749 176.677 183.749 176.677Z" fill="#D6364B"/>
<path fill-rule="evenodd" clip-rule="evenodd" d="M188.971 176.677L187.688 176.461C187.688 176.461 187.434 176.733 187.397 177.196C187.36 177.658 187.332 179.018 187.332 179.018C187.803 179.388 190.319 179.7 190.239 179.343C190.221 179.259 188.971 176.677 188.971 176.677Z" fill="#D6364B"/>
<path fill-rule="evenodd" clip-rule="evenodd" d="M201.131 162.685C201.274 162.809 202.863 165.598 203.69 166.936C203.69 166.936 204.438 168.039 203.887 169.888C203.336 171.739 196.131 186.933 196.131 186.933C196.131 186.933 195.62 187.74 194.794 186.953C193.967 186.165 187.688 176.461 187.688 176.461L199.596 163.905C200.153 163.196 200.988 162.559 201.131 162.685Z" fill="white"/>
<path fill-rule="evenodd" clip-rule="evenodd" d="M171.589 162.685C171.489 162.733 169.857 165.598 169.03 166.936C169.03 166.936 168.282 168.039 168.833 169.888C169.384 171.739 176.588 186.933 176.588 186.933C176.588 186.933 177.1 187.74 177.927 186.953C178.753 186.165 185.032 176.461 185.032 176.461L173.124 163.905C172.331 162.967 171.689 162.636 171.589 162.685Z" fill="white"/>
<path fill-rule="evenodd" clip-rule="evenodd" d="M162.023 129.028C161.852 129.051 161.684 129.079 161.517 129.114L161.512 129.116V129.115C158.431 129.76 156.091 132.463 156.029 135.744C155.957 139.557 158.99 142.709 162.803 142.781C166.618 142.852 169.769 139.82 169.841 136.007C169.883 133.79 168.877 131.799 167.277 130.505C167.453 132.543 167.129 135.066 164.526 135.319L164.602 131.337C164.632 129.725 163.129 128.984 162.023 129.028Z" fill="#E97584"/>
<path fill-rule="evenodd" clip-rule="evenodd" d="M211.873 129.028C212.044 129.051 212.213 129.079 212.379 129.114L212.384 129.116V129.115C215.465 129.76 217.805 132.463 217.868 135.744C217.939 139.557 214.906 142.709 211.092 142.781C207.279 142.852 204.127 139.82 204.055 136.007C204.013 133.79 205.02 131.799 206.619 130.505C206.443 132.543 206.768 135.066 209.37 135.319L209.294 131.337C209.264 129.725 210.767 128.984 211.873 129.028Z" fill="#E97584"/>
<path fill-rule="evenodd" clip-rule="evenodd" d="M165.046 110.999C164.094 113.554 163.3 115.298 163.3 118.174V139.683C163.3 152.688 173.942 163.33 186.949 163.33C199.953 163.33 210.595 152.688 210.595 139.683V118.174C210.595 115.297 210.346 113.554 209.395 110.998C205.457 109.895 197.011 109.13 187.222 109.13C177.434 109.13 168.983 109.895 165.046 110.999Z" fill="#F2C5D3"/>
<path fill-rule="evenodd" clip-rule="evenodd" d="M179.243 162.031C181.661 162.872 184.255 163.33 186.95 163.33C199.953 163.33 210.596 152.688 210.596 139.682V118.174C210.596 115.297 210.347 113.553 209.395 110.998C205.457 109.894 197.011 109.13 187.222 109.13C179.132 109.13 171.956 109.652 167.487 110.457L167.413 110.47L167.359 110.48L165.017 115.199L167.534 119.072C167.534 119.072 169.762 115.198 176.285 115.198H195.477C199.305 115.198 202.17 116.891 202.17 124.24V145.119C202.17 150.834 198.468 165.458 179.243 162.031Z" fill="#F1ACBA"/>
<path fill-rule="evenodd" clip-rule="evenodd" d="M189.832 140.885C189.965 144.262 187.335 147.108 183.958 147.239C180.58 147.373 177.735 144.743 177.602 141.366H177.613C177.59 140.785 178.046 140.291 178.627 140.269L188.724 139.871C189.305 139.848 189.8 140.304 189.821 140.885H189.832Z" fill="#150D39"/>
<path fill-rule="evenodd" clip-rule="evenodd" d="M187.74 145.736C186.725 146.624 185.41 147.183 183.957 147.241C182.77 147.288 181.649 146.993 180.688 146.445C181.109 145.172 182.444 144.178 184.096 144.051C185.672 143.93 187.084 144.633 187.74 145.736Z" fill="#E74A5B"/>
<path fill-rule="evenodd" clip-rule="evenodd" d="M178.492 140.284L187.982 139.911C188.174 140.954 187.73 142.033 187.033 142.292C186.185 142.606 179.31 142.698 178.803 142.177C178.558 141.926 178.493 141.085 178.492 140.284Z" fill="white"/>
<path fill-rule="evenodd" clip-rule="evenodd" d="M196.889 135.624C195.172 135.592 193.753 136.958 193.72 138.675C193.687 140.392 195.054 141.811 196.77 141.843C198.487 141.875 199.907 140.51 199.939 138.793C199.971 137.075 198.605 135.656 196.889 135.624Z" fill="#E97584"/>
<path fill-rule="evenodd" clip-rule="evenodd" d="M171.057 135.117C169.34 135.085 167.922 136.451 167.889 138.167C167.856 139.885 169.222 141.304 170.939 141.336C172.656 141.368 174.075 140.003 174.108 138.285C174.14 136.568 172.774 135.149 171.057 135.117Z" fill="#E97584"/>
<path fill-rule="evenodd" clip-rule="evenodd" d="M169.751 126.165C169.337 126.372 168.833 126.204 168.626 125.79C168.419 125.377 168.586 124.871 168.999 124.665C171.224 123.518 174.2 123.385 176.383 124.694C176.778 124.932 176.909 125.45 176.672 125.846C176.435 126.242 175.916 126.372 175.52 126.135C173.753 125.075 171.541 125.311 169.751 126.165Z" fill="#150D39"/>
<path fill-rule="evenodd" clip-rule="evenodd" d="M197.597 118.097C195.805 117.241 193.592 117.006 191.825 118.066C191.43 118.303 190.91 118.172 190.673 117.777C190.436 117.381 190.567 116.863 190.962 116.625C193.145 115.315 196.12 115.449 198.345 116.596C198.758 116.802 198.927 117.307 198.72 117.721C198.512 118.135 198.008 118.303 197.597 118.097Z" fill="#150D39"/>
<path fill-rule="evenodd" clip-rule="evenodd" d="M174.853 131.82C174.853 131.239 174.623 130.684 174.212 130.272C173.8 129.861 173.247 129.631 172.664 129.631C172.082 129.631 171.528 129.861 171.117 130.272C170.705 130.684 170.475 131.238 170.475 131.82C170.475 132.285 170.098 132.663 169.633 132.663C169.168 132.663 168.791 132.285 168.791 131.82C168.791 130.791 169.199 129.81 169.926 129.082C170.654 128.354 171.635 127.948 172.664 127.948C173.694 127.948 174.674 128.353 175.403 129.082C176.13 129.81 176.536 130.791 176.536 131.82C176.536 132.285 176.159 132.663 175.694 132.663C175.23 132.663 174.853 132.285 174.853 131.82Z" fill="#150D39"/>
<path fill-rule="evenodd" clip-rule="evenodd" d="M163.3 135.71C163.3 135.71 166.835 134.27 166.835 128.221V122.469C166.835 119.313 169.026 113.79 175.426 113.79H198.472C204.872 113.79 207.064 119.313 207.064 122.469V125.063C207.064 131.112 210.599 132.155 210.599 132.155C210.599 128.928 212.061 129.027 212.061 129.027V116.998C212.061 115.212 211.9 113.231 211.444 111.192C210.708 109.477 200.023 108.113 186.949 108.113C173.876 108.113 163.191 109.477 162.455 111.192H162.454C161.999 113.231 161.838 115.212 161.838 116.998V129.027C161.838 129.027 163.3 130.912 163.3 135.71Z" fill="#150D39"/>
<path fill-rule="evenodd" clip-rule="evenodd" d="M194.438 126.143C195.7 126.143 196.73 127.174 196.73 128.435V130.703C196.73 131.963 195.7 132.995 194.438 132.995C193.178 132.995 192.146 131.963 192.146 130.703V128.435C192.146 127.174 193.178 126.143 194.438 126.143Z" fill="#150D39"/>
<path fill-rule="evenodd" clip-rule="evenodd" d="M196.842 120.495C194.009 120.495 191.174 121.577 189.011 123.739C186.849 125.901 185.768 128.735 185.768 131.569C185.768 134.403 186.849 137.237 189.011 139.4C191.174 141.562 194.009 142.643 196.842 142.643C199.675 142.643 202.509 141.562 204.672 139.4C206.835 137.237 207.916 134.403 207.916 131.569C207.916 128.735 206.835 125.901 204.672 123.739C202.509 121.577 199.675 120.495 196.842 120.495ZM187.702 122.43C190.226 119.906 193.534 118.644 196.842 118.644C200.149 118.644 203.458 119.906 205.982 122.43C208.505 124.954 209.766 128.262 209.766 131.569C209.766 134.877 208.505 138.185 205.982 140.709C203.458 143.232 200.149 144.494 196.842 144.494C193.534 144.494 190.226 143.232 187.702 140.709C185.179 138.185 183.917 134.877 183.917 131.569C183.917 128.262 185.179 124.954 187.702 122.43Z" fill="#150D39"/>
<path fill-rule="evenodd" clip-rule="evenodd" d="M204.672 140.708C204.311 140.347 204.311 139.761 204.672 139.399C205.034 139.037 205.62 139.037 205.982 139.399L209.04 142.458C209.401 142.819 209.401 143.405 209.04 143.767C208.679 144.128 208.093 144.128 207.731 143.767L204.672 140.708Z" fill="#150D39"/>
<path fill-rule="evenodd" clip-rule="evenodd" d="M207.855 145.202C207.132 144.478 207.132 143.306 207.855 142.584C208.578 141.861 209.751 141.861 210.474 142.584L224.585 156.696C225.308 157.418 225.308 158.591 224.585 159.314C223.862 160.036 222.69 160.036 221.968 159.314L207.855 145.202Z" fill="#150D39"/>
<path fill-rule="evenodd" clip-rule="evenodd" d="M230.642 164.72C229.455 164.94 221.874 168.643 221.874 168.643C221.874 168.643 221.434 168.907 221.698 169.741C221.961 170.576 241.934 223.596 245.8 232.384C251.309 244.907 269.449 235.664 263.902 218.675C261.09 210.064 232.838 166.082 232.443 165.467C232.048 164.852 231.433 164.435 230.642 164.72Z" fill="#0076FB"/>
<path fill-rule="evenodd" clip-rule="evenodd" d="M180.558 133.711C179.978 134.509 178.967 135.961 178.885 136.5C178.768 137.26 180.463 137.698 181.632 137.376C182.462 137.149 182.333 135.291 182.09 134.123C181.822 132.837 181.471 132.453 180.558 133.711Z" fill="#F7DCE3"/>
<path fill-rule="evenodd" clip-rule="evenodd" d="M123.75 50.2778H4.934C2.22 50.2778 0 52.4978 0 55.2118V131.002C0 133.715 2.22 135.935 4.934 135.935H123.75C126.464 135.935 128.684 133.715 128.684 131.002V55.2118C128.684 52.4978 126.464 50.2778 123.75 50.2778Z" fill="#6EEFC7"/>
<path fill-rule="evenodd" clip-rule="evenodd" d="M105.246 135.935H123.75C126.464 135.935 128.683 133.714 128.683 131.001V57.2341H105.246V135.935Z" fill="#00E9B3"/>
<path fill-rule="evenodd" clip-rule="evenodd" d="M74.7759 74.7319H96.5559C97.5649 74.7319 98.3889 75.5559 98.3889 76.5649V85.8369C98.3889 86.8459 97.5649 87.6699 96.5559 87.6699H74.7759C73.7679 87.6699 72.9429 86.8459 72.9429 85.8369V76.5649C72.9429 75.5559 73.7679 74.7319 74.7759 74.7319Z" fill="#00E9B3"/>
<path fill-rule="evenodd" clip-rule="evenodd" d="M123.75 50.2778H4.934C2.22 50.2778 0 52.4978 0 55.2118V60.7378H128.684V55.2118C128.684 52.4978 126.464 50.2778 123.75 50.2778Z" fill="#00B770"/>
<path fill-rule="evenodd" clip-rule="evenodd" d="M123.159 57.0874C124.029 57.0874 124.738 56.3774 124.738 55.5084C124.738 54.6384 124.029 53.9294 123.159 53.9294C122.289 53.9294 121.58 54.6384 121.58 55.5084C121.58 56.3774 122.289 57.0874 123.159 57.0874Z" fill="white"/>
<path fill-rule="evenodd" clip-rule="evenodd" d="M117.385 57.0874C118.255 57.0874 118.964 56.3774 118.964 55.5084C118.964 54.6384 118.255 53.9294 117.385 53.9294C116.515 53.9294 115.806 54.6384 115.806 55.5084C115.806 56.3774 116.515 57.0874 117.385 57.0874Z" fill="white"/>
<path fill-rule="evenodd" clip-rule="evenodd" d="M111.612 57.0874C112.482 57.0874 113.191 56.3774 113.191 55.5084C113.191 54.6384 112.482 53.9294 111.612 53.9294C110.742 53.9294 110.033 54.6384 110.033 55.5084C110.033 56.3774 110.742 57.0874 111.612 57.0874Z" fill="white"/>
<path fill-rule="evenodd" clip-rule="evenodd" d="M123.824 81.0171H110.107C109.7 81.0171 109.366 81.3501 109.366 81.7561V81.7571C109.366 82.1631 109.7 82.4961 110.107 82.4961H123.824C124.231 82.4961 124.564 82.1631 124.564 81.7571V81.7561C124.564 81.3501 124.231 81.0171 123.824 81.0171Z" fill="white"/>
<path fill-rule="evenodd" clip-rule="evenodd" d="M123.823 84.2729H116.053C115.646 84.2729 115.312 84.6059 115.312 85.0129C115.312 85.4199 115.646 85.7529 116.053 85.7529H123.823C124.23 85.7529 124.564 85.4199 124.564 85.0129C124.564 84.6059 124.23 84.2729 123.823 84.2729Z" fill="white"/>
<path fill-rule="evenodd" clip-rule="evenodd" d="M123.824 90.8354H110.107C109.7 90.8354 109.366 91.1684 109.366 91.5754C109.366 91.9824 109.7 92.3154 110.107 92.3154H123.824C124.231 92.3154 124.564 91.9824 124.564 91.5754C124.564 91.1684 124.231 90.8354 123.824 90.8354Z" fill="white"/>
<path fill-rule="evenodd" clip-rule="evenodd" d="M123.823 94.0923H116.053C115.646 94.0923 115.312 94.4253 115.312 94.8313V94.8323C115.312 95.2393 115.646 95.5723 116.053 95.5723H123.823C124.23 95.5723 124.564 95.2393 124.564 94.8323V94.8313C124.564 94.4253 124.23 94.0923 123.823 94.0923Z" fill="white"/>
<path fill-rule="evenodd" clip-rule="evenodd" d="M113.413 94.0923H112.278C111.871 94.0923 111.538 94.4253 111.538 94.8313V94.8323C111.538 95.2393 111.871 95.5723 112.278 95.5723H113.413C113.82 95.5723 114.153 95.2393 114.153 94.8323V94.8313C114.153 94.4253 113.82 94.0923 113.413 94.0923Z" fill="white"/>
<path fill-rule="evenodd" clip-rule="evenodd" d="M123.824 103.074H116.842C116.435 103.074 116.102 102.741 116.102 102.334V102.333C116.102 101.927 116.435 101.594 116.842 101.594H123.824C124.231 101.594 124.564 101.927 124.564 102.333V102.334C124.564 102.741 124.231 103.074 123.824 103.074Z" fill="white"/>
<path fill-rule="evenodd" clip-rule="evenodd" d="M123.823 99.8169H114.178C113.771 99.8169 113.438 99.4839 113.438 99.0769C113.438 98.6699 113.771 98.3369 114.178 98.3369H123.823C124.23 98.3369 124.564 98.6699 124.564 99.0769C124.564 99.4839 124.23 99.8169 123.823 99.8169Z" fill="white"/>
<path fill-rule="evenodd" clip-rule="evenodd" d="M111.302 99.8169H109.637C109.23 99.8169 108.897 99.4839 108.897 99.0769C108.897 98.6699 109.23 98.3369 109.637 98.3369H111.302C111.709 98.3369 112.042 98.6699 112.042 99.0769C112.042 99.4839 111.709 99.8169 111.302 99.8169Z" fill="white"/>
<path fill-rule="evenodd" clip-rule="evenodd" d="M123.824 106.478H119.211C118.804 106.478 118.471 106.144 118.471 105.738V105.737C118.471 105.331 118.804 104.998 119.211 104.998H123.824C124.231 104.998 124.564 105.331 124.564 105.737V105.738C124.564 106.144 124.231 106.478 123.824 106.478Z" fill="white"/>
<path fill-rule="evenodd" clip-rule="evenodd" d="M123.824 109.734H113.586C113.179 109.734 112.846 109.401 112.846 108.995V108.994C112.846 108.588 113.179 108.255 113.586 108.255H123.824C124.231 108.255 124.564 108.588 124.564 108.994V108.995C124.564 109.401 124.231 109.734 123.824 109.734Z" fill="white"/>
<path fill-rule="evenodd" clip-rule="evenodd" d="M96.9091 64.1831H36.4321C35.6171 64.1831 34.9521 64.8491 34.9521 65.6631V65.6641C34.9521 66.4781 35.6171 67.1441 36.4321 67.1441H96.9091C97.7241 67.1441 98.3881 66.4781 98.3881 65.6641V65.6631C98.3881 64.8491 97.7241 64.1831 96.9091 64.1831Z" fill="#00E9B3"/>
<path fill-rule="evenodd" clip-rule="evenodd" d="M29.737 64.1831H9.33696C8.52196 64.1831 7.85596 64.8491 7.85596 65.6631V65.6641C7.85596 66.4781 8.52196 67.1441 9.33696 67.1441H29.737C30.55 67.1441 31.216 66.4781 31.216 65.6641V65.6631C31.216 64.8491 30.55 64.1831 29.737 64.1831Z" fill="#00E9B3"/>
<path fill-rule="evenodd" clip-rule="evenodd" d="M123.621 76.8599H112.235C111.716 76.8599 111.291 76.4349 111.291 75.9169V67.2719C111.291 66.7539 111.716 66.3289 112.235 66.3289H112.698V65.8899C112.698 65.7479 112.814 65.6309 112.957 65.6309H116.397C116.54 65.6309 116.657 65.7479 116.657 65.8899V66.3289H123.621C124.14 66.3289 124.564 66.7539 124.564 67.2719V75.9169C124.564 76.4349 124.14 76.8599 123.621 76.8599Z" fill="#F8B432"/>
<path fill-rule="evenodd" clip-rule="evenodd" d="M115.675 76.8599H122.87C123.293 76.8599 123.639 76.5139 123.639 76.0909V68.7479C123.639 68.3249 123.293 67.9789 122.87 67.9789H115.675C115.252 67.9789 114.907 68.3249 114.907 68.7479V76.0909C114.907 76.5139 115.252 76.8599 115.675 76.8599Z" fill="white"/>
<path fill-rule="evenodd" clip-rule="evenodd" d="M122.486 76.8599H111.972C111.454 76.8599 110.84 76.4349 110.61 75.9169L107.295 68.4769C107.064 67.9589 107.299 67.5339 107.818 67.5339H108.371L108.163 67.0669C108.079 66.8779 108.165 66.7229 108.353 66.7229H112.191C112.381 66.7229 112.604 66.8779 112.689 67.0669L112.897 67.5339H118.331C118.851 67.5339 119.464 67.9589 119.695 68.4769L123.008 75.9169C123.24 76.4349 123.005 76.8599 122.486 76.8599Z" fill="#FBC649"/>
<path fill-rule="evenodd" clip-rule="evenodd" d="M53.8452 72.9818C54.1362 73.1508 54.2362 73.5238 54.0672 73.8148C53.8982 74.1058 53.5252 74.2058 53.2332 74.0368C52.3072 73.5008 51.5332 72.7248 50.9962 71.7948C50.4772 70.8938 50.1802 69.8538 50.1802 68.7468C50.1802 67.0598 50.8642 65.5318 51.9702 64.4258C53.0762 63.3208 54.6032 62.6368 56.2902 62.6368C57.9782 62.6368 59.5052 63.3208 60.6112 64.4258C61.7172 65.5318 62.4012 67.0598 62.4012 68.7468C62.4012 69.0848 62.1272 69.3578 61.7892 69.3578C61.4522 69.3578 61.1782 69.0848 61.1782 68.7468C61.1782 67.3968 60.6312 66.1748 59.7472 65.2908C58.8632 64.4068 57.6402 63.8588 56.2902 63.8588C54.9412 63.8588 53.7192 64.4068 52.8342 65.2908C51.9492 66.1748 51.4032 67.3968 51.4032 68.7468C51.4032 69.6388 51.6392 70.4718 52.0522 71.1878C52.4802 71.9298 53.1002 72.5498 53.8452 72.9818Z" fill="#00CD9C"/>
<path fill-rule="evenodd" clip-rule="evenodd" d="M53.8791 78.1859C54.2061 78.2689 54.4041 78.6019 54.3211 78.9289C54.2381 79.2559 53.9051 79.4549 53.5791 79.3709C51.1811 78.7609 49.1001 77.3609 47.6281 75.4649C46.1861 73.6089 45.3281 71.2779 45.3281 68.7469C45.3281 67.0929 45.6941 65.5259 46.3501 64.1199C47.0311 62.6599 48.0251 61.3739 49.2461 60.3489C49.5041 60.1319 49.8891 60.1659 50.1061 60.4249C50.3221 60.6839 50.2881 61.0689 50.0291 61.2849C48.9461 62.1939 48.0641 63.3359 47.4581 64.6349C46.8761 65.8839 46.5511 67.2769 46.5511 68.7469C46.5511 70.9969 47.3131 73.0669 48.5921 74.7149C49.9011 76.4009 51.7511 77.6449 53.8791 78.1859ZM63.4791 62.1699C63.2521 61.9229 63.2691 61.5379 63.5161 61.3109C63.7651 61.0839 64.1501 61.1009 64.3761 61.3489C65.2861 62.3429 66.0151 63.5039 66.5111 64.7809C66.9901 66.0139 67.2531 67.3519 67.2531 68.7469C67.2531 69.6809 67.1351 70.5889 66.9151 71.4569C66.6891 72.3459 66.3501 73.1969 65.9161 73.9929C65.7551 74.2879 65.3851 74.3969 65.0901 74.2359C64.7941 74.0749 64.6851 73.7049 64.8461 73.4099C65.2281 72.7099 65.5271 71.9559 65.7311 71.1569C65.9261 70.3859 66.0301 69.5799 66.0301 68.7469C66.0301 67.4989 65.7971 66.3109 65.3741 65.2199C64.9331 64.0839 64.2851 63.0519 63.4791 62.1699Z" fill="#00CD9C"/>
<path fill-rule="evenodd" clip-rule="evenodd" d="M9.68896 74.7319H31.47C32.478 74.7319 33.303 75.5559 33.303 76.5649V85.8369C33.303 86.8459 32.478 87.6699 31.47 87.6699H9.68896C8.68096 87.6699 7.85596 86.8459 7.85596 85.8369V76.5649C7.85596 75.5559 8.68096 74.7319 9.68896 74.7319Z" fill="#00E9B3"/>
<path fill-rule="evenodd" clip-rule="evenodd" d="M10.6042 93.1206H45.1202C46.7182 93.1206 48.0252 94.4286 48.0252 96.0256V110.721C48.0252 112.318 46.7182 113.626 45.1202 113.626H10.6042C9.00622 113.626 7.69922 112.318 7.69922 110.721V96.0256C7.69922 94.4286 9.00622 93.1206 10.6042 93.1206Z" fill="#00E9B3"/>
<path fill-rule="evenodd" clip-rule="evenodd" d="M82.2544 93.2778H96.5564C97.5644 93.2778 98.3884 94.1018 98.3884 95.1108V104.383C98.3884 105.391 97.5644 106.216 96.5564 106.216H82.2544C81.2464 106.216 80.4214 105.391 80.4214 104.383V95.1108C80.4214 94.1018 81.2464 93.2778 82.2544 93.2778Z" fill="#00E9B3"/>
<path fill-rule="evenodd" clip-rule="evenodd" d="M9.51722 130.967H60.4412C61.4402 130.967 62.2582 130.149 62.2582 129.149V119.953C62.2582 118.953 61.4402 118.136 60.4412 118.136H9.51722C8.51722 118.136 7.69922 118.953 7.69922 119.953V129.149C7.69922 130.149 8.51722 130.967 9.51722 130.967Z" fill="#00E9B3"/>
<path fill-rule="evenodd" clip-rule="evenodd" d="M90.521 111.451H96.959C97.66 111.451 98.232 112.024 98.232 112.723V123.117C98.232 123.817 97.66 124.39 96.959 124.39H90.521C89.821 124.39 89.249 123.817 89.249 123.117V112.723C89.249 112.024 89.821 111.451 90.521 111.451Z" fill="#00E9B3"/>
<path fill-rule="evenodd" clip-rule="evenodd" d="M190.957 190.674C191.848 190.674 192.575 189.948 192.575 189.057C192.575 188.166 191.848 187.44 190.957 187.44C190.066 187.44 189.339 188.166 189.339 189.057C189.339 189.948 190.066 190.674 190.957 190.674Z" fill="white"/>
<path fill-rule="evenodd" clip-rule="evenodd" d="M190.957 189.791C191.361 189.791 191.691 189.461 191.691 189.057C191.691 188.653 191.361 188.323 190.957 188.323C190.553 188.323 190.223 188.653 190.223 189.057C190.223 189.461 190.553 189.791 190.957 189.791Z" fill="#DB4886"/>
<path fill-rule="evenodd" clip-rule="evenodd" d="M190.957 199.625C191.848 199.625 192.575 198.898 192.575 198.007C192.575 197.116 191.848 196.391 190.957 196.391C190.066 196.391 189.339 197.116 189.339 198.007C189.339 198.898 190.066 199.625 190.957 199.625Z" fill="white"/>
<path fill-rule="evenodd" clip-rule="evenodd" d="M190.957 198.74C191.361 198.74 191.691 198.412 191.691 198.007C191.691 197.603 191.361 197.273 190.957 197.273C190.553 197.273 190.223 197.603 190.223 198.007C190.223 198.412 190.553 198.74 190.957 198.74Z" fill="#DB4886"/>
<path fill-rule="evenodd" clip-rule="evenodd" d="M190.957 208.574C191.848 208.574 192.575 207.847 192.575 206.956C192.575 206.066 191.848 205.34 190.957 205.34C190.066 205.34 189.339 206.066 189.339 206.956C189.339 207.847 190.066 208.574 190.957 208.574Z" fill="white"/>
<path fill-rule="evenodd" clip-rule="evenodd" d="M190.957 207.69C191.361 207.69 191.691 207.361 191.691 206.956C191.691 206.553 191.361 206.223 190.957 206.223C190.553 206.223 190.223 206.553 190.223 206.956C190.223 207.361 190.553 207.69 190.957 207.69Z" fill="#DB4886"/>
<path fill-rule="evenodd" clip-rule="evenodd" d="M189.507 126.291C189.311 126.564 188.93 126.626 188.657 126.43C188.384 126.233 188.322 125.854 188.518 125.58C188.682 125.353 188.852 125.136 189.029 124.928L189.059 124.896C189.243 124.681 189.42 124.488 189.59 124.318C189.829 124.08 190.216 124.08 190.454 124.318C190.693 124.557 190.693 124.944 190.454 125.183C190.275 125.362 190.117 125.53 189.982 125.687L189.956 125.72C189.795 125.91 189.645 126.101 189.507 126.291ZM190.454 137.957C190.693 138.195 190.693 138.582 190.454 138.821C190.216 139.06 189.829 139.06 189.59 138.821C188.611 137.842 187.87 136.709 187.368 135.496C186.847 134.239 186.587 132.902 186.587 131.569C186.587 130.948 186.645 130.319 186.761 129.693C186.874 129.08 187.045 128.474 187.273 127.883C187.393 127.568 187.745 127.411 188.059 127.531C188.372 127.651 188.529 128.003 188.409 128.316C188.21 128.834 188.06 129.368 187.96 129.913C187.86 130.453 187.809 131.008 187.809 131.569C187.809 132.751 188.038 133.93 188.495 135.033C188.934 136.093 189.587 137.089 190.454 137.957ZM204.446 136.451C204.628 136.168 205.006 136.085 205.288 136.268C205.572 136.449 205.654 136.826 205.472 137.11C205.277 137.414 205.063 137.711 204.83 137.999C204.595 138.29 204.35 138.564 204.093 138.821C203.855 139.06 203.468 139.06 203.229 138.821C202.99 138.582 202.99 138.195 203.229 137.957C203.468 137.718 203.685 137.478 203.88 137.235C204.084 136.982 204.272 136.722 204.446 136.451ZM203.229 125.183C202.99 124.944 202.99 124.557 203.229 124.318C203.468 124.08 203.855 124.08 204.093 124.318C205.073 125.298 205.814 126.431 206.316 127.643C206.835 128.896 207.094 130.232 207.094 131.569H207.097C207.097 132.525 206.964 133.482 206.697 134.409C206.604 134.734 206.267 134.922 205.943 134.83C205.618 134.737 205.43 134.399 205.522 134.075C205.757 133.259 205.874 132.414 205.874 131.569H205.877C205.877 130.393 205.648 129.213 205.189 128.106C204.75 127.046 204.097 126.05 203.229 125.183Z" fill="white"/>
<path fill-rule="evenodd" clip-rule="evenodd" d="M212.284 140.978C208.984 144.212 206.365 146.218 207.011 148.741C207.659 151.265 210.084 150.1 210.084 150.1C210.066 151.863 210.602 152.631 211.539 152.82C213.102 153.135 213.934 152.077 213.513 153.4C213.02 154.948 213.833 156.111 214.958 156.533C215.741 156.825 217.536 155.24 217.233 156.117C216.651 157.798 217.654 159.643 219.141 159.643C220.629 159.643 221.632 158.801 221.244 158.737C220.856 158.672 220.533 157.605 220.533 157.605C220.533 157.605 222.764 155.146 223.67 155.729C224.576 156.311 224.77 156.893 224.77 156.893L227.164 160.386C230.997 160.846 229.743 149.76 229.687 149.712C228.781 148.935 219.983 141.042 219.983 141.042C219.983 141.042 216.748 136.58 212.284 140.978Z" fill="#F2A9B7"/>
<path fill-rule="evenodd" clip-rule="evenodd" d="M71.2172 86.1177C71.0312 85.6917 69.3062 85.7607 68.1992 85.4007C67.0542 85.0307 66.5242 84.2307 66.2732 83.6217C63.8822 77.8267 60.4262 69.2047 58.9252 68.1327C57.1142 66.8397 54.7852 68.9087 55.8202 73.0497C56.8552 77.1897 59.1842 82.8837 59.1842 82.8837L61.6422 94.6567L68.6302 87.7997L71.2172 86.1177Z" fill="#00CD9C"/>
<path fill-rule="evenodd" clip-rule="evenodd" d="M75.4033 135.935H95.8553C90.1333 129.434 82.6923 117.524 70.7713 100.263C73.5353 91.955 71.8943 86.845 73.9473 81.58C75.6303 77.261 73.7663 75.26 71.0233 77.6C67.1503 80.904 67.0883 84.206 62.5493 87.799C62.5493 87.799 46.1973 88.034 48.5733 93.565C53.0493 103.979 56.9663 102.068 59.6293 107.135C60.1253 108.081 67.7273 123.271 75.4033 135.935Z" fill="#00CD9C"/>
<path fill-rule="evenodd" clip-rule="evenodd" d="M46.2098 90.7339C43.1898 94.0229 52.5988 101.133 53.5478 98.3039C54.6118 95.1309 49.9788 86.6289 46.2098 90.7339Z" fill="#00CD9C"/>
<path fill-rule="evenodd" clip-rule="evenodd" d="M53.6339 85.2368C52.8229 84.4008 50.9229 84.6658 50.1079 85.0498C45.0329 87.4428 54.2689 97.6898 56.3259 96.2688C58.1529 95.0078 56.8819 92.0948 55.7419 89.5078C54.7479 87.2538 54.9259 85.1528 53.6339 85.2368Z" fill="#00CD9C"/>
<path fill-rule="evenodd" clip-rule="evenodd" d="M56.3018 92.7396C59.0868 95.8986 62.0948 93.8346 61.6518 91.2376C61.2898 89.1186 60.3138 85.2346 59.2518 83.3336C57.0448 79.3796 49.2158 84.7036 56.3018 92.7396Z" fill="#00CD9C"/>
</svg>
