<svg width="290" height="290" viewBox="0 0 290 290" fill="none" xmlns="http://www.w3.org/2000/svg">
<mask id="mask0" mask-type="alpha" maskUnits="userSpaceOnUse" x="0" y="0" width="290" height="290">
<path fill-rule="evenodd" clip-rule="evenodd" d="M0 0H290V290H0V0Z" fill="white"/>
</mask>
<g mask="url(#mask0)">
<path fill-rule="evenodd" clip-rule="evenodd" d="M290 145C290 180.25 277.43 212.54 256.52 237.67L256.51 237.68C251.86 243.29 246.78 248.54 241.33 253.38C238.11 256.24 234.76 258.97 231.29 261.54C229.35 262.98 227.38 264.37 225.37 265.71C223.3 267.08 221.2 268.41 219.07 269.68C216.61 271.14 214.12 272.53 211.57 273.84C208.83 275.27 206.03 276.61 203.18 277.86C202.89 277.99 202.59 278.11 202.3 278.24C201.91 278.41 201.51 278.58 201.11 278.74C200.02 279.2 198.92 279.65 197.82 280.07C194.54 281.36 191.21 282.53 187.83 283.57C181.67 285.47 175.33 286.98 168.85 288.05C164.48 288.771 160.05 289.3 155.56 289.62C153.47 289.771 151.37 289.88 149.26 289.93C147.85 289.98 146.43 290 145 290C127.03 290 109.82 286.73 93.94 280.75C92.22 280.11 90.5 279.42 88.81 278.71C88.71 278.67 88.61 278.63 88.51 278.58C86.04 277.54 83.61 276.43 81.22 275.25C79.22 274.27 77.25 273.25 75.3 272.18C74.67 271.83 74.05 271.49 73.43 271.12C70.28 269.34 67.21 267.44 64.21 265.42C63.86 265.18 63.5 264.94 63.15 264.69C60.01 262.56 56.97 260.29 54.02 257.91C45.96 251.41 38.61 244.05 32.1 235.99C32.01 235.88 31.91 235.76 31.81 235.64C26.88 229.49 22.44 222.93 18.55 216.01C17.39 213.96 16.29 211.88 15.24 209.77C15.12 209.55 15.01 209.32 14.9 209.09C14.03 207.34 13.2 205.56 12.4 203.76C4.43 185.8 0 165.92 0 145C0 64.9199 64.92 -0.00012207 145 -0.00012207C225.08 -0.00012207 290 64.9199 290 145Z" fill="#F2F8FF"/>
</g>
<path fill-rule="evenodd" clip-rule="evenodd" d="M92.8457 74.0126C92.8457 88.8016 80.7057 100.791 65.7297 100.791C50.7547 100.791 38.6147 88.8016 38.6147 74.0126C38.6147 59.2226 50.7547 47.2336 65.7297 47.2336C80.7057 47.2336 92.8457 59.2226 92.8457 74.0126Z" fill="#CDD4E7"/>
<path fill-rule="evenodd" clip-rule="evenodd" d="M92.8457 70.5262C92.8457 85.3162 80.7057 97.3052 65.7297 97.3052C50.7547 97.3052 38.6147 85.3162 38.6147 70.5262C38.6147 55.7362 50.7547 43.7482 65.7297 43.7482C80.7057 43.7482 92.8457 55.7362 92.8457 70.5262Z" fill="#0076FB"/>
<path fill-rule="evenodd" clip-rule="evenodd" d="M65.73 92.2963C53.575 92.2963 43.686 82.5303 43.686 70.5263C43.686 58.5223 53.575 48.7563 65.73 48.7563C77.885 48.7563 87.774 58.5223 87.774 70.5263C87.774 82.5303 77.885 92.2963 65.73 92.2963Z" fill="white"/>
<path fill-rule="evenodd" clip-rule="evenodd" d="M87.774 70.5267C87.774 71.1067 87.751 71.6807 87.706 72.2467C86.815 61.0427 77.297 52.1947 65.731 52.1947C54.161 52.1947 44.647 61.0427 43.755 72.2467C43.71 71.6807 43.687 71.1067 43.687 70.5267C43.687 58.5217 53.574 48.7567 65.731 48.7567C77.885 48.7567 87.774 58.5217 87.774 70.5267Z" fill="#CDD4E7"/>
<path fill-rule="evenodd" clip-rule="evenodd" d="M65.7306 72.7914C65.5606 72.7914 65.3946 72.7134 65.2876 72.5714L54.4736 58.1934C54.2926 57.9524 54.3436 57.6104 54.5876 57.4314C54.8316 57.2514 55.1776 57.3024 55.3596 57.5444L65.9116 71.5734L77.9036 66.3754C78.1816 66.2544 78.5076 66.3794 78.6296 66.6554C78.7516 66.9314 78.6256 67.2524 78.3466 67.3734L65.9526 72.7454C65.8806 72.7764 65.8056 72.7914 65.7306 72.7914Z" fill="#363638"/>
<path fill-rule="evenodd" clip-rule="evenodd" d="M225.37 265.71C223.3 267.08 221.2 268.41 219.07 269.68C216.61 271.14 214.12 272.53 211.57 273.84C208.83 275.27 206.03 276.61 203.18 277.86C182.9 278.61 158.93 279.04 133.25 279.04C117.55 279.04 102.48 278.88 88.5099 278.58C86.0399 277.54 83.6099 276.43 81.2199 275.25C79.2199 274.27 77.2499 273.25 75.2999 272.18C74.6699 271.83 74.0499 271.49 73.4299 271.12C70.2799 269.34 67.2099 267.44 64.2099 265.42C63.8599 265.18 63.4999 264.94 63.1499 264.69C68.0699 264.5 73.2099 264.34 78.5399 264.2C93.9199 263.78 110.89 263.54 128.75 263.51H128.76C130.25 263.5 131.74 263.5 133.25 263.5C169.08 263.5 201.58 264.34 225.37 265.71Z" fill="#CDD4E7"/>
<path fill-rule="evenodd" clip-rule="evenodd" d="M256.52 237.67L256.51 237.68C251.86 243.29 246.78 248.54 241.33 253.38C238.11 256.24 234.76 258.97 231.29 261.54C229.35 262.98 227.38 264.37 225.37 265.71C223.3 267.08 221.2 268.41 219.07 269.68C216.61 271.14 214.12 272.53 211.57 273.84C203.98 274.86 195.18 275.26 185.02 274.9C165.84 274.22 146.35 272.65 128.76 263.51H128.75C108.52 253 90.8202 232.48 79.0102 191.81C78.9202 191.49 78.8302 191.18 78.7502 190.87C78.0702 188.46 77.5202 186.12 77.0902 183.85C73.5202 165.13 77.5802 150.53 83.9202 139.2C85.7002 136.01 87.6602 133.09 89.6802 130.4V130.39C90.4402 129.38 91.2102 128.4 91.9802 127.45C99.7502 117.92 110.05 111.34 121.33 108.07C124.29 107.2 127.31 106.57 130.37 106.17C130.95 106.09 131.53 106.02 132.12 105.97C137.05 105.46 142.08 105.56 147.07 106.3C149.29 106.61 151.5 107.06 153.7 107.64C154.07 107.74 154.45 107.84 154.82 107.95C155.66 108.18 156.49 108.44 157.32 108.72C157.63 108.81 157.94 108.92 158.24 109.03C158.53 109.12 158.81 109.23 159.1 109.33C159.2 109.37 159.3 109.4 159.4 109.44C160.42 109.81 161.46 110.2 162.53 110.6C169.18 113.11 176.57 116.14 184.12 119.68C185.12 120.15 186.13 120.63 187.14 121.12C188.07 121.56 189 122.02 189.93 122.49C190.33 122.69 190.73 122.89 191.14 123.11C191.92 123.49 192.69 123.9 193.47 124.3C193.88 124.51 194.28 124.73 194.69 124.95C196.36 125.83 198.03 126.74 199.68 127.68C201.53 128.72 203.35 129.8 205.15 130.9C205.47 131.1 205.8 131.3 206.11 131.5C209.92 133.87 213.36 136.29 216.48 138.79C219.36 141.08 221.97 143.43 224.36 145.86C226.41 147.95 228.3 150.1 230.04 152.31C231.44 154.09 232.74 155.91 233.97 157.78C234.19 158.11 234.41 158.45 234.62 158.79C234.67 158.86 234.71 158.93 234.76 159C240.05 167.39 243.88 176.83 247.41 187.85C249.43 194.15 251.34 200.97 253.37 208.42C254.24 211.6 255.1 215.16 255.76 218.95C256.11 220.97 256.4 223.05 256.6 225.18C256.99 229.26 257.03 233.49 256.52 237.67Z" fill="#363638"/>
<path fill-rule="evenodd" clip-rule="evenodd" d="M256.602 225.179C255.231 229.028 253.281 232.946 250.681 236.669C242.879 247.846 226.635 261.352 193.548 262.224C192.092 262.263 190.654 262.281 189.236 262.281C176.595 262.281 165.446 260.756 155.259 257.644C144.603 254.389 135.299 249.479 126.816 242.634C112.643 231.198 100.961 214.468 88.9471 188.389C84.2001 178.09 81.7411 167.65 81.6341 157.363C81.5701 151.229 82.3351 145.144 83.9191 139.2C85.7001 136.013 87.6601 133.086 89.6791 130.397C89.1671 131.579 88.6711 132.815 88.2001 134.105C83.8781 145.958 80.9021 164.812 91.2701 187.318C112.359 233.089 136.814 261.15 193.481 259.666C225.498 258.824 241.118 245.899 248.58 235.202C252.477 229.619 254.683 223.969 255.758 218.946C256.111 220.97 256.403 223.055 256.602 225.179Z" fill="#575759"/>
<path fill-rule="evenodd" clip-rule="evenodd" d="M197.588 84.889C197.588 84.889 223.489 120.032 229.399 137.534C235.308 155.036 220.966 167.474 220.966 167.474L207.65 172.47C207.65 172.47 193.962 110.661 197.588 84.889Z" fill="#004ECB"/>
<path fill-rule="evenodd" clip-rule="evenodd" d="M195.304 183.324C183.982 187.077 156.327 196.916 144.31 192.932C143.804 192.763 143.325 192.572 142.876 192.351C141.566 191.715 140.513 190.854 139.777 189.735C135.066 182.561 130.394 152.478 132.493 134.791C132.756 132.583 132.883 130.183 132.927 127.664C132.988 123.957 132.865 119.989 132.708 115.994C132.115 100.973 129.749 90.6011 136.174 86.9531C141.942 83.6761 149.239 81.1151 153.892 80.0021C156.775 79.3121 161.492 77.8691 164.799 77.9351L179.123 80.5381C179.123 80.5381 191.485 82.6001 194.338 84.7061C197.189 86.8091 198.647 96.0781 203.8 104.57C208.953 113.061 210.072 121.575 205.152 130.896C200.869 139.002 201.624 135.928 201.063 149.23C200.375 165.528 217.408 175.999 195.304 183.324Z" fill="white"/>
<path fill-rule="evenodd" clip-rule="evenodd" d="M157.28 106.957C157.28 106.957 172.801 102.943 192.606 106.643L193.085 120.335C193.085 120.335 171.304 117.914 157.587 121.405L157.28 106.957Z" fill="#CDD4E7"/>
<path fill-rule="evenodd" clip-rule="evenodd" d="M175.113 95.3915C174.905 95.3915 174.692 95.3865 174.474 95.3745C165.993 94.9375 158.219 87.4525 157.892 87.1335C157.662 86.9105 157.658 86.5425 157.882 86.3125C158.105 86.0825 158.473 86.0785 158.703 86.3015C158.78 86.3765 166.495 93.8005 174.534 94.2145C182.239 94.6205 183.167 86.9795 183.203 86.6555C183.238 86.3365 183.526 86.1065 183.843 86.1415C184.162 86.1755 184.392 86.4615 184.358 86.7805C184.348 86.8685 183.333 95.3915 175.113 95.3915Z" fill="#CDD4E7"/>
<path fill-rule="evenodd" clip-rule="evenodd" d="M151.073 163.93C151.012 163.885 150.959 163.827 150.917 163.758C150.744 163.472 150.836 163.1 151.121 162.927C162.15 156.252 172.731 153.897 179.666 153.097C187.194 152.227 192.046 152.931 192.248 152.961C192.579 153.011 192.806 153.319 192.757 153.649C192.708 153.979 192.4 154.207 192.07 154.158C192.021 154.151 187.139 153.446 179.759 154.304C172.955 155.094 162.572 157.41 151.748 163.962C151.531 164.093 151.264 164.073 151.073 163.93Z" fill="#CDD4E7"/>
<path fill-rule="evenodd" clip-rule="evenodd" d="M165.489 188.771C155.297 185.543 146.082 179.041 139.786 173.247C139.289 172.788 138.809 172.333 138.347 171.885C135.088 168.719 132.79 170.347 131.792 168.522C127.982 161.548 130.144 134.199 131.792 124.155C133.438 114.113 126.508 95.7114 130.238 89.1314C133.965 82.5484 146.814 80.2554 146.814 80.2554C146.814 80.2554 144.996 78.1344 148.447 75.7094C151.899 73.2844 161.079 74.2884 161.079 74.2884C161.515 117.759 167.674 158.137 165.489 188.771Z" fill="#0076FB"/>
<path fill-rule="evenodd" clip-rule="evenodd" d="M155.471 176.31C155.195 176.31 154.953 176.109 154.91 175.828C150.272 145.675 154.859 88.9604 154.905 88.3914C154.931 88.0784 155.205 87.8464 155.518 87.8714C155.831 87.8974 156.064 88.1714 156.038 88.4844C155.991 89.0524 151.416 145.635 156.033 175.655C156.081 175.965 155.868 176.255 155.558 176.303C155.529 176.308 155.5 176.31 155.471 176.31Z" fill="white"/>
<path fill-rule="evenodd" clip-rule="evenodd" d="M164.799 180.834C164.528 180.834 164.288 180.64 164.24 180.364C158.174 145.729 157.691 85.9764 157.687 85.3764C157.685 85.0634 157.937 84.8064 158.251 84.8044H158.256C158.567 84.8044 158.821 85.0564 158.823 85.3684C158.828 85.9674 159.311 145.626 165.36 180.167C165.413 180.477 165.207 180.771 164.898 180.825C164.864 180.831 164.832 180.834 164.799 180.834Z" fill="#004ECB"/>
<path fill-rule="evenodd" clip-rule="evenodd" d="M154.732 85.0287C154.683 85.0287 154.634 85.0227 154.585 85.0087C149.782 83.7297 146.843 80.8947 146.72 80.7757C146.495 80.5557 146.491 80.1957 146.711 79.9717C146.93 79.7467 147.29 79.7427 147.514 79.9617C147.542 79.9887 150.376 82.7117 154.878 83.9107C155.181 83.9917 155.361 84.3027 155.281 84.6067C155.213 84.8607 154.983 85.0287 154.732 85.0287Z" fill="#004ECB"/>
<path fill-rule="evenodd" clip-rule="evenodd" d="M209.637 169.794C209.637 169.794 206.003 182.027 192.483 187.853C190.808 154.694 186.998 116.827 182.091 76.5433C182.091 76.5433 187.258 75.6343 189.414 78.5893C190.343 79.8603 190.543 82.0173 190.543 82.0173C190.543 82.0173 193.183 82.5283 196.076 83.8763C198.97 85.2213 198.638 87.0743 199.329 91.7723C200.02 96.4683 207.276 103.741 209.637 113.592C212.001 123.441 205.739 129.724 203.784 137.988C201.829 146.252 209.637 169.794 209.637 169.794Z" fill="#0076FB"/>
<path fill-rule="evenodd" clip-rule="evenodd" d="M198.031 174.924C197.725 174.924 197.472 174.68 197.463 174.372C196.156 129.262 187.917 88.9542 187.834 88.5522C187.771 88.2452 187.968 87.9452 188.276 87.8812C188.582 87.8172 188.884 88.0152 188.947 88.3222C189.03 88.7252 197.289 129.125 198.599 174.34C198.609 174.653 198.362 174.915 198.048 174.924H198.031Z" fill="white"/>
<path fill-rule="evenodd" clip-rule="evenodd" d="M185.587 86.2787C185.315 86.2787 185.075 86.0827 185.027 85.8057C184.975 85.4967 185.183 85.2027 185.491 85.1507C185.53 85.1437 189.167 84.4847 190.002 81.8457C190.097 81.5467 190.417 81.3807 190.715 81.4757C191.015 81.5707 191.18 81.8897 191.086 82.1887C190.04 85.4937 185.86 86.2397 185.683 86.2707C185.65 86.2757 185.618 86.2787 185.587 86.2787Z" fill="#004ECB"/>
<path fill-rule="evenodd" clip-rule="evenodd" d="M196.707 174.924C196.423 174.924 196.178 174.713 196.143 174.424C192.144 141.168 185.824 88.0151 185.761 87.4821C185.724 87.1701 185.947 86.8871 186.258 86.8501C186.567 86.8121 186.853 87.0361 186.89 87.3481C186.953 87.8811 193.272 141.033 197.272 174.288C197.309 174.6 197.087 174.882 196.775 174.92C196.752 174.923 196.729 174.924 196.707 174.924Z" fill="#004ECB"/>
<path fill-rule="evenodd" clip-rule="evenodd" d="M163.118 198.805C164.843 200.043 167.573 201.332 171.657 202.631C194.855 210.013 216.126 198.097 216.126 198.097C217.412 191.744 216.617 184.525 214.476 181.883C215.149 180.944 214.703 179.822 214.703 179.822L236.053 157.659C223.912 167.72 208.894 171.013 197.203 178.078H197.198C193.829 180.114 190.8 181.907 188.58 183.153C185.194 185.055 180.87 185.242 176.634 184.658C168.377 183.516 160.457 179.449 160.457 179.449C160.457 179.449 133.869 167.397 128.884 167.8C125.008 168.11 145.865 189.888 163.118 198.805Z" fill="#00B770"/>
<path fill-rule="evenodd" clip-rule="evenodd" d="M204.21 217.379C204.21 217.379 197.366 215.413 195.265 213.191L190.509 224.387L206.698 229.44C206.698 229.44 206.923 219.604 204.21 217.379Z" fill="#FF9C79"/>
<path fill-rule="evenodd" clip-rule="evenodd" d="M243.278 249.734L222.351 203.284C221.568 203.221 220.593 203.435 219.496 203.836C215.436 205.315 209.73 209.393 206.053 211.788C205.625 212.07 205.222 212.328 204.855 212.554C204.232 212.937 203.706 213.237 203.302 213.42C200.075 214.873 201.775 216.614 201.775 216.614C207.792 219.623 204.128 228.541 207.795 230.627C207.795 230.627 209.357 231.533 214.337 233.727C219.315 235.917 224.331 241.204 228.971 245.537C234.957 251.131 238.716 251.79 240.87 251.278C242.576 250.872 243.278 249.734 243.278 249.734Z" fill="#FEB205"/>
<path fill-rule="evenodd" clip-rule="evenodd" d="M243.278 249.734L222.351 203.284C221.568 203.221 220.593 203.435 219.496 203.836L240.87 251.278C242.576 250.872 243.278 249.734 243.278 249.734Z" fill="#DD7F21"/>
<path fill-rule="evenodd" clip-rule="evenodd" d="M224.487 208.023L223.865 206.644C222.912 208.73 221.079 211.105 217.552 212.491C212.862 214.335 208.527 212.975 206.053 211.788C205.625 212.07 205.222 212.328 204.855 212.554C207.361 213.906 212.377 215.827 217.995 213.622C221.363 212.297 223.334 210.109 224.487 208.023Z" fill="#DD7F21"/>
<path fill-rule="evenodd" clip-rule="evenodd" d="M216.722 231.704C216.567 231.36 216.194 231.153 215.806 231.224C215.35 231.307 215.048 231.744 215.131 232.2L215.718 235.426C215.8 235.882 216.238 236.184 216.694 236.101C217.15 236.019 217.452 235.581 217.369 235.125L216.783 231.899C216.77 231.83 216.749 231.765 216.722 231.704Z" fill="white"/>
<path fill-rule="evenodd" clip-rule="evenodd" d="M213.008 229.909C212.853 229.565 212.48 229.358 212.092 229.429C211.636 229.511 211.333 229.948 211.417 230.405L212.004 233.631C212.086 234.087 212.524 234.389 212.98 234.306C213.436 234.223 213.739 233.786 213.655 233.33L213.069 230.104C213.056 230.035 213.035 229.97 213.008 229.909Z" fill="white"/>
<path fill-rule="evenodd" clip-rule="evenodd" d="M219.716 233.846C219.562 233.503 219.188 233.295 218.8 233.366C218.344 233.449 218.042 233.886 218.125 234.342L218.712 237.568C218.794 238.025 219.232 238.327 219.688 238.244C220.144 238.161 220.447 237.724 220.363 237.267L219.777 234.041C219.764 233.972 219.744 233.907 219.716 233.846Z" fill="white"/>
<path fill-rule="evenodd" clip-rule="evenodd" d="M222.645 236.017C222.49 235.673 222.117 235.466 221.729 235.537C221.273 235.619 220.971 236.057 221.054 236.513L221.641 239.739C221.723 240.196 222.161 240.497 222.617 240.414C223.073 240.332 223.376 239.894 223.292 239.438L222.706 236.212C222.693 236.143 222.673 236.078 222.645 236.017Z" fill="white"/>
<path fill-rule="evenodd" clip-rule="evenodd" d="M225.57 238.505C225.416 238.161 225.042 237.954 224.654 238.024C224.198 238.107 223.896 238.545 223.979 239.001L224.566 242.227C224.649 242.683 225.086 242.985 225.542 242.902C225.998 242.819 226.301 242.382 226.217 241.926L225.631 238.7C225.618 238.631 225.598 238.566 225.57 238.505Z" fill="white"/>
<path fill-rule="evenodd" clip-rule="evenodd" d="M228.394 241.36C228.239 241.016 227.866 240.809 227.478 240.88C227.022 240.962 226.72 241.4 226.803 241.856L227.39 245.082C227.472 245.538 227.91 245.84 228.366 245.757C228.822 245.674 229.124 245.237 229.041 244.781L228.455 241.555C228.442 241.486 228.421 241.421 228.394 241.36Z" fill="white"/>
<path fill-rule="evenodd" clip-rule="evenodd" d="M128.884 167.8C128.884 167.8 112.057 158.719 102.31 165.738C84.4861 178.574 114.729 203.268 149.326 215.326C183.922 227.384 195.155 225.74 195.155 225.74C195.155 225.74 202.672 223.672 200.005 211.489C200.005 211.489 180.062 203.907 169.686 195.966C159.309 188.023 152.236 178.291 128.884 167.8Z" fill="#00B770"/>
<path fill-rule="evenodd" clip-rule="evenodd" d="M198.659 215.032C191.403 213.288 176.617 206.506 159.106 196.89C146.011 189.699 130.906 180.507 128.69 177.32C127.492 175.598 127.191 174.189 127.793 173.134C128.694 171.553 131.289 171.39 132.471 171.402C132.776 171.405 133.015 171.663 132.993 171.967C132.973 172.243 132.744 172.456 132.468 172.454C131.305 172.447 129.282 172.645 128.706 173.656C128.229 174.494 128.904 175.784 129.554 176.719C131.341 179.29 143.983 187.386 159.613 195.969C173.072 203.36 190.462 211.98 198.905 214.01L198.659 215.032Z" fill="#007D55"/>
<path fill-rule="evenodd" clip-rule="evenodd" d="M197.293 209.871C196.476 216.275 194.816 222.095 191.199 226.558C191.199 226.558 194.296 228.788 197.125 227.189C199.286 225.967 203.453 215.965 201.864 210.626C200.057 209.639 198.497 209.295 197.293 209.871Z" fill="#007D55"/>
<path fill-rule="evenodd" clip-rule="evenodd" d="M153.388 216.113C153.388 216.113 160.266 214.785 162.215 212.428L167.707 223.281L151.893 229.404C151.893 229.404 150.83 218.514 153.388 216.113Z" fill="#FF9C79"/>
<path fill-rule="evenodd" clip-rule="evenodd" d="M116.75 252.097L134.527 204.353C135.305 204.238 136.292 204.385 137.413 204.712C141.562 205.917 147.528 209.605 151.357 211.749C151.803 212.002 152.222 212.232 152.604 212.433C153.25 212.774 153.795 213.038 154.21 213.193C157.527 214.428 156.146 215.361 156.146 215.361C149.61 218.428 154.397 228.335 150.877 230.662C150.877 230.662 149.379 231.67 144.557 234.192C139.736 236.71 135.085 242.32 130.745 246.953C125.146 252.935 121.439 253.843 119.255 253.477C117.526 253.185 116.75 252.097 116.75 252.097Z" fill="#FEB205"/>
<path fill-rule="evenodd" clip-rule="evenodd" d="M116.75 252.097L134.527 204.353C135.305 204.238 136.292 204.385 137.413 204.712L119.255 253.477C117.526 253.185 116.75 252.097 116.75 252.097Z" fill="#DD7F21"/>
<path fill-rule="evenodd" clip-rule="evenodd" d="M132.713 209.224L133.241 207.806C134.331 209.823 136.319 212.071 139.93 213.219C144.734 214.745 148.968 213.099 151.357 211.749C151.803 212.002 152.222 212.232 152.604 212.433C150.194 213.95 145.317 216.202 139.564 214.376C136.115 213.28 134.002 211.228 132.713 209.224Z" fill="#DD7F21"/>
<path fill-rule="evenodd" clip-rule="evenodd" d="M142.042 232.333C142.173 231.979 142.533 231.748 142.924 231.792C143.384 231.845 143.715 232.26 143.663 232.721L143.293 235.979C143.241 236.44 142.825 236.771 142.364 236.719C141.903 236.666 141.572 236.25 141.625 235.79L141.995 232.532C142.002 232.462 142.019 232.395 142.042 232.333Z" fill="white"/>
<path fill-rule="evenodd" clip-rule="evenodd" d="M145.629 230.294C145.761 229.94 146.12 229.709 146.511 229.753C146.971 229.805 147.303 230.221 147.25 230.682L146.88 233.94C146.829 234.4 146.412 234.732 145.951 234.68C145.491 234.627 145.159 234.211 145.212 233.751L145.582 230.493C145.59 230.423 145.606 230.356 145.629 230.294Z" fill="white"/>
<path fill-rule="evenodd" clip-rule="evenodd" d="M139.198 234.67C139.329 234.317 139.689 234.085 140.08 234.129C140.54 234.182 140.871 234.598 140.819 235.058L140.449 238.316C140.397 238.777 139.981 239.108 139.52 239.056C139.06 239.004 138.728 238.588 138.781 238.127L139.151 234.869C139.158 234.799 139.175 234.732 139.198 234.67Z" fill="white"/>
<path fill-rule="evenodd" clip-rule="evenodd" d="M136.421 237.032C136.552 236.679 136.912 236.447 137.303 236.491C137.763 236.544 138.094 236.96 138.042 237.42L137.671 240.678C137.62 241.14 137.203 241.47 136.743 241.418C136.282 241.366 135.951 240.95 136.004 240.489L136.374 237.231C136.381 237.161 136.398 237.095 136.421 237.032Z" fill="white"/>
<path fill-rule="evenodd" clip-rule="evenodd" d="M133.669 239.71C133.8 239.357 134.159 239.125 134.55 239.169C135.011 239.222 135.342 239.638 135.29 240.098L134.919 243.356C134.867 243.817 134.452 244.148 133.991 244.096C133.53 244.043 133.199 243.627 133.252 243.167L133.622 239.909C133.629 239.839 133.646 239.772 133.669 239.71Z" fill="white"/>
<path fill-rule="evenodd" clip-rule="evenodd" d="M131.041 242.747C131.173 242.394 131.532 242.162 131.923 242.206C132.383 242.259 132.714 242.675 132.662 243.136L132.292 246.393C132.24 246.855 131.824 247.185 131.363 247.133C130.903 247.081 130.571 246.665 130.624 246.204L130.994 242.946C131.002 242.876 131.018 242.81 131.041 242.747Z" fill="white"/>
<path fill-rule="evenodd" clip-rule="evenodd" d="M229.203 160.423C229.203 160.423 245.126 149.837 255.475 155.932C274.402 167.079 246.551 194.443 213.207 209.624C179.863 224.804 168.526 224.197 168.526 224.197C168.526 224.197 160.851 222.827 162.39 210.452C162.39 210.452 181.553 201.073 191.157 192.213C200.761 183.352 206.911 173.012 229.203 160.423Z" fill="#00B770"/>
<path fill-rule="evenodd" clip-rule="evenodd" d="M200.081 215.334C198.246 215.938 196.378 216.544 194.452 217.151C186.992 219.5 178.474 221.958 170.761 223.852L170.733 224.955C177.698 223.257 185.873 220.954 194.767 218.154C196.504 217.607 198.276 217.033 200.053 216.448L200.081 215.334Z" fill="#007D55"/>
<path fill-rule="evenodd" clip-rule="evenodd" d="M164.055 213.856C171.12 211.454 185.222 203.344 201.777 192.163C214.158 183.8 228.355 173.261 230.27 169.884C231.304 168.06 231.475 166.629 230.779 165.633C229.737 164.143 227.138 164.218 225.961 164.338C225.658 164.369 225.444 164.648 225.493 164.949C225.539 165.221 225.786 165.413 226.062 165.386C227.219 165.272 229.252 165.284 229.917 166.237C230.47 167.028 229.916 168.375 229.355 169.366C227.81 172.089 215.965 181.31 201.188 191.291C188.464 199.885 171.937 210.065 163.717 212.86L164.055 213.856Z" fill="#007D55"/>
<path fill-rule="evenodd" clip-rule="evenodd" d="M164.942 208.592C166.343 214.893 168.529 220.537 172.541 224.65C172.541 224.65 169.662 227.154 166.698 225.821C164.434 224.802 159.367 215.225 160.459 209.763C162.169 208.614 163.69 208.129 164.942 208.592Z" fill="#007D55"/>
<path fill-rule="evenodd" clip-rule="evenodd" d="M162.791 158.079L161.511 176.349C161.511 176.349 139.786 173.246 129.119 170.528C126.014 169.737 122.525 168.719 119.334 167.021C113.447 163.891 108.562 158.445 108.924 147.826C109.038 144.416 109.696 140.473 111.033 135.899C118.797 109.365 131.792 87.0895 131.792 87.0895C148.523 94.2495 147.117 106.166 147.117 106.166C142.343 118.895 131.792 146.007 131.792 146.007C137.916 153.488 162.791 158.079 162.791 158.079Z" fill="#0076FB"/>
<path fill-rule="evenodd" clip-rule="evenodd" d="M131.792 146.575C131.688 146.575 131.584 146.547 131.493 146.49C129.647 145.346 124.612 144.16 124.561 144.148C124.255 144.077 124.065 143.771 124.137 143.466C124.209 143.16 124.514 142.971 124.82 143.042C124.998 143.084 128.525 143.915 130.859 144.907C130.517 144.147 129.963 143.336 129.188 142.455C128.981 142.22 129.004 141.861 129.24 141.653C129.475 141.446 129.834 141.469 130.042 141.705C131.381 143.228 132.137 144.605 132.353 145.914C132.389 146.135 132.293 146.355 132.108 146.479C132.012 146.543 131.902 146.575 131.792 146.575Z" fill="#004ECB"/>
<path fill-rule="evenodd" clip-rule="evenodd" d="M119.335 167.021C113.448 163.891 108.564 158.445 108.925 147.826C113.589 150.265 121.717 156.179 119.335 167.021Z" fill="#004ECB"/>
<path fill-rule="evenodd" clip-rule="evenodd" d="M149.126 155.277C149.079 155.277 149.031 155.271 148.984 155.259C138.22 152.484 131.685 146.675 131.412 146.429C131.221 146.257 131.169 145.978 131.286 145.749C138.96 130.66 143.816 118.677 146.567 108.038C146.646 107.735 146.956 107.551 147.259 107.63C147.563 107.709 147.746 108.019 147.667 108.323C144.919 118.949 140.098 130.886 132.502 145.864C133.954 147.062 140.111 151.798 149.267 154.158C149.571 154.237 149.754 154.547 149.676 154.851C149.609 155.107 149.379 155.277 149.126 155.277Z" fill="#004ECB"/>
<path fill-rule="evenodd" clip-rule="evenodd" d="M144.817 116.5C144.693 116.5 144.568 116.459 144.463 116.376C144.218 116.181 144.177 115.823 144.373 115.578L148.36 110.566C148.555 110.32 148.913 110.28 149.158 110.475C149.404 110.67 149.445 111.028 149.25 111.273L145.262 116.285C145.15 116.426 144.984 116.5 144.817 116.5Z" fill="#004ECB"/>
<path fill-rule="evenodd" clip-rule="evenodd" d="M163.416 70.4502L182.721 73.2072C195.256 71.9542 199.25 66.9712 201.3 56.4312C202.331 51.1342 201.648 46.4492 200.637 42.9762C200.372 39.0142 199.471 35.5922 197.597 33.3332C189.126 23.1222 181.666 23.5202 181.666 23.5202C177.876 21.7832 165.353 20.5932 157.092 30.6192C157.089 30.6192 157.089 30.6222 157.089 30.6222C156.827 30.8452 151.793 36.1802 150.63 47.3852C149.522 58.0642 156.647 71.7032 163.416 70.4502Z" fill="#363638"/>
<path fill-rule="evenodd" clip-rule="evenodd" d="M174.197 26.3245C174.197 26.3245 176.203 8.52455 160.408 10.7805C150.086 12.2555 143.7 26.2425 153.137 32.5925C162.574 38.9435 174.197 26.3245 174.197 26.3245Z" fill="#363638"/>
<path fill-rule="evenodd" clip-rule="evenodd" d="M154.725 34.4212C154.643 34.4212 154.561 34.4012 154.484 34.3592C154.243 34.2262 154.154 33.9212 154.288 33.6802C157.947 27.0262 163.165 24.0862 166.899 22.7902C170.948 21.3852 174.095 21.5552 174.228 21.5632C174.503 21.5802 174.713 21.8172 174.697 22.0922C174.681 22.3672 174.45 22.5792 174.168 22.5622C174.045 22.5542 161.859 21.9902 155.163 34.1622C155.073 34.3272 154.901 34.4212 154.725 34.4212Z" fill="#FEB205"/>
<path fill-rule="evenodd" clip-rule="evenodd" d="M164.932 66.4305C164.932 66.4305 152.62 59.5445 155.04 45.2045C157.462 30.8655 166.9 22.2365 181.375 26.3935C181.375 26.3935 179.971 67.8445 164.932 66.4305Z" fill="#363638"/>
<path fill-rule="evenodd" clip-rule="evenodd" d="M199.17 40.0668C199.17 40.0668 200.426 52.3758 198.183 54.1568C195.94 55.9378 193.741 51.0708 193.741 51.0708C193.741 51.0708 196.799 40.2008 199.17 40.0668Z" fill="#363638"/>
<path fill-rule="evenodd" clip-rule="evenodd" d="M193.502 55.2738C193.502 55.2738 197.174 52.0488 198.39 56.0018C199.606 59.9538 197.137 67.2198 192.566 65.2898L193.502 55.2738Z" fill="#F06A3F"/>
<path fill-rule="evenodd" clip-rule="evenodd" d="M198.02 64.3929C197.517 64.8539 196.959 65.2549 196.354 65.5809C194.049 66.8239 191.033 66.9719 187.418 65.0679C187.418 65.0679 182.791 59.0489 189.629 48.4319C189.629 48.4319 195.902 46.7809 199.485 50.5739C199.881 50.9899 200.245 51.4749 200.561 52.0359C200.757 52.3769 200.935 52.7489 201.092 53.1489C202.364 56.3769 201.183 61.5229 198.02 64.3929Z" fill="#00B770"/>
<path fill-rule="evenodd" clip-rule="evenodd" d="M197.855 49.2875C198.141 47.8685 198.434 46.1105 198.625 44.1605C198.537 44.2005 198.446 44.2255 198.346 44.2335C197.958 44.2605 197.571 44.1075 197.195 43.8275C197.027 45.6465 196.767 47.3015 196.508 48.6655L197.855 49.2875Z" fill="white"/>
<path fill-rule="evenodd" clip-rule="evenodd" d="M198.02 64.3929C197.517 64.8539 196.959 65.2549 196.354 65.5809C199.527 59.0149 199.617 53.0129 199.485 50.5739C199.881 50.9899 200.245 51.4749 200.561 52.0359C200.558 54.7929 200.145 59.3309 198.02 64.3929Z" fill="#007D55"/>
<path fill-rule="evenodd" clip-rule="evenodd" d="M182.796 73.0365L181.281 83.2115C181.281 83.2115 175.054 91.1995 160.627 78.1715C162.27 74.0275 164.785 68.7055 164.14 64.6205C164.14 64.6205 165.194 65.5865 167.006 66.7395C167.377 66.9755 167.775 67.2245 168.2 67.4825C171.952 69.7585 177.671 72.6755 182.796 73.0365Z" fill="#FF9C79"/>
<path fill-rule="evenodd" clip-rule="evenodd" d="M182.796 73.0365L182.087 77.7995C177.879 76.1825 170.6 72.6725 167.006 66.7395C167.377 66.9755 167.775 67.2245 168.2 67.4825C171.952 69.7585 177.671 72.6755 182.796 73.0365Z" fill="#363638"/>
<path fill-rule="evenodd" clip-rule="evenodd" d="M196.627 55.7264C196.467 56.7794 196.312 57.7704 196.157 58.7054C195 65.7244 193.939 69.5054 191.991 71.0024C182.124 78.5724 164.722 65.1944 164.163 64.7624C164.153 64.7554 164.148 64.7494 164.148 64.7494C164.092 63.9314 164.052 63.1234 164.024 62.3264C163.794 55.5674 164.628 49.4464 166.162 43.7404C166.752 37.5724 171.246 32.4144 177.316 31.1714C183.606 29.8864 188.568 33.3064 191.635 34.7754C196.267 36.9964 198.387 43.7214 197.083 52.6624C196.926 53.7364 196.776 54.7584 196.627 55.7264Z" fill="#FF9C79"/>
<path fill-rule="evenodd" clip-rule="evenodd" d="M187.807 63.9042C182.29 63.9042 180.081 58.6242 180.058 58.5652C179.954 58.3082 180.078 58.0162 180.334 57.9122C180.591 57.8082 180.883 57.9312 180.987 58.1882C181.082 58.4222 183.396 63.9012 189.421 62.7412C189.695 62.6892 189.956 62.8672 190.008 63.1392C190.06 63.4112 189.882 63.6742 189.61 63.7262C188.974 63.8482 188.373 63.9042 187.807 63.9042Z" fill="#363638"/>
<path fill-rule="evenodd" clip-rule="evenodd" d="M183.562 44.847C184.98 44.356 184.692 42.265 183.194 42.169C180.64 42.004 176.545 42.068 176.203 44.125C175.701 47.134 180.464 45.88 183.473 44.877C183.503 44.868 183.533 44.857 183.562 44.847Z" fill="#363638"/>
<path fill-rule="evenodd" clip-rule="evenodd" d="M191.087 45.7322C189.987 44.7112 191.093 42.9142 192.504 43.4292C194.908 44.3082 198.629 46.0172 198.113 48.0382C197.359 50.9942 193.505 47.9262 191.156 45.7952C191.133 45.7742 191.11 45.7532 191.087 45.7322Z" fill="#363638"/>
<path fill-rule="evenodd" clip-rule="evenodd" d="M183.74 66.3685C184.749 66.6205 185.603 66.4245 185.657 66.4115C185.836 66.3685 185.946 66.1885 185.903 66.0105C185.86 65.8315 185.682 65.7225 185.502 65.7645C185.486 65.7685 183.832 66.1395 182.586 65.0365C182.448 64.9135 182.238 64.9275 182.116 65.0645C181.994 65.2015 182.006 65.4125 182.144 65.5345C182.658 65.9895 183.22 66.2385 183.74 66.3685Z" fill="#F06A3F"/>
<path fill-rule="evenodd" clip-rule="evenodd" d="M187.201 59.5092C187.116 59.4672 187.047 59.3922 187.015 59.2962C186.952 59.1032 187.056 58.8962 187.249 58.8332L189.658 58.0412L188.227 56.5922C188.15 56.5142 188.112 56.4052 188.124 56.2952L188.569 52.3092C188.591 52.1082 188.772 51.9632 188.974 51.9862C189.174 52.0082 189.321 52.1892 189.298 52.3902L188.873 56.2022L190.596 57.9462C190.685 58.0362 190.721 58.1662 190.691 58.2902C190.661 58.4132 190.57 58.5122 190.449 58.5512L187.479 59.5292C187.383 59.5602 187.284 59.5512 187.201 59.5092Z" fill="#363638"/>
<path fill-rule="evenodd" clip-rule="evenodd" d="M180.956 55.6957C180.833 56.5237 179.028 56.9407 176.925 56.6277C174.822 56.3147 173.218 55.3897 173.341 54.5627C173.464 53.7347 175.269 53.3177 177.372 53.6307C179.475 53.9437 181.079 54.8677 180.956 55.6957Z" fill="#F06A3F"/>
<path fill-rule="evenodd" clip-rule="evenodd" d="M196.627 56.6917C196.467 57.7437 196.312 58.7357 196.157 59.6707C194.237 59.3107 192.826 58.4457 192.942 57.6667C193.058 56.8877 194.676 56.4707 196.627 56.6917Z" fill="#F06A3F"/>
<path fill-rule="evenodd" clip-rule="evenodd" d="M183.007 52.7327C182.838 53.8697 182.185 54.7137 181.549 54.6197C180.913 54.5247 180.535 53.5267 180.704 52.3897C180.873 51.2537 181.526 50.4087 182.162 50.5037C182.798 50.5977 183.176 51.5957 183.007 52.7327Z" fill="#363638"/>
<path fill-rule="evenodd" clip-rule="evenodd" d="M194.254 54.4066C194.085 55.5436 193.432 56.3886 192.796 56.2936C192.16 56.1986 191.781 55.2006 191.951 54.0636C192.12 52.9276 192.773 52.0826 193.409 52.1776C194.045 52.2716 194.423 53.2696 194.254 54.4066Z" fill="#363638"/>
<path fill-rule="evenodd" clip-rule="evenodd" d="M168.548 60.7006C168.475 60.8196 166.464 64.0636 164.163 64.7616C164.161 64.7616 164.161 64.7626 164.159 64.7626C164.152 64.7546 164.15 64.7496 164.15 64.7496C164.091 63.9316 164.051 63.1236 164.025 62.3256C164.107 62.3246 166.333 62.2696 168.548 60.7006Z" fill="#363638"/>
<path fill-rule="evenodd" clip-rule="evenodd" d="M167.64 52.496C167.64 52.496 164.003 45.714 159.959 50.016C156.627 53.561 160.227 64.856 166.356 61.838L167.64 52.496Z" fill="#FF9C79"/>
<path fill-rule="evenodd" clip-rule="evenodd" d="M165.891 59.9838C165.655 59.9488 165.479 59.7408 165.489 59.4978C165.671 54.8018 162.04 52.6148 161.885 52.5238C161.661 52.3918 161.585 52.1028 161.716 51.8778C161.848 51.6518 162.136 51.5758 162.362 51.7078C162.537 51.8088 166.639 54.2568 166.433 59.5348C166.424 59.7958 166.203 59.9988 165.943 59.9888C165.925 59.9878 165.908 59.9858 165.891 59.9838Z" fill="#363638"/>
<path fill-rule="evenodd" clip-rule="evenodd" d="M161.948 56.4989C161.812 56.4789 161.686 56.3999 161.611 56.2719C161.477 56.0479 161.552 55.7579 161.776 55.6249C161.985 55.4999 163.858 54.4289 165.21 54.9979C165.451 55.0989 165.564 55.3759 165.462 55.6169C165.361 55.8579 165.083 55.9699 164.843 55.8689C164.068 55.5429 162.682 56.1869 162.259 56.4379C162.161 56.4959 162.052 56.5149 161.948 56.4989Z" fill="#363638"/>
<path fill-rule="evenodd" clip-rule="evenodd" d="M187.23 53.0101C187.17 53.4601 187.06 53.9201 186.89 54.3601C186.77 54.6701 186.63 54.9601 186.47 55.2301C185.34 57.1801 183.18 58.2901 180.96 58.1301H180.95C180.69 58.1201 180.44 58.0801 180.18 58.0201H180.17C179.86 57.9601 179.57 57.8701 179.27 57.7601C178.61 57.5101 178.02 57.1501 177.51 56.7001C177.06 56.3201 176.68 55.8701 176.38 55.3801C176.02 54.8101 175.76 54.1901 175.62 53.5401C175.37 52.4401 175.43 51.2601 175.86 50.1401C176.42 48.6801 177.49 47.5701 178.79 46.9401C180.21 46.2501 181.9 46.1301 183.48 46.7301C186.08 47.7301 187.57 50.3501 187.23 53.0001V53.0101ZM188.26 51.6501C188.24 51.4201 188.21 51.1901 188.16 50.9601C188.15 50.8501 188.12 50.7501 188.09 50.6501C187.58 48.5001 186.05 46.6301 183.84 45.7901C183.21 45.5501 182.57 45.4001 181.93 45.3601H181.92C180.93 45.2801 179.96 45.4201 179.05 45.7501H179.04C178.82 45.8201 178.62 45.9001 178.41 46.0001C176.92 46.7101 175.68 47.9501 175.01 49.5801V49.5901C174.97 49.6501 174.95 49.7101 174.92 49.7801C174.82 50.0301 174.74 50.2901 174.68 50.5501C174.41 51.6001 174.4 52.6601 174.62 53.6701C174.82 54.6601 175.24 55.6001 175.86 56.4001V56.4101C175.89 56.4501 175.91 56.4801 175.94 56.5201C176.69 57.4801 177.7 58.2501 178.91 58.7101C179.37 58.8901 179.84 59.0101 180.31 59.0801C180.71 59.1501 181.1 59.1701 181.5 59.1601C183.18 59.1401 184.8 58.4801 186.04 57.3601C186.81 56.6501 187.43 55.7601 187.83 54.7201C188.22 53.7101 188.35 52.6601 188.26 51.6501Z" fill="white"/>
<path fill-rule="evenodd" clip-rule="evenodd" d="M175.135 50.7059C175.073 50.7029 175.011 50.6879 174.951 50.6609C171.212 48.9469 167.701 50.2539 167.666 50.2679C167.406 50.3669 167.114 50.2369 167.015 49.9769C166.915 49.7169 167.045 49.4249 167.306 49.3249C167.465 49.2649 171.251 47.8549 175.372 49.7439C175.625 49.8599 175.737 50.1589 175.62 50.4129C175.531 50.6059 175.336 50.7169 175.135 50.7059Z" fill="white"/>
<path fill-rule="evenodd" clip-rule="evenodd" d="M202.18 56.08C202 56.54 201.78 56.97 201.51 57.35C201.51 57.35 201.51 57.36 201.5 57.36C201.33 57.6 201.16 57.82 200.96 58.02C200.6 58.4 200.2 58.73 199.76 58.99C199.4 59.22 199.02 59.4 198.62 59.54C198.6 59.55 198.57 59.56 198.54 59.57C197.73 59.84 196.85 59.94 195.97 59.83C195.5 59.78 195.02 59.67 194.56 59.49C194.06 59.3 193.59 59.04 193.18 58.73C191.09 57.21 190.18 54.41 191.15 51.87C191.77 50.24 193.04 49.05 194.55 48.47C194.56 48.46 194.56 48.46 194.57 48.46C194.75 48.39 194.92 48.33 195.1 48.28H195.11C195.6 48.15 196.11 48.07 196.62 48.07C196.9 48.07 197.17 48.09 197.45 48.13C197.65 48.15 197.84 48.19 198.04 48.24L198.05 48.25C198.29 48.3 198.53 48.37 198.77 48.46C199.02 48.56 199.26 48.67 199.49 48.79C200.49 49.33 201.28 50.14 201.81 51.08C202.64 52.55 202.83 54.38 202.18 56.08ZM201.75 49.28C201.13 48.62 200.38 48.07 199.51 47.68C199.39 47.62 199.27 47.57 199.14 47.52C198.84 47.4 198.53 47.31 198.22 47.24C198.18 47.23 198.14 47.22 198.09 47.21C197.88 47.16 197.66 47.13 197.45 47.11C197.23 47.08 197.01 47.06 196.79 47.07C196.16 47.06 195.55 47.13 194.96 47.29C194.48 47.4 194.02 47.57 193.58 47.8C193.41 47.88 193.25 47.98 193.08 48.08H193.07C191.99 48.73 191.09 49.69 190.5 50.87C190.39 51.08 190.29 51.29 190.21 51.51C190.17 51.61 190.14 51.71 190.11 51.81C189.08 54.89 190.36 58.23 193.07 59.87C193.42 60.09 193.8 60.28 194.2 60.43C194.72 60.63 195.26 60.76 195.79 60.83C196.61 60.94 197.44 60.89 198.22 60.7C198.29 60.69 198.36 60.68 198.42 60.65C198.76 60.57 199.1 60.46 199.42 60.31C199.81 60.14 200.19 59.94 200.55 59.7C200.74 59.56 200.93 59.42 201.11 59.27C201.99 58.54 202.7 57.58 203.13 56.44C204.1 53.91 203.47 51.15 201.75 49.28Z" fill="white"/>
<path fill-rule="evenodd" clip-rule="evenodd" d="M187.507 51.7865C187.431 51.7465 187.364 51.6865 187.315 51.6085C187.168 51.3725 187.238 51.0615 187.474 50.9125C187.545 50.8695 189.227 49.8425 190.974 51.1835C191.195 51.3525 191.236 51.6695 191.067 51.8905C190.897 52.1115 190.581 52.1545 190.359 51.9835C189.162 51.0645 188.022 51.7605 188.011 51.7675C187.853 51.8675 187.661 51.8675 187.507 51.7865Z" fill="white"/>
<path fill-rule="evenodd" clip-rule="evenodd" d="M191.209 28.5687C195.405 30.4597 198.705 33.9547 200.175 38.3167C201.096 41.0497 201.869 44.6547 198.026 44.1887C187.546 42.9167 181.938 32.0417 181.938 32.0417C181.938 32.0417 179.897 42.0647 171.666 40.8397C163.434 39.6137 163.696 33.4057 168.375 29.8957C172.188 27.0337 181.896 24.3717 191.209 28.5687Z" fill="#363638"/>
<path fill-rule="evenodd" clip-rule="evenodd" d="M171.99 39.6879C171.99 39.6879 167.306 44.7139 168.986 50.1269C170.666 55.5399 170.78 59.8769 169.028 62.7839C169.028 62.7839 168.574 57.0849 166.49 52.7659C164.778 49.2199 163.18 46.5189 164.416 42.4279C165.264 39.6199 167.318 36.9209 171.99 39.6879Z" fill="#363638"/>
<path fill-rule="evenodd" clip-rule="evenodd" d="M164.38 64.2289C160.751 65.1049 157.941 64.5969 155.861 63.2939C155.53 63.0839 155.217 62.8549 154.921 62.6089C150.558 58.9599 150.236 51.3899 152.908 47.6769C153.85 46.3629 154.942 45.4839 156.083 44.9249C156.431 44.7499 156.78 44.6089 157.135 44.4929C161.644 43.0159 166.534 45.7189 166.534 45.7189C171.654 59.7969 164.38 64.2289 164.38 64.2289Z" fill="#00B770"/>
<path fill-rule="evenodd" clip-rule="evenodd" d="M177.15 70.3826C166.541 68.2136 162.031 60.5696 161.823 60.2076C161.654 59.9136 161.755 59.5386 162.049 59.3686C162.344 59.2006 162.719 59.3016 162.888 59.5956C162.956 59.7126 168.466 68.9776 181.328 69.6796C181.668 69.6996 181.926 69.9876 181.908 70.3266C181.889 70.6646 181.6 70.9246 181.261 70.9056C179.8 70.8266 178.43 70.6446 177.15 70.3826Z" fill="white"/>
<path fill-rule="evenodd" clip-rule="evenodd" d="M184.713 70.7411C184.496 71.8041 183.457 72.4901 182.394 72.2731C181.33 72.0551 180.644 71.0171 180.862 69.9531C181.079 68.8901 182.117 68.2041 183.181 68.4221C184.244 68.6391 184.93 69.6781 184.713 70.7411Z" fill="#133131"/>
<path fill-rule="evenodd" clip-rule="evenodd" d="M155.861 63.2938C155.53 63.0848 155.216 62.8558 154.92 62.6088C158.276 55.0068 157.141 48.3708 156.083 44.9248C156.43 44.7498 156.78 44.6088 157.134 44.4928C158.264 48.1418 159.499 55.2308 155.861 63.2938Z" fill="#007D55"/>
<path fill-rule="evenodd" clip-rule="evenodd" d="M198.933 35.4681C198.043 33.7991 197.05 32.6861 196.564 32.1341C196.156 30.9481 195.711 29.8271 195.05 28.7791C192.831 25.2591 189.316 23.1031 184.602 22.3711C179.508 21.5841 175.091 22.5871 171.473 25.3621C170.342 26.2271 169.339 27.2271 168.447 28.3081C167.206 29.8171 166.181 31.4841 165.338 33.1611C162.422 39.0011 161.723 45.0001 161.713 45.0851L160.321 44.9351C160.384 44.3641 161.954 30.8871 170.621 24.2491C174.554 21.2351 179.332 20.1371 184.816 20.9871C189.953 21.7821 193.791 24.1561 196.238 28.0371C197.655 30.2831 198.487 32.8481 198.933 35.4681Z" fill="white"/>
<path fill-rule="evenodd" clip-rule="evenodd" d="M146.168 189.364L141.332 180.165C140.126 177.871 141.807 175.121 144.398 175.149L220.424 175.969L218.182 187.746L146.168 189.364Z" fill="#363638"/>
<path fill-rule="evenodd" clip-rule="evenodd" d="M216.869 186.773H148.831C147.19 186.773 146.005 185.442 146.187 183.8L150.826 141.765C151.007 140.123 152.484 138.793 154.126 138.793H222.164C223.806 138.793 224.99 140.123 224.808 141.765L220.17 183.8C219.989 185.442 218.511 186.773 216.869 186.773Z" fill="#363638"/>
<path fill-rule="evenodd" clip-rule="evenodd" d="M147.817 188.586C147.794 188.586 147.769 188.585 147.745 188.582C147.431 188.542 147.208 188.255 147.247 187.94L152.894 142.916C152.934 142.602 153.22 142.379 153.535 142.418C153.85 142.458 154.073 142.744 154.033 143.059L148.386 188.084C148.35 188.374 148.102 188.586 147.817 188.586Z" fill="#594B53"/>
<path fill-rule="evenodd" clip-rule="evenodd" d="M180.918 163.531C180.658 166.908 183.145 169.817 186.473 170.03C189.801 170.242 192.71 167.677 192.969 164.3C193.23 160.924 190.742 158.014 187.415 157.802C184.086 157.59 181.178 160.155 180.918 163.531Z" fill="#575759"/>
<path fill-rule="evenodd" clip-rule="evenodd" d="M217.196 190.435H148.221C146.704 190.435 145.536 189.097 145.741 187.594L146.398 182.788H220.424L219.675 188.271C219.506 189.511 218.447 190.435 217.196 190.435Z" fill="#363638"/>
<path fill-rule="evenodd" clip-rule="evenodd" d="M162.35 176.86L163.66 176.87H164.21L163.9 178.35L163.71 179.26H161.85L162.35 176.86ZM167.82 174.01L168.38 171.4H165.37L164.82 174.01H162.96L163.12 173.25L163.51 171.4H160.5L159.95 174.01H157.32L157.21 175.29L157.17 175.7L157.07 176.86H159.34L158.94 178.77L158.84 179.26H156.21L155.96 182.12H158.23L158.09 182.79L157.68 184.72L160.69 184.73L161.1 182.79L161.24 182.12H163.1L162.96 182.79L162.55 184.73H165.56L165.76 183.76L165.77 183.73L165.97 182.79L166.11 182.12H168.74L168.99 179.27H166.72L167.21 176.87H169.84L169.97 175.43L170.1 174.01H167.82Z" fill="#FEB205"/>
<path fill-rule="evenodd" clip-rule="evenodd" d="M235.947 110.423C235.947 120.787 244.349 129.189 254.713 129.189C265.077 129.189 273.478 120.787 273.478 110.423C273.478 100.059 265.077 91.6567 254.713 91.6567C244.349 91.6567 235.947 100.059 235.947 110.423Z" fill="#FE615B"/>
<path fill-rule="evenodd" clip-rule="evenodd" d="M245.115 125.771L235.032 127.906L239.398 119.215L245.115 125.771Z" fill="#FE615B"/>
<path fill-rule="evenodd" clip-rule="evenodd" d="M255.57 113.71C253.36 113.71 251.83 115.16 251.83 117.06C251.83 118.93 253.36 120.46 255.57 120.46C257.79 120.46 259.32 118.93 259.32 117.06C259.32 115.16 257.79 113.71 255.57 113.71ZM255.26 99.8698C250.72 99.8698 247.86 101.74 246.41 104.47L251.46 106.99C252.06 105.8 253.19 105.06 254.41 105.06C255.46 105.06 256.31 105.52 256.31 106.39C256.31 108.12 252.65 109.14 252.65 112.58H258.49C258.49 110.39 263.03 109.63 263.03 105.29C263.03 101.74 259.71 99.8698 255.26 99.8698Z" fill="white"/>
<path fill-rule="evenodd" clip-rule="evenodd" d="M49.4123 217.079C49.4123 217.079 41.7463 205.033 23.1293 194.081C9.98129 186.347 2.32129 164.512 2.32129 164.512C2.32129 164.512 27.5093 165.607 38.4603 180.939C49.4123 196.271 49.4123 217.079 49.4123 217.079Z" fill="#00B770"/>
<path fill-rule="evenodd" clip-rule="evenodd" d="M49.495 217.402C49.329 217.402 49.178 217.291 49.133 217.123C45.591 203.756 37.839 194.062 31.96 188.283C25.589 182.022 19.997 178.89 19.941 178.859C19.76 178.758 19.695 178.53 19.795 178.349C19.895 178.168 20.124 178.103 20.305 178.203C20.362 178.235 26.043 181.416 32.485 187.749C38.432 193.593 46.273 203.4 49.858 216.931C49.911 217.131 49.791 217.336 49.591 217.389C49.559 217.398 49.527 217.402 49.495 217.402Z" fill="#363638"/>
<path fill-rule="evenodd" clip-rule="evenodd" d="M46.11 216.804C46.11 216.804 43.92 212.424 34.063 213.518C24.207 214.614 18.732 220.089 1.20898 210.233C1.20898 210.233 14.351 199.282 28.588 201.472C42.824 203.662 43.92 209.138 46.11 216.804Z" fill="#00B770"/>
<path fill-rule="evenodd" clip-rule="evenodd" d="M46.158 217.179C46.033 217.179 45.911 217.117 45.84 217.003C45.796 216.933 41.386 210.006 34.297 208.717C21.907 206.465 13.471 210.426 13.387 210.466C13.201 210.556 12.977 210.477 12.887 210.291C12.797 210.104 12.875 209.881 13.062 209.79C13.148 209.749 21.788 205.68 34.431 207.979C41.852 209.328 46.29 216.309 46.476 216.605C46.585 216.781 46.532 217.012 46.356 217.122C46.295 217.16 46.226 217.179 46.158 217.179Z" fill="#363638"/>
<path fill-rule="evenodd" clip-rule="evenodd" d="M50.4133 215.745C50.4133 215.745 49.5543 210.923 58.1133 205.915C66.6733 200.908 74.3353 202.029 82.5033 183.66C82.5033 183.66 65.4223 182.724 55.3113 192.983C45.2003 203.242 47.5923 208.288 50.4133 215.745Z" fill="#00B770"/>
<path fill-rule="evenodd" clip-rule="evenodd" d="M50.3747 216.149C50.1817 216.149 50.0177 216.001 50.0007 215.805C49.9727 215.456 49.3637 207.207 54.5107 201.693C63.2787 192.298 72.6387 190.402 72.7317 190.384C72.9337 190.345 73.1317 190.478 73.1717 190.681C73.2107 190.884 73.0777 191.081 72.8747 191.12C72.7837 191.138 63.6507 192.999 55.0587 202.205C50.1367 207.479 50.7417 215.662 50.7487 215.744C50.7657 215.95 50.6117 216.131 50.4057 216.148C50.3957 216.149 50.3847 216.149 50.3747 216.149Z" fill="#363638"/>
<path fill-rule="evenodd" clip-rule="evenodd" d="M60.4944 221.7H36.4934C35.0774 221.7 33.9194 220.541 33.9194 219.125V218.044C33.9194 216.628 35.0774 215.47 36.4934 215.47H60.4944C61.9104 215.47 63.0694 216.628 63.0694 218.044V219.125C63.0694 220.541 61.9104 221.7 60.4944 221.7Z" fill="#FE615B"/>
<path fill-rule="evenodd" clip-rule="evenodd" d="M78.54 264.2C77.86 267.22 76.1 269.46 73.43 271.12C70.28 269.34 67.21 267.44 64.21 265.42C63.86 265.18 63.5 264.94 63.15 264.69C60.01 262.56 56.97 260.29 54.02 257.91C45.96 251.41 38.61 244.05 32.1 235.99H31.48C31.59 235.87 31.7 235.75 31.81 235.64C32.37 235.06 32.89 234.53 33.37 234.05C35.16 232.29 36.37 231.27 36.37 231.27L36.42 230.95L36.76 229.02L37.16 226.79L38.06 221.7L38.37 219.92L48.61 219.47L59.29 219.92L59.53 221.7L59.91 224.49L60.53 229.02L60.8 230.95L60.84 231.27C60.84 231.27 62.05 232.29 63.83 234.05C64.41 234.62 65.05 235.27 65.73 235.99C70.55 241.08 77.37 249.66 78.65 258.42C78.97 260.6 78.92 262.52 78.54 264.2Z" fill="#FE615B"/>
<path fill-rule="evenodd" clip-rule="evenodd" d="M60.8004 230.951H36.4214L36.7624 229.015H60.5344L60.8004 230.951Z" fill="#C52B4B"/>
<path fill-rule="evenodd" clip-rule="evenodd" d="M65.73 235.99H31.48C31.59 235.87 31.7 235.75 31.81 235.64C32.37 235.06 32.89 234.53 33.37 234.05H63.83C64.41 234.62 65.05 235.27 65.73 235.99Z" fill="#C52B4B"/>
<path fill-rule="evenodd" clip-rule="evenodd" d="M59.9123 224.492L37.1553 226.789L38.0553 221.699H59.5293L59.9123 224.492Z" fill="#C52B4B"/>
</svg>
