<svg width="202" height="50" viewBox="0 0 202 50" fill="none" xmlns="http://www.w3.org/2000/svg">
<g clip-path="url(#clip0)">
<path d="M0 -0.00105712H14.2782L20.2472 21.1284L26.2163 -0.00105712H40.4969V36.6081H31.9576V10.2275L24.5181 36.6081H15.9885L8.53688 10.2275V36.6081H0V-0.00105712ZM119.805 16.9409C121.197 16.9408 122.542 17.4401 123.592 18.3467C124.641 19.2533 125.324 20.5058 125.514 21.8727C125.614 22.5931 125.514 23.3398 125.609 24.1322C125.938 27.2154 127.293 30.1024 129.461 32.3377C131.629 34.5729 134.486 36.0293 137.581 36.4771C140.676 36.9248 143.834 36.3385 146.556 34.8106C149.278 33.2826 151.409 30.9 152.614 28.0386C153.818 25.1772 154.027 21.9997 153.208 19.0075C152.389 16.0152 150.588 13.3784 148.089 11.513C145.59 9.6476 142.536 8.65973 139.409 8.70521C136.281 8.7507 133.257 9.82695 130.815 11.7642C132.894 13.8235 134.341 16.4255 134.986 19.2676C135.767 18.2261 136.882 17.4793 138.148 17.1501C139.414 16.821 140.755 16.9291 141.951 17.4567C143.147 17.9843 144.125 18.8999 144.726 20.0526C145.326 21.2054 145.512 22.5264 145.254 23.7981C144.995 25.0698 144.307 26.2163 143.303 27.0486C142.299 27.8809 141.039 28.3493 139.731 28.3768C138.422 28.4042 137.143 27.989 136.105 27.1995C135.066 26.41 134.33 25.2934 134.017 24.0337C133.792 23.1237 133.908 22.5667 133.848 21.6903C133.629 18.5762 132.363 15.6247 130.253 13.3075C128.143 10.9903 125.309 9.44127 122.206 8.90786C119.103 8.37445 115.909 8.8875 113.135 10.365C110.36 11.8425 108.166 14.1992 106.902 17.0584C105.638 19.9176 105.377 23.1143 106.162 26.1375C106.947 29.1607 108.731 31.8359 111.23 33.7355C113.73 35.6352 116.799 36.6496 119.948 36.6167C123.098 36.5838 126.145 35.5054 128.603 33.554C126.524 31.496 125.077 28.8947 124.432 26.053C123.847 26.8361 123.07 27.4578 122.174 27.8589C121.278 28.2601 120.294 28.4273 119.315 28.3447C118.335 28.2621 117.394 27.9324 116.579 27.3871C115.765 26.8417 115.105 26.0988 114.662 25.2291C114.219 24.3594 114.009 23.3918 114.05 22.4185C114.091 21.4452 114.383 20.4985 114.898 19.6687C115.412 18.8388 116.133 18.1533 116.991 17.6776C117.848 17.2018 118.815 16.9515 119.797 16.9505L119.805 16.9409ZM155.117 36.6081H164.972V-0.00105712H155.117V36.6081ZM165.522 21.1284L174.434 36.6033H184.812L175.9 21.1284L183.369 8.68844H172.991L165.522 21.1284ZM188.47 24.3026C197.068 31.345 188.165 29.585 181.203 27.7554L186.012 36.1039C190.9 37.0331 196.033 36.8242 199.749 34.2335C202.531 31.5779 202.671 28.5261 200.462 25.7073C198.512 23.2005 192.589 19.7766 192.312 16.9505C192.07 14.4558 198.097 15.4643 201.29 16.175V9.57924C200.268 9.4928 193.039 8.06656 187.998 9.01498C184.66 9.64166 182.37 11.9659 182.225 15.2842C182.094 18.1655 184.231 21.102 188.47 24.3026ZM81.8465 36.6081H93.5569C95.0104 36.6081 97.0404 36.5169 98.4164 36.0199C106.82 32.9873 107.636 21.4574 98.0264 17.8197C105.393 16.5183 106.832 1.81896 95.3447 -0.00105712H73.8038V36.6081H81.8465ZM83.8184 6.93565H90.7952C94.8674 8.10017 94.114 14.1389 90.7952 14.8592H83.8184V6.93565ZM83.8184 21.7575H91.6673C96.2507 22.9244 95.4004 28.9607 91.6673 29.681H83.8184V21.7575ZM72.079 1.48281V8.64281C68.375 8.01854 63.4767 7.24539 59.872 8.55638C55.732 10.0643 52.8105 13.8507 52.8105 18.2879V18.3239C52.8105 22.7563 55.7441 26.5452 59.8842 28.0555C63.4888 29.3689 68.3871 28.5958 72.0911 27.9667V35.1267C67.8857 36.7858 60.3347 37.098 55.8604 35.8278C47.98 33.5996 42.2387 26.7037 42.2387 18.54V18.0598C42.2387 9.89618 47.98 3.00989 55.8604 0.772089C60.342 -0.49808 67.8929 -0.188341 72.0911 1.4732L72.079 1.48281Z" fill="#006EB5"/>
<path d="M4.02377 49.8487L1.95496 46.5976H1.938V49.8487H0V42.3285H1.938V45.7092H1.9598L4.09887 42.3285H6.13134L3.61679 46.079L6.28154 49.8487H4.02377ZM17.0641 49.8487L14.1765 45.2866H14.1547L14.2055 49.8487H12.3547V42.3285H14.0263L16.9575 47.061L16.9769 47.0394L16.8921 42.3333H18.7477V49.8535L17.0641 49.8487ZM33.1155 46.1006C33.1264 46.6201 33.0278 47.1362 32.8259 47.6158C32.624 48.0955 32.3233 48.528 31.9431 48.8858C31.1823 49.5991 30.176 49.9984 29.1288 50.0024C28.0816 50.0064 27.0722 49.6149 26.3059 48.9074C25.9235 48.5651 25.6194 48.1457 25.4138 47.6773C25.2083 47.209 25.1061 46.7025 25.114 46.1918C25.1105 45.6431 25.2125 45.0988 25.4144 44.5879C25.531 44.2838 25.6944 43.9995 25.8989 43.7451C26.2653 43.2481 26.749 42.8476 27.3078 42.5789C27.8665 42.3101 28.4832 42.1813 29.1039 42.2036C29.6275 42.1914 30.1482 42.2844 30.6345 42.4771C31.1208 42.6698 31.5626 42.9582 31.9334 43.3249C32.3152 43.68 32.6177 44.1104 32.8213 44.5885C33.025 45.0666 33.1252 45.5817 33.1155 46.1006ZM31.1775 46.1006C31.1902 45.5336 30.9909 44.982 30.618 44.5519C30.4305 44.3423 30.2006 44.1741 29.9434 44.0583C29.6861 43.9425 29.4071 43.8816 29.1245 43.8795C28.8419 43.8775 28.5621 43.9344 28.3031 44.0465C28.0441 44.1586 27.8118 44.3234 27.6213 44.5303C27.2393 44.9529 27.0347 45.5044 27.0496 46.0718C27.035 46.6467 27.2401 47.2058 27.6237 47.6373C27.8107 47.8533 28.0437 48.0255 28.3059 48.1413C28.5682 48.2572 28.8532 48.3138 29.1402 48.3072C29.4219 48.3121 29.701 48.254 29.9569 48.1372C30.2127 48.0204 30.4387 47.8478 30.618 47.6325C30.9892 47.208 31.1886 46.6622 31.1775 46.1006ZM46.6597 49.8511H44.964L43.8303 44.9865H43.8085L42.6675 49.8511H40.9184L38.961 42.3309H40.9281L41.9431 47.2219H41.9649L43.0793 42.3309H44.574L45.6689 47.2411H45.6883L46.7227 42.3309H48.6849L46.6597 49.8511ZM54.8962 49.8511V42.3285H56.8342V48.1607H59.0799V49.8414L54.8962 49.8511ZM65.1507 49.8511V42.3285H69.3634V44.0092H67.0063V45.1762H69.2883V46.8569H67.0063V48.1463H69.3634V49.827L65.1507 49.8511ZM82.3334 46.0718C82.3334 48.5913 81.0318 49.8511 78.4284 49.8511H75.7636V42.3285H78.2758C78.5996 42.3255 78.9234 42.3439 79.2448 42.3837C79.5455 42.421 79.8413 42.491 80.1265 42.5926C80.7292 42.8104 81.2483 43.2091 81.6115 43.7331C82.0917 44.4173 82.3371 45.2363 82.3116 46.0694L82.3334 46.0718ZM80.3954 46.1006C80.4253 45.5696 80.2696 45.0447 79.9545 44.6143C79.7834 44.4126 79.5669 44.2537 79.3224 44.1503C79.0779 44.0468 78.8123 44.0018 78.5471 44.0188H77.7089V48.1631H78.5374C79.1721 48.1631 79.6469 47.971 79.957 47.5868C80.275 47.158 80.4303 46.6317 80.3954 46.1006ZM96.5414 45.9709C96.5563 46.5036 96.4617 47.0337 96.2635 47.529C96.0653 48.0243 95.7675 48.4745 95.3883 48.8522C94.6144 49.5849 93.5854 49.9938 92.5152 49.9938C91.445 49.9938 90.416 49.5849 89.6421 48.8522C89.261 48.4909 88.9598 48.055 88.7576 47.5722C88.5553 47.0895 88.4564 46.5704 88.4672 46.0477C88.4545 45.5263 88.5545 45.0082 88.7605 44.5282C88.9665 44.0482 89.2737 43.6175 89.6615 43.2649C90.4398 42.5438 91.4746 42.1579 92.5394 42.1916C93.374 42.1886 94.1893 42.4401 94.8747 42.9119C95.5761 43.3586 96.0919 44.0404 96.3282 44.8328H94.1601C94.0021 44.5325 93.7614 44.2829 93.4659 44.1129C93.1705 43.9428 92.8324 43.8595 92.491 43.8724C92.2082 43.8639 91.927 43.9169 91.6671 44.0277C91.4072 44.1384 91.1749 44.3042 90.9866 44.5135C90.6035 44.9355 90.3988 45.4874 90.4149 46.0549C90.396 46.633 90.5936 47.1975 90.9696 47.6397C91.1581 47.8576 91.3935 48.0309 91.6584 48.1469C91.9234 48.2628 92.2112 48.3184 92.5007 48.3096C92.8972 48.3188 93.2884 48.2173 93.6295 48.0166C93.9662 47.8087 94.2091 47.4802 94.3078 47.0994H92.0549V45.5723H96.5511C96.5511 45.6324 96.5511 45.6972 96.5632 45.7716L96.5414 45.9709ZM102.859 49.8511V42.3285H107.074V44.0092H104.715V45.1762H106.997V46.8569H104.715V48.1463H107.074V49.827L102.859 49.8511ZM128.024 47.6901C128.044 48.0194 127.985 48.3486 127.853 48.6514C127.721 48.9541 127.519 49.2219 127.264 49.4333C126.722 49.8336 126.056 50.0333 125.381 49.9975C124.685 50.0296 123.999 49.819 123.443 49.4021C123.178 49.1856 122.968 48.9106 122.83 48.5991C122.691 48.2876 122.628 47.9483 122.646 47.6084V47.3683H124.584C124.575 47.6137 124.64 47.8562 124.771 48.0646C124.832 48.1685 124.92 48.254 125.026 48.312C125.133 48.3699 125.253 48.3981 125.374 48.3936C125.858 48.3936 126.101 48.1535 126.101 47.6733C126.103 47.5717 126.081 47.471 126.037 47.3793C125.992 47.2876 125.927 47.2074 125.846 47.145C125.765 47.0824 125.676 47.0292 125.582 46.9866L125.442 46.9169L124.613 46.564C124.372 46.4662 124.137 46.3523 123.911 46.223C123.697 46.0996 123.498 45.9513 123.32 45.7812C123.138 45.6017 122.996 45.3877 122.9 45.1521C122.804 44.9165 122.757 44.6642 122.763 44.4102C122.759 44.091 122.834 43.7757 122.98 43.4917C123.127 43.2076 123.342 42.9633 123.606 42.7799C124.127 42.3909 124.765 42.187 125.418 42.2012C125.801 42.1989 126.181 42.2699 126.537 42.4101C126.897 42.5437 127.217 42.7641 127.469 43.0512C127.791 43.4799 127.961 44.0012 127.954 44.5351H126.04C125.965 44.0548 125.735 43.8027 125.342 43.8027C124.902 43.8027 124.679 43.9996 124.679 44.391C124.67 44.502 124.695 44.613 124.749 44.7103C124.937 44.924 125.175 45.0889 125.442 45.1906L126.244 45.5483C126.486 45.6535 126.72 45.7747 126.946 45.9109C127.151 46.0342 127.339 46.1827 127.506 46.3527C127.848 46.7175 128.031 47.2017 128.014 47.6997L128.024 47.6901ZM138.683 49.8511V46.8401H136.212V49.8487H134.274V42.3285H136.212V45.1545H138.695V42.3285H140.633V49.8487L138.683 49.8511ZM152.198 49.8511L151.828 48.761H149.206L148.807 49.8511H146.726L149.769 42.3309H151.295L154.313 49.8487L152.198 49.8511ZM150.549 44.6599H150.515L149.735 47.2315H151.329L150.549 44.6599ZM164.032 49.8414L162.278 47.414H162.259V49.8414H160.403V42.3285H162.804C163.046 42.3285 163.259 42.3285 163.412 42.3429C163.618 42.3501 163.822 42.3718 164.025 42.4077C164.43 42.4639 164.814 42.6227 165.139 42.8687C165.447 43.1145 165.692 43.4286 165.855 43.7856C166.018 44.1426 166.094 44.5326 166.077 44.924C166.09 45.4789 165.914 46.0219 165.578 46.4655C165.413 46.6878 165.205 46.8751 164.966 47.0166C164.728 47.158 164.463 47.2507 164.187 47.2891L166.242 49.8487L164.032 49.8414ZM164.219 45.0249C164.228 44.8732 164.199 44.7216 164.133 44.5843C164.067 44.447 163.968 44.3284 163.843 44.2397C163.583 44.0713 163.277 43.9874 162.966 43.9996H162.259V46.1006H162.947C163.792 46.1006 164.219 45.7428 164.219 45.0249ZM172.414 49.8414V42.3285H174.352V49.8487L172.414 49.8414ZM185.755 49.8414L182.867 45.2794H182.84L182.899 49.8414H181.041V42.3285H182.712L185.646 47.061L185.665 47.0394L185.578 42.3333H187.438V49.8535L185.755 49.8414ZM201.884 45.9613C201.899 46.494 201.804 47.0241 201.606 47.5194C201.408 48.0147 201.11 48.4649 200.731 48.8426C199.957 49.5753 198.928 49.9841 197.858 49.9841C196.787 49.9841 195.758 49.5753 194.984 48.8426C194.604 48.4848 194.303 48.0528 194.099 47.5739C193.895 47.095 193.793 46.5795 193.8 46.0597C193.789 45.5371 193.892 45.0182 194.101 44.5382C194.31 44.0582 194.62 43.6281 195.011 43.2769C195.784 42.5555 196.813 42.1655 197.874 42.1916C198.709 42.1893 199.524 42.4408 200.21 42.9119C200.909 43.3611 201.424 44.0419 201.663 44.8328H199.483C199.326 44.5314 199.086 44.2808 198.79 44.1106C198.494 43.9404 198.156 43.8577 197.814 43.8724C197.532 43.8646 197.252 43.918 196.993 44.0287C196.734 44.1394 196.502 44.3049 196.314 44.5135C195.932 44.936 195.728 45.4876 195.743 46.0549C195.723 46.6331 195.92 47.198 196.297 47.6397C196.485 47.857 196.72 48.0299 196.984 48.1458C197.248 48.2617 197.535 48.3177 197.824 48.3096C198.221 48.3195 198.613 48.218 198.955 48.0166C199.292 47.8082 199.535 47.4801 199.636 47.0994H197.373V45.5723H201.874C201.874 45.6324 201.874 45.6972 201.874 45.7716L201.884 45.9613Z" fill="#FBB900"/>
</g>
<defs>
<clipPath id="clip0">
<rect width="202" height="50" fill="white"/>
</clipPath>
</defs>
</svg>
