<svg width="24" height="24" viewBox="0 0 24 24" fill="none" xmlns="http://www.w3.org/2000/svg">
<path fill-rule="evenodd" clip-rule="evenodd" d="M3 12C3 13.1045 3.89543 14 5 14C6.10457 14 7 13.1045 7 12C7 10.8954 6.10457 9.99997 5 9.99997C3.89543 9.99997 3 10.8954 3 12ZM12 14C10.8954 14 9.99999 13.1045 9.99999 12C9.99999 10.8954 10.8954 9.99997 12 9.99997C13.1046 9.99997 14 10.8954 14 12C14 13.1045 13.1046 14 12 14ZM19 14C17.8954 14 17 13.1045 17 12C17 10.8954 17.8954 9.99997 19 9.99997C20.1046 9.99997 21 10.8954 21 12C21 13.1045 20.1046 14 19 14Z" fill="#222B45"/>
<mask id="mask0_5170_42601" style="mask-type:alpha" maskUnits="userSpaceOnUse" x="3" y="10" width="18" height="4">
<path fill-rule="evenodd" clip-rule="evenodd" d="M3 12C3 13.1045 3.89543 14 5 14C6.10457 14 7 13.1045 7 12C7 10.8954 6.10457 9.99997 5 9.99997C3.89543 9.99997 3 10.8954 3 12ZM12 14C10.8954 14 9.99999 13.1045 9.99999 12C9.99999 10.8954 10.8954 9.99997 12 9.99997C13.1046 9.99997 14 10.8954 14 12C14 13.1045 13.1046 14 12 14ZM19 14C17.8954 14 17 13.1045 17 12C17 10.8954 17.8954 9.99997 19 9.99997C20.1046 9.99997 21 10.8954 21 12C21 13.1045 20.1046 14 19 14Z" fill="white"/>
</mask>
<g mask="url(#mask0_5170_42601)">
</g>
</svg>
