<svg width="24" height="24" viewBox="0 0 24 24" fill="none" xmlns="http://www.w3.org/2000/svg">
<path d="M20.25 13.125C19.9516 13.125 19.6655 13.2435 19.4545 13.4545C19.2435 13.6655 19.125 13.9516 19.125 14.25V19.125H4.875V14.25C4.875 13.9516 4.75647 13.6655 4.5455 13.4545C4.33452 13.2435 4.04837 13.125 3.75 13.125C3.45163 13.125 3.16548 13.2435 2.9545 13.4545C2.74353 13.6655 2.625 13.9516 2.625 14.25V19.5C2.62555 19.9971 2.82327 20.4737 3.17478 20.8252C3.52629 21.1767 4.00289 21.3745 4.5 21.375H19.5C19.9971 21.3745 20.4737 21.1767 20.8252 20.8252C21.1767 20.4737 21.3745 19.9971 21.375 19.5V14.25C21.375 13.9516 21.2565 13.6655 21.0455 13.4545C20.8345 13.2435 20.5484 13.125 20.25 13.125Z" fill="#00CC67"/>
<path d="M12.0099 13.335C11.6338 13.7062 11.1262 13.9135 10.5978 13.9116C10.0694 13.9097 9.56326 13.6988 9.18986 13.325L6.99986 11.135C6.44986 10.585 6.45986 9.695 7.02986 9.165C7.56986 8.645 8.42986 8.665 8.94986 9.185L10.5999 10.835L17.0299 4.405C17.5699 3.865 18.4399 3.865 18.9799 4.405L19.0199 4.445C19.5599 4.985 19.5599 5.865 19.0099 6.405L12.0099 13.335Z" fill="#00CC67"/>
</svg>
