<svg width="36" height="36" viewBox="0 0 36 36" fill="none" xmlns="http://www.w3.org/2000/svg">
<path d="M20.661 27L22.425 28.764C22.6982 29.0469 22.8494 29.4258 22.846 29.8191C22.8426 30.2124 22.6848 30.5886 22.4067 30.8668C22.1286 31.1449 21.7524 31.3026 21.3591 31.306C20.9658 31.3095 20.5869 31.1583 20.304 30.885L16.0605 26.643C15.7793 26.3617 15.6213 25.9803 15.6213 25.5825C15.6213 25.1848 15.7793 24.8033 16.0605 24.522L20.304 20.2785C20.5855 19.9973 20.9671 19.8393 21.365 19.8395C21.7629 19.8396 22.1445 19.9978 22.4257 20.2793C22.707 20.5607 22.8649 20.9424 22.8648 21.3403C22.8647 21.7382 22.7065 22.1198 22.425 22.401L20.8245 24H24C25.5913 24 27.1174 23.3679 28.2426 22.2427C29.3679 21.1175 30 19.5913 30 18C30 16.4087 29.3679 14.8826 28.2426 13.7574C27.1174 12.6322 25.5913 12 24 12C23.6022 12 23.2206 11.842 22.9393 11.5607C22.658 11.2794 22.5 10.8979 22.5 10.5C22.5 10.1022 22.658 9.72067 22.9393 9.43937C23.2206 9.15807 23.6022 9.00003 24 9.00003C26.3869 9.00003 28.6761 9.94824 30.364 11.6361C32.0518 13.3239 33 15.6131 33 18C33 20.387 32.0518 22.6762 30.364 24.364C28.6761 26.0518 26.3869 27 24 27H20.661ZM15.4095 9.00003L13.764 7.35603C13.4825 7.07457 13.3244 6.69283 13.3244 6.29478C13.3244 5.89673 13.4825 5.51499 13.764 5.23353C14.0455 4.95207 14.4272 4.79395 14.8253 4.79395C15.2233 4.79395 15.605 4.95207 15.8865 5.23353L20.1285 9.47703C20.4097 9.75832 20.5677 10.1398 20.5677 10.5375C20.5677 10.9353 20.4097 11.3167 20.1285 11.598L15.8865 15.84C15.7472 15.9794 15.5819 16.09 15.3999 16.1654C15.2179 16.2409 15.0228 16.2798 14.8258 16.2798C14.6288 16.2799 14.4337 16.2412 14.2516 16.1658C14.0695 16.0905 13.9041 15.98 13.7648 15.8408C13.6254 15.7015 13.5148 15.5362 13.4394 15.3542C13.3639 15.1722 13.325 14.9771 13.3249 14.7801C13.3248 14.3822 13.4827 14.0005 13.764 13.719L15.4845 12H12C10.4087 12 8.88258 12.6322 7.75736 13.7574C6.63214 14.8826 6 16.4087 6 18C6 19.5913 6.63214 21.1175 7.75736 22.2427C8.88258 23.3679 10.4087 24 12 24C12.3978 24 12.7794 24.1581 13.0607 24.4394C13.342 24.7207 13.5 25.1022 13.5 25.5C13.5 25.8979 13.342 26.2794 13.0607 26.5607C12.7794 26.842 12.3978 27 12 27C9.61305 27 7.32387 26.0518 5.63604 24.364C3.94821 22.6762 3 20.387 3 18C3 15.6131 3.94821 13.3239 5.63604 11.6361C7.32387 9.94824 9.61305 9.00003 12 9.00003H15.4095Z" fill="#A0A3BD"/>
</svg>
