<svg width="56" height="56" viewBox="0 0 56 56" fill="none" xmlns="http://www.w3.org/2000/svg">
<path d="M0 28C0 12.536 12.536 0 28 0C43.464 0 56 12.536 56 28C56 43.464 43.464 56 28 56C12.536 56 0 43.464 0 28Z" fill="#3D40C6"/>
<path d="M21.6797 19L37.6797 35" stroke="#FCFCFC" stroke-width="2" stroke-linecap="round"/>
<path fill-rule="evenodd" clip-rule="evenodd" d="M30.0546 20.7903C30.2347 20.2682 30.8039 19.9909 31.326 20.171C34.4478 21.2476 37.0835 23.6528 38.8918 26.8024C39.3668 27.6297 39.4799 28.6014 39.2316 29.4974C39.084 30.0296 38.5329 30.3414 38.0007 30.1939C37.4685 30.0463 37.1567 29.4953 37.3042 28.9631C37.4117 28.5756 37.3626 28.1557 37.1573 27.7982C35.5394 24.9803 33.2514 22.9506 30.674 22.0617C30.1519 21.8817 29.8746 21.3125 30.0546 20.7903ZM24.7503 20.9411C24.9581 21.4528 24.7118 22.0361 24.2001 22.2439C21.8217 23.2101 19.7174 25.1593 18.2022 27.7983C17.9326 28.2679 17.9326 28.8449 18.2022 29.3145C20.4247 33.1854 23.8934 35.5564 27.6798 35.5564C30.367 35.5564 32.8801 34.3688 34.9146 32.299C35.3017 31.9051 35.9349 31.8996 36.3288 32.2868C36.7226 32.6739 36.7281 33.3071 36.341 33.7009C33.9956 36.0871 30.9897 37.5564 27.6798 37.5564C22.9942 37.5564 18.9453 34.6255 16.4677 30.3103C15.8441 29.2241 15.8441 27.8888 16.4677 26.8025C18.1622 23.8512 20.5816 21.5551 23.4475 20.391C23.9592 20.1831 24.5425 20.4294 24.7503 20.9411Z" fill="#FCFCFC"/>
<path d="M30.5892 27.8251C30.748 28.457 30.6968 29.1233 30.4434 29.7235C30.1899 30.3236 29.748 30.825 29.1844 31.1517C28.6208 31.4785 27.9662 31.6129 27.3194 31.5347C26.6726 31.4564 26.0689 31.1698 25.5995 30.7181C25.1301 30.2663 24.8204 29.6741 24.7174 29.0308C24.6144 28.3875 24.7236 27.7282 25.0285 27.1524C25.3334 26.5767 25.8174 26.1159 26.4074 25.8396C26.9973 25.5633 27.6612 25.4865 28.2987 25.621" stroke="#FCFCFC" stroke-width="2"/>
</svg>
