<svg width="32" height="32" viewBox="0 0 32 32" fill="none" xmlns="http://www.w3.org/2000/svg">
<path fill-rule="evenodd" clip-rule="evenodd" d="M6.77333 12.0001H6.66667C5.95942 12.0001 5.28115 12.281 4.78105 12.7811C4.28095 13.2812 4 13.9595 4 14.6667V17.3334C4 18.0406 4.28095 18.7189 4.78105 19.219C5.28115 19.7191 5.95942 20 6.66667 20H6.77333C7.15808 19.9999 7.5383 20.083 7.8879 20.2436C8.2375 20.4043 8.5482 20.6387 8.79867 20.9307L13.6547 26.5974C14.46 27.536 16 26.9667 16 25.7294V6.27072C16 5.03338 14.46 4.46405 13.6533 5.40405L8.8 11.068C8.54951 11.3605 8.23865 11.5953 7.8888 11.7561C7.53895 11.917 7.1584 12.0002 6.77333 12.0001ZM24.848 5.70005C24.7218 5.57569 24.5721 5.47772 24.4076 5.41188C24.2431 5.34604 24.0672 5.31363 23.89 5.31657C23.7129 5.3195 23.5381 5.35771 23.3759 5.42897C23.2137 5.50022 23.0673 5.60309 22.9453 5.73156C22.8233 5.86003 22.7281 6.01153 22.6653 6.17721C22.6025 6.34288 22.5734 6.51941 22.5796 6.69647C22.5858 6.87354 22.6272 7.04759 22.7015 7.20846C22.7757 7.36932 22.8813 7.51378 23.012 7.63338C27.8853 12.2627 27.8853 19.7374 23.012 24.3667C22.8813 24.4863 22.7757 24.6308 22.7015 24.7916C22.6272 24.9525 22.5858 25.1266 22.5796 25.3036C22.5734 25.4807 22.6025 25.6572 22.6653 25.8229C22.7281 25.9886 22.8233 26.1401 22.9453 26.2685C23.0673 26.397 23.2137 26.4999 23.3759 26.5711C23.5381 26.6424 23.7129 26.6806 23.89 26.6835C24.0672 26.6865 24.2431 26.6541 24.4076 26.5882C24.5721 26.5224 24.7218 26.4244 24.848 26.3001C30.828 20.6201 30.828 11.3801 24.848 5.70005ZM20.9187 9.43338C20.6623 9.18974 20.3196 9.05792 19.9661 9.06692C19.6125 9.07592 19.277 9.22501 19.0333 9.48138C18.7897 9.73776 18.6579 10.0804 18.6669 10.434C18.6759 10.7876 18.825 11.1231 19.0813 11.3667C21.784 13.9334 21.784 18.0667 19.0813 20.6334C18.9544 20.754 18.8524 20.8985 18.7813 21.0585C18.7102 21.2186 18.6713 21.391 18.6669 21.5661C18.6624 21.7412 18.6925 21.9154 18.7554 22.0789C18.8182 22.2423 18.9127 22.3918 19.0333 22.5187C19.277 22.7751 19.6125 22.9242 19.9661 22.9332C20.1411 22.9376 20.3154 22.9076 20.4788 22.8447C20.6423 22.7818 20.7917 22.6874 20.9187 22.5667C24.728 18.948 24.728 13.052 20.9187 9.43338Z" fill="#0095FF"/>
</svg>
