<svg width="15" height="16" viewBox="0 0 15 16" fill="none" xmlns="http://www.w3.org/2000/svg">
<path fill-rule="evenodd" clip-rule="evenodd" d="M13.9781 15.1304C14.4783 15.1304 14.8839 14.7249 14.8839 14.2247V9.69567C14.8839 9.19541 14.4783 8.78987 13.9781 8.78987C13.4778 8.78987 13.0723 9.19541 13.0723 9.69567V12.0236L10.0922 9.05255C9.92213 8.88107 9.69061 8.78462 9.44909 8.78462C9.20757 8.78462 8.97605 8.88107 8.80597 9.05255C8.6345 9.22263 8.53804 9.45415 8.53804 9.69567C8.53804 9.93719 8.6345 10.1687 8.80597 10.3388L11.786 13.3189H9.44909C8.94883 13.3189 8.54329 13.7244 8.54329 14.2247C8.54329 14.7249 8.94883 15.1304 9.44909 15.1304H13.9781ZM6.46901 6.71559C6.64049 6.54552 6.73695 6.314 6.73695 6.07248C6.73695 5.83096 6.64049 5.59944 6.46901 5.42936L3.498 2.44929H5.8259C6.32615 2.44929 6.73169 2.04375 6.73169 1.54349C6.73169 1.04323 6.32615 0.637695 5.8259 0.637695H1.29691C0.796653 0.637695 0.391113 1.04323 0.391113 1.54349V6.07248C0.391113 6.57274 0.796653 6.97828 1.29691 6.97828C1.79717 6.97828 2.20271 6.57274 2.20271 6.07248V3.73552L5.18278 6.71559C5.35286 6.88707 5.58438 6.98353 5.8259 6.98353C6.06742 6.98353 6.29893 6.88707 6.46901 6.71559ZM14.8839 1.54349C14.8839 1.04323 14.4783 0.637695 13.9781 0.637695H9.4491C8.94884 0.637695 8.5433 1.04323 8.5433 1.54349C8.5433 2.04375 8.94884 2.44929 9.4491 2.44929H11.777L8.80598 5.42936C8.6345 5.59944 8.53805 5.83096 8.53805 6.07248C8.53805 6.314 8.6345 6.54552 8.80598 6.71559C8.97606 6.88707 9.20758 6.98353 9.4491 6.98353C9.69062 6.98353 9.92214 6.88707 10.0922 6.71559L13.0723 3.73552V6.07248C13.0723 6.57274 13.4778 6.97828 13.9781 6.97828C14.4783 6.97828 14.8839 6.57274 14.8839 6.07248V1.54349ZM6.46902 9.05255C6.29894 8.88107 6.06742 8.78462 5.8259 8.78462C5.58438 8.78462 5.35286 8.88107 5.18279 9.05255L2.20271 12.0236V9.69567C2.20271 9.19541 1.79717 8.78987 1.29692 8.78987C0.796658 8.78987 0.391119 9.19541 0.391119 9.69567V14.2247C0.391119 14.7249 0.796658 15.1304 1.29692 15.1304H5.8259C6.32616 15.1304 6.7317 14.7249 6.7317 14.2247C6.7317 13.7244 6.32616 13.3189 5.8259 13.3189H3.48895L6.46902 10.3388C6.6405 10.1687 6.73695 9.93719 6.73695 9.69567C6.73695 9.45415 6.6405 9.22263 6.46902 9.05255Z" fill="white"/>
</svg>
