<svg width="26" height="24" viewBox="0 0 26 24" fill="none" xmlns="http://www.w3.org/2000/svg">
<path fill-rule="evenodd" clip-rule="evenodd" d="M2.77333 7.99999H2.66667C1.95942 7.99999 1.28115 8.28094 0.781048 8.78104C0.280951 9.28114 0 9.95941 0 10.6667V13.3333C0 14.0406 0.280951 14.7188 0.781048 15.2189C1.28115 15.719 1.95942 16 2.66667 16H2.77333C3.15808 15.9998 3.5383 16.0829 3.8879 16.2436C4.2375 16.4042 4.5482 16.6386 4.79867 16.9307L9.65467 22.5973C10.46 23.536 12 22.9667 12 21.7293V2.27066C12 1.03332 10.46 0.46399 9.65333 1.40399L4.8 7.06799C4.54951 7.36045 4.23865 7.5952 3.8888 7.75609C3.53895 7.91697 3.1584 8.00018 2.77333 7.99999ZM20.848 1.69999C20.7218 1.57563 20.5721 1.47766 20.4076 1.41182C20.2431 1.34598 20.0672 1.31357 19.89 1.31651C19.7129 1.31944 19.5381 1.35765 19.3759 1.42891C19.2137 1.50016 19.0673 1.60303 18.9453 1.7315C18.8233 1.85997 18.7281 2.01147 18.6653 2.17715C18.6025 2.34282 18.5734 2.51935 18.5796 2.69641C18.5858 2.87348 18.6272 3.04753 18.7015 3.20839C18.7757 3.36926 18.8813 3.51372 19.012 3.63332C23.8853 8.26266 23.8853 15.7373 19.012 20.3667C18.8813 20.4863 18.7757 20.6307 18.7015 20.7916C18.6272 20.9524 18.5858 21.1265 18.5796 21.3036C18.5734 21.4806 18.6025 21.6572 18.6653 21.8228C18.7281 21.9885 18.8233 22.14 18.9453 22.2685C19.0673 22.3969 19.2137 22.4998 19.3759 22.5711C19.5381 22.6423 19.7129 22.6805 19.89 22.6835C20.0672 22.6864 20.2431 22.654 20.4076 22.5882C20.5721 22.5223 20.7218 22.4244 20.848 22.3C26.828 16.62 26.828 7.37999 20.848 1.69999ZM16.9187 5.43332C16.6623 5.18968 16.3196 5.05786 15.9661 5.06686C15.6125 5.07586 15.277 5.22495 15.0333 5.48132C14.7897 5.7377 14.6579 6.08036 14.6669 6.43393C14.6759 6.7875 14.825 7.12301 15.0813 7.36666C17.784 9.93332 17.784 14.0667 15.0813 16.6333C14.9544 16.754 14.8524 16.8984 14.7813 17.0585C14.7102 17.2185 14.6713 17.391 14.6669 17.566C14.6624 17.7411 14.6925 17.9153 14.7554 18.0788C14.8182 18.2422 14.9127 18.3917 15.0333 18.5187C15.277 18.775 15.6125 18.9241 15.9661 18.9331C16.1411 18.9376 16.3154 18.9075 16.4788 18.8446C16.6423 18.7818 16.7917 18.6873 16.9187 18.5667C20.728 14.948 20.728 9.05199 16.9187 5.43332Z" fill="#0095FF"/>
</svg>
