<svg width="28" height="27" viewBox="0 0 28 27" fill="none" xmlns="http://www.w3.org/2000/svg">
<path fill-rule="evenodd" clip-rule="evenodd" d="M0.666992 13.3333C0.666992 5.96933 6.63633 0 14.0003 0C21.3643 0 27.3337 5.96933 27.3337 13.3333C27.3337 20.6973 21.3643 26.6667 14.0003 26.6667C6.63633 26.6667 0.666992 20.6973 0.666992 13.3333ZM11.6097 9.05733C11.3582 8.81446 11.0214 8.68006 10.6718 8.6831C10.3222 8.68614 9.98778 8.82637 9.74057 9.07358C9.49336 9.32079 9.35313 9.6552 9.35009 10.0048C9.34706 10.3544 9.48145 10.6912 9.72433 10.9427L12.115 13.3333L9.72433 15.724C9.59698 15.847 9.4954 15.9941 9.42552 16.1568C9.35565 16.3195 9.31886 16.4944 9.31732 16.6715C9.31579 16.8485 9.34952 17.0241 9.41656 17.1879C9.48361 17.3518 9.58261 17.5007 9.7078 17.6259C9.83299 17.7511 9.98186 17.8501 10.1457 17.9171C10.3096 17.9841 10.4852 18.0179 10.6622 18.0163C10.8392 18.0148 11.0142 17.978 11.1769 17.9081C11.3395 17.8383 11.4867 17.7367 11.6097 17.6093L14.0003 15.2187L16.391 17.6093C16.6425 17.8522 16.9793 17.9866 17.3289 17.9836C17.6785 17.9805 18.0129 17.8403 18.2601 17.5931C18.5073 17.3459 18.6475 17.0115 18.6506 16.6619C18.6536 16.3123 18.5192 15.9755 18.2763 15.724L15.8857 13.3333L18.2763 10.9427C18.5192 10.6912 18.6536 10.3544 18.6506 10.0048C18.6475 9.6552 18.5073 9.32079 18.2601 9.07358C18.0129 8.82637 17.6785 8.68614 17.3289 8.6831C16.9793 8.68006 16.6425 8.81446 16.391 9.05733L14.0003 11.448L11.6097 9.05733Z" fill="#FF4C4D"/>
</svg>
